<?xml version="1.0" encoding="UTF-8" standalone="no"?>
<svg
   xmlns:dc="http://purl.org/dc/elements/1.1/"
   xmlns:cc="http://creativecommons.org/ns#"
   xmlns:rdf="http://www.w3.org/1999/02/22-rdf-syntax-ns#"
   xmlns:svg="http://www.w3.org/2000/svg"
   xmlns="http://www.w3.org/2000/svg"
   id="svg8"
   version="1.1"
   viewBox="0 0 210 297"
   height="297mm"
   width="210mm">
  <defs
     id="defs2" />
  <metadata
     id="metadata5">
    <rdf:RDF>
      <cc:Work
         rdf:about="">
        <dc:format>image/svg+xml</dc:format>
        <dc:type
           rdf:resource="http://purl.org/dc/dcmitype/StillImage" />
        <dc:title></dc:title>
      </cc:Work>
    </rdf:RDF>
  </metadata>
  <g
     id="layer1">
    <path
       id="path58"
       d="m 93.930553,275.18466 c -2.762026,-0.10566 -7.128015,-0.60812 -9.165495,-1.0548 -0.451039,-0.0989 -1.818153,-0.35727 -3.038024,-0.57422 -2.634983,-0.46861 -7.081067,-1.5143 -8.635922,-2.03114 -1.672762,-0.55602 -5.870625,-2.38995 -8.152466,-3.56158 -1.114331,-0.57216 -2.536546,-1.26864 -3.160466,-1.54772 -0.623928,-0.27909 -1.493937,-0.71358 -1.93335,-0.96553 -1.33579,-0.76593 -4.974596,-3.20662 -6.036568,-4.04896 -2.841497,-2.25386 -7.017412,-6.34907 -8.956165,-8.78311 -1.761038,-2.21092 -2.289357,-2.93291 -3.06824,-4.19299 -1.510042,-2.44296 -2.162576,-4.09899 -3.533,-8.96617 -0.608213,-2.16014 -1.255461,-4.39579 -2.125787,-7.34261 -0.493143,-1.66972 -2.172667,-8.41429 -2.546659,-10.22676 -0.317897,-1.54064 -0.416305,-1.8525 -0.872004,-2.76351 -0.959619,-1.9184 -1.367907,-2.92667 -2.964092,-7.31987 -1.792328,-4.933 -2.13442,-5.99756 -2.898399,-9.01944 -1.654045,-6.54254 -3.214358,-14.83055 -3.587231,-19.05459 -0.08197,-0.9286 -0.255746,-2.57839 -0.386156,-3.66619 -0.130411,-1.0878 -0.279645,-2.68959 -0.331637,-3.55953 -0.0664,-1.11114 -0.134995,-1.62781 -0.230574,-1.73662 -0.200677,-0.22846 -0.586119,-1.02755 -1.01329,-2.10073 -0.362471,-0.91062 -0.872381,-2.46956 -2.459488,-7.51933 -1.149265,-3.65667 -2.754028,-7.40749 -5.155361,-12.04964 -0.662434,-1.2806 -2.83863,-6.52693 -3.241592,-7.81479 -0.644543,-2.05995 -1.07901,-5.0997 -1.310013,-9.16549 -0.259585,-4.56889 -0.313363,-5.29602 -0.492341,-6.65705 -0.104671,-0.79595 -0.373853,-2.18525 -0.59818,-3.08733 -0.375082,-1.50828 -0.407791,-1.74097 -0.406859,-2.89437 8.21e-4,-1.05513 0.0347,-1.34384 0.213247,-1.81884 0.550344,-1.46415 1.991446,-3.10551 3.302436,-3.76138 1.646124,-0.82352 3.696684,-0.7025 6.120949,0.36126 l 0.492639,0.21617 0.128502,-0.63417 c 0.0792,-0.39085 0.158689,-1.87421 0.207196,-3.8662 0.1623,-6.66532 0.919195,-13.08511 2.270892,-19.261253 1.431139,-6.53906 3.676155,-14.102378 5.351192,-18.027838 1.295152,-3.03521 4.739836,-9.88766 5.99929,-11.93428 2.514076,-4.08543 4.755454,-7.26153 7.407765,-10.49707 2.144291,-2.61581 3.345956,-3.90992 6.013144,-6.47574 4.314729,-4.15074 7.954396,-7.08425 12.841794,-10.35025 1.320023,-0.88211 2.774444,-1.90169 3.232042,-2.26573 1.654113,-1.31592 2.865415,-1.98282 5.890154,-3.24287 0.964382,-0.40173 2.311384,-0.98866 2.993326,-1.30427 1.427441,-0.66064 4.120584,-1.72751 5.088325,-2.01572 1.50015,-0.44676 7.856133,-1.70187 10.015127,-1.97766 4.214998,-0.53844 12.313889,-0.68825 16.353166,-0.3025 5.32837,0.50886 14.61242,1.81091 18.96513,2.65979 2.90781,0.56708 4.37783,0.9844 8.1496,2.31357 4.46438,1.57323 5.72456,2.1213 9.3543,4.06827 1.14086,0.61197 3.02076,1.6201 4.17755,2.24032 1.9858,1.06468 6.50741,3.72766 8.93505,5.26224 1.32652,0.83854 4.4874,3.21786 5.98725,4.50685 1.90355,1.63594 5.2063,5.04293 7.08499,7.30863 3.81252,4.59789 8.71183,11.84219 11.16376,16.50712 0.79646,1.51531 1.35148,2.8006 2.20811,5.11338 1.90489,5.1429 3.15765,9.595068 4.57433,16.256688 1.3821,6.49895 1.60447,8.337023 1.745,14.423603 0.0622,2.6925 -0.0166,4.04113 -0.34137,5.84461 -0.22927,1.27305 -0.39023,2.28013 -0.67684,4.23467 -0.11261,0.76788 -0.31,1.72941 -0.43867,2.13669 -0.12867,0.40729 -0.29939,1.17832 -0.37941,1.7134 -0.20431,1.36649 -0.49545,2.73855 -0.66945,3.15498 -0.0813,0.1945 -0.14824,0.59799 -0.14884,0.89662 -9.1e-4,0.32773 -0.11353,0.90322 -0.28473,1.4517 l -0.28369,0.90872 0.51048,0.55137 c 0.68209,0.73673 1.29917,1.67615 1.43525,2.18496 0.061,0.22819 0.15145,0.41489 0.20093,0.41489 0.0494,0 0.59401,-0.19107 1.21009,-0.4246 3.564,-1.35096 6.66212,-2.08021 8.83846,-2.08041 1.28552,0 2.08475,0.18393 3.28185,0.75577 2.5634,1.22451 3.87438,2.52602 5.12169,5.08465 1.25004,2.56423 1.6458,7.54615 0.89619,11.28114 -0.23696,1.18064 -1.29962,4.444 -1.9164,5.88521 -0.92833,2.16911 -2.75648,5.09281 -6.90588,11.04432 -1.09042,1.56398 -2.37815,3.53938 -2.86162,4.38978 -0.48349,0.8504 -1.24876,2.1323 -1.70063,2.84865 -0.45185,0.71636 -1.15657,1.86687 -1.56602,2.55669 -0.40947,0.68983 -1.07813,1.77522 -1.48594,2.41198 -0.40781,0.63676 -1.24281,2.1563 -1.85558,3.37676 -0.61276,1.22046 -1.4425,2.78342 -1.84386,3.47324 -1.37006,2.35475 -2.91883,5.90566 -3.62968,8.32191 -0.45373,1.54227 -1.15488,3.56809 -1.49312,4.31408 -0.85138,1.87767 -2.66097,3.73216 -4.59101,4.70493 -0.74676,0.37637 -2.20044,0.84534 -2.62033,0.84534 h -0.37843 l -0.41704,1.47131 c -2.02369,7.13966 -2.78543,10.02314 -3.29423,12.4699 -0.22068,1.06127 -0.50248,2.32097 -0.6262,2.79935 -0.44676,1.72733 -1.70937,5.60828 -2.83204,8.70498 -1.85351,5.11261 -2.50071,6.91329 -3.16448,8.80447 -0.90726,2.58496 -1.4741,3.95133 -2.54156,6.12642 -1.00183,2.04141 -1.15179,2.28447 -4.47622,7.25558 -2.82976,4.2314 -3.33762,4.91088 -5.93449,7.93984 -0.61416,0.71636 -1.44186,1.6932 -1.83934,2.17078 -1.75171,2.1047 -2.86425,3.1743 -5.01614,4.82248 -0.71636,0.54867 -1.78003,1.37228 -2.36373,1.83022 -0.5837,0.45794 -1.49542,1.12842 -2.02606,1.48991 -1.67564,1.14157 -5.23741,3.27621 -7.13944,4.2788 -1.0082,0.53144 -2.1153,1.12902 -2.46021,1.32793 -2.83762,1.6365 -5.47205,2.40578 -10.93937,3.19444 -4.21409,0.60787 -4.50608,0.6405 -6.76451,0.7559 -1.16739,0.0597 -2.86032,0.17266 -3.76207,0.25112 -1.86712,0.16247 -5.655197,0.33425 -6.947077,0.31506 -0.47757,-0.007 -1.75833,-0.0469 -2.84613,-0.0886 z m 6.512327,-2.21132 c 0.95514,-0.0517 2.47468,-0.15863 3.37676,-0.23751 0.90207,-0.0788 2.68211,-0.20894 3.95563,-0.289 1.27352,-0.0801 2.83648,-0.23071 3.47324,-0.33475 0.63676,-0.10405 1.96093,-0.30139 2.94261,-0.43852 2.14306,-0.29937 2.91487,-0.44504 4.64786,-0.87719 2.54609,-0.6349 3.19141,-0.90356 6.15777,-2.56354 0.71636,-0.40086 1.79098,-0.99738 2.38806,-1.32556 1.22975,-0.67597 4.55729,-2.73034 5.85902,-3.61727 0.47654,-0.3247 1.60969,-1.17647 2.5181,-1.89282 0.9084,-0.71636 2.10381,-1.65762 2.65646,-2.09171 1.35793,-1.06664 2.31624,-2.03341 4.32323,-4.36141 3.99147,-4.62991 4.03205,-4.68353 7.711,-10.18949 2.58107,-3.86289 2.92578,-4.42748 3.82875,-6.27113 1.10737,-2.26099 1.79002,-3.94265 3.21149,-7.91127 3.6799,-10.27392 3.42149,-9.5115 4.41441,-13.02465 0.44991,-1.5919 0.97328,-3.63243 1.16304,-4.53451 0.63504,-3.01892 1.20623,-5.0915 3.41668,-12.39754 1.00485,-3.32126 1.52507,-5.82671 2.25847,-10.87708 0.23701,-1.63219 0.60268,-4.13986 0.81257,-5.57257 0.46073,-3.14507 0.47292,-3.26178 0.59394,-5.69225 0.24329,-4.88598 0.30088,-5.9092 0.43172,-7.67008 0.0769,-1.03473 0.24785,-2.51086 0.3799,-3.28028 0.13204,-0.76942 0.32915,-2.24554 0.43805,-3.28028 0.10888,-1.03474 0.26094,-2.40233 0.33791,-3.03909 0.0863,-0.7142 0.1413,-2.0818 0.14352,-3.56971 0.004,-2.65806 0.21414,-6.76141 0.4423,-8.63486 0.4348,-3.57018 1.41494,-8.29649 2.25388,-10.86835 0.33431,-1.02486 1.61457,-4.38512 2.04031,-5.35513 0.1604,-0.36547 0.26746,-0.70364 0.2379,-0.75147 -0.0296,-0.0478 -0.19435,-0.11754 -0.36621,-0.15491 -0.17185,-0.0373 -2.13589,-0.67169 -4.36456,-1.40961 -6.38315,-2.11348 -10.95155,-3.54564 -12.78345,-4.00752 -2.56689,-0.64719 -3.85627,-0.59016 -5.35104,0.23668 -0.56839,0.31441 -1.442,1.31793 -1.82082,2.09159 -0.62849,1.28352 -1.98742,6.03591 -2.23645,7.82117 -0.33486,2.40055 -0.98781,5.68264 -1.36278,6.85001 -0.25967,0.80845 -1.74151,4.23689 -2.39451,5.54 -1.39906,2.79198 -2.72777,4.82511 -3.7545,5.74494 -1.73688,1.55604 -3.54574,2.90034 -4.65453,3.45914 -1.75814,0.88603 -6.49523,2.02301 -9.1413,2.19407 -1.39264,0.0901 -3.96467,-0.0124 -5.0295,-0.20029 -0.31838,-0.0562 -1.21069,-0.14198 -1.98292,-0.19065 -1.61407,-0.10175 -4.00366,-0.57829 -5.2837,-1.05372 -0.44139,-0.16393 -0.8864,-0.29806 -0.98891,-0.29806 -0.10249,0 -0.56625,-0.12239 -1.03055,-0.27197 -0.94993,-0.30602 -3.49441,-1.7619 -5.04104,-2.88431 -1.22622,-0.8899 -1.22944,-0.89134 -0.90108,-0.40422 0.6577,0.97575 1.73638,3.26932 2.54238,5.40586 0.83619,2.21653 0.73164,4.39318 -0.33553,6.986 -0.81805,1.98758 -1.8107,3.10015 -3.58772,4.02119 -0.57561,0.29835 -1.31333,0.61108 -1.63936,0.69495 -1.55022,0.39879 -2.92869,-0.0334 -2.92869,-0.91843 0,-0.36717 0.15532,-0.45376 1.11371,-0.62089 2.18694,-0.38137 4.30001,-1.77977 5.13836,-3.40047 0.72094,-1.39378 1.15965,-3.26107 1.04057,-4.42905 -0.0771,-0.7564 -0.43135,-1.84547 -0.91214,-2.80443 -0.20603,-0.41091 -0.53559,-1.18128 -0.73236,-1.71191 -0.42823,-1.1548 -1.06644,-2.45158 -1.57962,-3.2096 -0.7145,-1.0554 -0.80793,-1.33967 -0.53124,-1.61635 0.15708,-0.15709 0.41643,-0.15375 0.84216,0.0109 0.10373,0.0401 -0.064,-0.22311 -0.38834,-0.6094 -1.68521,-2.00706 -4.72736,-7.7635 -5.87755,-11.12164 -0.915897,-2.67412 -1.642907,-5.2736 -1.962207,-7.01605 -0.74463,-4.06365 -1.76115,-6.96659 -2.83831,-8.10553 -0.6271,-0.66306 -1.5838,-1.29785 -2.38204,-1.58056 -0.541123,-0.19164 -0.812317,-0.22196 -1.97782,-0.22107 -0.746254,9e-4 -1.88374,0.0754 -2.541834,0.16714 -1.039549,0.14498 -1.315806,0.22531 -2.170775,0.63123 -1.102705,0.52354 -1.211609,0.63732 -1.850417,1.93323 -0.984171,1.99656 -1.546566,3.92702 -2.212,7.59281 -0.768174,4.23179 -1.936255,8.05128 -3.594747,11.75437 -0.80799,1.8041 -2.295404,4.2406 -3.419325,5.60113 -0.263321,0.31877 -0.834429,1.0861 -1.269133,1.70517 -0.434705,0.61909 -1.214979,1.68276 -1.733949,2.36373 -1.021209,1.33999 -1.718327,2.5988 -2.154982,3.89131 -0.242432,0.71762 -0.276738,0.95868 -0.274626,1.92957 0.0022,1.02895 0.02579,1.16808 0.324083,1.91607 0.342847,0.85966 1.43249,2.4191 2.099593,3.00483 0.500262,0.43923 1.234718,0.74218 2.227379,0.91875 1.279041,0.2275 1.611411,0.34745 1.646537,0.59423 0.07647,0.53723 -1.130586,0.73752 -2.858783,0.47433 -1.665922,-0.25369 -2.308212,-0.63048 -3.290395,-1.93025 -0.773048,-1.023 -1.060063,-1.56641 -1.463681,-2.77111 -0.911852,-2.72171 -0.04394,-5.7517 2.496672,-8.71609 0.271413,-0.3167 0.483945,-0.58533 0.4723,-0.59699 -0.01165,-0.0117 -0.382007,0.10651 -0.823002,0.26256 -1.58016,0.55918 -3.529198,0.97355 -5.465258,1.16193 -2.856423,0.27795 -9.742749,-0.29976 -13.432796,-1.1269 -2.673951,-0.59937 -5.897495,-1.80447 -8.879522,-3.31956 -2.915747,-1.48141 -4.06158,-2.29859 -6.153704,-4.38871 -1.969838,-1.96794 -2.384311,-2.51009 -3.505984,-4.58591 -1.678839,-3.10696 -1.931122,-3.78376 -2.795004,-7.4982 -0.703484,-3.02478 -1.001461,-4.74145 -1.268909,-7.31033 -0.292477,-2.80933 -0.442395,-3.27914 -1.231409,-3.85914 -0.528416,-0.38843 -1.750523,-1.03899 -2.240781,-1.19282 -0.18572,-0.0583 -1.097445,-0.2179 -2.026056,-0.35472 -1.836291,-0.27057 -3.012391,-0.53063 -3.470183,-0.76737 -0.292348,-0.15118 -0.292493,-0.15112 -0.292493,0.12137 0,0.32459 -0.155524,0.50416 -0.436635,0.50416 -0.272109,0 -0.571357,-0.33517 -0.775228,-0.86831 -0.191849,-0.50171 -1.234909,-1.62829 -1.84018,-1.98752 -0.219374,-0.13021 -0.848898,-0.39541 -1.398944,-0.58933 -0.96229,-0.33927 -1.05111,-0.35285 -2.350777,-0.35918 -1.205097,-0.006 -1.392305,0.0157 -1.73662,0.20067 -1.038009,0.55744 -2.080829,1.71356 -2.47039,2.7388 -0.268304,0.70612 -0.245553,1.86329 0.059,3.00086 0.944016,3.52609 1.113488,4.77203 1.44827,10.64747 0.247746,4.34792 0.646986,7.24032 1.24008,8.98409 0.321114,0.94412 2.202336,5.46714 2.805821,6.74605 0.276497,0.58595 0.831658,1.64962 1.233704,2.36373 0.821971,1.46001 1.186546,2.25023 2.535244,5.49522 0.955846,2.2998 1.719592,4.49051 2.690806,7.71831 0.295379,0.98168 0.686748,2.24072 0.869689,2.79789 l 0.33264,1.01302 0.005,-0.91654 c 0.0092,-1.67348 -0.185373,-6.29797 -0.326707,-7.76655 -0.07659,-0.79595 -0.187785,-2.14183 -0.247092,-2.99085 -0.05931,-0.84901 -0.194606,-2.2166 -0.300676,-3.03909 -0.376103,-2.91638 -0.340637,-4.83857 0.127257,-6.89823 0.172754,-0.76047 0.194926,-1.15502 0.178456,-3.17648 l -0.01879,-2.30816 -0.517861,-1.81151 c -0.284825,-0.99634 -0.586206,-2.28039 -0.669728,-2.85346 -0.689351,-4.72979 -0.728445,-4.90815 -1.450494,-6.61776 -1.153452,-2.73107 -2.822584,-5.12523 -5.715264,-8.19781 -0.621616,-0.66028 -0.795951,-0.90707 -0.795951,-1.12674 0,-0.68368 0.687341,-0.77718 1.637217,-0.22271 1.097304,0.64054 3.229892,2.95252 4.900879,5.31318 0.866853,1.22462 2.245999,3.88641 2.672784,5.15854 0.311509,0.92852 0.744053,2.95872 1.01155,4.74783 0.111078,0.74289 0.357976,2.19731 0.548668,3.23204 0.311733,1.69152 0.340791,1.98841 0.287951,2.94261 -0.08333,1.50483 -0.21399,2.52906 -0.393839,3.08733 -0.08548,0.26531 -0.217936,1.01492 -0.294355,1.66579 -0.07642,0.65088 -0.188115,1.27529 -0.248222,1.38758 -0.223966,0.41848 -0.135475,3.05048 0.181158,5.38853 0.161689,1.19393 0.322481,2.60493 0.35732,3.13556 0.03482,0.53064 0.12327,1.52919 0.196517,2.21901 0.286947,2.70211 0.336413,3.53447 0.4787,8.05599 0.08099,2.57358 0.187951,5.13509 0.237704,5.69226 0.246726,2.76318 0.314561,3.44456 0.485028,4.87218 0.101373,0.84902 0.232806,2.21661 0.292062,3.03909 0.295728,4.10451 1.574863,11.23002 3.238709,18.04156 0.8461,3.4638 1.296842,4.95232 2.606089,8.60633 0.614031,1.71372 1.3111,3.68025 1.549055,4.37007 0.237955,0.68983 0.76143,2.03481 1.163284,2.98885 0.832333,1.97604 2.08823,5.33242 2.298349,6.14233 0.194666,0.75033 0.17949,1.00964 -0.06928,1.18389 l -0.210575,0.1475 0.890906,3.01766 c 0.489998,1.65972 1.255141,4.14647 1.700334,5.52611 0.445193,1.37965 1.314572,4.13654 1.93197,6.12641 1.43963,4.63995 1.523057,4.8799 2.092802,6.01891 1.904947,3.80833 5.519828,8.08636 11.031879,13.05568 1.530126,1.37946 2.86633,2.42192 4.320527,3.37072 0.698488,0.45573 1.725844,1.13193 2.28301,1.50266 0.557165,0.37073 1.577428,0.94091 2.267255,1.2671 0.689824,0.32617 2.252782,1.09883 3.473237,1.71703 2.288799,1.15932 6.549711,3.01302 8.138516,3.54062 1.491024,0.49513 5.811128,1.51046 8.069941,1.89663 0.795951,0.13608 2.185247,0.39662 3.087325,0.57896 4.426065,0.89467 10.446709,1.28653 15.533096,1.01096 z M 88.14182,252.69955 c -3.061296,-0.0885 -5.0731,-0.33197 -7.948519,-0.96178 -1.749395,-0.38318 -2.561283,-0.67671 -5.056286,-1.82807 -2.380819,-1.09868 -2.590874,-1.22059 -4.3517,-2.52572 -2.383898,-1.76696 -3.224036,-2.41135 -4.93041,-3.78172 -0.928764,-0.74587 -2.230351,-1.72518 -2.892407,-2.17621 -0.662057,-0.45105 -1.541088,-1.14586 -1.953408,-1.54403 -0.617428,-0.59627 -0.74967,-0.77658 -0.74967,-1.0222 0,-0.42093 0.289271,-0.65851 0.717232,-0.58906 0.341602,0.0554 3.752161,1.80744 4.697182,2.41296 0.285471,0.18291 1.462765,1.00003 2.616198,1.81579 3.202839,2.26522 5.276345,3.66472 5.862349,3.95676 1.28071,0.63826 4.259976,1.85379 5.059554,2.06426 2.246137,0.59124 5.080591,0.90331 8.881645,0.97785 2.369261,0.0465 3.130664,0.0277 4.196834,-0.10334 2.116939,-0.26021 3.575969,-0.60071 6.029929,-1.40721 1.27352,-0.41854 2.849017,-0.91645 3.501107,-1.10646 0.65209,-0.19002 1.65065,-0.52287 2.21902,-0.73966 0.56836,-0.2168 1.40194,-0.5248 1.8524,-0.68444 1.3037,-0.46206 3.10263,-1.41587 4.87325,-2.58388 2.54521,-1.67898 5.53374,-3.02896 6.98575,-3.15559 0.45637,-0.0398 0.59168,-0.0117 0.87728,0.18261 0.48452,0.32954 0.59567,0.82442 0.3067,1.36575 -0.36246,0.67903 -1.75965,1.72041 -3.74232,2.78927 -0.64259,0.34644 -1.84715,1.08753 -2.67679,1.64687 -1.76035,1.18683 -3.85565,2.2761 -5.57308,2.89724 -0.66964,0.24219 -1.55166,0.57308 -1.96005,0.73531 -0.40839,0.16222 -1.48858,0.51368 -2.40043,0.78102 -0.91185,0.26734 -2.50451,0.76816 -3.539247,1.11294 -1.97033,0.65652 -3.87286,1.09061 -5.83697,1.33179 -1.533832,0.18835 -2.469148,0.21402 -5.065143,0.13895 z m 23.25141,-50.29609 c -0.76942,-0.11909 -1.63773,-0.27133 -1.92958,-0.3383 -0.29185,-0.067 -1.2687,-0.15581 -2.17077,-0.19747 -0.90208,-0.0417 -2.64836,-0.1267 -3.88062,-0.18901 -1.63496,-0.0826 -2.51951,-0.0852 -3.27292,-0.009 -0.567837,0.0571 -1.405057,0.1039 -1.860467,0.1039 -0.45542,0 -1.37045,0.062 -2.03342,0.13777 -1.67726,0.19171 -5.446209,0.22267 -9.21314,0.0757 -3.366341,-0.13137 -5.073449,-0.31871 -6.833146,-0.7499 -1.950553,-0.47796 -4.074352,-0.56171 -6.191505,-0.24416 -0.371443,0.0557 -1.239753,0.14459 -1.92958,0.1975 -0.689824,0.0529 -1.648022,0.18274 -2.129337,0.28848 -0.481303,0.10575 -1.458151,0.2604 -2.170775,0.34367 -0.71261,0.0833 -1.705216,0.21729 -2.205776,0.29783 -0.684296,0.1101 -1.282766,0.13111 -2.411974,0.0846 -1.676686,-0.069 -2.067647,-0.15173 -2.285102,-0.48362 -0.158495,-0.24188 -0.106002,-0.61274 0.09027,-0.63779 0.21131,-0.0269 0.685456,-0.0597 2.381352,-0.1642 0.928608,-0.0572 1.862043,-0.14852 2.074297,-0.20282 0.212252,-0.0543 1.133627,-0.20737 2.047502,-0.34015 0.913869,-0.13278 2.042672,-0.32608 2.508453,-0.42957 0.46577,-0.10349 1.541509,-0.23598 2.390525,-0.29443 0.849013,-0.0585 1.739033,-0.15035 1.977817,-0.20421 0.238786,-0.0539 1.432711,-0.12185 2.65317,-0.15107 1.81115,-0.0434 2.387475,-0.0238 3.135565,0.10668 1.784146,0.31104 4.701637,0.61966 6.415845,0.67871 0.955142,0.0329 2.387854,0.10138 3.183805,0.15219 0.937039,0.0598 2.331423,0.0584 3.955632,-0.004 7.502819,-0.28852 8.016439,-0.29868 9.792609,-0.19362 0.98167,0.058 2.47789,0.14607 3.32491,0.19555 0.84703,0.0494 1.97583,0.17751 2.50845,0.28452 1.08855,0.21871 3.15904,0.50183 5.29439,0.72395 1.43105,0.14887 1.73785,0.22585 1.82309,0.45743 0.1357,0.36864 -0.13429,0.51429 -1.40069,0.7556 -1.22345,0.23312 -1.86504,0.22425 -3.63888,-0.0504 z M 89.237684,171.72675 c -2.130609,-0.50522 -3.564961,-1.11311 -5.87157,-2.48842 -2.161135,-1.28858 -5.077694,-2.80374 -6.07353,-3.15522 -0.746552,-0.2635 -0.96061,-0.29652 -1.922611,-0.29652 -1.167298,0 -1.314071,-0.0541 -1.314071,-0.48487 0,-0.51666 0.779895,-0.92925 1.94703,-1.03001 0.483223,-0.0418 0.880264,-9e-4 1.586171,0.16194 1.007694,0.23286 2.686571,1.04191 6.597081,3.17914 4.327061,2.36489 7.288297,2.92414 9.716259,1.83499 0.57929,-0.25987 2.51027,-1.53612 4.34162,-2.86954 1.931677,-1.40648 3.890337,-2.30683 4.803747,-2.20817 1.39835,0.15106 2.06409,0.48076 1.94321,0.96238 -0.0488,0.19455 -0.14856,0.27403 -0.42465,0.33842 -1.37829,0.32146 -1.7991,0.45469 -2.48335,0.78629 -1.0098,0.48935 -1.99586,1.13974 -3.289657,2.16983 -1.17174,0.93289 -3.04109,2.22647 -3.70321,2.56258 -1.12937,0.57329 -1.69645,0.69841 -3.330374,0.73481 -1.368998,0.0305 -1.654373,0.008 -2.522095,-0.19763 z m 81.686386,24.98523 c 0.39983,-0.16841 0.98593,-0.48304 1.30246,-0.69917 0.81549,-0.55684 1.97522,-1.79498 2.40418,-2.56672 0.22102,-0.39761 0.73756,-1.78808 1.30818,-3.52149 0.5186,-1.57542 1.13718,-3.36369 1.3746,-3.97392 0.60893,-1.56507 1.78029,-4.02748 2.77664,-5.83697 0.46749,-0.84901 1.18123,-2.28173 1.5861,-3.1838 0.86736,-1.93258 1.14177,-2.44691 2.26483,-4.24508 1.08171,-1.73197 2.59315,-4.25167 4.19579,-6.99472 0.69755,-1.19392 2.54812,-4.08105 4.11236,-6.41584 4.25694,-6.3539 5.11783,-7.74616 5.80415,-9.38684 0.5159,-1.23324 1.39013,-3.82574 1.61716,-4.79556 0.50652,-2.16378 0.63636,-4.9032 0.34751,-7.33239 -0.17741,-1.49211 -0.40774,-2.36434 -0.91327,-3.45855 -0.75454,-1.6332 -1.61012,-2.59076 -3.11367,-3.48475 -1.57528,-0.93666 -2.35451,-1.10856 -4.1827,-0.92273 -1.08957,0.11075 -2.78615,0.45431 -3.90339,0.79045 -3.29062,0.99001 -5.27989,1.67305 -5.45506,1.87304 -0.58511,0.66798 -1.22955,0.75863 -2.64147,0.37163 -0.49764,-0.13641 -0.93935,-0.21235 -0.98153,-0.16877 -0.20746,0.21433 -1.99714,5.02792 -2.45034,6.59055 -0.96602,3.33073 -1.90541,8.74105 -2.17792,12.54328 -0.0589,0.82248 -0.14523,3.1235 -0.19174,5.11339 -0.0618,2.64563 -0.13532,3.99391 -0.27346,5.01689 -0.1039,0.76943 -0.23837,1.94165 -0.29882,2.60494 -0.0605,0.66329 -0.21507,1.85973 -0.3436,2.65877 -0.36412,2.26366 -0.42575,3.12761 -0.77736,10.89651 -0.15583,3.44298 -0.20906,3.95117 -0.8136,7.76655 -0.20598,1.30005 -0.5099,3.31888 -0.67536,4.48627 -0.2705,1.90852 -0.88001,5.74418 -1.02487,6.44957 -0.0664,0.32306 -0.0518,0.32079 1.1242,-0.17454 z m 4.27681,-24.50546 c -0.257,-0.18001 -0.56376,-0.89745 -0.71509,-1.6724 -0.16801,-0.86039 -0.0683,-3.03908 0.18274,-3.98967 0.19408,-0.73506 0.39729,-1.19505 1.3365,-3.02511 0.78209,-1.5239 0.84983,-1.96422 0.83131,-5.40282 -0.008,-1.5919 -0.0624,-3.52389 -0.1196,-4.29331 -0.29168,-3.92292 -0.32493,-4.85404 -0.2109,-5.90544 0.17706,-1.63244 1.01134,-4.58641 1.69931,-6.01675 0.86181,-1.79179 3.04139,-3.92079 5.91331,-5.77608 1.96235,-1.26771 4.62239,-2.00605 7.25578,-2.01396 1.74712,-0.005 2.89687,0.44269 4.03562,1.5723 1.26966,1.25945 1.57017,2.60683 0.58143,2.60683 -0.20506,0 -0.49081,-0.15745 -0.97903,-0.53947 -1.31109,-1.02584 -1.8069,-1.15137 -4.24377,-1.07436 -1.2495,0.0395 -1.8435,0.10198 -2.39542,0.25201 -2.36471,0.64279 -4.59908,2.00568 -6.6528,4.05798 -0.94324,0.9426 -1.28886,1.36102 -1.55833,1.88659 -0.43166,0.84185 -0.84137,2.00135 -1.19346,3.37751 -0.23606,0.9226 -0.27071,1.23617 -0.26646,2.41122 0.003,0.74288 0.10283,2.32755 0.22254,3.52148 0.17473,1.74263 0.22037,2.82725 0.23138,5.49929 0.0181,4.40388 -0.0937,4.95338 -1.44759,7.11014 -1.28003,2.03913 -1.56374,3.0051 -1.64597,5.60406 -0.0491,1.55172 -0.0668,1.67718 -0.25495,1.80898 -0.25316,0.17731 -0.35456,0.17747 -0.60655,9e-4 z M 130.1741,157.927 c 3.50792,-0.37021 6.29683,-1.05294 8.18498,-2.0037 0.89422,-0.45028 2.39509,-1.87509 3.36959,-3.19881 0.66027,-0.89688 1.75131,-2.64384 1.99442,-3.19343 0.39522,-0.89347 1.52457,-4.22094 1.82257,-5.36993 0.17,-0.65549 0.49572,-1.7779 0.7238,-2.49426 0.2281,-0.71636 0.46619,-1.56296 0.5291,-1.88134 0.0629,-0.31838 0.22264,-0.9262 0.35494,-1.35071 0.1531,-0.49125 0.27237,-1.18645 0.32809,-1.91241 0.0481,-0.62731 0.1342,-1.51614 0.19124,-1.97515 0.11357,-0.914 0.0778,-1.48395 -0.20703,-3.29845 -0.10397,-0.66237 -0.25165,-1.65037 -0.32818,-2.19554 -0.16074,-1.14509 -0.93495,-3.62902 -1.50032,-4.81355 -0.31479,-0.65955 -0.53039,-0.93875 -1.35327,-1.75248 l -0.97882,-0.96794 -0.41674,0.17863 c -1.19762,0.51337 -1.97085,0.4683 -4.19524,-0.24452 -4.75749,-1.52456 -9.69252,-2.20827 -15.85167,-2.19615 -3.11661,0.006 -5.0635,0.14528 -7.34798,0.52518 -2.82284,0.46942 -3.89588,0.66433 -4.91042,0.89192 -0.59652,0.13381 -1.79114,0.33643 -2.6547,0.45024 -1.51109,0.19916 -1.59543,0.20079 -2.24395,0.0431 -0.76877,-0.18685 -0.64271,-0.25548 -1.32419,0.72093 -0.44706,0.64056 -1.46658,2.65951 -1.6808,3.32852 -0.31312,0.97783 -0.83332,3.51651 -0.93046,4.54077 -0.26962,2.84335 -0.15125,3.5907 1.56529,9.88283 0.39809,1.45924 0.7741,2.87025 0.83556,3.13556 0.0615,0.26532 0.41915,1.43754 0.79485,2.60493 1.25404,3.89655 2.92075,6.71769 5.30235,8.97497 0.39332,0.37277 0.86636,0.74834 1.05122,0.83459 2.44264,1.13965 3.49818,1.53539 5.20828,1.95265 1.3075,0.31902 1.93901,0.41065 3.76268,0.54594 0.82248,0.061 2.19007,0.16582 3.03908,0.23289 2.17251,0.17162 5.26364,0.17372 6.86573,0.005 z m -7.34812,-19.97797 c -1.81444,-0.29708 -3.12752,-0.73704 -5.06514,-1.69717 -1.75517,-0.86969 -2.56928,-1.38727 -3.97411,-2.52652 -0.92281,-0.74837 -2.6277,-1.86133 -3.65081,-2.38329 -0.41672,-0.2126 -0.86523,-0.87498 -0.86523,-1.27784 0,-0.47544 0.42242,-0.795 2.29312,-1.7347 1.78072,-0.89449 2.80433,-1.27844 4.69967,-1.76277 2.04687,-0.52306 5.87323,-0.54148 8.29912,-0.04 1.32654,0.27426 3.37712,0.96892 4.53451,1.53613 2.35319,1.15325 5.0363,3.25337 6.47354,5.06695 0.35684,0.45028 0.70609,0.8187 0.77611,0.8187 0.13713,0 0.18546,0.16429 0.27027,0.91863 0.0853,0.75885 -0.29763,1.15032 -0.73663,0.75304 -0.16736,-0.15147 -0.19517,-0.149 -0.45061,0.0399 -0.37107,0.27435 -2.45922,1.31463 -3.3457,1.66679 -0.39741,0.15786 -1.25377,0.40005 -1.90301,0.5382 -1.04759,0.22289 -1.44648,0.25509 -3.54418,0.28605 -2.15242,0.0317 -2.49312,0.0137 -3.81092,-0.20208 z m 5.46235,-1.25064 c 2.52231,-0.22365 3.26414,-0.4253 5.24681,-1.42612 1.56589,-0.79044 1.49761,-0.68057 0.88293,-1.42058 -0.67234,-0.80942 -2.32985,-2.30618 -3.22035,-2.90803 -0.67104,-0.45352 -0.69882,-0.46303 -0.73871,-0.25272 -0.48859,2.57633 -1.07112,3.60171 -2.61919,4.61032 -0.96296,0.6274 -1.82702,0.88917 -3.11014,0.94224 -2.04401,0.0845 -3.06554,-0.31558 -4.51013,-1.76657 -0.97721,-0.98155 -1.45158,-1.76647 -1.77677,-2.93997 -0.41151,-1.48498 -0.13797,-3.0188 0.72023,-4.03873 l 0.25512,-0.3032 -0.61157,9.1e-4 c -1.46524,0.002 -3.78848,0.62657 -6.4313,1.72966 -1.02525,0.42793 -1.8991,0.77806 -1.94189,0.77806 -0.0428,0 -0.13183,0.0651 -0.19789,0.14471 -0.19157,0.23084 -0.005,0.37168 1.61262,1.21992 0.8182,0.42893 1.8212,1.02699 2.22888,1.329 1.85176,1.3718 3.49831,2.32002 5.44439,3.13536 1.82759,0.76568 3.07717,1.05468 5.23419,1.2105 1.52448,0.11012 1.83189,0.10624 3.53277,-0.0446 z m -2.79305,-2.13296 c 0.50787,-0.11552 0.86821,-0.28208 1.41536,-0.65423 1.32943,-0.90423 1.78267,-1.77635 1.79375,-3.45153 0.004,-0.56577 -0.0217,-1.05732 -0.0564,-1.09236 -0.12305,-0.12389 -1.87941,-0.84646 -2.83111,-1.16472 -1.19066,-0.39816 -3.12123,-0.79514 -4.26003,-0.87598 l -0.85596,-0.0607 -0.37158,0.41128 c -0.62823,0.69538 -0.88013,1.35865 -0.87951,2.31579 0.001,0.76421 0.0282,0.87805 0.40725,1.67166 0.65841,1.37859 2.09527,2.68807 3.25417,2.96569 0.52384,0.12549 1.68625,0.0939 2.38411,-0.0648 z m -2.16906,-2.25864 c -0.68646,-0.20604 -1.32031,-1.03665 -1.32031,-1.73014 0,-0.71904 0.5172,-1.64326 1.09163,-1.95068 0.85181,-0.45588 1.95906,-0.13667 2.37862,0.68573 0.476,0.93305 0.31507,1.94272 -0.40833,2.56192 -0.55923,0.47869 -1.12291,0.61888 -1.74161,0.43317 z m 15.01622,-2.60354 c -0.11528,-0.0465 -0.89676,-0.59448 -1.73662,-1.21783 -2.36225,-1.75322 -3.97834,-2.77646 -5.84576,-3.70125 -4.94278,-2.44779 -9.80115,-3.11014 -16.19782,-2.20828 -0.89905,0.12676 -1.26886,0.006 -1.31903,-0.43112 -0.0641,-0.55873 0.57684,-0.89462 2.40498,-1.26024 1.89432,-0.37887 3.04258,-0.47615 4.8623,-0.412 2.74313,0.0967 4.75983,0.48457 7.86303,1.51222 3.22755,1.06884 5.31542,2.11684 7.54713,3.78822 2.84045,2.12732 3.85329,3.37758 3.14056,3.8768 -0.23797,0.16668 -0.40677,0.17925 -0.71877,0.0534 z m -71.618935,24.55162 c 1.195681,-0.21143 3.271675,-0.73807 4.003161,-1.01555 0.732198,-0.27775 1.303264,-0.858 2.511345,-2.55167 1.099899,-1.54203 1.253859,-1.80366 2.489977,-4.23135 0.826448,-1.62309 1.127663,-2.34868 1.828089,-4.40351 1.290744,-3.78665 1.748315,-5.96019 2.091971,-9.93733 0.344363,-3.98521 0.353308,-4.47237 0.101178,-5.51003 -0.12106,-0.49819 -0.435621,-1.38338 -0.699026,-1.96708 -0.263409,-0.5837 -0.683854,-1.51883 -0.934321,-2.07805 -0.925523,-2.06641 -2.180973,-3.51145 -4.024001,-4.63167 l -0.784105,-0.4766 -1.917305,-0.10095 c -1.054522,-0.0555 -1.993292,-0.12387 -2.086154,-0.1519 -0.318119,-0.096 -0.168616,0.0402 0.385915,0.35167 0.85194,0.47847 2.158543,1.39449 2.516615,1.76432 0.219943,0.22718 0.311511,0.4045 0.289436,0.56049 -0.06017,0.4253 -0.457713,0.34477 -1.909779,-0.38688 -1.224134,-0.6168 -3.042791,-1.27449 -5.2137,-1.88544 -1.323526,-0.37249 -4.382448,-0.589 -6.207955,-0.4394 -3.651243,0.29921 -6.294041,0.93135 -8.456837,2.02284 -1.787465,0.90205 -4.439139,2.8177 -6.352644,4.5893 -0.368935,0.34159 -0.734995,0.62107 -0.813461,0.62107 -0.252611,0 -0.375033,-0.25189 -0.30469,-0.62687 0.107987,-0.57561 0.750017,-1.41525 1.992058,-2.6052 2.836971,-2.71796 6.638587,-4.53147 11.122752,-5.30593 l 1.254226,-0.21662 -0.64526,-0.0713 c -0.354889,-0.0392 -1.765893,-0.0506 -3.135565,-0.0252 -2.211084,0.0409 -2.685017,0.0794 -4.226923,0.34317 -0.955142,0.1634 -2.279314,0.36483 -2.942607,0.4476 -0.663292,0.0828 -1.531602,0.24354 -1.929578,0.35729 -0.580427,0.16586 -1.005128,0.20895 -2.146607,0.21778 l -1.423006,0.011 -0.779365,0.56367 c -1.571922,1.13689 -2.469049,2.14151 -3.456358,3.87046 -1.106834,1.93829 -1.787319,4.32501 -2.228431,7.81593 -0.255233,2.01993 -0.281951,2.51333 -0.297703,5.4993 -0.01698,3.21491 -0.01236,3.30172 0.231684,4.35659 0.497136,2.14898 1.693328,4.7782 2.856932,6.27953 0.707163,0.91242 2.854126,2.94246 3.867124,3.65653 1.006275,0.70932 4.589347,2.43244 6.341627,3.0497 4.006343,1.4113 6.423631,1.89487 11.457696,2.29209 2.825733,0.22297 6.148399,0.20027 7.573595,-0.0517 z M 55.48408,133.16745 c -2.009809,-0.35358 -5.30576,-1.34249 -7.188044,-2.15668 -1.273058,-0.55066 -3.162404,-1.5818 -3.32582,-1.81509 -0.167247,-0.23879 -0.194096,-0.76836 -0.05239,-1.03316 0.05227,-0.0977 0.432158,-0.41489 0.844191,-0.70497 0.412042,-0.29007 1.248437,-0.99209 1.858665,-1.56004 1.897567,-1.76612 3.336887,-2.74709 5.3984,-3.67935 2.112617,-0.95536 3.463911,-1.32775 5.922695,-1.63215 2.760086,-0.34171 4.812626,-0.0841 7.444051,0.93429 1.358094,0.5256 2.497539,1.16086 4.411931,2.45978 0.569341,0.3863 1.376541,0.874 1.793765,1.08378 0.867375,0.4361 1.313462,0.78127 1.516078,1.17309 0.281737,0.54481 0.241226,0.62004 -1.120274,2.08019 -0.276828,0.29688 -0.593596,0.48735 -1.242214,0.74696 -0.478853,0.19166 -1.45739,0.69152 -2.174527,1.1108 -2.951387,1.72556 -6.226855,2.80239 -9.407649,3.09281 -1.673098,0.15277 -3.458035,0.11453 -4.678859,-0.10026 z m 6.066371,-1.91885 c 2.6455,-0.45352 5.048182,-1.3583 7.826224,-2.94711 0.583696,-0.33383 1.527983,-0.79036 2.098415,-1.01453 0.570431,-0.22416 1.037147,-0.43519 1.037147,-0.46894 0,-0.0337 -0.379885,-0.24134 -0.844189,-0.4613 -0.464303,-0.21996 -1.256637,-0.67842 -1.760741,-1.01879 -1.327858,-0.89656 -3.425577,-2.19501 -3.546187,-2.19501 -0.05956,0 -0.129581,0.31759 -0.164834,0.74772 -0.167215,2.04008 -0.633065,3.12388 -1.879312,4.3723 -0.876414,0.87793 -1.30729,1.1339 -2.69674,1.60204 -2.20132,0.74169 -3.716946,0.65451 -5.700821,-0.3279 -1.103526,-0.54646 -2.099584,-1.47314 -2.588568,-2.40823 -0.347517,-0.66458 -0.693258,-1.89029 -0.693258,-2.4577 0,-0.20376 -0.03568,-0.37049 -0.0793,-0.37049 -0.09599,0 -1.263816,0.79896 -2.023114,1.38408 -0.302916,0.23345 -1.09162,0.92924 -1.752674,1.54624 -0.661055,0.61699 -1.23631,1.12181 -1.278346,1.12181 -0.568453,0 1.944696,1.19008 3.734486,1.76843 2.325228,0.75138 3.67243,1.08948 5.402817,1.3559 0.647518,0.0997 3.869219,-0.0503 4.908991,-0.22852 z m -0.806225,-2.93382 c 1.405831,-0.46218 1.75303,-0.66708 2.496768,-1.47348 0.427296,-0.46329 0.828108,-1.0206 1.035701,-1.44009 0.31098,-0.62843 0.343126,-0.77533 0.393507,-1.79813 l 0.05485,-1.11379 -0.52031,-0.1505 c -1.5525,-0.44906 -2.52116,-0.5187 -4.331238,-0.31142 -0.769419,0.0881 -1.8331,0.24751 -2.363734,0.35423 -1.812491,0.3645 -3.810916,1.16014 -3.810916,1.51723 0,0.32555 0.766225,1.96878 1.163198,2.49458 0.676297,0.89574 2.081725,1.79145 3.323071,2.11787 0.653924,0.17195 1.67742,0.0934 2.559103,-0.1965 z m -2.247621,-1.82165 c -0.851811,-0.27661 -1.448554,-1.08199 -1.448554,-1.95503 0,-0.69888 0.328262,-1.24377 0.941335,-1.56258 0.389274,-0.20242 1.525959,-0.31783 1.965275,-0.19952 1.135749,0.30585 1.629654,1.89183 0.908629,2.91772 -0.481815,0.68554 -1.577545,1.05565 -2.366685,0.79941 z m 90.492825,8.78804 c -0.0308,-0.0769 -0.0537,-0.0541 -0.0583,0.0583 -0.004,0.10169 0.0186,0.15868 0.0507,0.12662 0.0321,-0.0321 0.0355,-0.11527 0.008,-0.18492 z m 30.90467,-10.93226 c 0.20689,-0.74289 0.48888,-2.0992 0.62667,-3.01403 0.13779,-0.91482 0.33816,-1.91339 0.44528,-2.21902 0.25411,-0.72517 0.52689,-2.12269 0.71475,-3.66189 0.0829,-0.67944 0.19214,-1.39171 0.24273,-1.58282 0.16994,-0.64201 0.47531,-2.82725 0.53792,-3.84936 0.11199,-1.82794 -0.25156,-8.44561 -0.59111,-10.760023 -0.60056,-4.09346 -2.7227,-13.26201 -4.00866,-17.319128 -0.7668,-2.4192 -2.22985,-6.44353 -2.85722,-7.85923 -1.45961,-3.29363 -4.17404,-7.57618 -8.72244,-13.76127 -2.66847,-3.6287 -4.09321,-5.30037 -7.10159,-8.33241 -2.7306,-2.75207 -4.64652,-4.34193 -7.99013,-6.63036 -2.19074,-1.49937 -6.84049,-4.10915 -13.07242,-7.33719 -5.15686,-2.67117 -5.85739,-2.97722 -10.75218,-4.69744 -4.46128,-1.56786 -6.52869,-2.04054 -14.52781,-3.32149 -9.73315,-1.55863 -14.973107,-1.92529 -22.204521,-1.55371 -3.753783,0.1929 -5.325096,0.35655 -7.907767,0.82362 -2.33233,0.4218 -5.882745,1.16494 -6.739265,1.41059 -0.843544,0.24195 -4.134302,1.52202 -5.176709,2.01368 -0.522811,0.24659 -1.905699,0.83785 -3.073093,1.3139 -2.543985,1.03741 -3.484858,1.52086 -5.180193,2.66176 -0.70614,0.4752 -1.870004,1.20125 -2.586358,1.61345 -1.315916,0.75718 -5.099635,3.06884 -6.078172,3.71344 -0.291848,0.19225 -0.643716,0.39828 -0.781923,0.45785 -0.991735,0.42741 -8.311656,7.304 -10.659925,10.0143 -1.71219,1.97615 -4.469683,5.62975 -5.970913,7.91128 -2.865385,4.3547 -4.119061,6.57877 -6.44454,11.43274 -2.817443,5.88086 -3.286804,7.02483 -4.597249,11.20487 -1.84562,5.887128 -3.181401,11.152178 -4.047627,15.953938 C 20.6048,103.32557 19.93124,110.06222 19.93124,113.56129 v 1.46851 l 0.795953,-0.57469 c 0.894966,-0.64619 2.519392,-1.50781 3.420966,-1.81452 0.329438,-0.11207 1.132623,-0.27287 1.78486,-0.35734 0.652247,-0.0844 1.815424,-0.27732 2.584843,-0.42855 0.769421,-0.15124 1.789684,-0.30373 2.267254,-0.33886 0.477571,-0.0351 1.671499,-0.17084 2.65317,-0.30161 1.393148,-0.18558 3.736917,-0.38591 4.885354,-0.41759 0.0603,-0.002 0.139528,-0.20233 0.176066,-0.44595 0.131509,-0.87699 1.127895,-2.45957 2.190745,-3.47963 0.694946,-0.66697 1.859562,-1.44121 3.002192,-1.99588 3.461672,-1.68044 6.209439,-2.34165 10.247409,-2.4659 5.285471,-0.16264 11.168667,0.45414 16.883805,1.77008 1.002079,0.23073 4.706733,1.38677 5.608821,1.75022 1.700141,0.68502 3.074001,1.51051 3.738402,2.24627 0.09996,0.11069 0.222085,0.17632 0.271405,0.14584 0.262279,-0.16211 0.805521,0.85318 1.15081,2.15079 0.146563,0.55082 0.204788,1.08179 0.215062,1.96128 0.01592,1.36226 -0.102972,1.81874 -0.665694,2.55596 l -0.321477,0.42115 0.41864,0.3859 c 0.586245,0.54037 1.585072,1.26862 1.956293,1.42632 0.43843,0.18626 1.361636,0.29417 4.029151,0.47098 1.273522,0.0844 2.793065,0.21673 3.376763,0.29402 0.583696,0.0773 1.603961,0.18371 2.267252,0.23647 0.663288,0.0528 2.117708,0.25276 3.232048,0.44442 1.11433,0.19166 2.1832,0.369 2.37526,0.39408 0.30802,0.0402 0.43981,-0.0215 1.11743,-0.52399 0.422527,-0.31328 0.938327,-0.75935 1.146217,-0.99126 0.45892,-0.51193 1.08737,-1.10031 1.57815,-1.4775 0.35815,-0.27526 0.3655,-0.29407 0.4207,-1.07633 0.099,-1.40311 0.55528,-2.32137 1.76663,-3.55557 0.59659,-0.60783 0.79901,-0.73403 2.6711,-1.6653 2.29538,-1.14183 3.08525,-1.41663 6.48542,-2.25633 3.92513,-0.96931 6.29654,-1.35545 10.35413,-1.68592 0.95675,-0.0779 6.24286,0.34005 8.55398,0.67638 2.41137,0.35089 4.28949,0.86737 7.02323,1.93131 2.62789,1.02277 4.3468,2.10338 5.91636,3.71941 1.32546,1.36469 1.81329,2.39107 1.75606,3.69478 l -0.0294,0.66932 0.77109,0.17296 c 0.42411,0.0951 1.33549,0.26133 2.02532,0.36933 0.68982,0.108 1.64496,0.32151 2.12253,0.47445 0.47757,0.15295 1.22956,0.34508 1.67109,0.42695 0.44153,0.0819 1.63546,0.40804 2.65317,0.72481 1.01771,0.31676 3.17457,0.89039 4.793,1.27475 3.93876,0.93536 8.1591,2.13254 10.80564,3.06523 3.4585,1.21883 4.61529,1.72308 6.41584,2.79672 l 0.96479,0.57529 0.0295,-0.35146 c 0.0162,-0.19331 0.19871,-0.95929 0.40557,-1.70218 z m -39.21953,-4.50737 c -0.41257,-0.21974 -2.00859,-0.90166 -3.03908,-1.29848 -1.33183,-0.51287 -4.17999,-1.28694 -5.93345,-1.61259 -2.2181,-0.41194 -4.32927,-0.61384 -7.91127,-0.75662 -2.33787,-0.0932 -3.00003,-0.0855 -4.92043,0.0571 -3.26726,0.24271 -6.55168,0.88563 -8.53838,1.67141 -1.07745,0.42615 -3.13288,1.42213 -3.51965,1.70549 -0.2837,0.20784 1.5485,-0.13517 3.51965,-0.65891 0.87555,-0.23263 1.8524,-0.47233 2.17078,-0.53263 0.31838,-0.0603 1.16498,-0.23511 1.88133,-0.3884 0.71636,-0.15331 2.14907,-0.39327 3.18381,-0.53324 1.68368,-0.22778 2.21584,-0.25607 5.06514,-0.26922 3.37473,-0.0156 4.82435,0.0699 7.91127,0.46677 3.30528,0.4249 5.71187,0.94034 8.49014,1.81837 1.92867,0.60953 2.30643,0.68573 1.64014,0.33088 z m 4.9101,-3.79771 c 0.14054,-0.36621 0.0503,-1.16351 -0.19007,-1.67996 -0.31469,-0.67609 -1.89861,-2.25604 -2.98341,-2.97595 -1.45582,-0.96616 -3.96184,-2.04497 -6.61319,-2.84694 -2.01773,-0.61032 -4.73851,-0.97022 -9.36519,-1.2388 -1.92913,-0.112 -2.0597,-0.10756 -4.34155,0.14742 -2.76501,0.30896 -4.72053,0.68947 -7.75873,1.50969 -3.64693,0.98455 -4.31682,1.21476 -6.31495,2.17011 -1.03535,0.49503 -2.05956,1.00188 -2.27601,1.12633 -0.71959,0.41372 -1.29645,1.00185 -1.49488,1.52407 -0.16855,0.44357 -0.25142,1.06594 -0.14195,1.06594 0.0242,0 0.42575,-0.16777 0.89243,-0.37282 1.19053,-0.52309 3.946,-1.41168 5.09359,-1.6426 2.21088,-0.44487 3.26488,-0.53928 5.88522,-0.52713 1.59088,0.007 3.05547,0.0702 4.00387,0.17173 3.13595,0.33568 7.5009,0.86144 9.40669,1.13301 0.74289,0.10587 1.93682,0.27249 2.65317,0.37027 2.18647,0.29845 4.60623,0.66816 5.08943,0.77759 0.25196,0.0571 1.15276,0.2059 2.00177,0.33075 3.49693,0.51422 4.28969,0.64535 5.20986,0.86172 1.19904,0.28194 1.17315,0.27995 1.2439,0.0956 z m -65.358759,-1.84932 c 0.305191,-0.36949 0.430441,-0.72039 0.516566,-1.44719 0.04741,-0.40014 0.04177,-0.41003 -0.234058,-0.41003 -0.331481,0 -0.468857,-0.26035 -0.474212,-0.89872 -0.0019,-0.22206 -0.06264,-0.68005 -0.135052,-1.01773 -0.111567,-0.52027 -0.203097,-0.68725 -0.599607,-1.09387 -0.685095,-0.70258 -1.094388,-0.95226 -2.542237,-1.55087 -1.168843,-0.48325 -4.78464,-1.62572 -6.029931,-1.90526 -8.738248,-1.96153 -16.778028,-2.34553 -21.90071,-1.04605 -1.703383,0.43211 -4.65336,1.73005 -5.813316,2.55777 -1.140323,0.81373 -2.399189,2.29355 -2.580415,3.03333 l -0.06109,0.24939 7.797126,0.0882 c 4.288429,0.0485 9.316678,0.0734 11.173896,0.0551 5.028489,-0.0494 8.833676,0.24194 12.532685,0.95947 3.572365,0.69295 6.549336,1.69807 7.679644,2.59289 0.132658,0.10502 0.270595,0.19191 0.306534,0.19309 0.03594,9.1e-4 0.199818,-0.16066 0.364178,-0.35965 z"
       style="fill:#000000;stroke-width:0.0964786" />
  </g>
</svg>
