<?xml version="1.0" encoding="UTF-8" standalone="no"?>
<svg
   xmlns:dc="http://purl.org/dc/elements/1.1/"
   xmlns:cc="http://creativecommons.org/ns#"
   xmlns:rdf="http://www.w3.org/1999/02/22-rdf-syntax-ns#"
   xmlns:svg="http://www.w3.org/2000/svg"
   xmlns="http://www.w3.org/2000/svg"
   id="svg8"
   version="1.1"
   viewBox="0 0 210 297"
   height="297mm"
   width="210mm">
  <defs
     id="defs2" />
  <metadata
     id="metadata5">
    <rdf:RDF>
      <cc:Work
         rdf:about="">
        <dc:format>image/svg+xml</dc:format>
        <dc:type
           rdf:resource="http://purl.org/dc/dcmitype/StillImage" />
        <dc:title></dc:title>
      </cc:Work>
    </rdf:RDF>
  </metadata>
  <g
     id="layer1">
    <path
       id="path24"
       d="m 58.832961,269.0554 c 0,-0.10837 0.6709,-2.00247 1.109537,-3.13246 0.24957,-0.64293 0.592325,-1.55035 0.761677,-2.01647 0.392343,-1.0799 0.88559,-2.26196 1.626011,-3.89675 1.147586,-2.53375 2.132062,-4.91349 3.429399,-8.28972 0.18529,-0.48219 0.572315,-1.44221 0.86006,-2.13336 0.287739,-0.69115 0.748145,-1.83527 1.023112,-2.5425 0.274966,-0.70722 0.721577,-1.81137 0.992471,-2.45366 0.57839,-1.37138 1.472307,-3.7508 1.84492,-4.91082 0.271428,-0.84501 0.790097,-2.95488 0.941129,-3.82836 0.134612,-0.77851 -0.01499,-1.24959 -0.597378,-1.88083 -0.2676,-0.29005 -0.443701,-0.40484 -1.227417,-0.80008 -1.05188,-0.53047 -2.054271,-0.94084 -2.726883,-1.11634 -0.602551,-0.15723 -4.091588,-0.60958 -5.64026,-0.73126 -0.659003,-0.0518 -1.421754,-0.12017 -1.695003,-0.15198 -0.273244,-0.0318 -1.233258,-0.0826 -2.133359,-0.11274 -0.900107,-0.0302 -2.188889,-0.0923 -2.863965,-0.13798 -1.753494,-0.11868 -7.876463,-0.0946 -9.614745,0.0378 -0.691151,0.0526 -1.795824,0.12284 -2.454829,0.156 -1.560392,0.0785 -2.284227,0.16612 -4.821982,0.58348 -1.157276,0.19032 -2.709078,0.44206 -3.448449,0.55941 -1.533024,0.24333 -2.580352,0.44086 -4.510637,0.85071 -3.420165,0.72621 -9.112233,1.53764 -12.088677,1.72329 -1.233403,0.0769 -3.105203,-0.16767 -5.143448,-0.67214 -2.8055357,-0.69438 -4.3321307,-1.42722 -5.7217137,-2.74669 -2.285683,-2.17038 -2.476622,-4.7581 -0.670121,-9.08192 1.100935,-2.63507 3.072191,-6.06417 4.8499647,-8.43678 0.564621,-0.75354 2.877086,-3.56198 4.584359,-5.56761 0.644673,-0.75735 1.553927,-1.85042 2.020564,-2.42905 0.466632,-0.57864 1.222856,-1.51235 1.680497,-2.07492 0.457641,-0.56257 1.233419,-1.53573 1.723953,-2.16258 0.490528,-0.62686 1.254706,-1.60003 1.698162,-2.16259 0.98236,-1.24621 2.998986,-3.9021 4.767873,-6.27929 0.723295,-0.97203 1.671423,-2.22536 2.106947,-2.78518 0.435524,-0.55982 1.144562,-1.47814 1.575645,-2.0407 1.365849,-1.78244 4.072436,-5.11396 5.169843,-6.36354 1.452131,-1.65348 2.947717,-3.40101 4.308135,-5.03388 1.236843,-1.48453 3.064848,-3.54117 4.104432,-4.61778 0.879828,-0.91115 2.139827,-2.32873 2.139827,-2.40744 0,-0.0843 -0.933805,-1.77509 -1.466258,-2.65484 -0.931518,-1.53911 -1.399391,-2.53817 -2.624478,-5.60416 -0.411038,-1.0287 -0.905809,-2.25173 -1.099489,-2.71785 -0.671998,-1.6173 -1.076717,-2.96848 -1.295506,-4.32517 -0.0648,-0.40184 -0.248704,-1.80898 -0.40867,-3.12699 -0.610126,-5.02707 -0.825853,-6.33622 -1.576846,-9.56916 -0.426459,-1.83586 -0.924045,-3.23282 -1.671332,-4.69222 -0.27771,-0.54235 -1.641801,-2.64887 -2.687238,-4.14982 -0.513917,-0.73785 -0.871572,-1.45216 -1.335361,-2.66702 -0.424002,-1.11063 -0.578209,-1.65271 -0.854133,-3.00247 -0.439618,-2.15051 -0.536682,-3.28429 -0.417822,-4.88043 0.09175,-1.23208 0.197253,-1.92603 0.568711,-3.74069 0.464123,-2.26735 0.497335,-2.63236 0.45472,-4.99733 -0.0393,-2.18137 0.06007,-9.03704 0.152507,-10.52069 0.118044,-1.8947 0.38275,-4.769731 0.559662,-6.078621 0.328344,-2.42929 1.399918,-6.8359 2.352348,-9.67353 l 0.284573,-0.84783 -0.284324,-0.25378 c -0.536718,-0.47906 -1.628105,-2.33264 -1.975607,-3.35532 -0.639282,-1.88137 -0.75188,-5.32965 -0.225668,-6.91092 0.06419,-0.19288 0.170475,-0.40853 0.236195,-0.47923 l 0.119492,-0.12853 -0.327449,-0.9833 c -0.180096,-0.54082 -0.383704,-1.24573 -0.45246,-1.56647 -0.157433,-0.73439 -0.210628,-2.0339 -0.115349,-2.81788 0.101116,-0.83202 0.432748,-2.45455 0.76177,-3.72701 0.514093,-1.9882 0.759999,-2.62522 1.78244,-4.61741 1.111835,-2.16638 1.589318,-2.91451 2.55385,-4.00146 1.006869,-1.13465 1.536071,-1.60209 4.81267,-4.25102 1.098652,-0.88819 1.594299,-1.432401 2.252136,-2.472784 0.233751,-0.369681 0.588456,-0.882566 0.788233,-1.139742 0.456492,-0.587646 1.640502,-1.878497 2.136237,-2.329005 0.758274,-0.689099 2.205809,-1.695605 2.85167,-1.982836 0.383233,-0.170441 2.633643,-0.937248 3.573708,-1.217714 0.715435,-0.213451 1.223385,-0.430673 3.068533,-1.312263 0.289322,-0.138233 0.815359,-0.440894 1.168967,-0.672586 2.048186,-1.342002 3.034898,-1.83292 4.868487,-2.42222 1.513278,-0.486363 3.675867,-0.841263 5.155396,-0.846052 0.716177,-0.0021 1.508941,-0.0841 2.045691,-0.211022 0.242997,-0.05746 0.93811,-0.370958 1.928791,-0.869881 2.654441,-1.336819 3.80431,-1.739885 6.092749,-2.135705 1.441868,-0.249388 1.895208,-0.297638 2.788591,-0.296787 1.121708,0.001 2.50108,-0.270339 4.678663,-0.920579 1.314339,-0.392473 1.681753,-0.458539 3.296599,-0.592782 3.384421,-0.281348 4.518341,-0.286298 6.873401,-0.02999 0.7233,0.07871 1.85427,0.196844 2.51327,0.26251 0.65901,0.06567 1.895188,0.210753 2.747068,0.322402 0.85189,0.111654 2.20643,0.270126 3.01009,0.352166 1.88585,0.192511 2.61424,0.305395 4.32518,0.670303 3.96475,0.845605 5.40953,1.321119 8.88413,2.924001 1.98108,0.913892 3.83749,1.805459 4.76354,2.287739 2.29968,1.197667 5.20442,3.138868 7.24842,4.84404 1.56031,1.301659 5.1945,5.144377 6.74502,7.132037 1.3169,1.68817 3.56892,5.40795 4.3286,7.14976 0.45547,1.0443 1.74819,4.52163 1.95471,5.258 0.23781,0.84797 0.72111,3.31576 0.91164,4.65502 0.0846,0.59471 0.22873,1.43637 0.32025,1.87034 0.0915,0.43398 0.23312,1.10467 0.31464,1.49043 0.0815,0.38576 0.22912,1.12221 0.32799,1.63656 0.26759,1.39201 0.86108,3.57528 1.51735,5.58181 0.32068,0.98047 0.72631,2.2298 0.90139,2.77629 0.17508,0.54649 0.49144,1.49335 0.70301,2.10414 0.45194,1.30468 0.75866,2.47726 1.11451,4.26057 0.51865,2.59916 0.70112,4.34277 0.78968,7.54598 0.0543,1.9628 -0.009,8.278101 -0.11214,11.163621 -0.0321,0.90011 -0.0724,2.06327 -0.0895,2.58481 l -0.0311,0.94825 0.2193,0.18969 c 0.74081,0.64076 1.57426,1.59756 2.31185,2.65402 l 0.33058,0.47348 0.55257,0.0389 c 0.30391,0.0214 0.79763,0.1018 1.09715,0.17876 0.64793,0.16648 3.49979,1.34378 4.55548,1.8806 1.33558,0.67913 3.01445,1.88874 3.70381,2.66856 0.61151,0.69177 1.18594,1.70443 1.68235,2.96583 0.89061,2.26306 1.22499,4.19388 1.09161,6.3032 -0.12067,1.90794 -0.37762,3.22104 -1.40289,7.16913 -0.38401,1.47874 -1.02478,4.05631 -1.42394,5.72793 -1.02869,4.30809 -1.24722,5.15572 -2.57673,9.99466 -0.39744,1.44659 -0.73909,2.69705 -0.75919,2.77878 -0.0335,0.13615 -0.009,0.16011 0.29399,0.28562 0.1818,0.0754 0.88686,0.50366 1.56678,0.95178 1.48885,0.98127 2.2163,1.39792 3.98889,2.2846 2.1187,1.05981 2.52332,1.31646 5.5986,3.55117 2.20876,1.60503 2.89373,2.15236 4.65746,3.72152 2.12501,1.89058 2.97719,2.7064 4.36597,4.17972 0.70478,0.74767 1.45109,1.51786 1.65847,1.71154 0.97914,0.91446 2.66785,2.23507 5.33271,4.17032 2.44443,1.77516 2.75344,1.98277 4.18612,2.81234 1.50562,0.87181 2.4372,1.48993 3.45655,2.29349 0.46168,0.36393 1.23393,0.96232 1.71613,1.32977 2.03206,1.54848 2.84123,2.28257 4.01149,3.63937 0.8831,1.02383 2.18236,2.64981 2.72743,3.41325 l 0.4227,0.59205 -0.0154,1.79866 -0.0154,1.79866 -0.91572,-1.13459 c -0.50363,-0.62403 -1.35851,-1.60803 -1.89972,-2.18667 -0.54123,-0.57864 -1.43413,-1.56495 -1.98424,-2.19181 -1.58792,-1.80944 -2.00529,-2.17868 -4.97302,-4.39969 -1.81327,-1.35702 -2.2308,-1.64133 -3.58273,-2.43964 -1.86239,-1.09972 -2.13859,-1.28991 -5.34802,-3.68253 -3.33457,-2.48591 -4.5712,-3.55459 -6.19343,-5.35227 -1.45412,-1.61138 -2.19859,-2.3656 -3.65511,-3.70297 -2.6602,-2.44257 -3.13429,-2.83332 -5.64897,-4.65584 -2.59232,-1.87879 -2.99712,-2.13811 -5.36853,-3.43903 -1.5727,-0.86276 -3.39442,-2.12545 -4.57689,-3.17236 l -0.34461,-0.30511 -0.13135,0.48045 c -0.24614,0.9003 -1.00063,3.33979 -1.78457,5.77002 -1.32661,4.11254 -1.51416,4.73315 -2.93209,9.70242 -0.75675,2.65209 -1.67412,5.8346 -2.03861,7.07224 -1.62427,5.51522 -2.02023,7.2484 -2.53703,11.10517 -1.36439,10.18204 -2.15312,18.0128 -2.48729,24.6944 -0.0499,0.99655 -0.14197,2.82452 -0.20472,4.06216 -0.0627,1.23764 -0.14177,3.05246 -0.17559,4.03293 -0.0692,2.00484 -0.13029,3.09978 -0.29366,5.26035 -0.062,0.81973 -0.16643,2.34523 -0.23209,3.39 -0.19671,3.12935 -0.28579,3.66586 -0.67209,4.04754 -0.28506,0.28165 -0.54434,0.16854 -0.77227,-0.33687 -0.0958,-0.21231 -0.10683,-0.49501 -0.12492,-3.18464 -0.0284,-4.22054 0.0609,-7.64228 0.37219,-14.26138 0.42038,-8.93925 0.89786,-14.72834 1.75717,-21.3044 1.2407,-9.49479 1.47283,-10.74104 3.00167,-16.11575 0.35241,-1.23893 1.07756,-3.82719 1.61144,-5.7517 0.53387,-1.92451 1.24789,-4.49857 1.5867,-5.72014 0.75578,-2.7249 1.10938,-3.91243 2.03625,-6.83845 1.34727,-4.25314 1.51173,-4.81871 2.92335,-10.0531 1.19037,-4.414 2.05517,-7.79418 2.74397,-10.72526 0.5291,-2.25151 0.90679,-3.70585 1.60892,-6.19552 0.86647,-3.07238 1.10747,-4.06189 1.37748,-5.65577 0.37187,-2.19515 0.27933,-3.64325 -0.35146,-5.49962 -0.4564,-1.34315 -0.92764,-2.38646 -1.37654,-3.04754 -0.45416,-0.66885 -1.50031,-1.52206 -2.92543,-2.38592 -0.7271,-0.44073 -5.09632,-2.60796 -5.18867,-2.57368 -0.0307,0.0114 0.0613,0.28374 0.20448,0.6052 0.43287,0.97193 1.1344,3.43886 1.24328,4.37198 0.28617,2.45276 0.31264,2.76621 0.31187,3.69389 -0.002,1.86415 -0.37815,3.57674 -1.22746,5.58181 -0.33573,0.79259 -1.80928,3.65708 -2.27007,4.41284 -0.19599,0.32147 -0.64504,0.99429 -0.99787,1.49516 -0.35283,0.50087 -0.80937,1.18472 -1.01453,1.51965 -0.20516,0.33494 -0.83808,1.35858 -1.40651,2.27476 -1.01894,1.64232 -1.32062,2.15832 -2.27243,3.88681 -0.26552,0.4822 -0.5954,1.03454 -0.73306,1.22741 -0.34449,0.48268 -1.50181,1.78748 -2.00562,2.26122 -1.09925,1.0336 -2.29011,1.5718 -3.9865,1.80164 -0.2732,0.037 -0.50756,0.0781 -0.52081,0.0914 -0.0361,0.0361 -0.47967,1.70711 -0.96849,3.6486 -0.23876,0.94832 -0.57709,2.22395 -0.75183,2.83474 -0.62585,2.18751 -0.87105,3.45835 -1.61259,8.3581 -0.39352,2.6002 -0.52142,3.56507 -0.96847,7.30604 -0.11525,0.96439 -0.26154,2.0795 -0.32509,2.478 -0.0635,0.3985 -0.10587,0.73422 -0.094,0.74604 0.0204,0.0204 2.28224,-3.29654 2.75654,-4.04232 0.60508,-0.95142 2.1014,-3.82266 3.33664,-6.40257 1.6864,-3.52224 1.87251,-3.9424 2.41661,-5.45579 0.40839,-1.13594 0.64885,-1.45564 0.88278,-1.17378 0.1073,0.1293 -0.062,1.55807 -0.2885,2.43428 -0.15885,0.61457 -1.46259,4.31099 -2.15055,6.09734 -0.51166,1.32855 -1.81444,4.15339 -2.42602,5.26035 -0.66235,1.19886 -2.85035,4.5731 -3.52473,5.43569 -0.5086,0.65054 -1.63387,1.81621 -2.20745,2.28671 -0.26412,0.21665 -0.7702,0.68503 -1.12462,1.04084 -0.69163,0.69435 -1.54945,1.32654 -2.80404,2.06652 -0.38576,0.22752 -0.84939,0.54038 -1.03027,0.69524 -1.09128,0.93423 -1.45512,1.21843 -2.25281,1.75971 -0.48749,0.33078 -1.20758,0.87766 -1.60021,1.21529 -0.90188,0.77553 -1.15004,0.96429 -2.33508,1.77611 -1.07681,0.73768 -1.50413,1.0842 -2.77629,2.25131 -1.68401,1.54494 -2.54094,2.43996 -3.97393,4.15052 -0.78097,0.93225 -1.81094,2.10267 -2.28882,2.60095 -0.47788,0.49827 -1.23689,1.32669 -1.68668,1.84095 -0.4498,0.51426 -1.13164,1.27701 -1.51521,1.695 -1.08839,1.18608 -1.74122,1.99671 -2.77776,3.44918 -1.11868,1.56756 -1.63406,2.25979 -2.3712,3.18486 -0.70951,0.89038 -1.10197,1.47066 -2.29755,3.39701 -0.55106,0.88787 -1.41913,2.21611 -1.929038,2.95164 -0.8623,1.24382 -1.31618,1.94694 -2.76871,4.28909 -0.30907,0.49837 -1.10593,1.69509 -1.7708,2.6594 -0.66487,0.96431 -1.63143,2.38454 -2.14791,3.15606 -0.51649,0.77152 -1.718767,2.49428 -2.671741,3.82836 -2.091066,2.9273 -1.963069,2.74049 -2.66517,3.88981 -1.003579,1.64281 -1.23675,2.0441 -1.975998,3.40067 -0.398818,0.73185 -0.921254,1.65942 -1.160962,2.06125 -0.659293,1.10519 -2.497681,4.50016 -3.434011,6.34164 -0.457673,0.9001 -0.852791,1.66285 -0.878037,1.695 -0.02527,0.0322 -0.893881,1.75491 -1.93029,3.82836 -1.03641,2.07345 -2.264916,4.48006 -2.730017,5.34801 -2.214881,4.13334 -2.442236,4.58104 -4.556145,8.97182 -0.657769,1.36623 -1.550737,3.20077 -1.984398,4.07677 l -0.788458,1.59271 h -1.693114 -1.693115 l 0.858244,-1.68039 c 0.472038,-0.92421 1.087912,-2.11436 1.368617,-2.64478 0.280704,-0.53042 0.84548,-1.63509 1.255069,-2.45483 1.137474,-2.27652 2.1779,-4.25971 3.097,-5.90327 0.458404,-0.81975 1.339771,-2.42415 1.958587,-3.56535 1.803035,-3.32513 2.12965,-3.91426 2.828239,-5.10156 0.363481,-0.61775 1.318338,-2.42512 2.121909,-4.01637 0.803566,-1.59126 1.711315,-3.32717 2.017218,-3.85759 0.305903,-0.53042 0.813257,-1.43721 1.127461,-2.01509 0.3142,-0.57788 0.826804,-1.4732 1.139104,-1.9896 0.312306,-0.51639 0.866171,-1.46343 1.23081,-2.10451 0.364643,-0.64108 1.045914,-1.75008 1.513947,-2.46446 0.468022,-0.71436 1.403294,-2.14667 2.07837,-3.18288 0.675082,-1.03623 1.501843,-2.26701 1.837247,-2.73509 0.335408,-0.46807 0.894306,-1.26507 1.242,-1.77109 0.347688,-0.50603 0.858114,-1.22542 1.134273,-1.59864 0.276161,-0.37322 0.858871,-1.21883 1.294911,-1.87913 0.43604,-0.6603 1.0721,-1.55846 1.41345,-1.99593 0.34134,-0.43747 0.78946,-1.03211 0.99581,-1.32143 0.3564,-0.49971 0.81149,-1.08551 1.29408,-1.66577 0.6388,-0.76807 3.546388,-5.14345 3.418008,-5.14345 -0.0195,0 -0.317898,0.17515 -0.663118,0.38924 -0.34523,0.21408 -1.18003,0.67839 -1.8551,1.0318 -4.16443,2.18013 -5.25554,2.63821 -7.879969,3.30825 -2.16799,0.55352 -3.228945,0.67278 -5.634475,0.63336 -1.479373,-0.0242 -1.787782,-0.0461 -2.558839,-0.1818 -1.824727,-0.32103 -2.844442,-0.66196 -4.581079,-1.53164 -1.121169,-0.56145 -2.024508,-1.14404 -3.015018,-1.94446 -0.860817,-0.69561 -2.354665,-2.13849 -2.944967,-2.84449 -0.903375,-1.08042 -2.188566,-3.26331 -2.983167,-5.06687 -0.505647,-1.1477 -0.788027,-1.69236 -1.55787,-3.00488 -0.917186,-1.56371 -1.554892,-2.59909 -2.351915,-3.81856 -0.366278,-0.56041 -0.743342,-1.16393 -0.837917,-1.34117 -0.09458,-0.17724 -0.180594,-0.33088 -0.191147,-0.34143 -0.01053,-0.0106 -0.255801,0.27926 -0.544999,0.64404 -1.942171,2.44969 -3.136134,3.31412 -4.577473,3.31412 -0.51524,0 -0.915645,-0.10601 -1.48686,-0.39368 -0.985374,-0.49622 -1.482834,-0.92345 -1.991614,-1.71046 -0.556937,-0.86148 -0.748862,-1.41382 -0.744245,-2.14184 0.0047,-0.75135 0.405744,-1.63561 1.215375,-2.68014 0.548034,-0.70704 2.841385,-3.75582 2.912484,-3.87186 0.02615,-0.0427 -0.01447,-0.15125 -0.09848,-0.26301 -0.07867,-0.10467 -0.254111,-0.41271 -0.389863,-0.68455 -0.153118,-0.3066 -0.373775,-0.62835 -0.581218,-0.8475 -1.23882,-1.30867 -2.053556,-2.60931 -2.924707,-4.66901 -0.561741,-1.32812 -1.393702,-2.97305 -2.067294,-4.08735 -0.334817,-0.55389 -0.87661,-1.5068 -1.203976,-2.11758 -0.382574,-0.71377 -1.035658,-1.7702 -1.828023,-2.957 l -1.232796,-1.84648 -0.50749,0.67751 c -0.279113,0.37263 -0.694512,0.89269 -0.923109,1.15567 -0.638213,0.73425 -2.735824,3.29042 -4.403909,5.36667 -1.884828,2.34604 -3.157579,3.91013 -4.289178,5.27102 -1.257236,1.51197 -3.670147,4.59452 -4.90993,6.27252 -0.581906,0.78759 -1.569044,2.11864 -2.193645,2.95789 -0.6246,0.83925 -1.509345,2.03598 -1.966104,2.65939 -3.587093,4.89596 -7.840287,10.25756 -11.030612,13.90526 -1.879835,2.14934 -4.329122,5.03905 -4.84748,5.71915 -1.488738,1.95324 -3.5267027,5.48392 -4.5270237,7.84286 -0.860604,2.02945 -1.220428,3.8434 -0.982956,4.95524 0.153917,0.72063 0.33242,1.02958 0.936751,1.62128 1.349695,1.32148 2.7961027,1.95179 5.8806667,2.56265 1.517029,0.30043 2.015724,0.34725 3.293559,0.30925 1.154294,-0.0344 1.641399,-0.0958 5.006097,-0.63122 4.378431,-0.69681 5.060791,-0.81925 7.306033,-1.31096 2.148135,-0.47044 3.491937,-0.7001 5.815607,-0.9939 1.157276,-0.14632 2.524966,-0.33244 3.03931,-0.41359 1.591032,-0.25102 2.588529,-0.36811 3.682242,-0.43226 1.577625,-0.0925 2.574658,-0.16417 3.740691,-0.26882 0.814984,-0.0731 1.420865,-0.0865 2.688619,-0.0591 7.716231,0.16636 11.181937,0.39864 12.65426,0.84809 0.208838,0.0637 0.826835,0.17172 1.373328,0.23995 3.001097,0.37464 4.686798,0.66958 5.844828,1.02266 1.274426,0.38856 2.913402,1.12755 3.621631,1.63294 0.421682,0.3009 0.985566,0.88867 1.306603,1.36195 0.696378,1.0266 0.904153,1.88053 0.772872,3.17643 -0.08845,0.87312 -0.476878,2.79908 -0.738781,3.66311 -0.553725,1.8268 -2.630311,7.23646 -4.201053,10.94404 -0.265571,0.62686 -0.762517,1.8658 -1.104322,2.75321 -0.735674,1.90998 -2.242187,5.37119 -3.273953,7.52192 -0.405562,0.84541 -0.737391,1.54804 -0.737391,1.56139 0,0.0133 -0.364903,0.79454 -0.810881,1.73599 -0.445988,0.94144 -1.08041,2.33638 -1.409842,3.09986 l -0.598955,1.38815 h -1.044986 c -0.585601,0 -1.044991,-0.0233 -1.044991,-0.053 z M 86.94658,213.53654 c 1.111399,-0.19435 3.269263,-0.75118 4.331105,-1.11762 0.995097,-0.3434 3.052757,-1.20258 3.617867,-1.51063 0.27324,-0.14895 0.77297,-0.40765 1.11051,-0.57486 0.33754,-0.16722 1.11866,-0.58953 1.73582,-0.93847 0.61715,-0.34895 1.40332,-0.79225 1.74703,-0.98513 0.34371,-0.19288 0.798778,-0.44915 1.011258,-0.56949 0.21247,-0.12034 0.62304,-0.31195 0.91236,-0.4258 l 0.52604,-0.207 0.83022,-1.06464 c 0.45662,-0.58554 1.30441,-1.72217 1.88398,-2.52583 1.1696,-1.62185 1.84718,-2.46568 2.95675,-3.68224 0.41046,-0.45006 1.13429,-1.27856 1.6085,-1.84112 0.4742,-0.56257 1.23517,-1.43053 1.69104,-1.9288 0.45588,-0.49827 1.14782,-1.30047 1.53768,-1.78267 1.87191,-2.31533 2.43188,-2.92035 4.48424,-4.84498 1.62183,-1.52089 1.98197,-1.83168 2.752,-2.3749 1.39005,-0.98061 1.8596,-1.33199 2.30335,-1.72364 0.82973,-0.73232 1.20177,-1.02224 1.98179,-1.54438 0.77226,-0.51695 1.16259,-0.81939 2.22339,-1.72282 0.31976,-0.27232 0.85529,-0.6583 1.19007,-0.85771 0.97596,-0.58137 1.50321,-1.00216 2.43682,-1.94483 0.48219,-0.48687 0.9709,-0.964 1.086,-1.06029 0.17382,-0.14541 0.25647,-0.3038 0.48778,-0.9349 0.65724,-1.7932 0.83251,-2.70999 1.43582,-7.51061 0.65492,-5.21119 0.92896,-7.02136 1.495,-9.87497 0.33253,-1.67636 0.55874,-2.54796 1.13083,-4.35718 0.25413,-0.80366 0.67568,-2.14088 0.93678,-2.97159 0.26109,-0.83071 0.56741,-1.74477 0.68068,-2.03123 0.11329,-0.28647 0.18976,-0.54709 0.16995,-0.57915 -0.0198,-0.0321 -0.0947,-0.0583 -0.16642,-0.0583 -0.52635,0 -1.83013,-0.59044 -2.34943,-1.06397 -0.47731,-0.43525 -0.82252,-0.92754 -0.96899,-1.38183 -0.1038,-0.32196 -0.13027,-0.57728 -0.15372,-1.48253 -0.0156,-0.60149 -0.0104,-1.21287 0.0114,-1.35865 0.0486,-0.32434 0.27637,-0.6163 0.48072,-0.6163 0.36991,0 0.65399,0.63268 0.98412,2.19181 0.0817,0.38576 0.17716,0.77305 0.21216,0.86065 0.14461,0.36193 0.93462,0.90561 1.67523,1.15288 0.82732,0.27623 2.3375,0.0984 3.31432,-0.39039 0.77496,-0.38772 1.24575,-0.78169 2.23349,-1.869 0.8954,-0.98568 1.09824,-1.26769 1.71491,-2.38431 0.49755,-0.90091 1.4697,-2.5281 2.2139,-3.70563 0.23161,-0.36647 0.75185,-1.23443 1.1561,-1.92879 0.40424,-0.69436 1.01664,-1.69646 1.36089,-2.22687 0.76583,-1.18 0.93309,-1.46922 1.71084,-2.95834 0.96846,-1.85426 1.31569,-2.68744 1.77008,-4.2475 0.39439,-1.35398 0.51852,-2.8164 0.35829,-4.2208 -0.0514,-0.45005 -0.13653,-1.22596 -0.18928,-1.72423 -0.13502,-1.27546 -0.64763,-3.19684 -1.17002,-4.3855 -0.10641,-0.24214 -0.26371,-0.63667 -0.34954,-0.87673 -0.38492,-1.07648 -1.27741,-2.55892 -2.01809,-3.35204 -0.81864,-0.87658 -1.93076,-1.57747 -2.94674,-1.85711 -0.4191,-0.11535 -0.61306,-0.12913 -1.87035,-0.13284 -1.6243,-0.005 -1.68321,0.005 -3.65301,0.58191 -1.94602,0.57035 -2.40328,0.76877 -3.56454,1.54677 -0.91096,0.6103 -1.42993,1.03547 -2.18241,1.78795 -1.02201,1.02201 -1.09452,1.13575 -2.25133,3.53138 -0.57851,1.19802 -0.95536,1.71244 -2.08072,2.84026 -1.42142,1.42454 -2.00643,1.86112 -2.89653,2.16168 -0.42097,0.14214 -1.36281,0.14141 -2.04569,-0.002 -2.1275,-0.44554 -3.25697,-1.36443 -4.63757,-3.77292 -0.80802,-1.40964 -1.27031,-2.91388 -1.91143,-6.21966 -0.44644,-2.30195 -1.23641,-4.17431 -4.50256,-10.6719 -1.20312,-2.39345 -1.37326,-2.79963 -2.1178,-5.055771 -1.09482,-3.31759 -1.61893,-5.67381 -1.99568,-8.97182 -0.38109,-3.33618 -0.62377,-4.9304 -0.94537,-6.21057 -0.44998,-1.79108 -1.21661,-3.4814 -2.28618,-5.04072 -0.55785,-0.81328 -0.91806,-1.25389 -1.91171,-2.33845 -0.43815,-0.47824 -1.06943,-1.2261 -1.40284,-1.66192 -0.33341,-0.43581 -1.01848,-1.27898 -1.52238,-1.87368 -0.5039,-0.59471 -1.23415,-1.51528 -1.62278,-2.04569 -1.962678,-2.67874 -2.949488,-3.8573 -4.652778,-5.55688 -1.79031,-1.7864 -2.57819,-2.40375 -3.63709,-2.84986 -0.30209,-0.12727 -0.69738,-0.29819 -0.878429,-0.37984 -0.367704,-0.16582 -1.091819,-0.33137 -1.449355,-0.33137 -0.310967,0 -2.012289,0.41996 -2.889552,0.71327 -0.994832,0.33262 -2.027988,0.77855 -3.448886,1.48861 -2.266929,1.13285 -3.275525,1.74152 -4.693491,2.83242 -0.391404,0.30113 -1.127851,0.86766 -1.636548,1.25895 -0.508693,0.39129 -1.256558,0.99623 -1.661919,1.34431 -1.365358,1.17241 -4.153695,3.05518 -6.222416,4.20154 -2.298187,1.27352 -6.682392,3.36901 -8.689871,4.15343 -1.964802,0.76776 -2.768129,0.99454 -5.129057,1.44794 -2.286752,0.43916 -2.392922,0.45012 -4.613344,0.47627 -2.176756,0.0256 -3.235676,-0.0266 -4.884502,-0.24088 -0.610785,-0.0794 -1.439289,-0.18665 -1.841121,-0.23838 -0.401833,-0.0517 -1.04685,-0.0971 -1.433374,-0.10081 l -0.702766,-0.007 -0.61232,0.29922 c -0.968232,0.47314 -1.299049,0.8005 -1.853506,1.83414 -0.181062,0.33754 -0.512147,0.91384 -0.735748,1.28067 -0.483991,0.794 -0.805257,1.46151 -1.198046,2.48925 -0.159719,0.41791 -0.383974,0.97024 -0.498346,1.22741 -0.402958,0.90608 -1.215182,3.80939 -1.757768,6.28319 -0.578399,2.63708 -0.7655,3.90478 -1.052422,7.1307 -0.112937,1.269791 -0.237396,2.650631 -0.276574,3.068531 -0.05065,0.54032 -0.07266,2.64255 -0.07618,7.27681 -0.0056,7.35652 0.03995,6.52142 -0.52267,9.58552 -0.368315,2.00589 -0.559628,3.50689 -0.446977,3.50689 0.02581,0 0.248305,-0.0918 0.49443,-0.20393 1.40574,-0.64061 3.788057,-1.23006 5.82106,-1.44028 0.910694,-0.0942 3.616218,-0.0939 4.354396,5.2e-4 1.287821,0.16456 3.071675,0.61987 3.798835,0.96962 0.455798,0.21923 0.895066,0.61476 1.055424,0.95034 0.252421,0.52823 0.152965,1.15173 -0.24989,1.56653 -0.457171,0.47074 -1.13572,0.64608 -3.376955,0.87265 -1.620864,0.16386 -2.225985,0.2472 -3.671826,0.50569 -2.352521,0.4206 -4.789914,1.05061 -5.746221,1.48524 -0.635415,0.2888 -1.603595,0.84755 -1.641998,0.94763 -0.03485,0.0908 0.301889,1.05417 0.751164,2.14895 0.182817,0.44549 0.426867,0.90396 0.668916,1.25664 0.433858,0.63215 1.097909,1.63209 1.899799,2.86076 0.303066,0.46436 0.751698,1.246 0.996961,1.73697 l 0.445933,0.89269 0.220935,-0.33422 c 0.644978,-0.97569 1.845518,-2.24667 2.890905,-3.06053 0.953433,-0.74227 2.15396,-1.42613 3.239765,-1.84547 0.708646,-0.27367 2.159028,-0.63653 2.851167,-0.71328 1.175879,-0.13042 2.838642,-0.0491 4.028891,0.19707 0.889107,0.18388 1.970436,0.54504 2.709575,0.905 1.493195,0.72718 1.992035,1.93058 1.130253,2.72664 -0.646785,0.59747 -1.441785,1.03197 -3.141769,1.71713 -2.053384,0.82759 -3.010874,1.1268 -4.674633,1.46078 -1.782848,0.35789 -3.294204,0.54028 -4.535921,0.54739 -1.056037,0.006 -1.599022,-0.0607 -3.916035,-0.4811 -0.160733,-0.0291 -0.303024,-0.0424 -0.31621,-0.0295 -0.01317,0.013 0.110782,0.42481 0.275473,0.91526 0.637378,1.89806 1.132581,4.56881 1.503768,8.11008 0.176514,1.68407 0.62344,5.30365 0.793851,6.42931 0.140754,0.92977 0.485587,2.31735 0.76984,3.09776 0.41874,1.14967 2.639559,6.43965 3.103988,7.39371 0.266035,0.54649 0.694414,1.34869 0.951966,1.78267 0.467597,0.78791 0.861942,1.49114 1.392986,2.48405 0.396817,0.74196 1.266714,2.14835 2.132986,3.44845 0.846171,1.26994 1.198601,1.86339 1.838875,3.09643 0.250001,0.48146 0.688898,1.26612 0.97533,1.74369 0.792255,1.32096 1.672818,3.16183 2.269937,4.7454 0.357941,0.94926 0.53356,1.31394 0.981535,2.03815 0.528926,0.85507 2.317684,3.44287 2.399662,3.47159 0.02449,0.009 0.48919,-0.478 1.032679,-1.08129 1.797246,-1.99503 2.688336,-2.84824 3.434432,-3.28845 0.2472,-0.14585 1.59122,-0.54136 2.308045,-0.67918 0.416504,-0.0801 1.073225,-0.10596 3.550345,-0.13982 3.603161,-0.0492 3.748139,-0.0652 6.37086,-0.6996 0.546493,-0.1322 1.480203,-0.33607 2.074915,-0.45306 l 1.081292,-0.21269 2.425608,-0.004 c 1.334079,-0.002 2.451907,-0.0208 2.484047,-0.0416 0.03217,-0.0208 0.452977,-0.0814 0.935174,-0.13467 0.923468,-0.10211 2.199373,-0.33221 3.419225,-0.61663 0.401832,-0.0937 0.975994,-0.20149 1.27591,-0.23956 0.514311,-0.0653 0.543136,-0.0762 0.507089,-0.19248 -0.02101,-0.0678 -0.05257,-0.24622 -0.07012,-0.39653 -0.02817,-0.24113 -0.01338,-0.29179 0.125673,-0.43085 0.137797,-0.1378 0.191178,-0.15379 0.425215,-0.12742 0.147193,0.0166 0.493688,0.1434 0.769988,0.28178 0.393884,0.19729 0.612694,0.36087 1.013243,0.75754 0.53023,0.5251 0.68731,0.78422 0.68731,1.13373 0,0.27902 -0.2463,0.55017 -0.54253,0.59727 -0.30189,0.048 -0.943291,-0.27153 -1.431018,-0.71289 l -0.365344,-0.33062 -0.803182,0.32227 c -0.761085,0.3054 -1.905097,0.67886 -2.352055,0.76784 -0.112516,0.0224 -0.533342,0.11618 -0.935174,0.20839 -0.741515,0.17017 -2.250461,0.41812 -3.158422,0.51901 -0.655808,0.0729 -1.002189,0.21685 -1.683833,0.6999 -1.747943,1.23871 -3.859186,2.42627 -4.947835,2.78313 -0.257171,0.0843 -0.941015,0.23314 -1.519654,0.33076 -0.951303,0.16047 -1.186425,0.1783 -2.454827,0.18616 -0.771519,0.005 -1.712991,-0.006 -2.092161,-0.025 l -0.689411,-0.0337 -0.746672,0.93969 c -0.410668,0.51683 -0.865279,1.09751 -1.010246,1.29039 -0.386906,0.51478 -1.992092,2.86225 -2.557864,3.74068 -0.269151,0.41791 -0.790269,1.18795 -1.15803,1.7112 l -0.668659,0.95137 0.123494,0.20931 c 0.06792,0.11512 0.486917,0.69962 0.931095,1.29889 2.283105,3.08029 3.46594,5.02128 4.546392,7.46045 0.56228,1.26936 1.825038,3.47479 2.440176,4.26181 0.463534,0.59305 1.735045,1.83081 2.57762,2.5092 1.308958,1.05388 2.788975,1.91864 4.295213,2.50967 0.830466,0.32586 1.314183,0.46937 2.10414,0.62428 1.308777,0.25663 1.754376,0.28961 3.653019,0.27028 1.714531,-0.0174 1.86686,-0.0281 2.834739,-0.19732 z M 71.35532,194.00062 c -1.153973,-0.14602 -1.987334,-0.53543 -2.099133,-0.98089 -0.08749,-0.3486 0.190654,-0.44675 1.003413,-0.35409 0.718475,0.0819 1.390028,0.0437 2.717845,-0.15456 1.821895,-0.27205 3.466625,-0.67427 4.734306,-1.15775 0.817699,-0.31186 1.269238,-0.53703 2.368098,-1.1809 0.926301,-0.54277 1.169381,-0.60904 1.340056,-0.36538 0.337063,0.48123 -0.210758,1.08968 -2.159275,2.39823 -1.221242,0.82015 -2.110552,1.20595 -3.466873,1.50403 -1.173579,0.2579 -3.497224,0.41042 -4.438437,0.29131 z m -3.229085,-13.65277 c -1.207992,-0.14089 -1.590177,-0.31795 -1.496022,-0.69309 0.06372,-0.2539 0.322407,-0.33165 1.286955,-0.38679 1.465039,-0.0838 2.81778,-0.27419 4.611015,-0.64915 1.25882,-0.2632 1.396332,-0.26152 1.553772,0.019 0.200573,0.35735 -0.20156,0.72215 -1.118902,1.01502 -1.376757,0.43953 -3.908374,0.80332 -4.836818,0.69504 z m -6.838451,-12.13257 c -1.598893,-0.17431 -3.595187,-1.29935 -5.180409,-2.9195 -0.953679,-0.97469 -1.97895,-2.66167 -2.23816,-3.68269 -0.243293,-0.9583 -0.209705,-2.63641 0.08465,-4.23019 0.07933,-0.42951 0.421459,-1.91942 0.760286,-3.3109 0.338827,-1.39148 0.670822,-2.81982 0.737759,-3.17409 0.06694,-0.35427 0.248564,-1.30167 0.403607,-2.10533 0.376197,-1.94999 0.447036,-2.5062 0.521097,-4.09138 0.06606,-1.41404 0.253482,-3.88396 0.354807,-4.67586 0.0885,-0.69169 0.216013,-1.31489 0.436499,-2.13336 0.27301,-1.01348 0.366553,-1.50729 0.441879,-2.33281 0.07173,-0.78597 0.0079,-2.03639 -0.149392,-2.92754 -0.212429,-1.20339 -0.744094,-2.68101 -1.345955,-3.74069 -0.429957,-0.75702 -0.476967,-1.00816 -0.194825,-1.04081 0.175992,-0.0204 0.289529,0.10568 0.68968,0.76566 0.785013,1.29475 1.756104,4.70841 1.898923,6.67523 0.05503,0.7578 -0.05227,1.70426 -0.34456,3.03932 -0.406517,1.85675 -0.542597,3.28848 -0.616632,6.48776 -0.04565,1.97172 -0.116837,2.99186 -0.295776,4.2375 -0.284979,1.98379 -0.653348,3.80516 -1.247136,6.16629 -0.5777,2.29717 -0.756712,3.51288 -0.727228,4.93888 l 0.01992,0.9644 0.222862,0.46758 c 0.355974,0.74688 1.028228,1.70702 1.526762,2.18058 0.922146,0.87594 2.07092,1.64578 3.261086,2.18535 1.489708,0.67538 1.590975,0.70381 2.616796,0.73473 1.044098,0.0314 1.227411,0.0865 1.227411,0.36866 0,0.55522 -0.654443,1.02369 -1.626494,1.16429 -0.445667,0.0645 -0.553331,0.0635 -1.237471,-0.0111 z m 4.01277,-3.25174 c -0.202193,-0.22342 -0.07559,-0.49874 0.488899,-1.06323 1.042563,-1.04256 3.196188,-1.94412 5.169758,-2.16419 0.439887,-0.049 0.775477,-0.0436 1.538808,0.0248 2.757016,0.24725 3.610788,0.24312 4.467807,-0.0216 0.674708,-0.20839 0.852199,-0.4611 1.067647,-1.52009 0.129419,-0.63617 0.09779,-2.03998 -0.05554,-2.46458 -0.05416,-0.14999 -0.09018,-0.37337 -0.08005,-0.4964 0.03844,-0.46629 0.594474,-0.47445 1.009727,-0.0148 0.477642,0.5287 0.645971,1.25377 0.643325,2.77117 -0.0016,1.04911 -0.01069,1.13663 -0.160106,1.58269 -0.386335,1.15328 -0.99313,1.69604 -2.351288,2.10318 -0.958489,0.28734 -2.809841,0.23541 -4.545172,-0.12746 -0.644212,-0.13471 -0.807846,-0.1468 -1.650292,-0.12183 -0.884754,0.0262 -0.987168,0.042 -1.899566,0.2921 -1.095357,0.30029 -1.536277,0.46674 -2.571727,0.97086 -0.401832,0.19563 -0.785708,0.35581 -0.85305,0.35597 -0.06735,0 -0.165984,-0.0478 -0.219183,-0.10661 z M 44.838797,145.46115 c -0.769349,-0.16009 -1.377736,-0.58291 -1.377736,-0.9575 0,-0.32905 0.09803,-0.35545 1.318416,-0.35499 2.525188,0.001 5.666201,-0.58735 7.507276,-1.40606 0.646173,-0.28735 0.715435,-0.30565 0.896594,-0.23677 0.370693,0.14094 0.205176,0.68375 -0.327937,1.0755 -0.79334,0.58297 -2.98006,1.36959 -4.923057,1.77095 -0.894428,0.18475 -2.463507,0.23998 -3.093556,0.10887 z m 37.490371,-5.11539 c -1.107077,-0.15405 -1.931836,-0.42821 -3.084351,-1.02532 -0.956035,-0.4953 -1.431918,-0.80436 -1.829086,-1.18787 -0.375025,-0.36215 -0.468499,-0.76663 -0.177159,-0.76663 0.06323,0 0.649275,0.18656 1.302312,0.41458 2.638472,0.92127 3.000807,1.00547 4.343546,1.0094 0.736052,0.002 1.072062,-0.0245 1.578098,-0.12532 0.968813,-0.19295 2.457022,-0.60761 4.150816,-1.15654 0.836355,-0.27105 1.589622,-0.49281 1.673914,-0.49281 0.240148,0 0.411705,0.1747 0.411705,0.41923 0,0.54713 -0.49442,0.85852 -2.809572,1.76955 -1.630691,0.64168 -2.291365,0.85983 -3.11243,1.02773 -0.686278,0.14033 -1.864313,0.19519 -2.447793,0.114 z m 55.655562,-0.59125 c -0.39269,-0.1509 -0.9651,-0.67539 -1.16667,-1.06901 -0.18278,-0.35695 -0.24075,-1.04113 -0.13812,-1.63046 0.0918,-0.52736 0.43607,-1.51878 0.94734,-2.72841 l 0.43233,-1.02285 -0.003,-0.64293 c -0.002,-0.59664 -0.0198,-0.69342 -0.24262,-1.34431 -0.13204,-0.38576 -0.43951,-1.14046 -0.68329,-1.67711 -0.88144,-1.94046 -1.35982,-3.2879 -1.52864,-4.30565 -0.14212,-0.85674 -0.096,-1.89308 0.1162,-2.60914 0.43915,-1.4822 1.6958,-3.35523 3.25844,-4.85667 0.90104,-0.86576 1.64833,-1.35665 2.52369,-1.65782 0.64059,-0.2204 1.02984,-0.22133 1.14682,-0.003 0.10197,0.19053 -0.001,0.29209 -0.60313,0.59419 -0.88561,0.44442 -1.34866,0.77221 -2.04851,1.4501 -1.39575,1.35196 -2.53541,3.05374 -3.02671,4.51956 -0.30274,0.90325 -0.29511,1.99311 0.0211,3.01776 0.15455,0.50081 0.50875,1.32251 1.27192,2.95071 1.03508,2.2083 1.37475,3.24279 1.37385,4.18417 -5.2e-4,0.75111 -0.0954,1.08351 -0.69811,2.45119 -0.49145,1.11518 -0.65541,1.60851 -0.70925,2.13404 -0.0366,0.35684 -0.0308,0.38132 0.12394,0.52471 0.0893,0.0827 0.21395,0.15041 0.27708,0.15041 0.27349,0 0.84357,-0.38693 1.41791,-0.96238 0.70545,-0.70682 1.30101,-1.48967 1.92801,-2.53434 0.98801,-1.64614 1.52732,-2.18889 2.6241,-2.64086 1.02237,-0.42132 2.02838,-1.18468 2.58001,-1.95771 0.51981,-0.72845 1.00435,-1.85595 1.25986,-2.93164 0.0984,-0.41419 0.11486,-0.61091 0.0831,-0.9922 -0.0375,-0.45023 -0.0325,-0.48055 0.0927,-0.56829 0.24371,-0.17071 0.62433,0.0105 0.83021,0.39527 0.11305,0.21128 0.12768,0.32546 0.12429,0.97007 -0.003,0.63033 -0.0294,0.82559 -0.19031,1.42266 -0.56643,2.10246 -1.33094,3.24944 -2.83679,4.25602 -0.38237,0.25558 -0.95951,0.59734 -1.28256,0.75944 -0.32304,0.16211 -0.67644,0.36454 -0.78532,0.44983 -0.29468,0.23083 -0.76062,0.87609 -1.27259,1.7624 -0.89253,1.54509 -1.63959,2.56438 -2.36418,3.2257 -0.9968,0.90976 -2.01762,1.23756 -2.85358,0.91633 z m -99.214145,-4.90653 c -0.180533,-0.10515 -0.127149,-0.41187 0.142985,-0.82154 0.562761,-0.85346 2.449219,-2.51921 3.723667,-3.28802 1.284249,-0.77473 3.455416,-1.38124 4.973651,-1.38939 1.279555,-0.007 3.503127,0.47331 3.864299,0.83448 0.13084,0.13084 0.145559,0.39252 0.0247,0.43891 -0.047,0.018 -0.250868,-0.007 -0.452977,-0.0567 -0.806777,-0.19658 -2.328844,-0.35976 -3.319109,-0.35583 -1.122137,0.005 -1.649848,0.0978 -2.989618,0.52889 -0.934892,0.30081 -1.32006,0.47838 -2.012141,0.92765 -1.147158,0.74469 -2.021469,1.47245 -3.064104,2.55051 -0.369686,0.38225 -0.698457,0.69402 -0.730604,0.69283 -0.03214,-0.001 -0.104476,-0.029 -0.160732,-0.0618 z m 41.045306,-1.90511 c -0.11251,-0.0114 -0.533341,-0.0616 -0.935173,-0.1115 -0.437594,-0.0544 -0.882965,-0.0758 -1.110517,-0.0534 -0.388991,0.0382 -2.630031,-0.14699 -3.302326,-0.27293 -0.42618,-0.0798 -0.591475,-0.1595 -0.811758,-0.39124 -0.144972,-0.1525 -0.164392,-0.21064 -0.13745,-0.41154 0.06251,-0.46598 0.837839,-1.55426 1.879935,-2.6387 0.388197,-0.40398 0.924076,-0.97574 1.190824,-1.27058 0.629415,-0.69569 1.647132,-1.4618 2.555618,-1.9238 0.728939,-0.37069 2.065727,-0.8443 3.100481,-1.09846 0.985639,-0.2421 2.846564,-0.4895 3.765887,-0.50067 0.465294,-0.006 0.246707,-0.0726 -0.81928,-0.25096 -1.180422,-0.19751 -2.103336,-0.24385 -3.155206,-0.15845 -2.408939,0.19559 -3.927726,0.81251 -6.208149,2.52176 -0.733557,0.54983 -0.893549,0.60877 -1.097884,0.40443 -0.257021,-0.25702 -0.09487,-0.70452 0.476692,-1.31552 1.96378,-2.09928 5.723488,-3.06133 9.948987,-2.54577 1.180184,0.14399 1.579567,0.21454 3.609651,0.63759 2.433878,0.50719 3.402969,0.82799 5.253689,1.7391 1.28213,0.6312 1.86931,1.03832 2.02093,1.40121 0.18216,0.43595 -0.19004,0.68919 -0.71774,0.48836 -0.0905,-0.0344 -0.45385,-0.14258 -0.80747,-0.24031 -0.35361,-0.0977 -0.68598,-0.19019 -0.7386,-0.20548 -0.0698,-0.0203 -0.13473,0.0564 -0.24029,0.28414 -0.0796,0.17157 -0.33235,0.59529 -0.56179,0.94161 -0.33856,0.51103 -0.48983,0.68173 -0.80286,0.90594 -0.21215,0.15196 -0.725601,0.52805 -1.141015,0.83576 -0.976643,0.72342 -1.773671,1.20019 -2.681737,1.60419 -1.866097,0.83022 -3.765643,1.37618 -5.493782,1.57899 -0.654573,0.0768 -2.466299,0.10439 -3.039667,0.0463 z m 2.262638,-1.0723 c 1.440976,-0.18444 2.116628,-0.31986 3.114604,-0.62424 l 0.496811,-0.15152 -0.427933,-0.0742 c -0.516651,-0.0896 -1.247894,-0.32421 -1.763876,-0.56588 -0.60074,-0.28137 -1.194565,-0.91932 -1.570114,-1.68677 -0.444847,-0.90906 -0.602836,-1.95644 -0.387279,-2.56739 0.04856,-0.13765 0.07774,-0.26082 0.06484,-0.27372 -0.04799,-0.048 -1.201263,0.41225 -1.935805,0.77256 -1.087,0.5332 -1.818071,1.10077 -3.189625,2.47629 -1.242607,1.2462 -2.224598,2.44985 -2.069504,2.53665 0.04612,0.0258 0.511883,0.0394 1.034962,0.0301 0.942427,-0.0166 3.315178,0.0916 3.990373,0.18205 0.654573,0.0877 1.703268,0.0663 2.64255,-0.054 z m 4.634258,-2.13408 c 0.56034,-0.16697 1.049541,-0.4833 1.616823,-1.04546 0.513305,-0.50867 0.542296,-0.55131 0.698713,-1.02751 0.133273,-0.40573 0.163676,-0.60395 0.165855,-1.08129 0.0036,-0.7448 -0.07783,-0.99762 -0.335958,-1.04568 -1.03118,-0.19198 -2.27097,-0.32763 -2.995355,-0.32774 -1.092415,0 -2.957792,0.24737 -3.166983,0.42024 -0.03943,0.0326 -0.142383,0.20774 -0.228839,0.38929 -0.41641,0.87441 -0.128671,2.23331 0.634484,2.99646 0.569,0.569 1.585311,0.88928 2.676087,0.84334 0.33754,-0.0142 0.758371,-0.069 0.935173,-0.12165 z m -1.388793,-1.6834 c -0.739809,-0.2683 -1.048965,-1.10067 -0.68219,-1.83669 0.27367,-0.54919 0.751648,-0.82643 1.296129,-0.7518 0.948014,0.12994 1.548853,1.15842 1.137516,1.94713 -0.299522,0.57432 -1.113973,0.87256 -1.751455,0.64136 z m 5.284788,0.83097 c 0.219978,-0.16646 0.570919,-0.45249 0.779872,-0.63562 0.208952,-0.18314 0.500848,-0.41447 0.648658,-0.51409 0.26644,-0.17956 0.75084,-0.67309 0.98921,-1.00785 0.0939,-0.13181 0.10517,-0.18045 0.0467,-0.20069 -0.85187,-0.29474 -2.451641,-0.73234 -2.67816,-0.73257 -0.0749,0 -0.08767,0.16385 -0.08767,1.12506 0,1.01915 -0.01276,1.16368 -0.135239,1.53428 -0.07438,0.22502 -0.226463,0.54809 -0.337961,0.71793 l -0.202727,0.30879 0.2887,-0.14629 c 0.158778,-0.0805 0.468671,-0.28249 0.688648,-0.44895 z m -25.095198,-7.11575 c -0.868749,-0.30018 -1.437868,-1.11081 -1.441868,-2.05375 -0.0021,-0.5342 0.06772,-0.70254 0.69256,-1.66578 0.752815,-1.1605 1.473635,-1.76685 3.21584,-2.7051 1.824883,-0.98278 4.244478,-1.93847 6.019892,-2.37773 1.016124,-0.2514 2.917309,-0.5795 3.887092,-0.67082 1.199017,-0.11291 3.32062,-0.17089 4.246688,-0.11606 2.143472,0.12691 4.525286,0.61068 6.213368,1.26197 1.440317,0.5557 2.319355,1.15532 3.113307,2.12369 0.565089,0.68923 0.863859,1.25407 0.862079,1.62979 -0.002,0.48798 -0.31274,0.95323 -0.758544,1.13692 -0.65119,0.2683 -1.585098,0.17331 -4.705512,-0.47861 -1.340845,-0.28013 -2.640823,-0.4934 -4.032506,-0.66154 -0.361614,-0.0437 -1.167208,-0.0752 -1.841122,-0.072 -2.504862,0.0118 -4.798883,0.46685 -7.247588,1.43765 -0.704986,0.2795 -4.279939,1.96957 -4.99733,2.36251 -0.542041,0.2969 -1.698567,0.77766 -2.096492,0.8715 -0.470871,0.11105 -0.759799,0.10527 -1.129864,-0.0226 z m 1.348767,-1.62334 c 0.293301,-0.11687 1.019865,-0.45536 1.614576,-0.7522 2.000549,-0.99852 4.115325,-1.99951 4.851206,-2.29623 1.318857,-0.53179 3.098391,-1.03741 4.462717,-1.26799 1.936578,-0.32729 3.617444,-0.40595 5.73651,-0.26847 1.478434,0.0959 1.994411,0.16406 3.185427,0.42066 0.594712,0.12813 1.450958,0.30864 1.902767,0.40113 0.451815,0.0925 1.040083,0.22398 1.307268,0.29219 0.267184,0.0682 0.524339,0.11613 0.571453,0.10645 0.139265,-0.0286 -0.468552,-0.77722 -0.878317,-1.08178 -1.147036,-0.85256 -3.585184,-1.59858 -6.58541,-2.01496 -0.743891,-0.10323 -4.004619,-0.10072 -4.88043,0.004 -3.119838,0.37222 -6.22638,1.33419 -9.058006,2.80491 -1.843862,0.95768 -2.61702,1.56417 -3.027148,2.3746 -0.113879,0.22502 -0.288466,0.48639 -0.387974,0.5808 -0.212423,0.20156 -0.22502,0.32767 -0.05949,0.59552 0.237715,0.38462 0.484142,0.40474 1.244848,0.10159 z m -8.499856,77.30096 c 0.197425,-0.0423 0.295118,-0.0927 0.295118,-0.15218 0,-0.18882 -0.452723,-0.93736 -0.77581,-1.28274 -0.592828,-0.63373 -1.875384,-1.42405 -2.311178,-1.42415 -0.309524,0 -0.420094,0.0892 -0.418621,0.33808 0.0016,0.29214 0.145548,0.59025 0.578997,1.20016 0.413122,0.58128 0.788245,0.90515 1.376083,1.18803 0.444037,0.21368 0.734838,0.24444 1.255411,0.1328 z m 2.004808,-1.40161 c 1.435093,-1.48052 2.852312,-3.31675 4.252499,-5.50975 2.16701,-3.394 2.360133,-3.66725 4.134753,-5.84998 0.522379,-0.64251 0.949784,-1.18516 0.949784,-1.20588 0,-0.0207 -0.295896,-0.0567 -0.657541,-0.08 -2.575794,-0.16598 -3.021409,-0.15127 -4.427458,0.14609 -0.466129,0.0986 -0.891251,0.19704 -0.944725,0.21878 -0.09901,0.0403 -0.470471,0.49151 -1.86094,2.26058 -0.429537,0.5465 -1.074927,1.33555 -1.434195,1.75345 -0.359279,0.41791 -1.043554,1.25957 -1.520625,1.87035 -1.626223,2.08204 -2.062292,2.63004 -2.651079,3.33155 -0.323766,0.38576 -0.588854,0.73426 -0.589072,0.77444 0,0.0445 0.07893,0.0731 0.202483,0.0731 0.541824,0 2.287079,0.91743 2.887539,1.51789 0.29175,0.29175 0.630017,0.76794 0.802601,1.12986 0.05671,0.11891 0.13112,0.21659 0.165346,0.21705 0.03424,5.2e-4 0.345012,-0.29091 0.69063,-0.64746 z m -14.48064,-58.32074 c 1.347678,-0.18192 1.289393,-0.15701 0.875183,-0.37385 -0.215108,-0.1126 -0.532197,-0.3676 -0.825939,-0.66422 -0.537053,-0.5423 -0.744678,-0.90913 -0.987777,-1.74517 -0.133905,-0.46052 -0.149464,-0.60066 -0.124926,-1.12513 0.01541,-0.3295 0.01696,-0.5991 0.0034,-0.5991 -0.01352,0 -0.214529,0.0903 -0.446679,0.20062 -0.576131,0.27385 -1.356656,0.77151 -1.867598,1.19079 -0.946139,0.77639 -2.685015,2.72173 -2.48825,2.78368 0.0419,0.0132 0.273439,0.0527 0.514538,0.0878 0.241099,0.0351 0.859191,0.1411 1.373535,0.2355 0.852042,0.15636 1.028695,0.17001 1.987241,0.15345 0.648251,-0.0112 1.411019,-0.0666 1.987243,-0.14441 z m 3.650775,-1.09299 c 0.163304,-0.0485 0.579109,-0.23823 0.924017,-0.42163 0.729484,-0.38789 1.251858,-0.86529 1.498559,-1.36951 0.19246,-0.39337 0.304658,-1.19507 0.24446,-1.74666 l -0.04218,-0.38634 -0.436956,-0.096 c -1.055305,-0.23189 -3.232476,-0.30116 -4.172908,-0.13277 -0.972077,0.17405 -1.831787,0.38381 -1.877728,0.45814 -0.02447,0.0396 -0.06257,0.24079 -0.08466,0.44709 -0.05194,0.48504 0.08467,1.19332 0.323908,1.67927 0.327398,0.66505 1.112042,1.2641 2.075423,1.58452 0.460836,0.15327 0.996478,0.14769 1.548056,-0.0161 z m -1.108273,-1.61725 c -0.498471,-0.26614 -0.714514,-0.76545 -0.615859,-1.42335 0.03493,-0.23295 0.09351,-0.3284 0.372491,-0.607 0.253812,-0.25347 0.396771,-0.3471 0.612783,-0.40131 0.471743,-0.11839 0.879881,0.006 1.193825,0.36341 0.23025,0.26225 0.330739,0.56503 0.333837,1.00589 0.0031,0.4262 -0.177533,0.74797 -0.562605,1.0028 -0.350912,0.23223 -0.960134,0.25941 -1.334472,0.0596 z m 4.941817,0.44692 c 0.651444,-0.26267 0.859219,-0.36848 1.360279,-0.69261 0.476194,-0.30804 0.558094,-0.39734 0.508314,-0.55419 -0.07931,-0.24986 -0.832868,-0.72703 -1.668045,-1.05623 l -0.291159,-0.11476 v 0.24058 c 0,0.41629 -0.181103,1.40418 -0.349354,1.90569 -0.08898,0.26521 -0.143935,0.4822 -0.122134,0.4822 0.02179,0 0.274743,-0.0948 0.562099,-0.21068 z m -19.140914,-8.79255 c 1.788233,-1.02333 4.13532,-1.72711 7.281807,-2.18347 0.952431,-0.13813 1.602504,-0.20549 4.024099,-0.41697 1.40062,-0.12232 2.034603,-0.26547 1.929419,-0.43567 -0.134764,-0.21805 -2.068134,-0.86841 -3.105206,-1.04456 -1.78175,-0.30261 -3.829941,-0.31768 -5.633438,-0.0414 -1.223087,0.18735 -2.519215,0.47186 -3.477673,0.76339 -0.721032,0.21931 -1.877734,0.64839 -1.994551,0.73987 -0.09732,0.0762 0.02277,1.09644 0.271169,2.30366 0.06383,0.31022 0.116054,0.57429 0.116054,0.58683 0,0.0537 0.102201,0.007 0.58832,-0.27165 z m 93.104282,-4.27193 c 0.40107,-0.22662 2.2933,-2.12571 2.82827,-2.83851 0.2534,-0.33765 0.58593,-0.92676 1.02846,-1.82201 1.18039,-2.388 2.61126,-5.03778 3.19204,-5.91122 0.55916,-0.84092 1.52202,-2.01603 2.10719,-2.57172 0.59434,-0.56439 1.47134,-1.24164 2.08715,-1.61177 0.78421,-0.47135 1.92053,-0.76116 2.61361,-0.66658 1.50451,0.20531 3.09705,1.78434 3.18203,3.15507 l 0.0199,0.32147 0.837,0.0359 c 1.08764,0.0465 1.79924,0.23028 2.80103,0.72318 l 0.50281,0.2474 0.0377,-1.5845 c 0.0835,-3.50654 0.11159,-11.864261 0.0441,-13.128031 -0.16799,-3.14525 -0.47416,-5.2772 -1.15416,-8.03665 -0.35484,-1.43995 -0.59927,-2.24851 -1.01884,-3.3704 -0.5561,-1.48693 -2.16636,-6.36958 -2.56051,-7.76399 -0.19535,-0.69116 -0.48564,-1.86158 -0.64507,-2.60095 -0.15944,-0.73937 -0.41045,-1.81348 -0.55781,-2.38692 -0.14737,-0.57343 -0.35976,-1.57289 -0.47201,-2.22103 -0.34378,-1.985 -0.84137,-4.29651 -1.09038,-5.06524 -0.27495,-0.84883 -1.27539,-3.46529 -1.69849,-4.44207 -0.47693,-1.1011 -1.31461,-2.61839 -2.58148,-4.67586 -1.45636,-2.36521 -2.70028,-3.839646 -6.16792,-7.310924 -1.98918,-1.991272 -3.13104,-2.933989 -5.35115,-4.417902 -1.74416,-1.165792 -2.9292,-1.848982 -5.02859,-2.899057 -2.8315,-1.41626 -5.51097,-2.638613 -6.94659,-3.168986 -2.56677,-0.948253 -5.55806,-1.608501 -8.3537,-1.843862 -0.77763,-0.06546 -2.22012,-0.209632 -3.20551,-0.320367 -0.9854,-0.110736 -2.528088,-0.255039 -3.428208,-0.320664 -0.90012,-0.06563 -2.02706,-0.158368 -2.50432,-0.206089 -1.93219,-0.19318 -3.10228,-0.180251 -5.514382,0.06094 -0.466123,0.04659 -1.20257,0.112407 -1.636548,0.146223 -0.601933,0.0469 -1.13557,0.142985 -2.250259,0.405184 -1.999407,0.47031 -3.463366,0.710563 -4.354399,0.714609 -1.070371,0.0047 -4.191169,0.375757 -5.114223,0.607802 -1.241165,0.31201 -2.013529,0.618873 -3.775428,1.499991 -2.293087,1.146772 -2.220764,1.128976 -5.400957,1.328834 -0.951443,0.0598 -2.334727,0.268009 -3.126982,0.470679 -0.584746,0.149584 -1.834694,0.573829 -2.47709,0.840744 -0.614012,0.255122 -1.506762,0.753469 -2.870927,1.602602 -1.211359,0.754014 -3.456674,1.805313 -4.617412,2.161957 -0.417905,0.128401 -1.038998,0.338464 -1.380218,0.466808 -0.341213,0.128344 -0.854098,0.304575 -1.139741,0.391627 -0.638863,0.194696 -1.148137,0.422341 -1.653322,0.739041 -1.685968,1.056934 -3.222574,2.631717 -4.611083,4.725631 -0.817779,1.233239 -1.394382,1.837639 -2.788397,2.922789 -2.659444,2.07021 -3.638237,2.94019 -4.592509,4.08195 -0.643203,0.76958 -1.026597,1.36768 -1.7228,2.6876 -1.128882,2.14023 -1.54908,3.19987 -2.066794,5.21197 -0.722177,2.80676 -0.910471,4.44877 -0.670735,5.84914 0.131104,0.76583 0.607808,2.48284 0.90107,3.24551 0.288672,0.75074 0.315042,0.85261 0.268601,1.03765 -0.04175,0.16634 -0.323166,0.29972 -0.508362,0.24094 -0.07134,-0.0227 -0.2409,-0.14366 -0.376797,-0.26892 l -0.247083,-0.22775 -0.03665,0.18325 c -0.07727,0.38636 -0.03331,2.40358 0.07828,3.59164 0.135717,1.44498 0.236984,2.01635 0.479097,2.70317 0.196503,0.55744 1.222776,2.71797 1.319439,2.77771 0.05597,0.0346 0.494328,-1.0137 1.702598,-4.0716 0.460101,-1.16444 0.720422,-1.66659 1.079192,-2.08175 0.133996,-0.15506 0.364089,-0.43626 0.511314,-0.62489 0.518818,-0.66473 1.858498,-1.59839 2.654727,-1.85016 0.635644,-0.20099 2.211111,-0.17427 4.500518,0.0763 1.610875,0.17632 1.929291,0.19321 3.916033,0.20763 1.189424,0.009 2.439097,-0.008 2.777043,-0.0379 0.805085,-0.0702 3.750727,-0.59143 4.64495,-0.82194 1.207385,-0.31125 4.1381,-1.4642 6.21948,-2.44676 1.479031,-0.69822 4.446556,-2.23636 5.237328,-2.71464 1.70719,-1.03256 4.035068,-2.665 5.46491,-3.83232 0.498275,-0.40679 1.20766,-0.95909 1.576423,-1.22733 0.368758,-0.26824 0.947397,-0.69824 1.285861,-0.95555 1.186969,-0.90237 2.737846,-1.86821 3.722805,-2.31844 4.302393,-1.96666 6.348099,-2.62857 8.123933,-2.62857 0.231811,0 0.495177,-0.028 0.585264,-0.0623 0.255303,-0.0971 1.065292,-0.13302 1.434397,-0.0637 0.433905,0.0815 1.839035,0.60679 2.325455,0.86931 0.95247,0.51405 2.27681,1.60546 4.02598,3.31787 1.44638,1.41598 2.616958,2.77615 4.402128,5.11514 0.3067,0.40184 0.97532,1.20488 1.48584,1.78456 0.51051,0.57967 1.16342,1.34242 1.4509,1.695 0.28748,0.35257 1.06433,1.19338 1.72635,1.86846 1.61537,1.64726 2.40016,2.71655 3.27151,4.45751 1.2474,2.49235 1.63307,4.01752 2.02094,7.99197 0.50285,5.15275 0.86876,7.09838 1.95663,10.4038 0.80666,2.451011 0.97517,2.856421 2.13788,5.143441 1.24883,2.45646 2.249,4.57436 3.10213,6.56898 0.92813,2.16991 1.1749,2.95154 1.62596,5.14991 0.42293,2.06135 0.84003,3.466 1.26695,4.26672 0.30354,0.56931 1.01813,1.63917 1.36091,2.0375 0.62378,0.72489 1.36197,1.13617 2.48779,1.38606 0.58656,0.13021 0.92596,0.10396 1.28586,-0.0994 z"
       style="fill:#ffffff;stroke-width:0.0584481" />
  </g>
</svg>
