<?xml version="1.0" encoding="UTF-8" standalone="no"?>
<svg
   xmlns:dc="http://purl.org/dc/elements/1.1/"
   xmlns:cc="http://creativecommons.org/ns#"
   xmlns:rdf="http://www.w3.org/1999/02/22-rdf-syntax-ns#"
   xmlns:svg="http://www.w3.org/2000/svg"
   xmlns="http://www.w3.org/2000/svg"
   id="svg8"
   version="1.1"
   viewBox="0 0 210 297"
   height="297mm"
   width="210mm">
  <defs
     id="defs2" />
  <metadata
     id="metadata5">
    <rdf:RDF>
      <cc:Work
         rdf:about="">
        <dc:format>image/svg+xml</dc:format>
        <dc:type
           rdf:resource="http://purl.org/dc/dcmitype/StillImage" />
        <dc:title></dc:title>
      </cc:Work>
    </rdf:RDF>
  </metadata>
  <g
     id="layer1">
    <path
       id="path142"
       d="m 125.93564,237.19597 c -0.62735,-0.17497 -1.01476,-0.5906 -1.21683,-1.30543 -0.0612,-0.21647 -0.10504,-0.7634 -0.12814,-1.5984 -0.0314,-1.13429 -0.0459,-1.26509 -0.13598,-1.22954 -1.8823,0.74244 -3.05458,1.0148 -5.25758,1.22152 -0.73962,0.0694 -1.58388,0.15287 -1.87614,0.18551 -1.10578,0.12346 -3.5602,0.0562 -4.86581,-0.13331 -0.25221,-0.0366 -0.47194,-0.0532 -0.4883,-0.0368 -0.0163,0.0163 -0.0539,0.20055 -0.0834,0.40932 -0.10157,0.71859 -0.50385,1.23139 -1.16365,1.48337 -0.4033,0.15402 -1.90789,0.0901 -2.93227,-0.1245 -1.53545,-0.32172 -2.45291,-0.65108 -4.48805,-1.61115 -0.66041,-0.31155 -1.80557,-0.82779 -2.5448,-1.1472 -0.73923,-0.31941 -1.737901,-0.76856 -2.21926,-0.99812 -0.48136,-0.22956 -1.473454,-0.66827 -2.204655,-0.97492 -0.7312,-0.30665 -1.842392,-0.81441 -2.469316,-1.12836 -0.967854,-0.48468 -2.652032,-1.25571 -5.203281,-2.38211 -1.31714,-0.58153 -4.689496,-1.86572 -5.438737,-2.07107 -1.893098,-0.51885 -2.804196,-0.62769 -4.893387,-0.58456 -1.660917,0.0343 -2.311967,0.10742 -3.295981,0.37028 -1.199931,0.32052 -1.892083,0.73249 -2.796351,1.66438 -0.933387,0.9619 -1.548279,1.97486 -2.074793,3.41799 -0.456397,1.25095 -0.543192,1.42479 -0.874574,1.75171 -0.482936,0.47643 -1.017532,0.58537 -1.698332,0.34609 -1.028203,-0.36138 -2.639432,-1.83359 -3.638704,-3.32475 -1.06593,-1.59063 -2.445121,-4.93369 -2.911045,-7.0562 -0.3547,-1.61579 -0.509904,-3.74943 -0.45928,-6.31393 0.01934,-0.97992 0.05321,-1.8285 0.07526,-1.88573 0.03423,-0.0889 0.0052,-0.0995 -0.198989,-0.0728 -0.160957,0.0211 -0.402492,-0.0227 -0.739188,-0.13389 -1.191765,-0.39357 -2.303106,-0.51153 -3.824178,-0.4059 -2.691852,0.18694 -5.053835,0.91722 -7.363955,2.27679 -1.072414,0.63115 -2.666943,1.90036 -4.753002,3.78328 -2.219845,2.00368 -3.866866,3.06981 -5.314281,3.44 -0.271217,0.0694 -0.938558,0.15664 -1.509119,0.19736 -1.272963,0.0909 -2.379675,0.0198 -4.491681,-0.28846 -4.280469,-0.62476 -9.062844,-0.92733 -11.346338,-0.71787 -2.288531,0.2099 -4.175451,1.00771 -6.157653,2.60349 -0.34601,0.27856 -2.132471,2.01819 -4.000913,3.89604 -1.8566724,1.86602 -3.5237181,3.49113 -3.7045458,3.61134 -0.2249674,0.14957 -0.4223493,0.2271 -0.6251412,0.24557 -0.4136848,0.0377 -0.5365448,-0.0662 -0.5307685,-0.44881 0.00634,-0.42709 0.2823294,-0.93941 0.9653186,-1.7927 1.2689076,-1.58531 4.8898089,-5.75459 5.5213669,-6.35758 2.066389,-1.9729 4.619596,-3.33606 7.094505,-3.78777 2.529031,-0.4616 8.256233,-0.18168 13.380327,0.65395 1.726325,0.28152 2.691481,0.34947 3.696733,0.26025 1.000517,-0.0888 1.420598,-0.19438 2.082956,-0.52353 0.99845,-0.49617 2.089123,-1.29509 4.197769,-3.07488 0.977703,-0.82522 2.537415,-2.00346 3.481512,-2.63001 2.492534,-1.65416 5.263572,-2.68838 8.16869,-3.04875 0.365172,-0.0453 1.25273,-0.08 2.000457,-0.0783 1.117667,0.003 1.444192,0.0249 1.938568,0.13251 0.7196,0.1566 1.477093,0.46289 1.851465,0.74865 0.182942,0.13965 0.284628,0.18444 0.300144,0.13221 0.0129,-0.0435 0.0703,-0.43062 0.127535,-0.86041 0.31504,-2.36565 0.978142,-4.62938 1.726836,-5.8952 0.314355,-0.53146 0.975862,-1.21816 1.364387,-1.41632 l 0.276082,-0.14082 -1.029323,-1.01333 c -0.714761,-0.70365 -1.547389,-1.63514 -2.724588,-3.04806 -2.723809,-3.26925 -2.983983,-3.62678 -4.017824,-5.5214 -1.329604,-2.43664 -2.211892,-3.98244 -2.290177,-4.01247 -0.04588,-0.0176 -0.267425,0.0709 -0.492326,0.19666 -0.224901,0.12578 -0.55607,0.27262 -0.73593,0.32631 -0.422471,0.12613 -1.324996,0.12333 -1.878566,-0.006 -1.356372,-0.31645 -3.019976,-1.56126 -3.888619,-2.90968 -0.144926,-0.22498 -0.627771,-1.14047 -1.072982,-2.03443 -0.923002,-1.85334 -1.383636,-2.70067 -2.251806,-4.14219 -0.847949,-1.40794 -1.161231,-1.83048 -3.023831,-4.07844 -0.897395,-1.08306 -2.239212,-2.72874 -2.981816,-3.65708 -0.742604,-0.92833 -1.634563,-2.02546 -1.982132,-2.43806 -0.347568,-0.41259 -0.868993,-1.04555 -1.158723,-1.40657 -0.289729,-0.36102 -0.807085,-0.99397 -1.149682,-1.40656 -0.722416,-0.87003 -2.246307,-2.90756 -2.852053,-3.81338 -2.293657,-3.42987 -4.223329,-7.79781 -4.506806,-10.20141 -0.05227,-0.44309 -0.05093,-0.73566 0.0056,-1.18293 0.200411,-1.59221 0.655608,-2.39378 1.598512,-2.81488 0.220515,-0.0985 0.401688,-0.19853 0.402611,-0.22233 7.04e-4,-0.0238 -0.108095,-0.22072 -0.242269,-0.4376 -2.12027,-3.42725 -2.932029,-4.81335 -3.818818,-6.52072 -1.356989,-2.61266 -2.202695,-4.07705 -3.177066,-5.50126 -0.329322,-0.48136 -0.820431,-1.19871 -1.091348,-1.59411 -1.403779,-2.04879 -3.352632,-5.78163 -4.386964,-8.40279 -1.443388,-3.65776 -2.865468,-9.71028 -3.328139,-14.16486 -0.136998,-1.319 -0.156687,-5.7441 -0.0317,-7.12662 0.252433,-2.79251 0.758934,-5.52306 1.453694,-7.836926 0.695176,-2.31523 1.545954,-4.258482 2.92109,-6.671992 0.344587,-0.60479 0.731412,-1.30808 0.859597,-1.56286 0.128186,-0.25478 0.524781,-0.9485 0.881322,-1.54159 0.8727,-1.45171 1.255242,-2.23013 1.732868,-3.5262 0.603628,-1.638 0.89191,-2.31065 1.710523,-3.99117 1.366866,-2.80602 2.898921,-5.15827 4.702754,-7.22039 0.830906,-0.94988 2.030412,-2.42413 3.255323,-4.00091 0.427358,-0.55013 1.270403,-1.59099 1.873428,-2.31304 0.603028,-0.72203 1.597628,-1.92629 2.210221,-2.67611 0.612593,-0.74983 1.325439,-1.60784 1.584101,-1.90669 1.02179,-1.18054 3.002085,-3.22267 4.458208,-4.59741 0.84238,-0.7953 2.263017,-2.16441 3.156971,-3.042457 2.11081,-2.073249 3.2532,-2.946407 5.782568,-4.41972 2.539623,-1.479293 5.632036,-2.947365 9.25211,-4.392282 2.36209,-0.942812 6.165381,-2.012365 10.325975,-2.903852 3.245997,-0.695514 8.469841,-1.31478 13.210641,-1.566065 0.962727,-0.051 2.327099,-0.123748 3.031947,-0.161597 4.51822,-0.242614 12.402992,0.03853 17.785301,0.634193 1.13558,0.125671 5.5734,0.804264 7.14931,1.093201 1.35991,0.249341 3.33518,0.702101 4.35229,0.997603 1.14392,0.332351 5.07248,1.672815 6.18994,2.112078 0.95466,0.375265 5.14228,2.444027 6.31393,3.119204 0.44698,0.257568 1.59244,0.971905 2.54546,1.587402 0.95302,0.615498 2.31207,1.484795 3.0201,1.931771 1.45226,0.916812 2.22889,1.476913 4.44985,3.209221 0.85235,0.66482 1.91544,1.494 2.36242,1.84262 1.38021,1.0765 3.93978,3.72819 5.57086,5.77137 1.26778,1.58809 2.59386,3.68149 3.61019,5.6992 0.73646,1.46209 2.47872,5.05707 2.91459,6.01398 0.18009,0.3954 0.85552,1.81604 1.50093,3.15697 0.64541,1.34093 1.52562,3.22574 1.95602,4.18846 0.93429,2.08985 1.78247,3.92747 2.48147,5.37622 1.15045,2.38439 2.65209,5.5896 3.01008,6.4249 1.88287,4.393388 2.97374,8.545068 3.55166,13.517148 0.27617,2.37606 0.34414,3.3685 0.3446,5.03239 7.1e-4,1.48321 -0.0141,1.72305 -0.13891,2.29102 -0.28988,1.31937 -0.77854,2.46542 -1.45433,3.4108 l -0.35308,0.49395 0.0774,0.29838 c 0.19311,0.74443 0.31379,1.71614 0.55995,4.50837 0.32894,3.73113 0.5345,5.54765 0.88079,7.78302 0.19648,1.26839 0.29859,2.16028 0.33994,2.96943 0.0325,0.63608 0.10108,1.57848 0.1524,2.09422 0.24864,2.49873 0.27637,4.67686 0.0934,7.3377 -0.18087,2.63096 -0.19212,2.69889 -0.93998,5.67905 -0.45674,1.82007 -0.52042,2.01825 -0.94418,2.93817 -0.24991,0.54255 -0.55097,1.15306 -0.669,1.35669 -0.22124,0.38164 -1.23287,1.41049 -1.8397,1.87099 -0.65739,0.49888 -1.87207,0.97484 -2.49418,0.97733 -0.1269,7e-4 -0.24337,0.0221 -0.25883,0.0478 -0.0154,0.0258 0.0232,0.56732 0.0858,1.2034 0.31452,3.19335 0.40149,4.97314 0.31159,6.37646 -0.10189,1.59051 -0.62198,5.42589 -0.90706,6.68902 -0.25812,1.14364 -1.02478,3.87293 -1.35216,4.8136 -0.17351,0.49855 -0.32969,0.95232 -0.34707,1.00839 -0.0281,0.0906 0.0816,0.10491 0.9896,0.1288 l 1.0212,0.0269 0.96897,0.33057 c 1.62379,0.55396 3.31851,1.42644 4.54776,2.34128 1.76525,1.31374 3.12681,2.58848 4.18163,3.91499 2.00545,2.52202 3.04771,4.47595 4.17388,7.82481 0.90185,2.68185 1.25965,5.36799 1.21443,9.11741 l -0.0207,1.71915 0.90524,0.0453 c 3.39056,0.16973 5.43351,0.63707 8.87824,2.03097 1.95182,0.78979 2.93045,1.14495 4.28223,1.55408 1.46421,0.44315 2.55448,0.66187 4.64915,0.93264 0.94104,0.12164 2.24915,0.3184 2.90691,0.43723 2.50075,0.45178 3.80831,0.61461 6.53873,0.81425 2.19528,0.16051 2.71918,0.2611 3.017,0.57927 0.20253,0.21636 0.2552,0.39269 0.17798,0.59579 -0.0997,0.26228 -0.28449,0.31219 -1.34864,0.36428 -3.15499,0.15443 -3.81034,0.19115 -5.0324,0.28194 -1.61781,0.12018 -2.39785,0.0957 -5.25119,-0.16512 -3.73192,-0.34107 -4.79475,-0.54855 -7.43793,-1.45203 -1.36116,-0.46527 -1.97458,-0.70927 -3.67755,-1.46285 -2.87727,-1.27321 -4.16638,-1.67845 -7.63749,-2.40086 -0.63536,-0.13223 -1.16514,-0.23048 -1.17729,-0.21833 -0.0122,0.0121 -0.10404,0.50972 -0.20422,1.10572 -0.62221,3.70176 -1.98976,7.6506 -3.44533,9.94852 -1.10522,1.7448 -2.13945,2.724 -3.58992,3.39884 -0.94001,0.43736 -1.84232,0.3442 -2.37478,-0.24517 -0.38777,-0.42921 -0.49153,-0.7379 -0.48859,-1.45363 0.003,-0.71154 0.12961,-1.26249 0.68299,-2.96983 0.60277,-1.85979 1.44252,-5.36038 1.31618,-5.48672 -0.0689,-0.0689 -0.56762,0.21777 -1.03892,0.59715 -1.07147,0.8625 -2.13927,2.13045 -3.51265,4.17106 -1.42642,2.11944 -3.47492,5.08616 -3.88489,5.62628 -0.51171,0.67415 -1.37721,1.66583 -1.86105,2.13238 -0.86081,0.83005 -2.41754,2.02225 -4.04283,3.09617 -1.91726,1.26682 -6.97286,4.23463 -9.35628,5.49246 -0.92834,0.48992 -1.9692,1.04038 -2.31303,1.22327 -1.01045,0.53745 -2.8148,1.36402 -4.65731,2.13351 -0.94553,0.39488 -2.3943,1.00779 -3.21949,1.36201 -0.82518,0.35423 -1.68366,0.70042 -1.90773,0.76932 -0.55912,0.17195 -1.14919,0.21732 -1.51159,0.11624 z m 1.95024,-2.74729 c 0.32664,-0.15349 1.59255,-0.70664 2.81315,-1.22923 2.42195,-1.03695 4.11373,-1.82638 5.47,-2.55245 0.48135,-0.2577 1.59255,-0.83968 2.4693,-1.2933 0.87677,-0.45362 2.31147,-1.24068 3.18824,-1.74903 8.06824,-4.67796 9.54334,-5.81441 11.97181,-9.22337 0.30617,-0.42978 0.9257,-1.28779 1.37672,-1.90668 0.45103,-0.6189 1.25306,-1.77228 1.7823,-2.56309 0.52923,-0.79081 1.2066,-1.76134 1.50525,-2.15674 2.38976,-3.16393 4.53148,-4.42298 6.16336,-3.62323 0.66051,0.3237 1.08456,0.96246 1.20895,1.8211 0.16538,1.14143 -0.32894,3.43648 -1.38856,6.44687 -0.23961,0.68074 -0.42518,1.26914 -0.41238,1.30755 0.0349,0.10468 0.88997,-0.7285 1.29978,-1.26649 1.19285,-1.56597 1.79401,-2.83787 2.64934,-5.60527 1.23468,-3.99479 1.6188,-6.68579 1.47318,-10.3208 -0.13839,-3.45473 -0.61233,-5.69654 -1.85282,-8.76429 -1.09508,-2.70812 -3.149,-5.64294 -5.27903,-7.54313 -2.00653,-1.78999 -3.00423,-2.42826 -5.10724,-3.26728 -0.91077,-0.36336 -0.99498,-0.38489 -1.7504,-0.44736 -0.43647,-0.0361 -0.97584,-0.0567 -1.19858,-0.0459 l -0.40499,0.0198 -0.30535,0.84395 c -0.16794,0.46417 -0.50184,1.36437 -0.74199,2.00045 -0.24016,0.63609 -0.6846,1.81761 -0.98766,2.6256 -0.30306,0.808 -0.84639,2.20051 -1.20741,3.09446 -0.36102,0.89395 -0.85899,2.21613 -1.1066,2.93817 -0.74367,2.16851 -1.32702,3.48941 -2.42044,5.48062 -0.30832,0.56147 -0.80904,1.4991 -1.11271,2.0836 -0.30367,0.58451 -0.8176,1.51285 -1.14207,2.06298 -0.81226,1.37715 -1.36487,2.44568 -1.88112,3.63736 -0.56393,1.3017 -0.8965,1.96036 -1.52087,3.012 -0.81998,1.38114 -0.91971,1.51843 -3.31028,4.55728 -0.96061,1.22112 -2.77266,2.86169 -5.18782,4.69688 -0.80217,0.60954 -1.75386,1.33972 -2.11488,1.62263 -0.76656,0.60069 -1.42809,1.06065 -2.67065,1.85687 l -0.89922,0.57621 -0.0218,2.11689 c -0.012,1.16429 -0.052,2.49667 -0.0891,2.96084 -0.037,0.46417 -0.1241,1.56129 -0.19344,2.43805 -0.0693,0.87676 -0.15686,1.86136 -0.19452,2.188 -0.0855,0.74142 -0.15149,3.1557 -0.0946,3.45906 l 0.0423,0.22551 0.29446,-0.11804 c 0.16196,-0.0649 0.56172,-0.24361 0.88835,-0.39709 z m -18.22283,-0.35642 c 0.0477,-0.0771 -0.1393,-1.10148 -0.23303,-1.27662 -0.0375,-0.07 -0.0908,-0.36695 -0.11856,-0.65991 -0.0607,-0.64067 -0.40903,-2.08123 -0.68055,-2.81443 -0.33388,-0.90163 -0.80687,-2.31537 -0.84803,-2.53469 -0.0378,-0.20119 -0.0515,-0.20982 -0.3923,-0.24584 -1.36982,-0.1448 -2.54893,-0.3114 -3.35389,-0.47389 -3.74642,-0.75623 -6.893856,-1.82875 -10.533643,-3.58946 -4.766018,-2.30549 -6.281203,-2.94218 -8.267835,-3.47417 -3.130433,-0.83831 -4.650182,-1.30899 -6.297989,-1.95055 -1.103557,-0.42967 -3.729236,-1.73923 -4.844855,-2.41639 -0.939858,-0.57047 -2.345041,-1.55268 -3.000685,-2.09745 -0.953286,-0.79207 -2.643365,-2.46564 -3.08219,-3.05206 -0.917195,-1.2257 -1.578523,-2.22423 -1.952627,-2.94826 -0.275213,-0.53264 -0.49195,-0.85934 -0.738593,-1.11332 -0.191987,-0.1977 -0.381737,-0.35946 -0.421665,-0.35946 -0.09726,0 -0.533454,0.58462 -0.805578,1.07969 -0.249732,0.45433 -0.690438,1.75149 -0.934682,2.75109 -0.500289,2.04754 -0.784703,4.80505 -0.785147,7.61247 -7.05e-4,2.96964 0.23746,4.90372 0.822525,6.68589 0.489217,1.49023 1.803898,4.24665 2.474358,5.18785 0.692752,0.9725 2.239442,2.43261 2.400417,2.26606 0.02443,-0.0253 0.132674,-0.27102 0.240542,-0.54609 0.821861,-2.09569 2.180553,-3.99773 3.642825,-5.09959 1.230831,-0.92746 3.160049,-1.55143 5.409251,-1.74952 1.242027,-0.10939 3.53849,-0.0471 4.48302,0.12161 0.93357,0.16675 2.155344,0.45887 2.813136,0.67261 0.942939,0.30639 4.250923,1.60099 5.407488,2.11625 0.636081,0.28339 1.536289,0.67652 2.000454,0.87364 0.464171,0.1971 1.533161,0.69083 2.375542,1.09716 0.842381,0.40632 2.044368,0.95188 2.671073,1.21235 0.626712,0.26047 1.569115,0.67322 2.094227,0.91722 0.525119,0.244 1.545521,0.6969 2.267551,1.00644 0.72204,0.30955 1.95203,0.85616 2.73332,1.21469 2.45677,1.12745 3.2896,1.38786 5.14348,1.60828 0.10315,0.0123 0.20697,0.0265 0.23074,0.0317 0.0237,0.005 0.0606,-0.0188 0.0819,-0.0533 z m 7.94379,-2.3441 c 2.90585,-0.26967 4.0632,-0.4581 5.46545,-0.88982 0.3954,-0.12174 0.9299,-0.28372 1.18777,-0.35996 0.38067,-0.11254 0.4772,-0.16679 0.51323,-0.28839 0.0244,-0.0824 0.0886,-0.69834 0.14267,-1.36881 0.11357,-1.40833 0.35147,-3.70503 0.53653,-5.1795 0.0706,-0.56227 0.11882,-1.0318 0.10722,-1.04339 -0.0116,-0.0115 -0.40017,0.19157 -0.86353,0.45145 -1.87571,1.05204 -3.96967,1.96412 -5.55775,2.42083 -2.39415,0.68852 -5.12662,1.07508 -8.08451,1.14369 -0.88536,0.0206 -1.60974,0.045 -1.60974,0.0544 0,0.009 0.2476,0.5197 0.55023,1.13403 0.54141,1.09904 0.91773,2.07008 1.22906,3.17134 0.0869,0.30731 0.18936,0.57814 0.22774,0.60186 0.0384,0.0237 0.27063,0.0772 0.51609,0.11896 1.3526,0.22981 3.39239,0.24187 5.63954,0.0333 z m -5.27515,-7.06458 c 2.77602,-0.22838 4.12363,-0.44738 6.01305,-0.97718 1.40179,-0.39306 3.39354,-1.20985 4.8006,-1.96866 2.73819,-1.47667 4.7649,-2.74939 6.3034,-3.95838 0.3954,-0.31072 1.51851,-1.177 2.49579,-1.92507 1.84971,-1.41588 4.16096,-3.35439 4.75881,-3.99136 0.51468,-0.54835 2.4177,-3.02009 2.9206,-3.79343 0.58614,-0.90132 1.20377,-2.11963 1.88403,-3.71635 0.65032,-1.52642 1.07896,-2.40021 1.75662,-3.58087 0.26641,-0.46417 0.79832,-1.459 1.18202,-2.21074 0.38369,-0.75174 0.87062,-1.66601 1.08206,-2.03171 0.84126,-1.45502 1.66759,-3.29376 2.35882,-5.24881 0.39713,-1.12322 0.69487,-1.85976 1.31851,-3.26165 0.28296,-0.63608 0.70481,-1.64881 0.93744,-2.25051 0.23263,-0.6017 0.68183,-1.69882 0.99823,-2.43806 0.61924,-1.44681 2.11316,-5.32824 2.50234,-6.50148 0.29515,-0.8898 0.94677,-3.20891 1.11896,-3.9824 0.1694,-0.76098 0.26809,-1.44588 0.51609,-3.58183 0.18931,-1.63049 0.20654,-1.93282 0.20306,-3.56331 -0.005,-2.2567 -0.23497,-4.89909 -0.87115,-10.00228 -0.15216,-1.22059 -0.32126,-2.75375 -0.37578,-3.40703 -0.0545,-0.65327 -0.22571,-2.04578 -0.38044,-3.09445 -0.51542,-3.49329 -0.66221,-5.02955 -0.77355,-8.0956 -0.11415,-3.1435 -0.25168,-6.1732 -0.31642,-6.97034 -0.24322,-2.99509 -0.5964,-5.51154 -1.22395,-8.72074 -0.41128,-2.10322 -0.70782,-3.16834 -1.30535,-4.68856 -1.05349,-2.6803 -2.31517,-5.08863 -4.7146,-8.9994 -1.94146,-3.16431 -2.37536,-4.03473 -4.18575,-8.39664 -1.06854,-2.57451 -1.26266,-3.11226 -1.44933,-4.015096 -0.12804,-0.61921 -0.13332,-0.75909 -0.0934,-2.46931 0.0233,-0.997112 0.0615,-2.277082 0.0849,-2.844402 0.17707,-4.2944 -0.58689,-7.70019 -2.39986,-10.69879 -0.86112,-1.42426 -1.63674,-2.4335 -2.89422,-3.76589 -0.805,-0.85298 -1.2926,-1.45492 -3.19625,-3.94577 -1.60124,-2.09516 -2.82373,-3.46534 -4.17487,-4.67922 -1.01966,-0.91608 -1.51517,-1.29142 -2.98335,-2.25977 -2.88995,-1.90609 -3.75406,-2.37572 -5.87634,-3.19371 -0.68765,-0.26504 -1.78478,-0.7195 -2.43806,-1.00991 -1.40245,-0.62347 -2.15711,-0.92712 -2.97668,-1.19774 l -0.60115,-0.19849 -0.47333,0.15889 c -0.70417,0.23638 -2.43377,0.40444 -6.13866,0.59645 -2.21285,0.11469 -4.84006,0.31084 -5.56377,0.4154 -0.647316,0.0935 -1.457983,0.25347 -3.594082,0.70908 -1.048604,0.22366 -3.197875,0.53697 -5.564253,0.81112 -0.911148,0.10556 -2.59903,0.31668 -3.750854,0.46915 -7.930039,1.04969 -12.38448,1.24446 -18.066623,0.78994 -1.32374,-0.1059 -3.432695,-0.26389 -4.686562,-0.3511 -2.416402,-0.16808 -6.078205,-0.51826 -7.534975,-0.72059 -2.115858,-0.29385 -5.10252,-0.67865 -5.532511,-0.7128 -0.257872,-0.0205 -1.172144,-0.0962 -2.031714,-0.16836 -1.844659,-0.15477 -3.273526,-0.11969 -4.421816,0.10854 -0.118532,0.0236 -0.490312,0.37228 -1.214171,1.13886 -1.385133,1.46687 -2.695624,3.04747 -4.259205,5.13706 -0.70751,0.94553 -1.670688,2.21145 -2.140392,2.81315 -0.469707,0.60169 -1.345528,1.75508 -1.946271,2.56308 -0.60074,0.808 -1.638307,2.2005 -2.305703,3.09446 -1.394194,1.86747 -2.429062,3.38874 -2.976858,4.37599 -0.33676,0.60692 -1.519894,3.01483 -2.411247,4.90737 -0.66871,1.41981 -0.92704,2.201 -1.386273,4.19206 -0.421265,1.82645 -0.438939,2.01711 -0.439988,4.747482 -5.29e-4,1.50568 0.0298,2.798656 0.07783,3.313256 0.383099,4.10437 0.92182,6.73791 2.244279,10.97125 0.874306,2.79873 1.491852,4.38806 2.988445,7.6911 1.986661,4.38464 2.780487,6.63368 4.125521,11.68832 0.22873,0.85957 0.668293,2.46929 0.976803,3.57715 0.624533,2.24268 1.020414,3.94363 1.298982,5.58118 0.409742,2.40868 0.512064,3.83338 0.630822,8.78326 0.06184,2.57739 0.117208,3.34167 0.382697,5.28246 0.09126,0.66711 0.187096,1.10666 0.307642,1.41097 0.220541,0.55673 0.50524,1.72164 0.717003,2.93377 0.532571,3.04842 0.552035,3.12523 1.12151,4.42549 0.28925,0.66044 1.100507,2.36824 1.802791,3.79513 0.702286,1.42689 1.466901,3.03038 1.699145,3.56331 0.763741,1.75257 1.197835,2.59603 2.145053,4.16788 0.514444,0.8537 1.266564,2.157 1.671374,2.89623 0.930207,1.69866 1.466279,2.5613 2.661126,4.28223 1.197068,1.72413 1.481894,2.17582 2.467545,3.9131 0.437055,0.77034 1.138665,2.00544 1.559136,2.74467 0.420465,0.73923 1.348201,2.42712 2.061626,3.75086 1.454346,2.69849 1.870559,3.3591 2.993333,4.75108 0.429873,0.53293 1.04382,1.29408 1.364331,1.69144 0.320515,0.39736 1.018788,1.28164 1.551722,1.96506 0.958394,1.22901 2.285564,2.78674 2.407117,2.82528 0.03457,0.011 0.09889,-0.0616 0.142964,-0.16111 0.0938,-0.2119 0.364596,-0.34327 0.590636,-0.28654 0.319405,0.0802 0.710074,0.59201 1.810012,2.37141 0.399885,0.64691 1.101695,1.59219 1.946439,2.62169 0.416632,0.50776 2.118457,2.08894 2.939064,2.7307 0.713487,0.55801 2.414297,1.69811 3.135903,2.10211 0.898616,0.5031 2.646249,1.36356 3.578755,1.76203 1.491092,0.63714 3.333753,1.23306 5.81048,1.8791 2.644029,0.68968 3.806321,1.1518 7.551702,3.00248 1.615996,0.7985 3.374209,1.63472 3.90714,1.85825 2.535202,1.06339 6.1366,2.03919 9.06457,2.45604 2.21916,0.31595 4.58372,0.39325 6.70088,0.21907 z M 83.440453,191.96187 c -0.102474,-0.19145 -0.07811,-0.3324 0.129108,-0.74709 0.513327,-1.02727 1.992789,-1.96112 3.728693,-2.35362 0.369757,-0.0836 1.190913,-0.23938 1.824796,-0.34617 1.238096,-0.20859 2.310263,-0.51357 3.870989,-1.10111 3.002761,-1.13039 4.090855,-1.51169 5.663528,-1.98467 2.102393,-0.63229 2.283323,-0.67859 3.284903,-0.84065 0.91644,-0.14828 1.68934,-0.23286 2.93817,-0.32154 1.88029,-0.13352 2.61782,-0.35909 4.45914,-1.36378 2.08927,-1.13999 2.37693,-1.26306 3.95965,-1.69399 1.21985,-0.33214 3.2436,-0.72834 6.25962,-1.22552 3.54465,-0.58431 5.24753,-0.9837 8.20181,-1.92363 1.99492,-0.63471 3.72968,-1.04324 4.42998,-1.04324 0.35782,0 0.50987,0.42222 0.2425,0.6734 -0.253,0.23769 -1.05799,0.55328 -2.07814,0.81474 -0.98424,0.25224 -2.09002,0.60197 -4.06343,1.28515 -1.85057,0.64065 -3.52539,1.02761 -6.78387,1.56733 -3.73476,0.61863 -6.20457,1.15585 -7.42586,1.61526 -0.299,0.11248 -1.34538,0.62522 -2.32529,1.13943 -1.89506,0.99444 -2.77757,1.35156 -3.62583,1.46727 -0.25787,0.0352 -1.10181,0.0923 -1.87542,0.12689 -1.53788,0.0688 -2.89569,0.23328 -3.62583,0.4392 -1.561898,0.44052 -3.494127,1.03154 -5.407485,1.65402 -4.26778,1.38845 -4.667926,1.5056 -5.876337,1.7205 -1.058966,0.1883 -2.396231,0.52894 -2.959136,0.75375 -0.695303,0.2777 -1.332462,0.69745 -1.956779,1.28911 -0.437656,0.41476 -0.586615,0.51989 -0.736674,0.51989 -0.121986,0 -0.210843,-0.0425 -0.252806,-0.12093 z m 3.998709,-26.22939 c -0.905153,-0.24709 -2.457524,-1.27613 -3.293101,-2.18295 -0.753622,-0.81788 -1.531118,-2.28321 -1.826726,-3.44277 -0.37835,-1.48418 -0.339571,-3.58411 0.0938,-5.07961 0.355978,-1.2284 0.712097,-1.82822 1.085446,-1.82822 0.356189,0 0.364015,0.13913 0.09579,1.70307 -0.205947,1.20087 -0.238704,1.52406 -0.239218,2.36036 -7.04e-4,1.82931 0.372969,3.12001 1.34343,4.63511 0.507127,0.79172 1.68634,1.82721 2.602299,2.28511 0.650846,0.32537 0.919474,0.33331 2.054877,0.0607 1.228579,-0.29501 1.599801,-0.33698 1.802973,-0.20385 0.305498,0.20017 0.170874,0.49777 -0.314839,0.69599 -0.136272,0.0556 -0.700818,0.31056 -1.254544,0.56652 -1.139482,0.52675 -1.519263,0.6028 -2.150194,0.43057 z m 10.311625,-1.09286 c -1.226621,-0.11673 -1.688954,-0.24577 -3.872658,-1.08085 -0.670464,-0.2564 -1.430011,-0.51438 -1.687883,-0.57329 -0.676635,-0.15459 -1.519946,-0.1895 -2.365483,-0.0979 -0.5627,0.0609 -0.77012,0.0627 -0.873383,0.007 -0.300757,-0.16096 -0.204954,-0.6029 0.197178,-0.90962 0.411071,-0.31354 1.344803,-0.53576 2.240981,-0.53333 0.921989,0.003 1.237131,0.0777 4.053718,0.96804 1.178938,0.37264 1.898875,0.48928 2.998416,0.48578 0.762477,-0.002 1.001963,-0.028 1.507773,-0.16066 1.890314,-0.496 3.122654,-1.5542 4.406874,-3.78421 0.54212,-0.94135 1.30644,-1.73146 2.02466,-2.09296 0.78863,-0.39693 2.12471,-0.55178 2.54578,-0.29504 0.35963,0.21926 0.34605,0.66192 -0.028,0.91402 -0.10999,0.0741 -0.50345,0.25492 -0.87438,0.40177 -0.37092,0.14685 -0.83704,0.35169 -1.03582,0.45518 -0.50075,0.26073 -1.00951,0.82845 -1.38516,1.54571 -1.05246,2.00958 -2.51091,3.48535 -4.12218,4.17113 -1.13862,0.48462 -2.50019,0.69587 -3.730403,0.57881 z m 12.724873,-4.74721 c -0.54758,-0.13215 -0.74541,-0.48261 -0.47002,-0.83271 0.0851,-0.10825 0.25608,-0.19257 0.54699,-0.26982 0.59968,-0.15922 0.89856,-0.29537 1.47796,-0.67325 1.49392,-0.97433 2.11615,-2.0341 2.35148,-4.00505 0.0909,-0.76151 0.009,-1.63167 -0.24824,-2.62647 -0.28707,-1.11153 -0.40232,-1.35353 -2.08651,-4.38132 -0.31634,-0.56868 -0.49191,-0.79735 -1.01487,-1.3217 -0.82507,-0.82727 -1.21036,-1.01798 -2.95125,-1.46087 -0.25968,-0.0661 -0.51245,-0.24901 -0.51245,-0.37091 0,-0.0325 0.068,-0.13796 0.15099,-0.23443 0.14825,-0.17222 0.16269,-0.17527 0.79705,-0.168 1.35245,0.0155 2.05799,0.24301 2.92784,0.9442 1.0615,0.85567 1.70196,1.76206 2.90992,4.11816 0.8266,1.61225 1.19436,2.93587 1.25902,4.5314 0.0598,1.47565 -0.17756,2.66846 -0.76756,3.85718 -0.28419,0.57261 -0.44284,0.8034 -0.84257,1.22568 -1.14133,1.20574 -2.59499,1.89302 -3.52778,1.66791 z M 61.636403,148.10264 c -0.164513,-0.11636 -0.181023,-0.31952 -0.04208,-0.51788 0.164569,-0.23497 1.156613,-0.99956 1.58905,-1.22473 0.388389,-0.20223 1.19371,-0.50968 2.741212,-1.04649 1.61922,-0.5617 4.528152,-2.00685 5.674927,-2.8193 0.174771,-0.12382 0.315684,-0.17601 0.437598,-0.16207 0.155936,0.0178 0.182092,0.0496 0.196866,0.23934 0.03589,0.46104 -0.349656,0.81725 -1.879891,1.73684 -1.104922,0.66399 -3.066651,1.60747 -4.2948,2.06554 -1.075469,0.40112 -2.148472,0.85248 -2.469313,1.03873 -0.332407,0.19295 -1.459621,0.7046 -1.656628,0.75194 -0.09617,0.0231 -0.210386,-7e-4 -0.296942,-0.0619 z m -8.828346,-3.80983 c -0.13615,-0.16405 -0.0029,-0.58719 0.501476,-1.59209 0.902013,-1.79725 2.638878,-4.31572 4.012398,-5.81801 1.355259,-1.48232 2.378135,-2.3508 3.955013,-3.35802 2.609339,-1.6667 5.790546,-2.58084 8.9813,-2.58084 0.636489,0 2.606789,0.18121 3.709095,0.34112 0.343829,0.0499 0.934587,0.10774 1.312796,0.12857 0.378217,0.0208 0.828321,0.0774 1.00023,0.12578 0.35893,0.10093 0.73821,0.3899 0.885436,0.67461 0.129088,0.24962 0.129031,0.75517 0,1.06164 -0.269494,0.63956 -1.163172,1.72114 -1.958349,2.37009 -0.23502,0.19181 -0.835224,0.60811 -1.333771,0.92512 -1.039275,0.66083 -1.927778,1.29144 -2.810879,1.99497 -1.12632,0.89731 -2.904288,1.92073 -4.187731,2.41051 -1.549847,0.59144 -4.062033,1.06265 -6.348184,1.19072 -1.265965,0.0709 -2.998353,-0.0609 -4.209867,-0.32032 -0.572731,-0.12264 -1.166197,-0.26301 -1.318814,-0.31192 -0.220913,-0.0708 -0.288258,-0.073 -0.330313,-0.0106 -0.148828,0.22079 -0.573381,0.97394 -0.925166,1.64122 -0.657638,1.24743 -0.746245,1.35432 -0.934557,1.12742 z m 9.156545,-3.44206 c 1.432389,-0.17161 2.865022,-0.47424 3.938398,-0.83196 l 0.687658,-0.22916 -0.78143,-0.039 c -0.606382,-0.0302 -0.893459,-0.0764 -1.281542,-0.20626 -1.5341,-0.51319 -2.383713,-1.21039 -3.079708,-2.52723 -0.366948,-0.69428 -0.465295,-1.02793 -0.508028,-1.72354 l -0.03809,-0.62009 -0.781428,0.58523 c -1.46613,1.09803 -3.290008,3.03746 -4.496021,4.7809 l -0.3892,0.56263 0.238984,0.0466 c 1.746781,0.34066 1.819216,0.34794 3.52098,0.3536 1.404145,0.005 1.856711,-0.0185 2.969427,-0.15177 z m 4.688569,-2.47013 c 1.198979,-0.17116 1.987866,-0.53081 2.639953,-1.20357 0.723621,-0.74657 0.980554,-1.40486 0.981061,-2.5136 7.04e-4,-0.86938 -0.142064,-1.51857 -0.433543,-1.9757 -0.118296,-0.18553 -0.274706,-0.45999 -0.347566,-0.60991 l -0.132488,-0.27258 -0.541021,0.0435 c -0.748734,0.0602 -1.781796,0.24143 -2.639316,0.46301 -1.316394,0.34015 -3.280237,1.13933 -4.255471,1.73175 l -0.380925,0.2314 0.04307,0.43703 c 0.06256,0.63484 0.238717,1.1401 0.61139,1.75357 0.438499,0.72183 0.74332,1.07239 1.175194,1.35152 0.795519,0.51417 2.079823,0.73487 3.279666,0.56359 z m -1.062742,-1.88721 c -1.180758,-0.42088 -1.397025,-1.88492 -0.395396,-2.67666 0.798401,-0.63111 1.767371,-0.41894 2.153934,0.47162 0.142421,0.3281 0.140427,1.09381 -0.0037,1.43782 -0.282489,0.67405 -1.061135,1.01448 -1.754794,0.76722 z m 6.032627,0.10526 c 0.395401,-0.28214 1.042423,-0.72386 1.437826,-0.98157 0.896261,-0.58419 1.260909,-0.87146 1.955993,-1.54094 0.522442,-0.50322 1.169723,-1.29384 1.169723,-1.42879 0,-0.15462 -0.232504,-0.2155 -1.043045,-0.27314 -0.475006,-0.0337 -1.201219,-0.11479 -1.613812,-0.18003 -1.597566,-0.25264 -2.606345,-0.38146 -2.84305,-0.36307 l -0.2467,0.0192 0.175179,0.28131 c 0.41078,0.65967 0.633487,1.63779 0.631712,2.77445 -0.0013,0.76814 -0.09976,1.33671 -0.330938,1.90904 -0.08398,0.20792 -0.120991,0.35969 -0.08225,0.33729 0.03874,-0.0224 0.393959,-0.27159 0.789362,-0.55374 z m -20.073205,3.70258 c -0.09664,-0.2121 -0.0028,-0.61201 0.389552,-1.65993 0.488136,-1.30377 1.095305,-2.4262 2.18561,-4.04038 0.776004,-1.14886 1.266114,-1.73902 2.338335,-2.81565 1.009479,-1.01364 2.060619,-1.8489 3.010336,-2.3921 1.867157,-1.06793 4.517686,-1.97216 6.523089,-2.22533 2.37371,-0.29968 4.048948,-0.14701 6.416424,0.58472 2.059511,0.63654 2.493005,0.85523 2.44933,1.2356 -0.0186,0.16222 -0.0391,0.17378 -0.3013,0.17059 -0.245727,-0.003 -1.700858,-0.29256 -4.125943,-0.82103 -0.884358,-0.19272 -2.57915,-0.26085 -3.725606,-0.14977 -1.922482,0.18628 -4.400886,0.91099 -6.218193,1.81828 -1.395801,0.69685 -2.364996,1.42085 -3.717673,2.77716 -1.621821,1.62616 -3.025859,3.68344 -4.120277,6.03724 -0.753291,1.62014 -0.737612,1.59183 -0.89378,1.61401 -0.09909,0.0141 -0.160486,-0.0249 -0.209904,-0.13341 z m -6.424273,-0.81602 c -0.594865,-0.21527 -1.004978,-0.87776 -1.330339,-2.149 -0.428191,-1.67301 -0.285992,-3.66982 0.412929,-5.79849 0.718169,-2.18729 1.785343,-3.97708 3.480428,-5.83712 0.356343,-0.39102 0.735329,-0.84112 0.842192,-1.00023 0.379686,-0.5653 2.870386,-2.83972 3.7567,-3.43048 0.79869,-0.53236 1.014814,-0.6487 2.248926,-1.21064 1.853135,-0.84381 3.928058,-1.45266 5.834075,-1.71192 2.049397,-0.27876 5.51602,-0.13002 7.197867,0.30883 1.522828,0.39735 2.624736,1.12859 3.041781,2.01857 0.154202,0.32907 0.168976,0.42617 0.168976,1.11077 0,0.68465 -0.01476,0.78168 -0.169026,1.11087 -0.09499,0.2027 -0.30924,0.49728 -0.489125,0.67248 -0.520695,0.50718 -1.107453,0.74748 -3.032916,1.24209 -1.847209,0.47451 -2.884327,0.81492 -4.873387,1.59957 -3.30416,1.30342 -4.778852,2.04477 -6.97034,3.50408 -1.207482,0.80407 -1.966593,1.44285 -3.127002,2.63135 -0.991932,1.01595 -1.633846,1.79241 -2.551625,3.08647 -2.362245,3.33072 -2.968282,3.94409 -3.886055,3.93303 -0.189105,-0.002 -0.438432,-0.0384 -0.554059,-0.0802 z m 0.992261,-1.83775 c 0.19281,-0.19827 0.867328,-1.04925 1.498933,-1.89106 1.740016,-2.31913 2.560316,-3.30823 3.657891,-4.41058 1.420143,-1.42632 2.480372,-2.25016 4.438512,-3.44885 1.777888,-1.08835 3.262938,-1.80792 6.032627,-2.92306 1.834475,-0.7386 3.474193,-1.28479 4.876112,-1.62422 2.376885,-0.57549 2.528733,-0.63129 2.795663,-1.02739 0.16715,-0.24804 0.196139,-0.81905 0.05829,-1.14833 -0.171158,-0.40883 -0.827714,-0.87495 -1.604641,-1.13921 -1.784425,-0.60691 -5.707557,-0.8027 -8.056907,-0.40208 -0.888889,0.15157 -2.42324,0.5465 -3.112315,0.80106 -1.051479,0.38846 -3.032336,1.41139 -4.052032,2.09251 -1.382945,0.92376 -3.917354,3.3261 -4.869154,4.61542 -1.030239,1.39558 -1.701374,2.64581 -2.158502,4.02097 -0.514489,1.54771 -0.769553,3.44301 -0.635566,4.72267 0.104499,0.99802 0.480135,2.12264 0.708989,2.12264 0.03934,0 0.229285,-0.16223 0.422096,-0.36049 z m 71.578221,-5.93321 c -1.40532,-0.10207 -3.47584,-0.55182 -4.18781,-0.90968 -0.36507,-0.18349 -0.40699,-0.22388 -0.40699,-0.3921 0,-0.18217 0.009,-0.18809 0.3282,-0.20645 0.18051,-0.0103 0.8416,0.0659 1.46908,0.16957 2.07862,0.34335 2.99617,0.41711 4.00791,0.32218 1.36549,-0.12811 2.48703,-0.42419 4.72049,-1.24617 0.66608,-0.24514 1.25824,-0.44571 1.31592,-0.44571 0.27237,0 0.34589,0.39286 0.11426,0.61044 -0.34122,0.32051 -3.34811,1.59574 -4.37963,1.8574 -0.94277,0.23915 -1.91749,0.31779 -2.98143,0.24052 z m -11.07553,-5.68596 c -0.22157,-0.14392 -0.42709,-0.5208 -0.42709,-0.78319 0,-0.26901 0.3623,-0.89036 0.72902,-1.25026 0.15031,-0.14753 0.53736,-0.45181 0.86009,-0.67616 0.32274,-0.22436 1.05698,-0.80177 1.63166,-1.28313 2.52716,-2.11678 4.85334,-3.51351 6.76321,-4.06092 1.38056,-0.39571 1.67453,-0.43284 3.45658,-0.4366 1.79995,-0.004 1.98263,0.0184 3.40247,0.41371 0.89201,0.24835 1.50448,0.51087 2.30661,0.98869 0.79173,0.47162 1.12194,0.75393 1.80271,1.54123 1.034,1.1958 1.22788,1.50753 1.11776,1.79716 -0.0696,0.18313 -0.28082,0.31167 -0.44258,0.26936 -0.0752,-0.0196 -0.20796,0.0591 -0.38568,0.22881 -1.0131,0.96732 -3.14527,1.98856 -5.29278,2.53508 -1.68088,0.42778 -2.73376,0.56737 -5.22945,0.69333 -1.07109,0.0541 -1.5498,0.0486 -2.58633,-0.0294 -1.56524,-0.11787 -2.33394,-0.11764 -4.41369,10e-4 -2.98397,0.17069 -3.10534,0.17257 -3.29251,0.051 z m 2.29228,-0.77122 c 2.36583,-0.21744 3.43952,-0.27032 4.83014,-0.23791 1.57564,0.0367 4.26947,-0.0863 4.26361,-0.19469 -10e-4,-0.0211 -0.21279,-0.17367 -0.47035,-0.33912 -0.58981,-0.3789 -1.43765,-1.3237 -1.7496,-1.94968 -0.41319,-0.82914 -0.6136,-2.50222 -0.37745,-3.1511 0.0551,-0.15149 0.0892,-0.28651 0.0756,-0.30003 -0.0353,-0.0353 -1.33767,0.63977 -2.05533,1.0653 -0.99696,0.59114 -2.40505,1.63671 -3.5498,2.63588 -0.59088,0.51574 -1.34553,1.1262 -1.677,1.35656 -0.59023,0.41021 -1.29283,1.13256 -1.21853,1.25278 0.0195,0.0316 0.16607,0.0406 0.32567,0.02 0.15961,-0.0206 0.88097,-0.0917 1.60301,-0.15802 z m 11.88197,-1.49599 c 0.83084,-0.17148 1.21784,-0.37899 1.81056,-0.97089 0.78398,-0.78287 1.15673,-1.65822 1.23476,-2.89959 0.034,-0.53979 0.0478,-0.52487 -0.76781,-0.82526 -0.69922,-0.25753 -1.83253,-0.53167 -2.59431,-0.62755 -1.23351,-0.15527 -3.71363,0.0588 -4.03327,0.34799 -0.15857,0.1435 -0.32401,0.7285 -0.32401,1.14571 0,0.42522 0.26179,1.46703 0.48339,1.92367 0.24362,0.50202 1.13374,1.32137 1.78433,1.64247 0.81692,0.40321 1.41301,0.46847 2.40636,0.26345 z m -1.49773,-2.27971 c -0.36,-0.21792 -0.53756,-0.55093 -0.53783,-1.00867 0,-0.51489 0.13334,-0.74936 0.6131,-1.07562 0.36101,-0.24551 0.42777,-0.26832 0.78143,-0.26707 0.77583,0.003 1.23745,0.39522 1.28167,1.08965 0.0297,0.46542 -0.11711,0.81043 -0.45396,1.06737 -0.46964,0.35821 -1.26257,0.44969 -1.68441,0.19434 z m 5.29973,1.72964 c 0.45088,-0.18827 1.19957,-0.49907 1.66373,-0.69067 0.46417,-0.1916 0.85636,-0.35866 0.87154,-0.37124 0.0152,-0.0126 -0.11343,-0.16986 -0.2858,-0.34952 -0.17236,-0.17966 -0.46609,-0.51934 -0.65273,-0.75483 -0.30789,-0.38847 -0.98739,-0.9784 -1.12697,-0.9784 -0.031,0 -0.0565,0.1055 -0.0568,0.23443 -10e-4,0.74483 -0.52052,2.03526 -1.16159,2.88742 -0.39041,0.51895 -0.43629,0.51756 0.74858,0.0228 z m -18.54588,-1.05752 c -0.10629,-0.10629 -0.0292,-0.37436 0.18153,-0.63157 0.12459,-0.15206 0.84793,-0.8301 1.60741,-1.50679 0.75948,-0.67668 1.70241,-1.5257 2.09537,-1.88672 2.20162,-2.0226 3.69605,-2.95074 6.09934,-3.78807 2.49761,-0.87021 4.6194,-0.92278 7.08458,-0.17554 1.0166,0.30814 1.43099,0.52609 2.41134,1.26827 1.1443,0.86629 1.79278,1.47108 1.79278,1.672 0,0.2602 -0.16814,0.24205 -0.67498,-0.0729 -1.49006,-0.92587 -1.71682,-1.04634 -2.57575,-1.36844 -1.98915,-0.74593 -3.03248,-0.97778 -4.39999,-0.97778 -1.63943,0 -3.28302,0.41642 -5.07093,1.2848 -1.4052,0.68249 -2.43999,1.43037 -4.62605,3.34338 -2.26671,1.98359 -3.72523,3.03877 -3.92465,2.83935 z m -3.57255,-6.65731 c -0.58809,-0.0715 -1.30981,-0.30268 -1.78617,-0.57214 -0.1891,-0.10698 -0.54356,-0.39326 -0.787684,-0.63618 -0.539968,-0.53732 -0.801397,-1.04895 -1.088143,-2.12956 -0.224784,-0.84712 -0.222636,-1.16424 0.0112,-1.6482 0.173769,-0.35969 1.042911,-1.26539 1.978557,-2.06179 1.38639,-1.18005 2.15844,-1.65479 4.29931,-2.64366 3.85064,-1.77863 7.77452,-3.08206 10.87153,-3.61129 2.48589,-0.42481 4.81349,-0.63123 7.11774,-0.63123 3.19488,0 5.38435,0.26679 7.44829,0.90757 1.69706,0.52689 2.6714,1.03854 3.44305,1.80806 0.94344,0.94085 1.40055,2.08919 1.2199,3.06463 -0.23674,1.27828 -1.27047,2.27591 -2.82233,2.72375 -0.66704,0.1925 -2.00199,0.22889 -3.52006,0.096 -1.79497,-0.15716 -3.86717,-0.21114 -6.01002,-0.15656 -2.90909,0.0741 -4.23581,0.22475 -6.22949,0.70739 -2.45816,0.59508 -4.37781,1.3431 -7.43695,2.89788 -2.07833,1.05631 -3.21378,1.51576 -4.36893,1.76787 -0.66393,0.14491 -1.69037,0.19644 -2.33977,0.11749 z m 1.87091,-1.61155 c 0.76835,-0.15868 1.41682,-0.43758 3.28201,-1.41156 3.14332,-1.64142 3.958,-2.01714 5.49555,-2.53443 2.35183,-0.79127 4.86593,-1.27971 7.53867,-1.46462 3.73534,-0.25842 5.97253,-0.27498 8.72073,-0.0645 1.74811,0.13386 2.66379,0.0477 3.40024,-0.32007 1.78165,-0.88965 1.01858,-2.86396 -1.52085,-3.93496 -3.28785,-1.38663 -8.74382,-1.75299 -14.31972,-0.96152 -2.05655,0.29191 -3.6798,0.70172 -5.95315,1.50295 -2.82943,0.99722 -6.35213,2.61185 -7.75956,3.55659 -0.77224,0.51837 -2.17764,1.74189 -2.64757,2.30493 -0.595095,0.71301 -0.62652,0.91879 -0.2708,1.77328 0.34528,0.82941 0.96896,1.3582 1.85484,1.57262 0.52871,0.12797 1.5103,0.11957 2.17961,-0.0187 z m -51.301279,75.78501 c 0.210885,-0.0915 0.383423,-0.18828 0.383423,-0.21516 0,-0.0269 -0.480084,-0.88825 -1.066854,-1.91414 -0.691589,-1.20915 -1.623852,-2.70089 -2.650317,-4.24082 -0.870906,-1.30654 -1.871327,-2.86784 -2.22317,-3.46954 -0.351836,-0.60169 -1.195104,-2.02233 -1.873923,-3.15696 -1.37198,-2.29325 -1.638566,-2.79804 -2.361315,-4.47129 -0.798774,-1.84926 -1.33972,-3.02799 -2.323118,-5.06214 -0.506977,-1.04868 -1.102119,-2.32478 -1.322536,-2.83578 -0.363474,-0.84266 -0.424024,-0.94364 -0.650817,-1.08536 -0.35539,-0.22208 -0.903535,-0.766 -1.466361,-1.45509 -0.736217,-0.90136 -1.68012,-1.77049 -2.629926,-2.42161 -0.463287,-0.31759 -1.13772,-0.81961 -1.498739,-1.1156 -1.276706,-1.04672 -1.691885,-1.53098 -2.219835,-2.58918 -0.212979,-0.42689 -2.059369,-3.3556 -2.32113,-3.68174 -0.06317,-0.0787 -0.6584,0.24169 -0.905479,0.4874 -0.252765,0.25137 -0.302477,0.34624 -0.396236,0.75628 -0.245044,1.0716 -0.1246,2.10618 0.418467,3.59457 0.313853,0.86019 1.475094,3.30826 2.059329,4.34138 0.671787,1.18796 1.956871,3.13271 3.036218,4.59482 1.418193,1.9211 1.489941,2.012 4.1652,5.27703 0.580058,0.70793 1.394541,1.7239 1.809967,2.2577 0.415423,0.5338 1.180474,1.49098 1.700112,2.12706 2.090635,2.55912 3.275628,4.06316 3.669361,4.65732 0.862035,1.3008 1.963278,3.26099 2.989727,5.32164 1.145406,2.29945 1.421455,2.73305 2.067866,3.24811 1.495773,1.19178 2.566711,1.5036 3.610086,1.0511 z m -15.050388,-30.0714 c -0.171904,-0.68071 -0.474382,-2.26382 -0.625473,-3.27362 -0.310253,-2.07354 -0.440106,-4.1943 -0.444012,-7.25165 -0.0066,-5.19391 -0.450746,-8.24309 -1.939409,-13.31554 -0.277492,-0.94553 -0.799654,-2.81126 -1.160356,-4.14607 -1.414844,-5.23576 -1.952595,-6.82355 -3.661132,-10.81013 -1.499135,-3.49798 -1.946795,-4.7044 -2.827377,-7.6196 -1.240984,-4.10833 -1.832327,-6.9442 -2.20133,-10.55675 -0.132715,-1.2993 -0.191584,-5.474726 -0.09387,-6.657768 0.113604,-1.37538 0.431169,-4.00367 0.563468,-4.66343 0.160702,-0.80143 0.457867,-1.57675 1.207671,-3.15085 1.98445,-4.16606 2.721265,-5.39722 5.106889,-8.5332 0.745446,-0.97991 1.873619,-2.47088 2.507054,-3.31325 0.633437,-0.84238 1.533271,-2.00984 1.999638,-2.59435 0.466365,-0.58451 1.335766,-1.69569 1.932004,-2.46931 1.776459,-2.30495 2.692275,-3.37845 4.09321,-4.79797 0.519362,-0.52625 0.836231,-0.89082 0.77426,-0.89082 -0.05769,0 -0.122288,0.0281 -0.143536,0.0625 -0.05839,0.0945 -0.226334,0.0751 -0.354536,-0.0409 -0.164341,-0.14872 -0.146165,-0.47424 0.03875,-0.69401 0.505942,-0.60127 2.460272,-1.15193 4.598009,-1.29554 1.301467,-0.0874 5.369431,0.27119 9.564682,0.84319 1.291308,0.17606 4.909476,0.53703 6.563996,0.65486 0.773615,0.0551 2.925669,0.20992 4.782343,0.34406 4.655512,0.33635 4.61689,0.33495 7.001593,0.25408 3.089139,-0.10474 6.210879,-0.38414 10.877482,-0.97355 1.203402,-0.15199 3.017878,-0.36197 4.032169,-0.46661 3.865388,-0.39878 4.962872,-0.55576 7.007106,-1.00228 0.777538,-0.16983 1.903164,-0.3956 2.501382,-0.5017 l 1.087682,-0.19291 3.59456,-0.0559 c 1.97702,-0.0307 4.08687,-0.0747 4.68857,-0.0978 0.98195,-0.0375 1.07479,-0.0504 0.90646,-0.12482 -0.10315,-0.0456 -0.8627,-0.35482 -1.68788,-0.68706 -2.03079,-0.81764 -2.73219,-1.16687 -3.14717,-1.567 -0.34238,-0.33012 -0.38793,-0.47939 -0.18526,-0.60702 0.075,-0.0472 0.19343,-0.0471 0.40633,3.6e-4 0.67989,0.15186 3.58087,0.92854 4.86404,1.30225 0.75642,0.2203 1.92387,0.55467 2.59434,0.74304 1.45439,0.40862 2.05139,0.62057 3.50079,1.24282 0.60171,0.25831 1.70501,0.69871 2.45179,0.97865 2.35122,0.88137 2.91496,1.15567 4.83833,2.35419 3.16203,1.97037 4.21796,2.77812 6.12071,4.68214 1.34906,1.34995 1.82049,1.90885 3.98313,4.7221 0.91188,1.1862 1.95856,2.48024 2.32596,2.87565 1.83377,1.97352 3.36635,4.2876 4.21965,6.37137 1.28368,3.13477 1.60987,5.69603 1.37006,10.75754 -0.0812,1.713182 0.006,4.414032 0.17288,5.364468 0.12533,0.71323 0.28997,1.14311 1.22556,3.19998 1.47304,3.23846 2.01256,4.25555 3.54826,6.68902 1.93184,3.0612 2.98726,4.89092 3.96947,6.8817 1.76458,3.5765 2.23895,5.32721 3.15667,11.64976 0.13943,0.96051 0.26414,1.75702 0.27715,1.77003 0.013,0.013 0.0426,-0.12584 0.0657,-0.30855 0.14302,-1.12894 0.50466,-2.17801 1.2998,-3.77049 1.27906,-2.56166 2.18363,-3.85505 4.1098,-5.87633 1.19522,-1.25425 1.5219,-1.67197 1.93122,-2.46932 0.85941,-1.67418 0.96315,-2.75206 0.60482,-6.28379 -0.54049,-5.32729 -1.34012,-8.95813 -2.86345,-13.001846 -0.73941,-1.9628 -1.47297,-3.597662 -3.54831,-7.908062 -1.07052,-2.22343 -1.51894,-3.20207 -2.72125,-5.93885 -0.90948,-2.07025 -1.128,-2.53807 -3.32875,-7.12663 -3.07733,-6.41622 -3.42671,-7.11732 -4.19006,-8.40817 -1.18858,-2.00994 -2.09583,-3.24322 -3.79362,-5.15695 -1.73169,-1.95194 -2.96161,-3.1141 -4.60433,-4.35068 -0.49388,-0.37178 -1.57312,-1.19961 -2.39831,-1.83963 -1.80044,-1.39644 -2.4177,-1.836936 -3.81337,-2.721308 -0.58451,-0.370384 -1.86838,-1.202269 -2.85303,-1.848634 -2.21875,-1.456456 -2.82026,-1.801755 -5.36759,-3.081201 -2.84512,-1.429025 -2.95574,-1.473686 -7.93932,-3.205525 -1.36078,-0.472878 -2.75171,-0.859294 -4.34474,-1.206995 -0.91213,-0.199094 -5.46081,-0.963748 -7.03285,-1.182256 -2.58731,-0.359633 -6.999026,-0.636693 -12.659131,-0.795015 -1.503272,-0.04205 -5.019537,0.04804 -7.492903,0.192043 -0.864416,0.0503 -2.148356,0.122085 -2.853204,0.159497 -4.247993,0.225433 -9.174844,0.825299 -12.078219,1.47058 -4.832533,1.07404 -7.669073,1.913836 -10.5832,3.133272 -5.713072,2.39068 -10.011385,4.769597 -12.342704,6.831117 -1.083739,0.958315 -2.647525,2.440565 -3.302988,3.130775 -0.401869,0.42317 -0.952674,0.92185 -1.281543,1.16026 -0.655373,0.47511 -1.796835,1.60852 -2.584823,2.56659 -0.52477,0.63803 -0.681643,0.75534 -0.722991,0.54065 -0.02451,-0.12726 -0.808921,0.74934 -2.333589,2.60784 -0.549581,0.66991 -1.5061,1.82627 -2.125598,2.56968 -0.619498,0.74342 -1.885375,2.33329 -2.813062,3.53307 -0.927684,1.19976 -1.968056,2.51653 -2.311924,2.92614 -0.343876,0.40962 -0.803715,0.95818 -1.021863,1.21903 -0.218156,0.26087 -0.741507,0.99473 -1.162997,1.63082 -1.537613,2.3204 -2.872279,4.77275 -4.248634,7.80651 -0.665618,1.46715 -1.580415,3.19762 -3.226236,6.10291 -1.484069,2.61975 -2.424359,4.646472 -3.027022,6.524512 -0.706334,2.201106 -1.221379,4.837086 -1.51622,7.759996 -0.138815,1.37611 -0.15918,5.87768 -0.0324,7.15788 0.421468,4.25544 1.49603,9.49464 2.666916,13.00296 0.59881,1.79421 1.109833,2.98866 2.193116,5.12617 1.40182,2.76604 1.889434,3.58541 3.398391,5.71057 0.409015,0.57604 0.896961,1.28503 1.084319,1.57553 0.883632,1.37008 2.022135,3.48323 2.675898,4.96669 1.026766,2.32985 2.092205,4.41596 2.665986,5.21994 0.208569,0.29226 0.682274,1.02368 1.052666,1.62537 0.869523,1.41254 1.1683,1.8534 1.857422,2.74076 0.311292,0.40083 0.801031,1.08575 1.088311,1.52204 0.712166,1.08157 1.030728,1.35708 3.429045,2.96564 0.980182,0.65741 1.302493,0.91353 1.844171,1.46543 0.36102,0.36784 0.664864,0.66125 0.675208,0.65202 0.01035,-0.009 -0.03708,-0.23806 -0.105371,-0.5085 z m 119.658727,-2.39649 c 1.07137,-0.44812 1.9987,-1.42458 2.76428,-2.91074 0.67082,-1.30221 1.01555,-2.88471 1.31713,-6.04635 0.17861,-1.87261 0.21505,-2.16267 0.47025,-3.74347 0.37335,-2.31267 0.38612,-3.60532 0.0583,-5.89936 -0.0688,-0.48136 -0.20816,-1.60662 -0.3097,-2.50057 -0.10154,-0.89395 -0.25438,-2.17393 -0.33965,-2.8444 -0.25887,-2.03553 -0.50228,-5.41013 -0.66281,-9.18959 -0.0358,-0.84239 -0.0823,-1.68161 -0.10332,-1.86496 l -0.0383,-0.33335 -0.55976,0.55215 c -1.40729,1.38817 -2.68489,3.23816 -3.86994,5.60373 -0.56363,1.12511 -0.81236,1.88093 -1.08587,3.29955 -0.12205,0.63308 -0.34853,1.7431 -0.50328,2.46673 l -0.28136,1.31569 0.15638,1.40368 c 0.086,0.77203 0.20081,2.12104 0.25512,2.9978 0.11679,1.88567 0.3049,4.09867 0.44105,5.18868 0.0616,0.49352 0.10876,1.53 0.12788,2.81314 0.0217,1.45834 0.064,2.30516 0.14967,3.00068 0.0657,0.53294 0.16407,1.39095 0.21863,1.90669 0.0546,0.51574 0.19516,1.62694 0.31244,2.46932 0.11729,0.84238 0.24277,1.75249 0.27887,2.02247 0.0361,0.26998 0.0789,0.51241 0.0952,0.53872 0.0482,0.0779 0.65707,-0.0573 1.10881,-0.24624 z"
       style="fill:#000000;stroke-width:0.0625143" />
  </g>
</svg>
