<?xml version="1.0" encoding="UTF-8" standalone="no"?>
<svg
   xmlns:dc="http://purl.org/dc/elements/1.1/"
   xmlns:cc="http://creativecommons.org/ns#"
   xmlns:rdf="http://www.w3.org/1999/02/22-rdf-syntax-ns#"
   xmlns:svg="http://www.w3.org/2000/svg"
   xmlns="http://www.w3.org/2000/svg"
   id="svg8"
   version="1.1"
   viewBox="0 0 210 297"
   height="297mm"
   width="210mm">
  <defs
     id="defs2" />
  <metadata
     id="metadata5">
    <rdf:RDF>
      <cc:Work
         rdf:about="">
        <dc:format>image/svg+xml</dc:format>
        <dc:type
           rdf:resource="http://purl.org/dc/dcmitype/StillImage" />
        <dc:title></dc:title>
      </cc:Work>
    </rdf:RDF>
  </metadata>
  <g
     id="layer1">
    <path
       id="path108"
       d="m 109.71103,277.78477 c -0.0251,-0.0251 -1.41862,-0.0722 -3.09665,-0.10454 -4.35528,-0.084 -5.51183,-0.19352 -8.578569,-0.81236 -1.6277,-0.32845 -2.45757,-0.55103 -4.957021,-1.32948 -2.935358,-0.91423 -3.199492,-1.02877 -5.808406,-2.51919 -2.342091,-1.33799 -4.087212,-2.72267 -5.172564,-4.10424 -0.231135,-0.29421 -1.112699,-1.24133 -1.95903,-2.10471 -0.965756,-0.98522 -1.870793,-1.99221 -2.430339,-2.70412 -0.490354,-0.62388 -1.278783,-1.61855 -1.752068,-2.21039 -1.073257,-1.34209 -1.615141,-2.09006 -2.548873,-3.51824 -0.404186,-0.61821 -1.007644,-1.46103 -1.341014,-1.87293 -0.333368,-0.4119 -1.000034,-1.2726 -1.481479,-1.91267 -1.191375,-1.5839 -1.929687,-2.43296 -3.608604,-4.14987 -0.786378,-0.80418 -1.877187,-1.99172 -2.424027,-2.63899 -0.546834,-0.64727 -1.365045,-1.58994 -1.81823,-2.09482 -1.550078,-1.72689 -1.723832,-1.93746 -2.979783,-3.61111 -0.691794,-0.92186 -1.537013,-2.02917 -1.87827,-2.46068 -0.623187,-0.788 -1.476665,-2.05564 -1.920849,-2.85296 -0.131131,-0.23537 -0.516665,-0.84519 -0.856754,-1.35515 -0.340086,-0.50998 -0.821673,-1.29632 -1.070195,-1.74745 -0.607182,-1.1022 -1.04855,-1.84855 -1.763908,-2.98278 -0.32956,-0.52254 -0.913539,-1.54961 -1.297749,-2.28238 -0.384202,-0.73277 -0.945629,-1.74956 -1.247615,-2.25953 -0.625853,-1.0569 -2.380975,-4.51373 -2.806543,-5.52768 -0.156394,-0.37263 -0.556558,-1.27129 -0.889248,-1.99701 -1.47339,-3.21403 -2.417236,-5.64742 -3.339071,-8.60873 -0.726936,-2.33518 -1.128568,-3.9558 -1.809911,-7.30303 -1.226556,-6.0257 -1.542462,-7.27288 -2.501456,-9.87556 -0.832966,-2.26066 -1.492527,-3.67502 -2.459428,-5.27401 -0.830471,-1.37338 -0.851532,-1.39814 -3.106975,-3.65279 -1.185496,-1.18509 -2.303277,-2.35137 -2.48396,-2.59173 -0.85435,-1.13653 -2.622536,-4.60067 -3.529638,-6.91506 -0.361315,-0.92187 -0.787837,-1.96499 -0.947831,-2.31804 -0.159992,-0.35306 -0.42745,-0.97893 -0.594348,-1.39081 -0.166898,-0.4119 -0.599568,-1.39083 -0.961488,-2.17539 -0.872169,-1.89069 -1.180099,-2.6142 -1.937991,-4.55354 -0.350194,-0.89608 -0.991993,-2.45274 -1.426222,-3.45923 -1.138141,-2.63803 -1.73333,-4.19057 -2.519851,-6.57301 -0.382042,-1.15723 -0.960055,-2.82621 -1.28447,-3.70884 -1.007336,-2.74064 -1.660326,-4.81962 -2.073583,-6.60182 -0.214663,-0.92576 -0.614782,-2.54385 -0.889152,-3.59576 -1.078131,-4.13346 -1.383536,-5.59925 -1.991697,-9.55918 -0.11748,-0.76496 -0.341628,-2.19323 -0.498108,-3.17393 -0.786287,-4.92795 -1.061278,-8.4862 -0.769326,-9.95478 0.238394,-1.19915 0.652339,-2.15072 1.303995,-2.9976 0.681215,-0.88529 1.46146,-1.38332 2.580498,-1.64713 0.343008,-0.0808 0.739164,-0.17498 0.880346,-0.20914 0.794606,-0.19227 1.423372,-1.09909 1.752569,-2.52759 0.120966,-0.52491 0.128679,-0.91901 0.105996,-5.41613 -0.03007,-5.961537 0.158968,-12.935064 0.456294,-16.832482 0.48886,-6.408139 1.230496,-10.714009 3.071189,-17.831017 0.824878,-3.189376 1.096024,-4.100631 1.952479,-6.561809 0.436829,-1.255303 1.083758,-3.213151 1.437618,-4.350768 0.772343,-2.482986 0.817119,-2.604503 2.391716,-6.490492 1.363845,-3.365871 1.961753,-4.649393 3.339134,-7.168067 1.23133,-2.251604 1.529852,-2.740022 3.247731,-5.313646 1.692672,-2.535858 2.052589,-3.014216 3.595527,-4.778713 2.294258,-2.623699 4.757259,-4.964815 6.296538,-5.984949 0.265918,-0.176233 0.570786,-0.431365 0.67748,-0.566957 0.621646,-0.790005 3.586458,-2.91641 7.081066,-5.078648 0.745336,-0.461174 1.731634,-1.107582 2.191775,-1.436472 0.460142,-0.328891 1.230439,-0.831911 1.711778,-1.117823 1.020419,-0.606127 4.097239,-2.326667 4.160739,-2.326667 0.02384,0 0.995428,-0.462465 2.159064,-1.027691 2.929081,-1.422784 5.110048,-2.365964 8.071267,-3.490517 4.428959,-1.681938 6.021655,-2.247716 7.757456,-2.755723 2.706682,-0.792154 7.583829,-1.8699083 9.523551,-2.1045201 0.518263,-0.062721 1.375587,-0.176713 1.905166,-0.2533948 1.215649,-0.1760066 1.600801,-0.1972929 5.170996,-0.2858248 2.465477,-0.061124 3.080947,-0.0558 3.922827,0.033961 0.54919,0.058528 1.64045,0.1559191 2.425009,0.2163412 2.43312,0.1873927 2.95001,0.245764 4.45776,0.5034391 1.76037,0.3008533 2.63346,0.4266255 3.66817,0.5284144 1.63381,0.16072 3.28435,0.576585 7.28007,1.834247 4.14968,1.30612 6.74189,2.188293 8.2317,2.801357 0.85564,0.352107 1.98541,0.798519 2.51059,0.992038 4.19107,1.544326 8.19641,3.421273 11.79612,5.52781 1.53415,0.897778 4.22638,2.667089 5.02835,3.304576 0.29421,0.233872 1.03241,0.794771 1.64045,1.246437 0.60803,0.451666 1.65115,1.268908 2.31803,1.816091 0.66688,0.547183 1.64597,1.350323 2.17576,1.784751 0.5298,0.434428 1.34922,1.155786 1.82095,1.603018 0.47171,0.447231 1.41837,1.330476 2.10367,1.962769 1.33342,1.230278 4.30144,4.21842 5.24014,5.275674 2.78691,3.13887 4.51526,5.412133 5.93322,7.803862 0.92836,1.565934 1.19186,2.048626 2.37433,4.34966 0.61931,1.205137 1.41426,2.669293 1.76656,3.253681 2.10982,3.499719 5.56358,11.186964 7.30041,16.248936 2.00282,5.837214 2.61077,8.799189 3.3389,16.267509 0.35959,3.688386 0.49418,5.716811 0.58208,8.772863 0.12781,4.443211 0.20391,6.828546 0.28334,8.879836 0.0433,1.11802 0.0604,2.30556 0.0378,2.639 -0.0754,1.1188 -0.0545,4.2983 0.0315,4.79213 0.12724,0.73064 0.15597,0.75027 0.75067,0.51321 0.27288,-0.10877 0.67113,-0.30274 0.88498,-0.43102 0.21387,-0.12828 0.47436,-0.25202 0.57887,-0.27499 0.11886,-0.026 0.32723,-0.21085 0.55646,-0.49338 0.50953,-0.62801 1.16397,-1.23031 2.3192,-2.13444 1.22494,-0.9587 1.77282,-1.3298 2.84736,-1.9286 1.76325,-0.98259 2.47337,-1.20124 3.93655,-1.21208 1.16267,-0.009 1.60298,0.0845 2.51608,0.532 0.45519,0.2231 0.74569,0.43787 1.26902,0.93817 1.18574,1.13357 1.75742,2.17272 2.63826,4.79554 0.88555,2.63686 1.05862,3.85612 1.05833,7.45649 0,4.22202 -0.20258,5.47627 -1.78018,11.04067 -0.85327,3.00954 -1.09319,3.74536 -1.99464,6.11718 -1.84957,4.86653 -2.29803,6.70819 -2.99479,12.29898 -0.62431,5.00945 -0.92537,6.43163 -2.0445,9.65805 -1.31393,3.78806 -2.06775,5.38241 -3.89322,8.23424 -0.66188,1.034 -1.43099,2.18945 -1.70915,2.56766 -0.48911,0.66505 -1.79322,2.21611 -2.39856,2.85274 -0.43086,0.45314 -2.236,1.97187 -2.95588,2.48688 -1.06158,0.75946 -2.66418,1.59961 -3.79171,1.98776 l -0.46624,0.16049 -0.16256,0.45138 c -0.17939,0.4981 -0.18004,0.64138 -0.0132,2.87641 0.10628,1.42439 0.0509,5.28344 -0.10085,7.02542 -0.0598,0.68649 -0.14354,1.87404 -0.18609,2.63899 -0.11588,2.08321 -0.47895,6.39445 -0.68474,8.13094 -0.51719,4.36391 -1.71692,10.03254 -2.85905,13.50872 -1.43744,4.37507 -3.78327,10.01456 -6.69318,16.09077 -1.05867,2.21062 -2.67353,5.64203 -2.67353,5.68097 0,0.0163 -0.57353,1.20808 -1.2745,2.64844 -0.70097,1.44036 -1.47407,3.11632 -1.71798,3.72435 -0.47499,1.18405 -1.41693,3.07194 -1.93947,3.88716 -0.17602,0.27461 -0.93213,1.73497 -1.68024,3.24526 -1.48113,2.99007 -1.9893,3.83014 -3.67151,6.06948 -0.94584,1.2591 -1.65018,2.12276 -3.37219,4.13496 -0.58988,0.68929 -1.58606,1.87515 -2.21372,2.63522 -1.47587,1.78727 -2.19814,2.58883 -3.81342,4.2321 -2.20492,2.24313 -6.19315,5.93732 -7.84506,7.26668 -0.62882,0.50602 -1.97743,1.41397 -2.66992,1.79749 -1.15572,0.64011 -8.02141,3.27878 -10.1001,3.88176 -0.75556,0.21918 -2.31281,0.57921 -3.10259,0.71732 -2.02819,0.35464 -3.2157,0.5238 -4.06547,0.57908 -0.54919,0.0358 -1.38368,0.0973 -1.85442,0.13692 -0.95727,0.0805 -2.84013,0.0989 -2.91055,0.0285 z m 1.87026,-4.58298 c 0.23901,-0.0744 0.74738,-0.31086 1.12971,-0.52551 0.38233,-0.21465 0.91795,-0.51186 1.19026,-0.66046 0.27232,-0.1486 0.63379,-0.398 0.80328,-0.55423 0.36651,-0.33784 0.87698,-1.0949 0.87698,-1.30063 0,-0.15688 -0.50803,-0.50285 -1.03419,-0.70428 -0.57839,-0.22144 -2.36879,-0.74846 -2.85297,-0.83981 -0.54846,-0.10348 -4.55582,-0.13669 -4.89849,-0.0406 -0.1624,0.0455 -0.20335,0.11262 -0.2727,0.44666 -0.11208,0.53987 -0.0319,0.74071 0.61595,1.5436 0.98392,1.21932 1.91142,2.0393 2.7618,2.44159 0.72942,0.34507 1.06843,0.38415 1.68037,0.19369 z M 96.466681,268.5569 c 1.44657,-0.0763 1.68787,-0.11798 3.50576,-0.60492 2.171199,-0.58155 2.328719,-0.66515 2.738139,-1.45296 0.13509,-0.25998 0.40646,-0.72946 0.60302,-1.04328 0.21341,-0.34074 0.43194,-0.81482 0.54248,-1.17685 0.55874,-1.83015 0.71785,-2.16515 1.20463,-2.53644 0.20097,-0.15328 0.36323,-0.20861 0.67877,-0.23144 0.65055,-0.0471 1.08336,0.18932 1.9998,1.09212 0.41375,0.40761 0.84705,0.77726 0.96287,0.82144 0.85824,0.32744 1.64754,0.36802 2.71162,0.13945 0.38969,-0.0837 1.12579,-0.22722 1.63575,-0.31895 1.1773,-0.21174 5.63214,-1.06613 6.52616,-1.25162 0.98467,-0.20431 1.64189,-0.41696 1.69196,-0.54745 0.12783,-0.3331 -0.96583,-1.53491 -1.90398,-2.09225 -0.99964,-0.59388 -2.86149,-1.24613 -4.67368,-1.63731 -0.99635,-0.21508 -1.15482,-0.23011 -2.30652,-0.21873 -0.77503,0.008 -1.53384,-0.0281 -2.03274,-0.0957 -0.43784,-0.0594 -1.47009,-0.13936 -2.29389,-0.17774 -1.19452,-0.0556 -1.59888,-0.10116 -1.99707,-0.2247 -0.6604,-0.20489 -1.53137,-0.64567 -2.10405,-1.06484 -1.20561,-0.88239 -2.53773,-1.67681 -3.41435,-2.03617 -0.49542,-0.2031 -1.335079,-0.56593 -1.865919,-0.8063 -1.82686,-0.82722 -3.200993,-1.01417 -4.80772,-0.6541 -0.516515,0.11576 -0.978115,-0.0233 -1.33716,-0.40276 -0.479257,-0.50654 -0.447724,-1.08925 0.121404,-2.24347 0.268022,-0.54357 0.221628,-0.68661 -0.322718,-0.99497 -0.86333,-0.48905 -1.072081,-0.6385 -1.211815,-0.8676 -0.364504,-0.5976 -0.251649,-1.11066 0.381809,-1.73564 0.24109,-0.23787 0.534432,-0.50541 0.651861,-0.59451 0.209684,-0.15911 0.210955,-0.16398 0.07133,-0.27146 -0.253249,-0.19493 -1.127032,-0.57286 -1.675646,-0.72474 -0.754243,-0.20881 -1.388687,-0.33557 -2.724462,-0.54436 -1.930379,-0.30171 -3.559591,-0.7656 -4.207115,-1.19789 -0.749473,-0.50037 -0.84613,-1.32877 -0.224021,-1.91985 0.448137,-0.4258 1.12018,-0.52186 2.889581,-0.41307 1.704552,0.1048 2.562722,0.23316 3.909396,0.58473 3.269394,0.85352 4.356271,0.98105 8.380566,0.98335 1.786079,9.5e-4 3.330479,0.0411 4.315119,0.11194 0.93771,0.0675 2.65569,0.11526 4.42208,0.12299 2.67872,0.0117 2.96897,6.6e-4 3.99415,-0.15058 2.60084,-0.38396 5.89375,-1.23862 7.52468,-1.953 0.78369,-0.34325 2.24957,-1.28737 2.62947,-1.69351 0.43893,-0.46924 0.42389,-0.60526 -0.0975,-0.88156 l -0.39228,-0.20792 -2.13973,0.0436 c -1.27141,0.0259 -2.41467,0.0854 -2.81729,0.14656 -0.37266,0.0566 -1.2553,0.13813 -1.96141,0.18117 -0.70611,0.0431 -1.90971,0.12442 -2.67465,0.18084 -2.33617,0.17232 -3.3372,0.1981 -4.42209,0.11389 -0.56882,-0.0441 -2.39828,-0.11192 -4.06547,-0.15062 -4.125189,-0.0957 -5.803099,-0.23387 -7.881311,-0.64878 -2.828268,-0.56467 -4.203399,-0.80109 -5.349306,-0.91971 -0.392282,-0.0406 -1.290966,-0.15545 -1.997074,-0.25521 -2.39853,-0.33887 -5.065628,-0.3493 -8.364332,-0.0327 -1.921375,0.18438 -2.558301,0.28105 -4.758241,0.72215 -2.098517,0.42077 -2.566211,0.53602 -3.710941,0.91442 -1.084139,0.35838 -1.553517,0.43324 -2.720756,0.4339 -1.70523,9.5e-4 -2.448956,-0.42596 -2.733995,-1.56945 -0.07055,-0.28304 -0.0584,-0.3905 0.100824,-0.89156 0.216097,-0.68 0.619756,-1.23094 1.187767,-1.6211 0.212859,-0.14623 0.91369,-0.47849 1.557396,-0.73838 1.048215,-0.42318 1.360907,-0.51215 2.995611,-0.85227 1.00388,-0.20886 2.141412,-0.46205 2.527853,-0.56265 0.984578,-0.2563 2.692076,-0.53524 3.750841,-0.61274 1.152368,-0.0843 12.806296,-0.0845 14.60361,0 1.297951,0.0609 1.840034,0.11513 5.407085,0.54111 3.189409,0.38089 6.735469,0.51297 10.591619,0.39448 3.51931,-0.10814 5.23638,-0.20234 6.05732,-0.33233 0.90473,-0.14327 2.30886,-0.294 3.60709,-0.38722 1.21092,-0.087 2.08645,-0.21438 3.17392,-0.46194 0.51662,-0.1176 1.16923,-0.19421 2.10407,-0.24701 0.74534,-0.0421 1.75787,-0.13693 2.25008,-0.21079 0.8898,-0.13349 2.06502,-0.4273 2.06502,-0.51625 0,-0.09 -0.60918,-0.28865 -1.63677,-0.53373 -0.57084,-0.13613 -1.70303,-0.47231 -2.51597,-0.74706 -1.14549,-0.38715 -1.65907,-0.52329 -2.28237,-0.60503 -0.44236,-0.058 -1.30177,-0.20233 -1.90981,-0.32072 -1.01923,-0.19847 -1.42547,-0.29435 -2.71175,-0.64005 -0.25577,-0.0687 -1.10631,-0.19438 -1.89009,-0.27918 -0.78377,-0.0848 -1.5473,-0.19009 -1.69674,-0.23392 -0.42381,-0.12434 -0.87122,-0.56439 -1.05499,-1.03762 -0.14426,-0.37155 -0.15581,-0.50291 -0.12985,-1.47766 0.0666,-2.49769 0.0301,-3.81441 -0.12998,-4.70739 -0.24497,-1.36609 -0.47244,-2.04472 -1.10737,-3.30368 -0.6384,-1.26584 -1.65612,-2.72688 -2.19895,-3.1568 -0.27497,-0.21779 -1.07273,-0.67196 -2.20391,-1.25473 -0.44748,-0.23053 -0.75194,-0.30867 -2.57349,-0.66046 -0.4151,-0.0802 -1.12457,-0.25788 -1.57662,-0.39491 -1.09087,-0.33069 -2.438469,-0.64958 -3.651189,-0.864 -1.78731,-0.31598 -2.678835,-0.56588 -4.042342,-1.13307 -0.710293,-0.29547 -1.304528,-0.53721 -1.320534,-0.53721 -0.05559,0 -2.362276,-1.05711 -2.935059,-1.3451 -0.718935,-0.36148 -1.653126,-0.64133 -3.119449,-0.9345 -1.587737,-0.31744 -2.353004,-0.64684 -2.849069,-1.22639 -0.420933,-0.49176 -0.431161,-0.94256 -0.03027,-1.3345 0.545443,-0.53327 1.744715,-0.71043 3.018842,-0.44592 1.614639,0.3352 3.860158,1.21493 5.491953,2.15159 0.470741,0.27021 1.192892,0.61658 1.604789,0.7697 0.411896,0.15314 1.101956,0.4303 1.533467,0.61593 2.124152,0.91378 3.069172,1.18859 4.671721,1.3585 0.56881,0.0604 1.32306,0.14344 1.67612,0.18476 0.35305,0.0413 1.41221,0.0924 2.35369,0.11349 1.37883,0.0309 1.8686,0.0153 2.51804,-0.0803 1.20784,-0.17774 3.88315,-1.02087 5.0774,-1.60014 1.14919,-0.5574 3.24276,-2.24694 4.72248,-3.81113 0.94499,-0.9989 1.6658,-1.60532 2.26701,-1.9072 0.17607,-0.0884 0.78589,-0.31219 1.35516,-0.49731 1.74857,-0.56859 2.43435,-0.96259 2.93047,-1.68369 0.40893,-0.59435 1.2727,-2.35428 1.41984,-2.89288 0.30175,-1.10458 0.30341,-3.3213 0.006,-7.22737 -0.21193,-2.77849 -0.54309,-3.96696 -1.82318,-6.54311 -0.40423,-0.81351 -0.80224,-1.67831 -0.88447,-1.92177 -0.17575,-0.52046 -0.19496,-1.19 -0.0426,-1.48468 0.24235,-0.46862 0.95779,-0.7703 1.60487,-0.6767 0.77718,0.11242 1.30425,0.48623 2.51978,1.78709 0.70862,0.75837 1.0788,1.2444 1.9829,2.60344 0.64989,0.97692 1.40021,2.21861 1.80641,2.98939 0.38214,0.72513 0.75518,1.4032 0.82897,1.50684 0.15723,0.2208 0.54239,0.42 0.81205,0.42 0.26929,0 1.50578,-0.54253 2.96248,-1.29985 0.68649,-0.35689 1.42878,-0.74271 1.64957,-0.85735 0.83163,-0.43187 1.67141,-0.30623 2.26619,0.33906 0.59055,0.64065 0.57484,1.31025 -0.0684,2.91485 -0.33247,0.82942 -0.40818,1.19486 -0.27015,1.30436 0.18234,0.14466 0.49939,0.14794 1.18791,0.0123 0.56371,-0.11108 0.75163,-0.12171 1.01918,-0.0577 0.64465,0.1542 1.11174,0.74289 1.27038,1.60102 0.0958,0.51834 0.0988,2.07887 0.006,3.17578 -0.0381,0.45112 -0.0705,1.69918 -0.0719,2.77348 -0.004,2.79856 -0.14242,3.70864 -0.80647,5.28937 -0.17379,0.41368 -0.40133,1.10373 -0.50565,1.53346 -0.10433,0.42973 -0.26815,1.02206 -0.36405,1.31627 -0.29908,0.91751 -0.40669,1.55513 -0.31197,1.84864 0.41805,1.29552 1.14172,2.8246 2.16312,4.57052 0.37867,0.64727 0.91666,1.62619 1.19555,2.17539 0.27889,0.54919 0.78717,1.41734 1.12951,1.92922 0.89102,1.33222 1.42815,2.293 2.02856,3.62853 0.73406,1.63284 1.17148,2.89769 1.63122,4.71697 0.62848,2.48702 0.71995,3.09649 0.72182,4.81031 l 9.5e-4,1.46215 -0.34909,1.17685 c -0.192,0.64727 -0.50406,1.61781 -0.69345,2.15679 -0.66842,1.90208 -0.76283,2.49108 -0.84327,5.26091 -0.0516,1.77593 -0.066,1.92129 -0.23895,2.40684 -0.3102,0.87091 -0.61704,1.37419 -1.18894,1.95012 -0.65497,0.6596 -1.19692,0.98929 -3.71124,2.25767 -1.92698,0.97208 -3.26731,1.7951 -4.22898,2.59677 -1.64625,1.37234 -2.33355,2.18742 -2.61623,3.10265 -0.24377,0.78921 -0.16654,1.64996 0.17904,1.99553 0.16388,0.16388 0.20465,0.16917 1.29579,0.16808 0.86246,-6.6e-4 1.28546,-0.0353 1.80418,-0.14681 1.82112,-0.39159 2.51053,-0.45423 3.12884,-0.28429 0.41457,0.11395 0.962,0.62914 1.12939,1.06291 0.19945,0.51685 0.16293,1.15746 -0.0983,1.72301 -0.45713,0.98985 -1.5989,2.53435 -3.1636,4.27944 -2.15098,2.39897 -3.31087,4.16114 -4.07328,6.18832 -0.15143,0.40263 -0.27532,0.7662 -0.27532,0.80795 0,0.0417 0.14085,-0.047 0.31299,-0.1971 1.43865,-1.25486 3.07542,-2.7557 4.18217,-3.8348 0.72668,-0.70854 1.92341,-1.86152 2.6594,-2.56218 0.73599,-0.70067 1.81041,-1.79058 2.38761,-2.42203 0.5772,-0.63144 1.75556,-1.87353 2.61857,-2.7602 1.72963,-1.77701 2.65175,-2.86271 3.93645,-4.63474 2.44078,-3.36663 3.68088,-5.55602 7.71616,-13.62289 2.19183,-4.38168 2.49057,-5.02271 3.32381,-7.13242 0.50354,-1.2749 1.16378,-2.84982 1.46718,-3.4998 0.94306,-2.02025 1.52771,-3.39866 2.08912,-4.92545 0.69541,-1.89122 0.84015,-2.25084 1.54655,-3.84248 0.92384,-2.08159 1.51234,-3.58721 2.05618,-5.26054 2.22848,-6.85664 3.42897,-11.85028 3.89648,-16.20801 0.46182,-4.30446 0.55406,-5.5508 0.60709,-8.20226 0.0295,-1.47105 0.0896,-3.33262 0.1336,-4.13679 0.1531,-2.7948 0.24377,-4.82371 0.28702,-6.42257 0.0363,-1.34189 0.0635,-1.63871 0.16448,-1.79254 0.15035,-0.22916 0.93896,-0.68867 1.83629,-1.06996 1.02265,-0.43455 1.7318,-0.80716 1.91927,-1.00842 0.1906,-0.20461 0.18456,-0.12366 0.12596,-1.68896 -0.077,-2.05622 -0.11383,-2.17783 -0.76432,-2.52159 -0.53485,-0.28266 -0.7539,-0.50969 -0.91993,-0.95344 -0.27315,-0.73007 -0.12056,-2.16185 0.30839,-2.8938 0.27931,-0.4766 0.74439,-0.84644 2.23785,-1.77958 1.13829,-0.71122 1.4171,-0.92122 1.84655,-1.39083 0.61803,-0.67579 1.03095,-0.90833 1.51594,-0.85367 0.40254,0.0454 0.69075,0.33804 0.8888,0.90258 0.1792,0.51077 0.28275,0.54171 1.45085,0.43336 0.51582,-0.0479 1.0454,-0.0646 1.17685,-0.0371 0.36547,0.0763 0.80238,0.35666 0.99379,0.6377 0.0948,0.13921 0.19572,0.25334 0.22423,0.25362 0.0758,6.6e-4 1.20738,-2.33538 1.55448,-3.20911 0.3737,-0.94065 1.65695,-4.74244 1.88986,-5.59893 0.43321,-1.59307 0.74899,-3.60341 1.10354,-7.02542 0.24991,-2.41215 0.39723,-3.40014 0.79768,-5.3493 0.46313,-2.25434 0.83052,-3.42751 2.25585,-7.20374 0.7738,-2.05005 0.96265,-2.63076 1.71657,-5.27798 1.56355,-5.49003 1.74287,-6.40857 1.86285,-9.54174 0.11064,-2.88889 -0.0842,-5.37712 -0.56697,-7.24059 -0.28769,-1.11049 -0.96182,-3.04279 -1.29501,-3.71195 -0.27696,-0.55622 -0.74458,-1.21965 -1.07716,-1.52817 l -0.17421,-0.16162 -0.11475,0.41125 c -0.20777,0.74466 -0.57627,1.15804 -2.40316,2.69592 -0.37132,0.31257 -1.76373,1.64352 -3.09422,2.95767 -3.23151,3.19176 -3.78034,3.91113 -5.35989,7.02542 -0.60945,1.20163 -0.77039,1.59285 -1.02101,2.482 -0.51532,1.82824 -0.93367,2.61004 -1.58258,2.95745 -0.26456,0.14165 -0.392,0.16576 -0.72536,0.13728 -0.54493,-0.0466 -1.28296,-0.41521 -1.74217,-0.87023 -0.5114,-0.50671 -0.69092,-0.99768 -0.69078,-1.88921 0,-1.10886 0.60438,-4.44498 1.06279,-5.86807 0.27517,-0.85429 1.11395,-2.77219 1.63762,-3.74451 l 0.3178,-0.59011 -0.19741,0.0552 c -0.75243,0.21028 -1.4566,-0.29546 -1.79965,-1.29255 -0.29033,-0.84387 -0.34288,-1.61726 -0.35181,-5.17843 -0.005,-1.86335 -0.0384,-3.85328 -0.075,-4.4221 -0.0366,-0.5688 -0.10157,-2.671082 -0.14439,-4.671717 -0.0807,-3.770213 -0.16771,-6.196517 -0.29033,-8.095278 -0.0838,-1.297859 -0.59894,-6.239866 -0.74716,-7.168073 -0.0564,-0.353052 -0.15318,-1.011018 -0.21512,-1.462139 -0.26472,-1.928054 -0.98139,-5.084924 -1.71637,-7.560353 -0.6949,-2.340489 -1.92534,-5.796759 -2.89463,-8.130945 -2.8217,-6.795011 -4.42038,-9.937835 -7.40091,-14.549371 -0.41861,-0.647673 -0.91555,-1.450401 -1.10432,-1.783838 -0.78629,-1.388914 -2.72551,-4.394994 -4.25603,-6.597474 -0.35438,-0.509971 -0.85671,-1.280268 -1.11628,-1.711779 -0.25958,-0.431512 -0.59975,-0.961091 -0.75593,-1.176846 -0.65446,-0.904078 -3.84883,-4.213121 -5.75207,-5.958563 -0.76496,-0.701525 -1.68348,-1.55233 -2.04118,-1.890688 -0.35769,-0.338352 -0.95557,-0.853083 -1.3286,-1.143849 -0.37305,-0.290766 -1.39632,-1.109366 -2.27394,-1.819107 -0.87763,-0.709747 -2.06107,-1.632027 -2.62988,-2.04951 -0.5688,-0.417491 -1.24282,-0.920404 -1.4978,-1.117603 -0.64851,-0.501529 -3.17932,-2.141832 -4.45775,-2.889217 -2.89455,-1.692184 -6.77696,-3.611176 -9.95903,-4.922535 -1.71084,-0.70506 -5.36847,-2.013364 -7.06203,-2.526039 -0.52393,-0.158602 -1.26118,-0.398972 -1.63833,-0.534165 -0.98392,-0.35268 -4.86717,-1.489744 -6.37535,-1.866779 -0.70612,-0.17652 -1.79738,-0.463118 -2.42502,-0.636889 -0.62766,-0.173769 -2.16278,-0.541842 -3.41141,-0.817953 -2.3902,-0.528541 -4.46247,-0.834601 -6.75228,-0.997265 -0.608039,-0.04321 -1.667189,-0.125685 -2.353689,-0.183311 -1.01112,-0.08487 -1.593595,-0.09091 -3.06694,-0.03182 -3.662629,0.14689 -4.625344,0.208511 -5.460077,0.349496 -0.468658,0.07915 -1.365637,0.208339 -1.993288,0.287078 -2.013071,0.252549 -6.673456,1.271797 -9.50316,2.078387 -2.498774,0.712263 -7.046019,2.307119 -10.003969,3.508701 -1.53645,0.624136 -3.839212,1.644118 -5.42063,2.400997 -0.804178,0.384892 -1.702862,0.807475 -1.997074,0.939086 -0.52772,0.236063 -3.208878,1.659612 -4.457754,2.366829 -0.353054,0.199923 -1.107305,0.673461 -1.676116,1.0523 -0.568809,0.37884 -1.660067,1.049823 -2.425017,1.491062 -0.764951,0.441246 -1.936449,1.163484 -2.603329,1.604969 -0.66688,0.441486 -1.485324,0.965752 -1.818762,1.165035 -2.021546,1.208193 -4.242022,3.134728 -6.54255,5.676452 -3.672038,4.057036 -4.338683,4.90398 -6.388315,8.116088 -1.196404,1.874962 -1.474085,2.353041 -2.591245,4.461288 -1.770816,3.341796 -2.100408,4.083975 -3.700517,8.332869 -0.867624,2.303877 -1.164283,3.189805 -1.897977,5.668043 -0.353985,1.196462 -0.918113,3.02592 -1.253386,4.06547 -0.894844,2.774564 -1.017402,3.211956 -1.918596,6.84711 -1.774434,7.157548 -2.112689,8.91093 -2.662481,13.801207 -0.416524,3.7049 -0.533869,5.241046 -0.648354,8.487571 -0.0415,1.176838 -0.125197,3.054441 -0.185988,4.172447 -0.06326,1.163508 -0.1346,4.274431 -0.166817,7.275051 -0.05379,5.00935 -0.0632,5.2738 -0.211857,5.9507 -0.292868,1.33358 -0.754892,2.26295 -1.502628,3.02257 -0.524594,0.53293 -0.871525,0.70529 -1.954495,0.97097 -1.228242,0.30131 -1.326279,0.36201 -1.326279,0.82106 0,0.84234 0.318408,1.91374 0.781821,2.63073 0.354045,0.54778 0.680471,0.85122 1.795919,1.6695 2.401856,1.76198 3.140649,2.35985 3.669467,2.96956 1.158412,1.33563 1.517547,2.68194 0.994801,3.72927 -0.356154,0.71356 -0.946196,1.19822 -1.691024,1.38905 -0.547547,0.14027 -0.893855,0.10133 -2.319372,-0.26081 -1.891374,-0.48049 -2.767886,-0.95057 -3.794354,-2.03496 -0.349528,-0.36925 -0.578442,-0.56338 -0.578442,-0.49056 0,0.0663 0.160067,1.18375 0.355707,2.48325 0.19564,1.29949 0.484568,3.31709 0.642061,4.48354 0.455003,3.36991 0.935469,5.96748 1.744923,9.43368 0.210701,0.90225 0.452967,1.99351 0.538369,2.42502 0.219073,1.10691 1.310382,4.37929 2.176409,6.52615 0.403523,1.00032 0.981461,2.54092 1.28431,3.42356 0.609645,1.77678 1.399556,3.77086 2.389756,6.0328 0.359202,0.82053 1.086741,2.58072 1.616752,3.91153 0.530011,1.33081 1.220477,2.98374 1.534369,3.67319 1.209268,2.65612 1.517919,3.36461 2.159745,4.95757 1.308559,3.24774 1.776556,4.26412 2.904397,6.30768 0.891512,1.61536 1.138021,1.95684 2.221112,3.07687 1.752556,1.81232 3.101431,3.27036 3.382514,3.65625 0.502809,0.6903 0.991534,1.50598 1.804622,3.01194 1.631448,3.02167 2.3916,4.91385 3.237822,8.05962 0.179393,0.66688 0.563617,1.98281 0.853828,2.92428 1.032366,3.34914 1.569999,5.4727 1.751575,6.91845 0.139695,1.11229 0.561407,3.33378 0.745123,3.92514 1.156954,3.72407 1.634098,4.9876 3.931604,10.41137 0.216111,0.51017 0.729288,1.56934 1.1404,2.3537 0.922376,1.7598 2.055459,4.03026 2.670186,5.35051 0.254984,0.54763 0.748168,1.44255 1.095973,1.98871 0.347799,0.54617 1.002167,1.63771 1.454149,2.42564 0.451988,0.78796 1.003529,1.6894 1.225669,2.00322 0.222131,0.31384 0.67193,1.00389 0.999548,1.53347 0.762384,1.23235 1.222203,1.87921 1.283505,1.8056 0.02664,-0.0319 0.102944,-0.23872 0.16956,-0.45939 0.06663,-0.22068 0.205363,-0.48547 0.308319,-0.58843 0.160622,-0.16062 0.248201,-0.18719 0.616974,-0.18719 0.590265,0 0.880411,0.18633 1.621403,1.04122 0.896702,1.03455 1.408836,1.37977 3.048663,2.05505 1.009747,0.41581 1.40698,0.51426 2.476712,0.61384 1.735559,0.16156 2.527305,0.42106 2.871492,0.94117 0.173242,0.26179 0.194488,0.37324 0.246739,1.29463 0.06012,1.05998 0.04616,1.29249 -0.133609,2.22712 -0.100774,0.52394 -0.100562,0.6486 0.0024,1.35516 0.158575,1.08864 0.504076,1.7876 1.250061,2.52893 0.672445,0.66824 1.162319,0.91442 2.818427,1.41633 1.08009,0.32736 3.166404,0.76731 4.249389,0.89611 0.644663,0.0766 3.794532,0.53825 3.990702,0.58481 3.889151,0.92292 7.070421,2.1393 8.090349,3.09341 1.12149,1.04909 1.138448,2.08958 0.04581,2.81138 -0.744083,0.49154 -1.260498,0.72077 -2.81908,1.2513 -0.805838,0.27431 -1.665087,0.59949 -1.909428,0.72262 -1.018044,0.51304 -1.760549,1.09921 -1.950214,1.53964 -0.295875,0.68703 0.124974,2.10396 0.939622,3.16357 1.560179,2.02933 5.017442,3.80563 8.376314,4.30365 1.288777,0.19109 1.046301,0.18854 3.851502,0.0405 z m 0.30658,-40.0798 c -0.55349,-0.33749 -0.58739,-0.9774 -0.10206,-1.92701 0.16583,-0.32447 0.69059,-1.2359 1.16614,-2.0254 1.23066,-2.04311 1.58317,-2.84582 2.00854,-4.57371 0.465779,-1.892 0.614949,-2.99497 0.614949,-4.54704 v -1.12726 l 0.39916,-0.37243 c 0.44919,-0.41911 0.53753,-0.46731 0.86968,-0.4744 0.36417,-0.008 0.76159,0.23891 1.44285,0.89564 0.73235,0.706 1.01118,1.18205 1.35236,2.30893 0.27279,0.901 0.35776,1.98344 0.21628,2.75523 -0.14707,0.80224 -0.66646,2.28811 -1.10616,3.1645 -1.05863,2.11001 -2.04534,3.38733 -3.61255,4.67652 -1.478339,1.2161 -2.595849,1.64479 -3.249189,1.24643 z m -40.164223,-0.80551 c -0.222803,-0.10725 -0.397203,-0.47172 -0.554488,-1.15879 -0.251194,-1.0973 -0.120788,-2.31747 0.377076,-3.52817 0.603409,-1.46733 1.182981,-2.11865 1.626624,-1.82797 0.238264,0.15611 0.233217,0.39754 -0.03204,1.53112 -0.246981,1.0555 -0.329916,1.58004 -0.396142,2.50535 -0.08822,1.23278 -0.392751,2.49652 -0.601596,2.49652 -0.03502,0 -0.106402,0.0139 -0.158645,0.0309 -0.05224,0.017 -0.169604,-0.006 -0.26079,-0.049 z m 17.283575,-30.71872 c -0.273171,-0.1118 -0.428323,-0.35907 -0.421139,-0.67116 0.0082,-0.35682 0.194237,-0.7367 0.656488,-1.34055 0.19067,-0.24907 0.631281,-0.85406 0.979144,-1.34442 0.458449,-0.64624 0.89563,-1.14666 1.58892,-1.81875 0.526044,-0.50998 1.262423,-1.27582 1.636388,-1.70188 0.75381,-0.85884 1.192469,-1.18735 1.583217,-1.18566 0.293541,9.5e-4 0.379402,0.0469 0.492464,0.2617 0.09737,0.18498 0.03042,0.40027 -0.218922,0.70411 -0.09477,0.11546 -0.434377,0.57905 -0.754695,1.03017 -0.320315,0.45112 -0.986553,1.25352 -1.48053,1.7831 -0.571955,0.61318 -1.058085,1.21722 -1.338553,1.6632 -1.036268,1.64782 -1.594955,2.33411 -2.079217,2.55409 -0.31387,0.14259 -0.427981,0.15429 -0.643565,0.0661 z m 37.568517,-3.36434 c -0.47983,-0.23751 -1.04333,-0.97789 -2.19227,-2.88041 -0.56286,-0.93202 -2.28506,-3.44126 -2.86373,-4.17245 -0.83895,-1.06006 -1.59593,-2.087 -1.90819,-2.58873 -0.40818,-0.65581 -0.92616,-1.79378 -1.28047,-2.81304 -0.29118,-0.83763 -0.83885,-2.97165 -1.00355,-3.91031 -0.21509,-1.22583 -0.28507,-2.90912 -0.19171,-4.61165 0.0472,-0.85963 0.11753,-3.00986 0.15643,-4.77828 0.0389,-1.76841 0.0836,-3.23604 0.0992,-3.26138 0.0157,-0.0253 0.0828,-1.93838 0.14926,-4.2512 0.0954,-3.32195 0.10354,-4.36991 0.0387,-4.98969 -0.13664,-1.30566 -0.21703,-3.19555 -0.14883,-3.49909 0.12589,-0.56032 0.70088,-0.78269 1.11747,-0.43216 0.78212,0.65812 1.97037,3.99845 2.59329,7.2901 0.24222,1.27984 0.37238,2.25736 0.569,4.27281 0.0803,0.8238 0.24025,2.15578 0.35531,2.95996 0.11507,0.80418 0.29096,2.34478 0.39089,3.42355 0.5027,5.42743 0.60866,6.31621 0.99653,8.35934 0.39117,2.06046 0.9586,3.81587 2.10493,6.51174 0.28356,0.66687 0.80129,1.92667 1.15051,2.79954 1.16596,2.91435 1.44062,3.87712 1.45023,5.08357 0.005,0.59106 -0.0178,0.72441 -0.1729,1.02578 -0.30145,0.5856 -0.81827,0.75493 -1.41009,0.462 z m -0.76854,-4.08967 c -0.0617,-0.14757 -0.12764,-0.25276 -0.14664,-0.23376 -0.019,0.019 0.0207,0.15045 0.0883,0.29211 0.15941,0.33431 0.20385,0.28988 0.0584,-0.0584 z m -6.84765,-12.31295 c -0.10054,-0.48689 -0.24408,-1.2704 -0.31897,-1.74114 -0.13596,-0.85446 -0.13612,-0.85487 -0.0973,-0.24964 0.0214,0.33345 0.0857,0.87908 0.14272,1.21251 0.11347,0.6627 0.38536,1.73447 0.42896,1.69087 0.015,-0.015 -0.055,-0.4257 -0.15546,-0.9126 z m 58.38253,13.45102 c -0.60289,-0.19234 -0.91997,-0.54166 -1.66839,-1.83804 -0.80467,-1.39377 -1.81995,-2.60863 -3.07375,-3.67795 -1.87786,-1.60156 -4.73487,-4.34241 -5.29097,-5.07585 -0.4889,-0.64484 -1.06669,-1.60807 -1.2983,-2.16442 -0.95629,-2.29711 -0.82658,-4.46847 0.42389,-7.09559 0.83483,-1.75392 1.54507,-2.46188 3.40469,-3.39375 0.87763,-0.43978 3.65077,-1.6986 4.34762,-1.97353 0.6884,-0.27159 1.49401,-0.70315 2.61071,-1.39858 1.91025,-1.18959 2.87838,-1.99359 3.54078,-2.9405 0.34058,-0.48686 0.79256,-0.83004 1.19184,-0.90494 0.34313,-0.0644 0.81631,0.13837 1.12791,0.4833 0.31859,0.35263 0.40026,0.54184 0.63704,1.47592 0.28403,1.12052 0.33845,1.98119 0.25483,4.03043 -0.0887,2.17256 -0.0875,2.16104 -0.43981,4.27048 -0.33007,1.97613 -0.61585,3.17792 -1.16606,4.90387 -0.51012,1.60015 -0.62302,2.16389 -0.92842,4.63607 -0.13813,1.11801 -0.34671,2.78699 -0.46354,3.70886 -0.11683,0.92185 -0.27723,2.20569 -0.35648,2.85296 -0.21518,1.75775 -0.344,2.32468 -0.68069,2.9956 -0.44879,0.89434 -1.36846,1.36229 -2.1729,1.10566 z m -30.12285,-7.70659 c -0.59942,-0.21984 -1.17124,-0.78613 -1.50389,-1.4893 -0.0962,-0.20343 -0.291,-0.75318 -0.4328,-1.22166 -0.34548,-1.14147 -1.16266,-3.4469 -1.30054,-3.66909 -0.0608,-0.0981 -0.34236,-0.48321 -0.62555,-0.85589 -0.89297,-1.17507 -1.09534,-1.61712 -1.31827,-2.87958 -0.1897,-1.07425 -0.41661,-1.51055 -1.23782,-2.38005 -0.3615,-0.38275 -0.76397,-0.84521 -0.89437,-1.02768 -0.33483,-0.4685 -0.64042,-0.66441 -2.25197,-1.44375 -1.41153,-0.6826 -2.53293,-1.37022 -3.49866,-2.14527 -0.80662,-0.64736 -1.76337,-1.55667 -2.07369,-1.97086 -0.66583,-0.88867 -1.15644,-1.53525 -1.4762,-1.94541 -0.44627,-0.57248 -1.0466,-1.60312 -1.72913,-2.96855 -0.3335,-0.66721 -0.82046,-1.48727 -1.22819,-2.06839 -0.90896,-1.2955 -1.2365,-2.00968 -2.08563,-4.54738 -0.72133,-2.15581 -0.72233,-2.15976 -0.97092,-3.8515 -0.26548,-1.80664 -0.56883,-3.34833 -0.68757,-3.49441 -0.0483,-0.0594 -0.28984,-0.0895 -0.72348,-0.09 -0.35806,-6.6e-4 -1.20287,-0.0479 -1.87735,-0.10536 -1.79371,-0.15278 -6.364829,-0.19857 -10.910656,-0.10931 -6.135368,0.1205 -6.979909,0.11839 -7.441468,-0.0185 -0.840673,-0.24947 -1.152131,-0.65264 -1.567167,-2.02858 -0.466308,-1.54598 -1.629404,-3.46894 -2.90047,-4.79539 -0.421568,-0.43995 -0.966035,-0.9423 -1.20992,-1.11633 -0.942371,-0.67246 -2.216311,-1.12907 -4.842989,-1.73585 -2.0881,-0.48236 -3.294638,-0.70236 -5.313394,-0.96884 -1.493975,-0.19721 -3.800724,-0.54814 -7.275054,-1.10674 -2.461224,-0.39571 -3.552109,-0.5161 -6.098209,-0.67297 -2.505528,-0.15436 -7.422273,-0.27529 -9.200802,-0.2263 -1.333412,0.0368 -3.429783,-0.069 -4.152653,-0.20939 -0.271752,-0.0528 -0.447751,-0.30855 -0.447751,-0.65065 0,-0.26993 0.03951,-0.34889 0.309775,-0.61916 0.560002,-0.56 1.59283,-0.84371 3.720034,-1.02183 2.737889,-0.22924 9.542562,-0.14156 12.695685,0.16361 2.667227,0.25814 10.413826,1.5095 13.908192,2.24669 1.133824,0.23919 3.584883,0.89528 4.556132,1.21955 1.647657,0.5501 3.213448,1.41027 4.139649,2.27413 0.612901,0.57164 1.4475,1.51929 1.782386,2.02382 0.627568,0.94546 1.567055,3.03703 1.760022,3.91829 l 0.09161,0.41836 0.717877,-0.0481 c 0.394832,-0.0264 1.006739,-0.0825 1.359791,-0.1247 1.250731,-0.14929 14.82607,-0.0453 17.28722,0.13249 0.56143,0.0406 0.59303,0.0355 0.52531,-0.0857 -0.18786,-0.33567 -2.2167,-2.46747 -2.54367,-2.67275 -1.70977,-1.07342 -2.41581,-1.42107 -3.85117,-1.89632 -2.512669,-0.83195 -3.055669,-1.10501 -3.905899,-1.96422 -0.92169,-0.93143 -1.409513,-2.1273 -1.412343,-3.4623 -0.002,-0.90513 -0.118734,-1.55225 -0.581525,-3.22171 -0.632693,-2.28235 -1.133076,-3.18583 -2.131285,-3.84821 -0.401984,-0.26674 -0.47977,-0.35521 -0.595727,-0.67758 -0.07336,-0.20393 -0.137204,-0.55343 -0.141898,-0.77666 -0.0096,-0.45831 0.11707,-0.69006 0.53131,-0.97191 0.233606,-0.15894 0.288096,-0.16443 1.41992,-0.14306 l 1.177007,0.0222 0.570601,-0.27398 c 1.18744,-0.57015 1.84223,-0.68303 2.37436,-0.40931 0.60615,0.31178 0.83665,0.74088 1.15397,2.14821 0.22584,1.0016 0.542829,1.795 0.762369,1.90813 0.0723,0.0372 0.4363,0.15269 0.80896,0.25659 1.32979,0.3707 2.2506,0.96591 2.77598,1.79438 0.11733,0.185 0.39075,0.7901 0.60761,1.34465 0.21684,0.55454 0.54725,1.27267 0.73421,1.59584 0.34183,0.59083 0.83082,1.2294 0.94143,1.2294 0.10193,0 0.14315,-0.27631 0.26069,-1.74744 0.15737,-1.96978 0.10924,-3.24754 -0.17474,-4.63881 -0.55431,-2.71579 -0.47652,-3.8915 0.33596,-5.07731 0.36159,-0.52775 0.72617,-0.87503 1.24562,-1.18648 0.96829,-0.58059 1.71026,-0.35428 2.50194,0.7631 0.17124,0.24168 0.37784,0.57138 0.4591,0.73266 0.35277,0.70021 0.9972,2.91196 1.41082,4.8421 0.17699,0.82596 0.19897,1.07518 0.20126,2.28237 l 0.003,1.35515 -0.42122,1.60479 -0.42123,1.60479 -0.006,1.29605 c -0.006,1.21533 0.004,1.30862 0.14607,1.49781 0.13379,0.17806 0.19661,0.20158 0.53493,0.20032 0.53836,-0.002 0.90665,-0.2764 1.63169,-1.21561 0.72658,-0.94121 3.18189,-3.50687 3.70867,-3.87536 0.21577,-0.15092 0.6009,-0.37917 0.85591,-0.50722 0.25498,-0.12804 0.64013,-0.35245 0.85588,-0.49869 1.03762,-0.70326 3.28333,-1.86277 4.21971,-2.17873 0.37905,-0.1279 1.02095,-0.36384 1.42648,-0.52433 3.75881,-1.48751 4.95943,-1.81931 9.43884,-2.60849 1.95777,-0.34491 4.5606,-0.85513 6.21898,-1.21907 3.12403,-0.68559 4.75228,-0.85399 7.68816,-0.79516 2.17128,0.0435 3.20608,0.16618 3.7956,0.44995 0.34392,0.16555 0.64555,0.47029 1.47083,1.48593 0.19217,0.23651 0.23096,0.68365 0.0859,0.98947 -0.15648,0.32975 -0.39931,0.48486 -0.92913,0.59354 -0.23537,0.0483 -0.57238,0.14394 -0.74891,0.21261 -0.27747,0.10794 -0.62932,0.12746 -2.59694,0.14407 -2.5069,0.0212 -3.60705,0.11445 -5.35569,0.45417 -0.58842,0.11432 -1.95249,0.35448 -3.03128,0.5337 -1.07876,0.17922 -2.00954,0.34075 -2.06838,0.35896 -0.16519,0.0511 -3.19274,0.52461 -4.35077,0.68043 -1.18622,0.15961 -3.12671,0.51301 -3.94993,0.71936 -0.30912,0.0775 -0.93883,0.21762 -1.39934,0.31141 -1.08314,0.2206 -1.45198,0.34845 -3.01767,1.04603 -0.71361,0.31794 -1.69332,0.7506 -2.17713,0.96144 -0.83663,0.36461 -2.36702,1.31266 -2.68354,1.6624 -0.1318,0.14565 -0.13106,0.14597 0.32745,0.14597 0.44727,0 1.76423,-0.31583 8.58893,-2.05978 0.90439,-0.23111 2.31661,-0.53858 3.13826,-0.68329 0.82165,-0.14472 1.92722,-0.35431 2.4568,-0.46577 0.52958,-0.11146 1.57269,-0.33109 2.31803,-0.48807 0.74533,-0.15698 1.70822,-0.33887 2.13972,-0.40419 0.43151,-0.0653 1.2981,-0.20958 1.92576,-0.32058 0.62764,-0.111 1.57447,-0.23743 2.10404,-0.28096 0.52959,-0.0435 1.09127,-0.0925 1.24818,-0.10896 0.48806,-0.051 1.66984,0.0873 2.67465,0.31301 0.84733,0.19032 1.09126,0.28163 2.03275,0.76088 1.60863,0.81886 2.21357,1.1936 4.18637,2.59325 0.99266,0.70427 2.02583,1.43443 2.29592,1.62259 0.2701,0.18816 0.93082,0.74329 1.46828,1.23365 0.53746,0.49036 1.20375,1.07522 1.48064,1.2997 0.6328,0.51303 0.972,0.96424 1.72233,2.29112 0.74082,1.31008 0.79579,1.45587 1.0799,2.864 0.21431,1.06225 0.2275,1.21027 0.1905,2.13973 -0.0622,1.56141 -0.36719,2.4607 -1.69707,5.00335 -0.78842,1.50742 -0.63238,1.31964 -2.45086,2.94928 -1.12466,1.00784 -1.16434,1.03771 -2.17781,1.6384 -0.45112,0.26739 -1.02885,0.64009 -1.28384,0.82824 -1.27176,0.93839 -2.54081,1.50761 -4.89544,2.19581 -2.81164,0.82176 -5.2634,1.34121 -7.26531,1.5393 -0.43152,0.0427 -1.10552,0.1133 -1.49781,0.1569 -0.39227,0.0436 -2.57478,0.10141 -4.85002,0.12848 -3.45328,0.0411 -4.37839,0.0742 -5.59895,0.2003 -0.80417,0.0831 -1.94358,0.18388 -2.532,0.22394 -1.56591,0.10662 -2.7342,0.42076 -2.86874,0.77137 -0.0668,0.17408 0.27515,0.42346 0.80508,0.58713 0.45107,0.13932 2.35191,0.5145 4.56001,0.90004 0.58842,0.10274 1.40686,0.24582 1.81875,0.31797 1.19074,0.20856 2.42315,0.30201 3.9585,0.30016 2.0649,-0.003 5.04575,-0.36192 10.76992,-1.2986 0.47074,-0.077 1.36942,-0.18998 1.99707,-0.251 2.81449,-0.27359 4.04071,-0.52048 6.19616,-1.24749 1.25436,-0.42308 1.53654,-0.44607 1.83329,-0.14932 0.23928,0.23929 0.2842,0.6502 0.0999,0.91341 -0.30839,0.44028 -3.01977,1.93486 -4.63441,2.55459 -0.58843,0.22585 -1.82412,0.70744 -2.74599,1.07023 -2.42943,0.95603 -3.28367,1.20325 -5.99121,1.73388 -5.20364,1.01983 -5.87972,1.10896 -8.02396,1.05784 -1.79791,-0.0429 -2.88681,-0.20494 -4.70738,-0.70063 -1.56846,-0.42704 -6.08625,-1.95002 -6.9541,-2.34427 -0.4119,-0.18712 -1.10196,-0.44001 -1.53347,-0.562 -0.43151,-0.12199 -1.10021,-0.33483 -1.486,-0.47298 -0.38578,-0.13816 -0.93141,-0.28195 -1.2125,-0.31954 -0.28109,-0.0376 -0.79127,-0.12333 -1.13374,-0.19052 -0.34245,-0.0672 -0.64266,-0.10216 -0.66713,-0.0777 -0.0244,0.0245 0.0953,0.30883 0.26603,0.63194 0.26476,0.50085 0.46818,0.74359 1.38039,1.64702 0.97123,0.96191 1.22106,1.16232 2.71031,2.17412 1.54874,1.05221 2.24054,1.43839 3.42355,1.9111 0.43615,0.17428 0.63902,0.20662 1.60479,0.25583 2.60378,0.13263 3.89301,0.58316 4.34588,1.51868 0.092,0.19001 0.17419,0.55662 0.21184,0.94484 0.0726,0.74921 0.0882,0.79184 0.60735,1.66733 0.76914,1.29702 1.33039,3.03254 1.72235,5.32587 0.51411,3.00798 0.19036,4.82588 -1.10136,6.18439 -0.18138,0.19075 -0.43304,0.39136 -0.55928,0.44578 -0.28972,0.12492 -0.90003,0.11935 -1.25672,-0.0114 z m -5.51116,-14.19586 c 0.0639,-0.16659 0.0592,-0.17248 -0.13752,-0.17248 -0.15872,0 -0.17149,0.0174 -0.10448,0.14265 0.0918,0.17166 0.18326,0.18292 0.242,0.0299 z m 3.60744,-7.02238 c -0.0577,-0.0365 -0.18517,-0.0644 -0.28323,-0.062 -0.15648,0.004 -0.14776,0.0156 0.0713,0.0964 0.26407,0.0974 0.38838,0.0772 0.21191,-0.0343 z m -13.02054,-0.23664 c -0.0458,-0.1195 -0.17235,-0.16363 -0.17235,-0.0601 0,0.0694 0.15913,0.23554 0.19307,0.20159 0.0133,-0.0133 0.004,-0.077 -0.0207,-0.14145 z m 7.53065,-1.64645 c 0,-0.0173 -0.0321,-0.0512 -0.0713,-0.0755 -0.0392,-0.0242 -0.0713,-0.0101 -0.0713,0.0315 0,0.0416 0.032,0.0755 0.0713,0.0755 0.0393,0 0.0713,-0.0142 0.0713,-0.0315 z m -8.21519,-5.42622 c 0.80955,-0.13129 1.05245,-0.22811 1.43153,-0.57058 0.23245,-0.21001 0.29317,-0.31442 0.29317,-0.50415 0,-0.26344 -0.27724,-1.05626 -0.65876,-1.88383 -0.23813,-0.51654 -0.49972,-1.27713 -0.98126,-2.85297 -0.12585,-0.41189 -0.33567,-0.98125 -0.46625,-1.26523 -0.30737,-0.66842 -0.97858,-1.69678 -1.17672,-1.80282 -0.1483,-0.0794 -0.1523,-0.073 -0.0973,0.15531 0.0315,0.13095 0.05,0.99105 0.0411,1.91134 -0.0181,1.86256 -0.0484,1.99994 -0.44215,1.99994 -0.47748,0 -0.86963,-0.94021 -0.99657,-2.38935 -0.12695,-1.44931 -0.35571,-1.96975 -1.05166,-2.39257 -0.44467,-0.27015 -0.62011,-0.25029 -0.93262,0.10564 -0.16692,0.19012 -0.22685,0.34084 -0.26258,0.66038 -0.0254,0.22772 -0.0796,0.50131 -0.12035,0.60798 -0.0816,0.21361 -0.0411,0.97335 0.12844,2.40938 0.1355,1.14793 0.22373,1.51966 0.75186,3.16764 0.42099,1.31368 0.44783,1.37218 0.76508,1.66771 0.42779,0.39851 1.0224,0.68687 1.86225,0.90308 0.80294,0.20674 1.03436,0.21557 1.91283,0.0731 z m 39.56632,-3.35666 c 0.12668,-0.10323 0.12734,-0.1093 0.008,-0.0713 -0.0719,0.0228 -0.16012,0.0414 -0.19615,0.0414 -0.036,0 -0.0655,0.0321 -0.0655,0.0713 0,0.10327 0.0953,0.0877 0.25384,-0.0414 z m -4.43559,-1.24716 c 0.84588,-0.14836 1.64466,-0.23472 2.5962,-0.28069 1.99519,-0.0964 1.83943,-0.019 2.40948,-1.19633 0.5706,-1.17845 0.68813,-1.5016 0.962,-2.64482 0.20337,-0.84894 0.26626,-1.52914 0.15656,-1.69343 -0.13245,-0.19834 -0.45587,-0.26877 -1.44322,-0.31427 -1.38788,-0.0639 -1.73745,-0.22156 -2.185,-0.98523 -0.23886,-0.4076 -0.61126,-0.57218 -1.50039,-0.66315 -0.54787,-0.0561 -0.78783,-0.0481 -1.2165,0.0406 -0.70453,0.14569 -1.00603,0.13895 -1.28093,-0.0287 -0.54365,-0.33149 -0.49427,-0.69979 0.18113,-1.35137 0.58394,-0.56334 0.68364,-0.81802 0.41174,-1.0519 -0.31424,-0.2703 -1.97576,-1.14729 -2.79063,-1.47297 -0.43151,-0.17246 -1.196,-0.45027 -1.69887,-0.61734 -0.81436,-0.27057 -0.97199,-0.30088 -1.44201,-0.27713 -0.29024,0.0146 -0.5635,0.0625 -0.60723,0.10617 -0.16063,0.16062 -0.49554,1.61375 -0.49561,2.15035 0,0.81664 0.1201,0.954 1.16645,1.33291 0.71192,0.25779 1.0441,0.76716 0.8036,1.23222 -0.31148,0.60232 -2.21902,1.85708 -3.3205,2.18418 -0.25049,0.0744 -0.65587,0.11501 -1.14773,0.11501 -0.68203,0 -0.9218,-0.04 -2.32541,-0.38886 -2.00566,-0.49839 -2.54791,-0.692 -4.19897,-1.4992 -1.46171,-0.71464 -1.9202,-0.9004 -3.15183,-1.27697 -1.13982,-0.34852 -1.63201,-0.41876 -2.73482,-0.39036 l -0.96528,0.0248 -0.49686,0.28588 c -0.59025,0.33961 -0.64427,0.48946 -0.33962,0.94214 0.19866,0.29516 0.40252,0.47071 1.80417,1.55362 0.40618,0.31382 0.94948,0.74075 1.20731,0.94874 1.52847,1.23281 2.13342,1.63089 3.15185,2.07395 0.83556,0.36351 2.45683,0.86071 3.28685,1.00797 0.24711,0.0439 0.75419,0.14074 1.12686,0.21531 1.0726,0.21468 2.35575,0.3068 2.95262,0.21198 2.32825,-0.36985 4.30278,-0.91129 5.46362,-1.49819 0.68076,-0.34417 1.61549,-0.64173 2.01593,-0.64173 0.29034,0 0.38365,0.0349 0.55722,0.20849 0.34656,0.34657 0.29925,0.64923 -0.29078,1.85992 -0.65113,1.33606 -0.6588,1.64708 -0.0477,1.93567 0.26608,0.12567 0.39768,0.13604 1.25093,0.0987 0.55241,-0.0241 1.46759,-0.1319 2.1754,-0.25604 z m 6.30866,-0.15806 c 0.0418,-0.0503 0.0512,-0.13152 0.0211,-0.18035 -0.0385,-0.0623 -0.0795,-0.0349 -0.13705,0.0916 -0.0863,0.18947 -0.0137,0.24505 0.11595,0.0888 z m -20.49285,-10.40133 c 0.48876,-0.11952 0.65621,-0.2091 0.74175,-0.39686 0.11011,-0.24165 0.0267,-0.3337 -0.48079,-0.53094 -0.35489,-0.13792 -0.57754,-0.16075 -1.84427,-0.18915 -1.38134,-0.031 -1.45424,-0.0257 -1.77101,0.12765 -0.1817,0.088 -0.34772,0.20516 -0.36894,0.26043 -0.11501,0.29973 0.64551,0.6307 1.71327,0.74559 0.39938,0.043 0.74219,0.0935 0.76181,0.1124 0.0475,0.0456 0.88961,-0.0415 1.24818,-0.12912 z m 6.50896,39.85054 c -0.59233,-0.21657 -0.91595,-0.51605 -2.04184,-1.88957 -0.50218,-0.61262 -1.27235,-1.5953 -1.71151,-2.18372 -1.4994,-2.00913 -2.0424,-2.70243 -2.52522,-3.22427 -1.09063,-1.17877 -1.45585,-2.17333 -1.03185,-2.8099 0.24267,-0.36435 0.55537,-0.47564 1.87736,-0.66822 1.09172,-0.15904 1.99286,-0.23099 5.93259,-0.47373 1.85399,-0.11423 2.53559,0.0573 3.00538,0.75627 0.30912,0.45992 0.28378,0.73522 -0.26269,2.85365 -0.27322,1.05916 -0.66326,2.6158 -0.86673,3.45921 -0.75131,3.11412 -0.9955,3.80241 -1.45368,4.09733 -0.24177,0.15562 -0.62799,0.19038 -0.92181,0.083 z m -84.822789,-6.10986 c -6.780927,-0.0507 -6.812594,-0.0522 -9.414775,-0.45972 -0.86302,-0.13516 -2.40362,-0.35952 -3.423556,-0.49862 -2.683923,-0.366 -3.113823,-0.44402 -3.968284,-0.72025 -1.651944,-0.53404 -3.31285,-1.29774 -4.379997,-2.01394 -0.907297,-0.60894 -2.544209,-2.08781 -3.140394,-2.83722 -1.21892,-1.53217 -1.500043,-1.9682 -1.914481,-2.96937 -0.707721,-1.70968 -1.813678,-6.51914 -2.2513,-9.79021 -0.313194,-2.341 -0.241823,-2.10348 -0.633198,-2.10717 -0.425794,-0.004 -0.71182,-0.0646 -1.757334,-0.37221 -1.175065,-0.34577 -3.423869,-0.69773 -4.885698,-0.76467 -1.298199,-0.0594 -1.580617,-0.13369 -1.985327,-0.5219 -0.470298,-0.45113 -0.63155,-1.01603 -0.511282,-1.79118 0.15662,-1.00943 0.699847,-1.7871 1.447911,-2.07279 0.543977,-0.20775 1.808699,-0.11874 3.580702,0.25202 1.427997,0.29878 4.006368,0.70876 4.068247,0.64689 0.01809,-0.0181 0.03289,-0.29779 0.03289,-0.62158 0,-3.48195 0.847797,-6.70965 2.096589,-7.98204 0.33555,-0.34189 0.590821,-0.51822 1.112992,-0.76881 0.970615,-0.4658 2.001403,-0.83121 2.488303,-0.8821 0.394987,-0.0413 0.427674,-0.0329 0.539843,0.13828 0.223411,0.34097 -0.04628,0.65332 -1.480087,1.71426 -0.449162,0.33234 -0.899864,0.71336 -1.001564,0.84669 -0.480827,0.63039 -1.006949,2.16427 -1.267287,3.69469 -0.122571,0.72055 -0.158502,1.29793 -0.187324,3.0103 -0.03748,2.22643 0.01777,3.23539 0.266815,4.87208 0.07751,0.50937 0.220591,1.58706 0.317961,2.39486 0.189257,1.57008 0.919352,5.48217 1.210056,6.48391 0.09676,0.33344 0.290009,1.08335 0.429432,1.66647 0.139423,0.5831 0.352148,1.2669 0.472723,1.51954 0.538745,1.12885 2.887252,3.51885 4.521924,4.60184 0.925271,0.613 2.772368,1.51019 3.774807,1.83352 0.936228,0.30198 2.047728,0.52145 4.364118,0.8617 0.820164,0.12047 1.892408,0.29674 2.382761,0.39171 1.293375,0.25049 1.710791,0.30992 2.745975,0.39102 1.4875,0.11653 5.59222,0.28885 6.840543,0.28715 0.631267,-6.6e-4 2.688352,0.0372 4.571307,0.0844 3.643589,0.0915 6.328628,0.0276 7.738661,-0.1843 0.372668,-0.056 1.115745,-0.15217 1.651281,-0.21374 1.662685,-0.19115 3.560504,-0.57611 4.240174,-0.8601 0.366298,-0.15305 1.869187,-1.25765 2.25013,-1.65381 0.182376,-0.18965 0.419221,-0.52136 0.526321,-0.73712 0.107101,-0.21576 0.328434,-0.60091 0.491859,-0.8559 0.163424,-0.25498 0.421853,-0.68785 0.574294,-0.96191 0.152448,-0.27408 0.408696,-0.64318 0.569451,-0.82022 0.16075,-0.17706 0.446289,-0.50648 0.634527,-0.73207 0.382012,-0.45779 0.619493,-0.56531 0.829265,-0.37547 0.203194,0.18389 0.237586,0.47877 0.114118,0.97851 -0.135166,0.54713 -0.783545,1.86397 -1.325215,2.69147 -0.219801,0.33579 -0.50802,0.80087 -0.640484,1.0335 -0.132463,0.23264 -0.428472,0.60772 -0.657793,0.83351 -0.41092,0.40459 -2.020839,1.54009 -2.601794,1.83509 -0.976549,0.49586 -4.716383,1.12221 -8.332249,1.39545 -1.908967,0.14426 -3.881856,0.16368 -11.126554,0.10954 z m 1.747441,-6.06109 c -1.383139,-0.21161 -2.920786,-0.42612 -5.098858,-0.71128 -1.649091,-0.21592 -4.341738,-0.85438 -5.066541,-1.20137 -0.314768,-0.15068 -0.631261,-0.33293 -0.703318,-0.40499 -0.126066,-0.12607 -0.12616,-0.13455 -0.0025,-0.22499 0.166484,-0.12174 0.433921,-0.11867 1.135464,0.013 1.349402,0.25328 4.153408,0.67562 5.206658,0.78422 0.627652,0.0648 1.872256,0.21048 2.765789,0.32392 0.893534,0.11344 2.032938,0.24023 2.532004,0.28177 1.237737,0.10302 2.499461,0.28395 2.780784,0.39877 0.431454,0.1761 0.425078,0.65431 -0.01096,0.82117 -0.122084,0.0468 -0.655268,0.0957 -1.184851,0.10875 -0.794698,0.0197 -1.205795,-0.0133 -2.353692,-0.18897 z M 60.49508,162.3534 c -1.346997,-0.22607 -1.971954,-0.73272 -1.656438,-1.34286 0.16292,-0.31506 0.413437,-0.41604 1.257301,-0.50683 1.29742,-0.13956 3.281919,-0.49559 4.167922,-0.74772 0.470738,-0.13397 1.192895,-0.32416 1.604791,-0.42267 1.847002,-0.44171 4.69659,-1.31397 6.212384,-1.90159 0.721763,-0.27981 1.649312,-0.62951 2.061208,-0.77711 0.411896,-0.14759 1.134053,-0.43973 1.604791,-0.64919 0.614186,-0.27328 0.970891,-0.38935 1.263128,-0.41099 0.3807,-0.0281 0.421981,-0.0154 0.633644,0.19625 0.211197,0.21121 0.223807,0.25161 0.187688,0.60158 -0.11633,1.1271 -1.095502,2.06821 -3.595845,3.45606 -0.661724,0.3673 -2.916192,1.29394 -3.83792,1.57749 -0.890689,0.27397 -3.592173,0.70605 -5.364546,0.85799 -1.706528,0.14629 -3.882348,0.17966 -4.538108,0.0696 z m 117.11718,-1.80688 c -0.67357,-0.25113 -1.12212,-0.71342 -1.41689,-1.46029 -0.23253,-0.58915 -0.21689,-1.50702 0.0434,-2.54233 0.24953,-0.99291 1.23982,-3.71518 2.7502,-7.56036 0.80307,-2.04442 0.95923,-2.68012 0.95492,-3.88716 -0.004,-1.12814 -0.13902,-1.67157 -0.74845,-3.01306 -0.20058,-0.44152 -0.42281,-0.96863 -0.49383,-1.17133 -0.42082,-1.20118 -0.16953,-2.40304 0.99667,-4.76678 0.99311,-2.0129 1.6258,-2.86259 3.14192,-4.21954 1.47798,-1.32282 2.3208,-1.55946 3.05548,-0.85793 0.69446,0.66315 0.88305,1.63739 0.9898,5.11313 0.184,5.99162 -0.0208,8.51889 -0.9093,11.21748 -0.41171,1.25052 -0.79909,2.08926 -1.45688,3.15432 -0.78012,1.26312 -1.74678,3.20501 -2.68065,5.38497 -0.92837,2.16717 -1.32288,3.00014 -1.63926,3.46114 -0.2895,0.42183 -0.77064,0.88054 -1.10004,1.04875 -0.36824,0.18803 -1.11487,0.23774 -1.48701,0.099 z m -15.62337,-1.81503 c -0.20438,-0.22582 -0.13798,-0.5497 0.29207,-1.42458 0.40298,-0.81981 0.42886,-0.85296 1.48703,-1.9042 1.05185,-1.04497 1.81843,-1.95756 2.18681,-2.60332 0.22876,-0.40101 0.60114,-1.45603 0.73008,-2.06841 0.13217,-0.6277 0.37672,-2.38421 0.50148,-3.60186 0.12314,-1.20197 0.14408,-7.51248 0.0319,-9.62875 -0.12994,-2.4523 -0.41541,-3.30883 -1.91211,-5.73702 -0.99893,-1.62061 -2.62538,-3.01984 -4.74627,-4.0832 -1.51404,-0.75909 -1.7483,-0.95671 -1.64101,-1.38423 0.0953,-0.37966 0.70413,-0.48015 1.68126,-0.2775 1.24067,0.25728 2.03106,0.60325 3.30341,1.44592 1.32923,0.88038 2.18606,1.82086 3.18649,3.49762 0.86372,1.44764 1.50643,2.8942 1.66761,3.75336 0.0272,0.14478 0.0897,0.25304 0.14598,0.25304 0.0542,0 0.73264,-0.25948 1.50769,-0.57662 0.77507,-0.31714 1.7462,-0.70271 2.1581,-0.85681 0.87669,-0.32798 4.45121,-2.08768 5.15995,-2.54019 0.26851,-0.17144 0.73888,-0.51574 1.04523,-0.7651 0.65954,-0.53684 1.34687,-1.01178 1.60781,-1.111 0.14012,-0.0532 0.24629,-0.0432 0.4217,0.0401 0.92996,0.44129 0.44159,2.14347 -1.28059,4.46354 -0.98118,1.32181 -2.27972,2.33111 -4.45776,3.46481 -0.52958,0.27565 -1.36407,0.7109 -1.85443,0.96724 -0.49035,0.25633 -1.19645,0.58378 -1.56913,0.72766 -0.37266,0.14389 -0.99853,0.39968 -1.39081,0.56845 -0.39228,0.16877 -0.77273,0.32732 -0.84544,0.35235 -0.12314,0.0424 -0.12932,0.1152 -0.09,1.06128 0.12011,2.89563 0.12422,4.88384 0.0128,6.18677 -0.16,1.8705 -0.37939,3.79354 -0.50665,4.44103 -0.35067,1.78416 -1.38443,3.71148 -2.77142,5.16699 -0.75551,0.79284 -1.31911,1.21138 -1.94819,1.44675 -0.22294,0.0834 -0.55145,0.25791 -0.73004,0.38779 -0.66875,0.48634 -1.14421,0.60254 -1.38349,0.33813 z M 55.312694,157.81232 c -2.466001,-0.20094 -4.996778,-1.04496 -6.892841,-2.29878 -0.748805,-0.49517 -2.123491,-1.81228 -2.692799,-2.58002 -0.574949,-0.77535 -1.028486,-1.60245 -1.084867,-1.97847 -0.119411,-0.79629 0.743867,-1.4602 1.90272,-1.46328 0.5792,-9.5e-4 1.18502,0.26643 2.373621,1.04997 2.212716,1.45863 2.886136,1.83847 4.248189,2.39623 0.859827,0.35209 1.885203,0.66341 2.466935,0.749 0.765608,0.11264 2.489717,0.25096 3.639961,0.29202 1.548531,0.0552 3.70803,-0.0984 4.526646,-0.32213 0.294211,-0.0804 0.965678,-0.24498 1.492148,-0.36572 0.526473,-0.12071 1.409107,-0.34584 1.961412,-0.50026 0.552305,-0.15443 1.42144,-0.39293 1.931407,-0.53001 1.65983,-0.44614 4.179269,-1.30452 4.707387,-1.60384 1.069854,-0.60634 1.403287,-0.74098 1.907049,-0.77013 0.469626,-0.0272 0.48628,-0.0221 0.731071,0.22269 0.224349,0.22435 0.250506,0.29056 0.250506,0.6341 0,0.49006 -0.320381,1.17591 -0.884798,1.89415 -0.302684,0.38517 -0.572012,0.626 -1.062029,0.94959 -0.788353,0.52062 -3.281148,1.78063 -4.346668,2.19706 -1.049961,0.41036 -4.750617,1.33789 -5.894505,1.4774 -0.494981,0.0604 -1.232002,0.15652 -1.637829,0.21366 -0.405819,0.0571 -1.288456,0.13624 -1.961412,0.17575 -0.672949,0.0395 -1.621381,0.10338 -2.107625,0.14195 -0.832145,0.0661 -2.864389,0.0768 -3.573679,0.019 z m 28.869541,-0.30031 -0.232929,-0.20874 0.0082,-1.1286 c 0.0097,-1.34352 0.0505,-1.53616 0.887379,-4.19551 0.781997,-2.48494 1.169615,-3.24525 1.654468,-3.24525 0.308685,0 0.478914,0.12232 0.628388,0.45153 0.185158,0.40782 0.182917,1.76579 -0.0064,3.84518 -0.17784,1.95382 -0.299968,2.60449 -0.592154,3.15475 -0.27009,0.50863 -0.953119,1.26085 -1.290066,1.42074 -0.390215,0.18518 -0.784451,0.15007 -1.056925,-0.0941 z M 38.50343,149.985 c -0.464786,-0.20218 -0.62001,-0.69119 -0.521645,-1.64336 0.03647,-0.35307 0.08817,-0.75055 0.114889,-0.88328 0.07597,-0.37748 -0.09546,-0.25549 -0.546078,0.38861 -0.480259,0.68645 -0.808967,0.90779 -1.278976,0.86123 -0.585047,-0.058 -0.929663,-0.65321 -0.929663,-1.60578 0,-1.08766 0.727693,-3.51488 1.574366,-5.25128 0.489369,-1.00363 0.869581,-1.60058 1.364038,-2.14159 0.892383,-0.97641 3.253665,-2.1603 5.052979,-2.53345 1.798594,-0.37299 3.902611,-0.097 4.197686,0.5506 0.209522,0.45985 0.04099,0.71329 -0.814201,1.2244 -0.722012,0.43151 -1.671628,1.13268 -1.726035,1.27446 -0.04793,0.12488 0.218716,0.41441 0.4684,0.50859 0.103998,0.0392 0.42119,0.12537 0.704861,0.19141 l 0.515764,0.12007 0.693757,-0.65112 c 1.968108,-1.84714 5.515702,-3.83908 8.188756,-4.5979 0.735603,-0.20882 3.003698,-0.64629 3.93505,-0.75898 1.033263,-0.12503 3.732673,-0.16665 4.95857,-0.0764 1.605725,0.11814 4.162535,0.58711 7.189958,1.31877 0.725721,0.17539 1.88117,0.43508 2.567666,0.57711 1.799199,0.3722 2.689893,0.62056 4.100349,1.1433 0.870053,0.32244 1.453113,0.49341 1.924139,0.56417 1.003492,0.15074 1.91306,0.71473 2.445165,1.51614 0.247702,0.37306 0.267544,0.44142 0.267544,0.92155 0,0.47867 -0.01648,0.53593 -0.213972,0.74363 -0.475673,0.50023 -0.971819,0.60074 -2.282371,0.46233 -1.515549,-0.16007 -2.695098,-0.24054 -2.940206,-0.20057 -0.126443,0.0205 -0.314296,0.12188 -0.417452,0.22503 -0.208094,0.2081 -0.209378,0.27604 -0.03047,1.60974 0.185848,1.38538 -0.242931,2.67562 -1.171919,3.52645 -0.574201,0.52589 -2.372561,1.26852 -3.253663,1.3436 -0.876001,0.0746 -1.767138,-0.32676 -2.05762,-0.92681 -0.265167,-0.54777 -0.212874,-0.83892 0.346536,-1.9294 0.272929,-0.53204 0.565236,-1.19453 0.649583,-1.47221 l 0.153346,-0.50487 -0.186125,-0.59699 c -0.156029,-0.50041 -0.240906,-0.6511 -0.524769,-0.9316 -0.398658,-0.39394 -1.40698,-1.03434 -1.628584,-1.03434 -0.0851,0 -0.185655,0.0401 -0.223459,0.0892 -0.102614,0.13312 -0.403658,0.98945 -0.658692,1.87368 -0.27248,0.94471 -0.872928,2.20228 -1.318668,2.76181 -0.618215,0.77605 -1.583328,1.38454 -2.685221,1.69303 -0.29066,0.0814 -0.933226,0.18527 -1.427922,0.23087 -0.764681,0.0705 -1.090623,0.0642 -2.175386,-0.0421 -2.103859,-0.2061 -3.748328,-0.64117 -5.163098,-1.36601 -0.69494,-0.35604 -1.203907,-1.12726 -1.103298,-1.67179 0.11394,-0.61667 0.447943,-0.89858 1.352932,-1.14184 0.733168,-0.19709 1.776512,-0.71068 2.132455,-1.04973 0.401939,-0.38286 0.646459,-0.95079 0.642358,-1.49199 -0.0043,-0.56555 -0.124126,-0.84491 -0.423344,-0.98691 -0.310303,-0.14724 -0.638942,-0.0758 -1.658927,0.36074 -1.432278,0.61298 -2.629126,0.78798 -3.918415,0.57297 -0.812324,-0.13547 -1.312392,-0.0707 -2.110486,0.27301 -0.90578,0.39018 -1.255162,0.64145 -2.812059,2.02236 -1.484132,1.31637 -2.223554,1.93087 -3.390254,2.81753 -0.520209,0.39535 -0.672364,0.47583 -0.89966,0.47583 -0.358895,0 -0.649633,-0.27377 -0.649633,-0.61174 0,-0.27389 0.305566,-1.16898 0.518925,-1.52008 0.273299,-0.44975 -0.03451,-0.19884 -0.653835,0.53295 -0.749852,0.88602 -1.175833,1.53521 -1.40248,2.13735 -0.232451,0.61757 -0.481928,1.10338 -0.865945,1.68629 -0.635543,0.9647 -1.321598,1.31653 -1.995543,1.02339 z m 18.449719,-4.74598 c 0,-0.0392 -0.01416,-0.0713 -0.03145,-0.0713 -0.01729,0 -0.05129,0.032 -0.07554,0.0713 -0.02424,0.0393 -0.01009,0.0713 0.03145,0.0713 0.04154,0 0.07553,-0.0321 0.07553,-0.0713 z M 190.22217,134.15646 c -0.91012,-0.43025 -1.33379,-1.32637 -1.88835,-3.99409 -0.1614,-0.77639 -0.38467,-1.64152 -0.49615,-1.92251 -0.85813,-2.16287 -1.25716,-4.4522 -0.96892,-5.55885 0.12196,-0.46824 0.7157,-1.6893 1.10027,-2.26275 0.1447,-0.21576 0.42679,-0.72928 0.62689,-1.14119 0.78304,-1.61189 2.63903,-3.78278 3.97481,-4.64922 1.49559,-0.9701 3.13377,-0.6315 3.68681,0.76206 0.1629,0.41047 0.16962,0.49786 0.16481,2.13973 -0.004,1.38214 -0.0347,1.90406 -0.15952,2.71031 -0.29521,1.90781 -1.62514,7.98786 -2.01257,9.2008 -0.30995,0.97042 -1.09268,2.9592 -1.36782,3.4754 -0.26641,0.49984 -0.69723,0.89912 -1.28944,1.19506 -0.52595,0.26281 -0.88552,0.27468 -1.37082,0.0453 z M 81.025021,130.80083 c -0.713363,-0.17988 -1.788652,-0.5438 -2.015555,-0.68213 -0.539225,-0.32873 -0.643913,-0.90265 -0.341978,-1.87462 0.241489,-0.77736 0.365636,-1.82151 0.262793,-2.21019 -0.14463,-0.54661 -0.293976,-1.67817 -0.25031,-1.89651 0.103534,-0.51768 0.749564,-0.72552 1.135457,-0.36527 0.20144,0.18804 0.41457,0.56298 0.569259,1.00141 0.05201,0.14739 0.423572,0.75994 0.825689,1.3612 0.773632,1.15675 1.347163,2.27226 1.491636,2.90124 0.192646,0.83874 -0.02635,1.47048 -0.600078,1.73104 -0.336206,0.15268 -0.575769,0.16021 -1.076913,0.0338 z m 36.202479,-3.6609 c -0.32398,-0.17945 -0.50479,-0.53185 -0.50479,-0.98386 0,-0.88122 0.51862,-1.91053 1.80008,-3.57267 0.50981,-0.66125 1.19007,-1.57137 1.51169,-2.02249 0.32163,-0.45112 0.84887,-1.1784 1.17164,-1.61618 0.32277,-0.43777 0.61755,-0.90295 0.65506,-1.03372 0.11085,-0.38655 0.0793,-0.85438 -0.1074,-1.59023 -0.30885,-1.21752 -0.69044,-1.8198 -1.46099,-2.30597 -1.06773,-0.67367 -1.36929,-1.09992 -1.13771,-1.60815 0.15838,-0.3476 0.6203,-0.50972 2.16194,-0.75869 0.46738,-0.0755 1.22163,-0.23419 1.67611,-0.3527 1.91934,-0.50043 3.72838,-0.84024 4.82047,-0.90544 1.46219,-0.0873 2.31023,0.30753 2.49247,1.16044 0.0742,0.34717 -0.0597,0.71311 -0.56707,1.54974 -0.62638,1.03296 -0.77817,1.4777 -0.7815,2.2899 -0.004,0.75036 0.0573,0.90359 0.64275,1.63079 0.48786,0.60598 0.67404,0.96311 0.67404,1.29295 0,0.80903 -0.78799,1.52665 -2.81464,2.56327 -0.57708,0.29517 -1.50381,0.85286 -2.05941,1.2393 -0.5556,0.38644 -1.33115,0.89908 -1.72343,1.13918 -0.78719,0.48181 -2.61138,1.91821 -3.6578,2.8802 -0.87086,0.80063 -1.37003,1.07181 -2.04422,1.1106 -0.39897,0.023 -0.55373,6.7e-4 -0.74729,-0.10627 z m -60.434831,-6.07834 c -0.359216,-0.28281 -0.210035,-0.66811 0.373096,-0.9636 1.337648,-0.67784 5.035115,-1.02864 9.92911,-0.94203 3.296234,0.0583 5.196706,0.28808 5.77212,0.69782 0.370186,0.26359 0.357476,0.69615 -0.02629,0.8946 -0.419401,0.21688 -2.969156,0.32962 -7.899262,0.34927 -2.490992,0.01 -5.299378,0.0406 -6.240854,0.0682 -1.685005,0.0494 -1.714846,0.0477 -1.90792,-0.10427 z m 102.919311,-4.41181 c -0.14782,-0.0772 -0.48484,-0.31508 -0.74891,-0.5287 -0.26407,-0.21362 -0.67269,-0.51918 -0.90806,-0.67903 -0.23537,-0.15984 -0.73088,-0.51533 -1.10114,-0.78998 -0.70143,-0.52028 -2.70344,-1.62391 -3.32096,-1.83072 -0.56631,-0.18966 -2.35895,-0.51786 -3.50915,-0.64248 -1.26257,-0.13678 -2.0231,-0.31737 -2.69604,-0.64016 -0.90161,-0.43249 -1.44487,-1.03381 -1.64709,-1.82309 -0.18592,-0.72574 0.0406,-1.30468 0.69651,-1.77977 0.40424,-0.29285 1.03545,-0.47942 2.03491,-0.60151 1.06302,-0.12985 1.32912,-0.22955 1.43678,-0.53834 0.11459,-0.32873 0.0177,-0.45376 -0.57811,-0.74618 -0.74001,-0.36319 -1.86694,-0.52596 -4.26103,-0.61545 -1.03955,-0.0389 -2.46781,-0.11729 -3.17393,-0.1743 -0.7061,-0.057 -2.13436,-0.15182 -3.17391,-0.21073 -3.87584,-0.2196 -4.00573,-0.23109 -4.48104,-0.39629 -0.88286,-0.30686 -1.36419,-0.85323 -1.36636,-1.551 -0.004,-1.18533 1.24545,-2.20115 3.00554,-2.44417 0.51827,-0.0716 0.8255,-0.0587 2.37825,0.0997 2.86716,0.2924 3.41732,0.30223 4.94071,0.0882 1.40067,-0.19673 1.91983,-0.30462 1.98673,-0.41287 0.0685,-0.111 -0.33559,-0.482916 -0.75791,-0.697387 -0.61026,-0.309906 -1.06477,-0.416998 -2.42908,-0.572332 -2.3075,-0.262721 -3.36353,-0.495283 -4.71455,-1.038247 -1.52745,-0.61388 -2.08232,-1.183056 -2.0815,-2.135213 6.6e-4,-1.095612 1.09738,-2.161754 2.49898,-2.429922 0.74955,-0.143411 1.96245,-0.126003 3.05296,0.04383 0.50997,0.07939 1.57402,0.238553 2.36457,0.353632 0.79056,0.115078 1.946,0.303707 2.56767,0.419176 2.63159,0.48879 3.10054,0.542488 4.73217,0.541898 1.42574,-6.65e-4 1.56103,-0.01188 1.92575,-0.161019 0.64657,-0.264489 1.02026,-0.592098 1.49175,-1.307775 1.20129,-1.823481 1.70033,-3.256137 1.99715,-5.733411 0.24937,-2.081305 0.2913,-2.960349 0.29055,-6.09074 -9.5e-4,-4.220511 -0.16011,-7.427067 -0.50284,-10.135487 -0.19264,-1.522359 -0.33306,-2.282294 -1.07411,-5.812922 -1.25672,-5.987481 -1.40215,-6.537586 -2.45115,-9.272123 -1.14069,-2.973556 -2.17929,-7.530707 -2.17495,-9.543245 0.003,-1.251351 0.18339,-2.048472 0.64182,-2.831478 0.32114,-0.548502 0.48517,-1.183838 0.36404,-1.410147 -0.13275,-0.248054 -0.0989,-0.571837 0.0692,-0.661809 0.2867,-0.153436 0.42103,-0.07169 1.87381,1.140347 0.55776,0.465322 2.53234,2.640704 3.52472,3.883119 1.15503,1.446067 2.62974,3.700734 3.52386,5.387558 1.40572,2.652009 3.02457,6.338779 4.0911,9.317139 0.32612,0.910733 0.79097,2.149103 1.03299,2.751936 0.84245,2.098485 1.08497,2.859047 2.078,6.516695 1.36204,5.016831 1.68911,6.819994 1.98251,10.930219 0.35401,4.9593 0.38587,8.671569 0.10878,12.678038 -0.0977,1.412212 -0.20917,3.321916 -0.24779,4.243782 -0.15957,3.808968 -0.45745,5.433278 -1.20658,6.579278 -0.57712,0.88288 -1.07157,1.22724 -1.75433,1.22184 -0.69767,-0.006 -1.50984,-0.49928 -2.46505,-1.49861 -0.5856,-0.61265 -0.78157,-0.90066 -1.4008,-2.05873 -0.95024,-1.77712 -2.19875,-3.537266 -2.88913,-4.073109 -0.43731,-0.339417 -0.97662,-0.629567 -1.04408,-0.561712 -0.10083,0.101435 -0.0358,2.141861 0.0884,2.777861 0.17639,0.90251 0.65972,2.32366 1.20158,3.53308 0.54247,1.21077 1.13184,2.78359 1.55016,4.1368 0.1637,0.52958 0.45347,1.4443 0.64392,2.03273 0.74964,2.31606 0.7455,3.16324 -0.0229,4.68179 -0.46236,0.91377 -0.71969,1.14551 -1.31568,1.18482 -0.30732,0.0203 -0.47585,-0.008 -0.6778,-0.11333 z m -88.968651,-2.53481 c -0.684199,-0.31402 -0.151964,-0.90494 1.13015,-1.25478 0.745849,-0.20352 2.844025,-0.42905 4.586801,-0.49302 2.215645,-0.0814 8.802173,-0.0488 9.50152,0.0471 1.126252,0.15425 1.446725,0.31536 1.446725,0.72732 0,0.43393 -0.347961,0.50676 -4.279445,0.89566 -0.254983,0.0252 -2.726363,0.055 -5.491953,0.0663 -2.765592,0.0112 -5.397449,0.0417 -5.848574,0.0676 -0.642865,0.037 -0.868876,0.0248 -1.045224,-0.0561 z m -31.549872,-5.39385 c -0.292563,-0.29257 -0.103879,-0.79879 0.442799,-1.18803 0.779849,-0.55523 2.500309,-1.45993 3.990797,-2.09854 3.207266,-1.37416 4.500691,-1.72754 7.049578,-1.92603 1.563622,-0.12177 6.305004,-0.16236 7.916971,-0.0678 0.76495,0.0449 2.562317,0.10986 3.994146,0.14438 1.431832,0.0345 3.405724,0.1003 4.386432,0.14616 1.989448,0.093 4.045093,0.05 5.777247,-0.12089 0.853735,-0.0842 1.473549,-0.10012 2.460682,-0.0631 0.725722,0.0272 2.0577,0.055 2.959948,0.0618 1.4085,0.0106 1.672514,0.0299 1.8672,0.13636 0.290816,0.15908 0.363153,0.37459 0.189964,0.56596 -0.216289,0.239 -0.434634,0.31609 -1.664882,0.5879 -0.647266,0.143 -1.578045,0.37066 -2.068397,0.50592 -1.628978,0.44933 -3.276963,0.63232 -5.741586,0.63757 -2.783472,0.006 -9.7319,-0.10259 -11.233541,-0.17541 -6.494905,-0.31501 -9.429013,-0.24378 -11.661483,0.2831 -0.523364,0.12352 -2.70809,0.86438 -5.670265,1.92285 -1.03311,0.36916 -2.505172,0.79011 -2.763809,0.79032 -0.04904,3e-5 -0.153345,-0.0641 -0.231801,-0.14257 z m 59.785434,-6.24491 c -0.25571,-0.17911 -0.21351,-0.56726 0.11666,-1.0726 0.61073,-0.93473 1.629949,-1.925796 3.485909,-3.389628 2.17168,-1.712832 3.41468,-2.412461 5.48425,-3.086795 1.51016,-0.49207 2.09787,-0.632144 3.59299,-0.856359 1.65161,-0.24768 2.34589,-0.310715 4.4311,-0.402301 1.53114,-0.06722 2.21821,-0.06104 4.23348,0.03832 1.32315,0.06522 3.32508,0.12411 4.44875,0.130899 2.34567,0.01417 2.41679,0.0038 4.34663,-0.632049 1.08803,-0.358499 1.46867,-0.533314 3.22403,-1.48066 1.44688,-0.78086 4.18795,-1.361968 4.85002,-1.028198 0.2559,0.128998 0.26541,0.361352 0.0218,0.532477 -0.11005,0.0773 -0.48895,0.245607 -0.84201,0.374035 -0.90903,0.330632 -1.51025,0.643638 -2.532,1.318233 -1.98606,1.311246 -3.78555,2.091992 -6.08498,2.640105 -1.25076,0.298146 -1.92567,0.328294 -6.28975,0.280956 -4.92229,-0.05343 -6.75202,0.03052 -9.3976,0.431146 -1.66634,0.25231 -3.94702,0.801396 -4.9174,1.183883 -1.40542,0.553964 -3.92266,2.167196 -6.22633,3.990276 -1.032649,0.81723 -1.505979,1.13933 -1.674209,1.13933 -0.062,0 -0.18414,-0.0499 -0.27133,-0.11103 z M 36.855633,96.984263 c -0.120563,-0.08443 -0.158518,-0.182002 -0.158518,-0.407396 0,-0.272162 0.03933,-0.334569 0.481437,-0.763937 1.428913,-1.387739 7.690929,-4.874186 11.385796,-6.339168 3.645964,-1.445577 6.352483,-2.13005 9.957929,-2.518346 1.307955,-0.140853 4.898109,-0.103679 7.20373,0.07463 1.078778,0.08338 2.073748,0.166866 2.211048,0.185454 0.137297,0.01854 0.939693,0.0675 1.783101,0.108613 0.843407,0.04117 2.111192,0.106798 2.817299,0.145883 2.843257,0.157311 6.73549,0.204564 10.912583,0.13244 2.314467,-0.03993 4.344382,-0.05277 4.510908,-0.02862 0.81527,0.118568 0.992063,0.863908 0.27954,1.178473 -1.204253,0.53166 -6.005718,0.925764 -11.296937,0.927257 -3.769183,9.51e-4 -6.8392,-0.158043 -10.646947,-0.551796 -2.435233,-0.251825 -2.63696,-0.261989 -5.277983,-0.265611 -2.647877,-0.0038 -2.789975,0.0038 -3.977557,0.190083 -3.257633,0.512759 -6.870876,1.61405 -10.065445,3.067889 -1.575591,0.717056 -5.466157,2.698285 -7.318555,3.726897 -2.455675,1.363613 -2.469979,1.369422 -2.801429,1.137268 z M 145.05662,232.2009 c 0.49534,-1.28119 0.51767,-1.43832 0.50935,-3.58404 -0.009,-2.24985 -0.0906,-2.8455 -0.59333,-4.3151 -0.64397,-1.88251 -1.55757,-3.90122 -2.57224,-5.68376 -0.52053,-0.91445 -1.04294,-1.83915 -1.1609,-2.0549 -0.56517,-1.03375 -0.93356,-1.63281 -1.73306,-2.81818 -0.58656,-0.86968 -1.09887,-1.74528 -1.58578,-2.71031 -0.66818,-1.32435 -1.84124,-3.16951 -2.3202,-3.64955 l -0.15518,-0.15555 -0.80725,0.20522 c -1.06816,0.27158 -2.58303,0.80982 -3.11557,1.107 -0.56729,0.31657 -0.97991,0.66904 -1.55463,1.32802 -0.61533,0.70552 -1.05174,1.08567 -1.58246,1.37843 -0.75029,0.41388 -2.02413,0.87253 -3.56738,1.28447 -1.60795,0.42919 -5.62115,1.72073 -6.11753,1.96874 -0.1659,0.0829 -0.45409,0.29863 -0.64042,0.47944 -0.39602,0.38427 -0.42804,0.57954 -0.15475,0.94432 0.40217,0.53683 1.01201,1.65839 1.50279,2.76377 0.65179,1.46803 0.89688,1.90446 1.52794,2.72102 1.55603,2.01334 2.26434,2.46264 5.62065,3.56522 2.15626,0.70835 2.62683,0.92216 3.99841,1.81671 0.79483,0.51838 1.11738,0.78695 1.89009,1.5737 0.62071,0.632 1.14599,1.09149 1.57362,1.37656 1.04157,0.6943 1.10268,0.71449 2.85364,0.94225 3.20272,0.41662 6.0684,1.246 7.38137,2.13632 0.17652,0.1197 0.35648,0.21778 0.39988,0.21794 0.0434,0 0.22473,-0.37682 0.40294,-0.83774 z m -19.63381,-48.41294 c -0.0496,-0.0598 -0.1049,-0.094 -0.12285,-0.0761 -0.0494,0.0494 0.0511,0.18478 0.13723,0.18478 0.0473,0 0.0418,-0.041 -0.0143,-0.10871 z m -1.87528,-4.00155 c 0.0286,-0.0746 -0.0164,-0.16204 -0.12599,-0.24475 -0.21628,-0.16314 -0.25055,-0.12723 -0.13797,0.14461 0.0993,0.23981 0.19626,0.27658 0.26396,0.10014 z m 56.43963,-55.6593 c 0,-0.0393 -0.0321,-0.0713 -0.0713,-0.0713 -0.0392,0 -0.0713,0.032 -0.0713,0.0713 0,0.0392 0.032,0.0713 0.0713,0.0713 0.0393,0 0.0713,-0.032 0.0713,-0.0713 z m 13.0523,-16.86393 c 0,-0.0566 -0.032,-0.12262 -0.0713,-0.14686 -0.0392,-0.0242 -0.0713,0.022 -0.0713,0.10278 0,0.0807 0.032,0.14686 0.0713,0.14686 0.0392,0 0.0713,-0.0463 0.0713,-0.10278 z"
       style="fill:#000000;stroke-width:0.0713243" />
  </g>
</svg>
