<?xml version="1.0" encoding="UTF-8" standalone="no"?>
<svg
   xmlns:dc="http://purl.org/dc/elements/1.1/"
   xmlns:cc="http://creativecommons.org/ns#"
   xmlns:rdf="http://www.w3.org/1999/02/22-rdf-syntax-ns#"
   xmlns:svg="http://www.w3.org/2000/svg"
   xmlns="http://www.w3.org/2000/svg"
   id="svg8"
   version="1.1"
   viewBox="0 0 210 297"
   height="297mm"
   width="210mm">
  <defs
     id="defs2" />
  <metadata
     id="metadata5">
    <rdf:RDF>
      <cc:Work
         rdf:about="">
        <dc:format>image/svg+xml</dc:format>
        <dc:type
           rdf:resource="http://purl.org/dc/dcmitype/StillImage" />
        <dc:title></dc:title>
      </cc:Work>
    </rdf:RDF>
  </metadata>
  <g
     id="layer1">
    <path
       id="path258"
       d="m 101.58355,238.34101 c -0.12512,-0.12512 -0.0963,-0.29398 0.11476,-0.67279 0.23233,-0.41695 0.90061,-2.10367 1.47605,-3.72551 1.53844,-4.33586 2.31692,-6.04084 4.79639,-10.50477 0.66683,-1.20053 1.74479,-3.21586 2.39547,-4.47851 0.65067,-1.26264 1.70115,-3.25827 2.33438,-4.43471 1.5292,-2.84099 2.2891,-4.28486 3.06058,-5.81537 0.3521,-0.69851 1.03613,-1.96185 1.52007,-2.80742 1.33835,-2.33845 1.42343,-2.51727 2.73542,-5.74853 2.27934,-5.61373 3.36762,-7.60385 6.28702,-11.49706 1.19886,-1.59875 1.76045,-2.29219 3.71481,-4.58694 1.9965,-2.34424 4.08884,-5.10118 5.53191,-7.28903 1.24077,-1.88113 1.72606,-2.72659 2.62175,-4.56749 1.84122,-3.7843 2.15385,-4.89931 2.08031,-7.41962 -0.0446,-1.53009 -0.14995,-2.1565 -0.5779,-3.43794 -0.17931,-0.53697 -0.34656,-1.08571 -0.37164,-1.21941 -0.0402,-0.2142 -0.0744,-0.24851 -0.28771,-0.28852 -0.37156,-0.0697 -0.57956,-0.20183 -1.10807,-0.70386 l -0.48669,-0.46231 -0.19999,0.21518 c -0.36109,0.38853 -0.62499,0.76707 -1.0684,1.53257 -0.24045,0.41512 -0.4898,0.81491 -0.55409,0.88844 -0.0643,0.0735 -0.1988,0.36938 -0.29889,0.65744 -0.1001,0.28807 -0.40888,0.99494 -0.68617,1.57083 -0.27731,0.57587 -0.64746,1.36491 -0.82257,1.75339 -0.42265,0.93765 -1.44869,2.73664 -1.93082,3.38533 -1.10985,1.4933 -3.31633,3.74212 -5.28992,5.39145 -0.53308,0.44549 -1.36027,1.1684 -1.8382,1.60646 -0.47792,0.43807 -1.33519,1.14831 -1.90503,1.57832 -0.56984,0.43001 -1.36695,1.05984 -1.77135,1.39962 -2.27063,1.9078 -5.17458,3.6449 -7.98778,4.77815 -1.26899,0.5112 -1.86785,0.81405 -2.84084,1.43667 -0.44117,0.2823 -0.97911,0.61691 -1.19544,0.74356 -0.21631,0.12667 -0.82924,0.60628 -1.36204,1.06583 -0.5328,0.45955 -1.3327,1.13212 -1.77756,1.4946 -0.44486,0.36248 -1.05016,0.8862 -1.34511,1.16383 -0.60209,0.56671 -2.24894,1.82625 -3.31029,2.53178 -0.38604,0.2566 -1.03471,0.69375 -1.44151,0.97143 -1.42736,0.97433 -3.302938,1.70372 -6.913921,2.68874 -2.788594,0.76068 -3.828049,0.93582 -6.139751,1.03453 -1.866048,0.0797 -5.256446,-0.0179 -6.32654,-0.18204 -1.246177,-0.19117 -4.581761,-0.7956 -5.226759,-0.94712 -1.379994,-0.32419 -3.097522,-0.97709 -4.464928,-1.69732 -2.100089,-1.10611 -2.614127,-1.50259 -3.967156,-3.0598 -0.553283,-0.63678 -1.205477,-1.38338 -1.449321,-1.65911 -0.425508,-0.48114 -0.669827,-0.8444 -1.303769,-1.93846 -0.159767,-0.27573 -0.460298,-0.66676 -0.66784,-0.86896 -0.854603,-0.83261 -2.234364,-3.55131 -3.137918,-6.18301 -0.151471,-0.44117 -0.392632,-1.04276 -0.535917,-1.33687 -0.49179,-1.00945 -1.536416,-2.48326 -3.002525,-4.23606 -0.780233,-0.93282 -1.548874,-1.89021 -1.708094,-2.12755 -0.159216,-0.23734 -0.303668,-0.40659 -0.321009,-0.37612 -0.0635,0.11159 -0.454782,1.47253 -0.554025,1.92701 -0.05619,0.25735 -0.120298,0.8161 -0.142449,1.24167 -0.05237,1.00621 0.06514,1.55212 0.534083,2.48102 0.596455,1.18149 1.058145,1.81403 2.015362,2.76112 1.239665,1.22653 2.207696,2.55565 2.563334,3.51946 0.220224,0.59684 0.337482,1.38108 0.44357,2.96661 0.08103,1.21098 0.135154,1.61482 0.304462,2.27147 0.363514,1.40984 0.808973,2.36004 1.531168,3.26608 0.527069,0.66124 1.732533,1.78676 2.345475,2.18994 0.312491,0.20555 0.926303,0.60791 1.364009,0.89415 0.866037,0.56632 1.695156,1.3049 1.946698,1.73414 0.439069,0.7492 0.482457,2.03162 0.134857,3.98571 -0.436071,2.45145 -0.50381,3.50645 -0.278567,4.33896 0.167321,0.61846 0.666766,1.63516 1.412781,2.87594 0.988548,1.64417 1.302436,2.41999 1.302436,3.21912 0,0.76069 -0.391656,1.71652 -1.012655,2.47137 -0.191858,0.2332 -1.498047,1.56702 -2.902663,2.96405 -1.404613,1.39702 -2.695762,2.73556 -2.869223,2.97453 -0.860263,1.1851 -1.303654,2.55387 -2.00288,6.18301 -0.402142,2.08719 -0.503576,2.45207 -0.724781,2.607 -0.202286,0.14169 -0.471817,0.12417 -0.620915,-0.0403 -0.429465,-0.47387 0.09112,-5.24943 0.804727,-7.38198 0.447093,-1.33614 1.0318,-2.29284 2.193697,-3.58935 0.30284,-0.33793 1.513166,-1.59567 2.68961,-2.79498 2.339844,-2.3853 2.580877,-2.69093 2.626223,-3.33011 0.03528,-0.49701 -0.151284,-0.98836 -0.916919,-2.41503 -1.157618,-2.15709 -1.399768,-2.71826 -1.581686,-3.66556 -0.19638,-1.02259 -0.08496,-2.56803 0.342947,-4.75681 0.210255,-1.07545 0.238375,-1.33287 0.215961,-1.97649 -0.02165,-0.62121 -0.04978,-0.77882 -0.175337,-0.98197 -0.196821,-0.31846 -0.767232,-0.8349 -1.32918,-1.20337 -0.248617,-0.16304 -0.75283,-0.49295 -1.120466,-0.73315 -1.254148,-0.81939 -2.509462,-2.06375 -3.315378,-3.28647 -0.482687,-0.73231 -0.855593,-1.67009 -1.198399,-3.01374 -0.259342,-1.0165 -0.321191,-1.47924 -0.465771,-3.4846 -0.07692,-1.06691 -0.234168,-1.76984 -0.523762,-2.34133 -0.377911,-0.74577 -1.04083,-1.58819 -1.99215,-2.53156 -1.05677,-1.04793 -1.631575,-1.84468 -2.265703,-3.14053 -0.624846,-1.27688 -0.783476,-2.20514 -0.606704,-3.55019 0.172403,-1.31181 0.569167,-2.48167 1.106578,-3.26277 0.11221,-0.16309 0.204014,-0.31597 0.204014,-0.33973 0,-0.0238 -0.357434,-0.6801 -0.794299,-1.45851 -0.436861,-0.77842 -0.92942,-1.68602 -1.094567,-2.01689 -1.102073,-2.20806 -1.817097,-4.94033 -2.983449,-11.40054 -0.21014,-1.16391 -0.636773,-4.11326 -0.71015,-4.90924 -0.06985,-0.75787 -0.05382,-0.74434 -0.488189,-0.41223 -0.20885,0.15968 -0.755721,0.54105 -1.215272,0.84749 -1.171897,0.78145 -3.250493,2.27249 -4.044023,2.9009 -1.855984,1.46979 -3.533185,3.11522 -6.887616,6.75719 -2.459179,2.66996 -3.276643,3.67621 -5.457437,6.71775 -0.751255,1.04777 -1.812958,2.50662 -2.359346,3.2419 -0.546383,0.73528 -1.669749,2.29941 -2.496372,3.47586 -1.806984,2.57169 -3.067636,4.26217 -5.234121,7.01871 -0.895792,1.13978 -2.564985,3.32054 -3.709318,4.84614 -2.338022,3.11703 -3.188515,4.15733 -5.246057,6.4168 -0.786737,0.86396 -2.6966417,2.96952 -4.244229,4.67904 -5.0871255,5.61941 -5.3685159,5.88723 -6.20686572,5.90749 -0.3120412,0.008 -0.3382297,-0.004 -0.35629577,-0.15896 -0.014988,-0.12834 0.11006547,-0.31443 0.53902069,-0.80212 0.3071882,-0.34926 1.3663399,-1.56748 2.3536687,-2.70716 0.9873287,-1.13968 3.4218471,-3.93392 5.4100364,-6.20944 4.2382427,-4.85073 4.2718957,-4.89164 6.8787787,-8.36241 1.104528,-1.47055 2.684027,-3.54394 3.509992,-4.60752 2.001907,-2.57782 3.545839,-4.65742 4.990859,-6.72243 0.656015,-0.93748 1.855153,-2.59185 2.66475,-3.67638 0.809592,-1.08453 2.011634,-2.70883 2.671204,-3.60954 1.431671,-1.95511 2.398581,-3.17135 3.560411,-4.47851 1.997033,-2.24684 5.282227,-5.66791 6.665605,-6.94132 2.202319,-2.02724 3.204644,-2.76959 7.497284,-5.55266 1.125387,-0.72964 1.023431,-0.48178 0.868436,-2.11129 -0.344072,-3.61713 -0.84815,-7.34725 -1.594347,-11.79785 -1.008864,-6.01723 -1.214869,-7.02392 -1.880828,-9.19096 -0.169465,-0.55146 -0.472684,-1.60424 -0.673802,-2.33952 -1.281257,-4.68419 -1.453295,-5.87075 -1.458513,-10.05993 -0.0056,-4.44201 0.205517,-6.72919 1.116403,-12.09864 l 0.481927,-2.840851 -0.0034,-1.60424 c -0.0038,-1.96998 -0.08925,-2.54417 -0.740835,-4.9875 l -0.242698,-0.91005 -0.658465,0.39098 c -0.847961,0.50351 -1.377836,0.68644 -1.849607,0.63857 -0.428573,-0.0435 -0.729584,-0.20901 -0.939295,-0.5165 -0.1331,-0.19516 -0.152036,-0.28835 -0.123954,-0.61015 0.01821,-0.2089 0.100865,-0.60794 0.183638,-0.88676 0.08277,-0.27881 0.135698,-0.52174 0.11761,-0.53983 -0.01809,-0.0181 -0.264802,0.0743 -0.548251,0.20523 -0.794473,0.36707 -1.404043,0.49826 -2.315184,0.49826 -1.278192,0 -2.333497,-0.24432 -3.340068,-0.77325 -1.426317,-0.74951 -1.847808,-2.33158 -0.884876,-3.32137 0.231463,-0.23791 0.244456,-0.27488 0.247008,-0.70278 0.0025,-0.41989 0.02471,-0.48684 0.31551,-0.95205 0.172046,-0.27523 0.54023,-0.76991 0.818182,-1.09931 0.277955,-0.32939 0.483102,-0.61818 0.455886,-0.64177 -0.02722,-0.0236 -0.419296,-0.16802 -0.871285,-0.32096 -1.468894,-0.49704 -1.974207,-0.81466 -2.237599,-1.40647 -0.247101,-0.55519 -0.01316,-1.18375 0.682955,-1.83487 0.414006,-0.38726 0.874321,-0.68056 2.028487,-1.29253 2.005576,-1.06341 4.047912,-2.65826 4.995508,-3.90097 0.96959,-1.27157 1.988775,-3.20356 2.493341,-4.72648 0.167361,-0.50511 0.621367,-2.18397 1.008913,-3.73079 0.847538,-3.38283 1.240229,-4.78717 1.821008,-6.51225 1.557162,-4.62523 3.198485,-8.38103 5.740024,-13.13472 1.565467,-2.92805 3.292446,-5.57066 6.122454,-9.36852 2.785936,-3.73871 6.328611,-7.72597 9.014914,-10.14622 3.480711,-3.13598 7.050892,-5.67438 11.095998,-7.88929 1.988643,-1.08888 3.002721,-1.6113 4.545345,-2.34157 0.753657,-0.35678 1.986919,-0.94342 2.740577,-1.30363 0.753662,-0.36023 1.662476,-0.76248 2.019587,-0.8939 0.357119,-0.13142 1.081294,-0.43247 1.609288,-0.66899 0.527986,-0.23652 1.303633,-0.53601 1.723642,-0.66553 1.634211,-0.50395 2.662266,-0.77885 3.303702,-0.88343 0.367636,-0.0599 1.074504,-0.20943 1.570816,-0.3322 1.502878,-0.37177 2.399482,-0.46588 6.015904,-0.63144 5.12109,-0.23444 9.70829,-0.0923 13.30185,0.41215 0.56984,0.08 1.30679,0.14934 1.63766,0.1541 0.46567,0.007 0.71486,0.0489 1.10292,0.18667 0.75525,0.26818 2.73209,0.62456 4.34481,0.78328 3.21411,0.31633 3.97505,0.50182 6.91829,1.68653 1.21485,0.48899 1.92996,0.84344 3.97718,1.97131 2.28248,1.25749 2.78125,1.59873 5.24721,3.59005 1.68878,1.36373 2.40957,2.02846 4.54534,4.19176 3.65639,3.70353 4.46285,4.70733 6.73188,8.37914 1.73812,2.81267 2.24247,3.75308 3.49522,6.51723 0.35823,0.79042 0.99749,2.12896 1.42058,2.97453 1.61985,3.2374 2.44854,5.09543 4.27805,9.59202 2.62292,6.44665 3.47874,8.88348 4.73035,13.46893 0.28097,1.02939 0.77679,2.6988 1.10182,3.70981 0.32503,1.011 0.79066,2.49994 1.03474,3.30874 0.24408,0.80881 0.89101,2.83918 1.43764,4.51193 0.54661,1.67276 1.24762,3.82344 1.55778,4.7793 1.06575,3.28445 1.78465,4.94605 3.38365,7.82067 1.26285,2.27032 1.55044,2.72102 2.86895,4.49609 1.47924,1.99147 1.9065,2.63045 2.37744,3.55551 0.80885,1.58882 1.38083,3.650851 1.58082,5.698961 0.12998,1.33113 -0.12422,3.28881 -0.69997,5.39074 -0.55777,2.03636 -0.55221,2.2203 0.13008,4.29442 0.47007,1.429 0.60115,2.11452 0.54181,2.83372 -0.0553,0.66985 -0.19511,1.01033 -0.61772,1.50398 -0.20458,0.23896 -0.45498,0.5548 -0.55644,0.70185 -0.19455,0.28198 -0.42521,0.8837 -0.37186,0.97003 0.0173,0.028 0.15318,0.73865 0.3019,1.57918 0.14872,0.84053 0.34897,1.81399 0.44498,2.16325 0.096,0.34925 0.19273,0.82485 0.21493,1.05688 l 0.0403,0.42186 1.00265,0.38947 c 1.28945,0.50087 1.8951,0.78542 3.20848,1.50745 3.09504,1.70149 5.07365,3.03525 7.49493,5.05227 2.36093,1.96673 3.514,3.15812 6.98148,7.21342 2.4901,2.91222 3.3302,3.99726 4.7096,6.08274 1.52069,2.29912 2.1128,3.42162 4.44261,8.42226 1.52965,3.28317 2.04116,4.4657 2.47212,5.71511 0.91003,2.63827 1.80767,7.50498 1.91715,10.39414 0.0834,2.19969 -0.23087,3.44894 -0.95429,3.79391 -0.21331,0.10172 -0.23636,0.10127 -0.34428,-0.007 -0.10409,-0.10419 -0.11349,-0.26429 -0.0939,-1.60054 0.024,-1.6402 -0.0504,-2.48639 -0.39319,-4.47126 -0.21653,-1.25387 -0.66218,-3.1556 -1.03884,-4.43311 -0.29884,-1.01355 -1.17598,-3.22302 -1.95042,-4.91299 -3.64951,-7.96395 -4.34099,-9.30976 -6.27626,-12.21535 -1.41239,-2.12055 -2.9041,-4.02826 -5.76269,-7.36975 -1.60471,-1.87581 -2.58839,-2.91996 -3.7776,-4.00983 -2.3211,-2.12723 -4.28625,-3.68047 -6.55741,-5.18294 -2.29719,-1.51968 -3.03201,-1.95855 -4.47026,-2.6698 -1.34415,-0.66471 -1.40315,-0.68688 -1.60424,-0.6029 -0.11483,0.048 -0.4043,0.13759 -0.64326,0.19919 -0.6283,0.16195 -1.02403,0.39919 -1.66876,1.00044 -0.71543,0.66718 -0.77171,0.75146 -0.9066,1.35776 -0.13505,0.60703 -0.22942,0.83731 -0.49009,1.1959 -0.42312,0.58208 -1.16891,0.93878 -2.13281,1.02011 l -0.62507,0.0527 -0.45431,0.47646 c -0.25955,0.27219 -0.58023,0.53359 -0.74801,0.60972 -0.54621,0.24782 -1.2422,0.15254 -2.11445,-0.28947 -0.19097,-0.0968 -0.37402,-0.17594 -0.40678,-0.17594 -0.0328,0 -0.0967,0.27824 -0.14206,0.61831 -0.16987,1.2734 -0.70909,2.46619 -1.25235,2.77028 -0.53909,0.30173 -0.92435,0.25792 -1.66601,-0.18945 -0.8257,-0.49806 -1.43644,-1.18449 -1.96898,-2.21298 l -0.30521,-0.58947 -0.26438,0.52022 c -0.38802,0.76351 -1.53926,2.73058 -1.86928,3.19396 -0.80349,1.1282 -1.83381,2.09512 -2.70364,2.53732 -0.52065,0.26468 -1.46105,0.57054 -1.75808,0.57181 -0.51969,0.002 -0.5068,-0.0241 -0.46911,0.95787 0.0332,0.86638 0.031,0.88484 -0.15625,1.24596 -0.21026,0.40557 -0.44834,0.57958 -0.89807,0.65634 -0.27596,0.0471 -0.28969,0.0611 -0.37445,0.38197 -0.12787,0.48402 -0.21054,1.71766 -0.17099,2.5519 0.04,0.8444 -0.0657,1.75879 -0.23738,2.05271 -0.3051,0.52241 -0.7505,0.6074 -1.98064,0.37793 -0.36524,-0.0681 -0.70492,-0.1082 -0.75483,-0.089 -0.24337,0.0934 -0.43983,0.72727 -0.84471,2.72549 -0.32222,1.59026 -0.46411,2.04557 -0.79148,2.5398 -0.44026,0.66468 -1.0853,0.89074 -2.19368,0.76877 -0.3733,-0.0411 -0.76573,-0.0556 -0.87207,-0.0322 -0.29543,0.0649 -0.63435,0.50541 -1.34198,1.74432 -0.83195,1.45654 -0.87453,1.544 -1.3304,2.73315 -0.2114,0.55146 -0.53398,1.34343 -0.71684,1.75995 l -0.33246,0.7573 0.23011,0.54614 c 0.12656,0.30038 0.38066,0.88648 0.56468,1.30245 0.61648,1.39356 0.82664,2.56953 0.82051,4.59117 -0.003,1.18166 -0.0247,1.43489 -0.1819,2.18127 -0.33017,1.56777 -0.91252,3.23806 -1.94286,5.57256 -0.59387,1.34557 -1.17413,2.39434 -2.34003,4.22936 -1.93231,3.04131 -3.18178,4.65984 -6.35871,8.23693 -1.6341,1.83992 -2.03439,2.32534 -3.27122,3.96689 -2.65173,3.51946 -3.76249,5.56086 -5.91583,10.87233 -0.92809,2.28924 -1.63796,3.75002 -2.92347,6.0159 -0.55272,0.97424 -1.3747,2.49326 -1.82663,3.37559 -1.20957,2.36154 -2.47089,4.7272 -3.20755,6.0159 -0.58468,1.02283 -1.48649,2.68594 -2.57342,4.74588 -0.21338,0.4044 -0.89147,1.62262 -1.50686,2.70716 -2.33215,4.11008 -3.14317,5.71902 -4.10866,8.15095 -1.06291,2.6773 -2.65652,5.95919 -3.13727,6.46094 -0.29283,0.30561 -0.58528,0.38801 -0.75932,0.21396 z M 86.664108,195.10442 c 2.102292,-0.14712 2.884002,-0.28535 5.84879,-1.03431 2.970211,-0.75031 5.237425,-1.58489 6.249852,-2.30059 0.16544,-0.11695 0.73695,-0.50734 1.27003,-0.86755 1.26004,-0.85142 2.90745,-2.11845 3.55025,-2.73052 0.28007,-0.26669 0.88687,-0.79308 1.34843,-1.16976 0.46156,-0.37668 1.2607,-1.0349 1.77586,-1.46273 0.51515,-0.42783 1.17178,-0.9217 1.45917,-1.09749 0.28738,-0.1758 0.89851,-0.56768 1.35806,-0.87086 1.03749,-0.68445 1.55926,-0.964 2.87427,-1.5399 2.37529,-1.04024 4.71547,-2.32663 6.11616,-3.36202 0.36764,-0.27175 1.07451,-0.83079 1.57082,-1.2423 0.49631,-0.41151 1.34375,-1.09275 1.88319,-1.51386 0.53943,-0.42112 1.40189,-1.14927 1.91656,-1.6181 0.51467,-0.46884 1.27638,-1.12899 1.69269,-1.467 2.09184,-1.69838 4.8639,-4.59377 5.58786,-5.83644 1.19705,-2.05475 2.07658,-3.72674 2.58627,-4.91658 0.24291,-0.56705 0.24664,-0.58839 0.1684,-0.96525 -0.0462,-0.22246 -0.0627,-0.57074 -0.0391,-0.82384 0.0225,-0.24116 0.071,-1.05509 0.10776,-1.80875 0.17159,-3.5189 0.49745,-5.93289 1.04567,-7.74626 0.28705,-0.94949 0.46705,-1.37886 0.92227,-2.19998 0.19772,-0.35664 0.43448,-0.88907 0.52614,-1.18318 0.28677,-0.92016 1.13821,-5.59024 1.62085,-8.89016 0.56942,-3.89335 1.01511,-5.81183 2.26719,-9.75914 0.96795,-3.05158 1.95111,-6.72752 2.24366,-8.38884 0.18208,-1.03392 0.25716,-3.51633 0.13462,-4.45117 -0.13672,-1.04319 -1.05944,-6.57907 -1.24125,-7.44694 -0.44712,-2.13438 -1.31773,-5.24259 -2.05951,-7.35277 -0.78468,-2.232241 -2.15484,-5.692411 -4.40704,-11.129421 -1.5607,-3.7677 -2.06047,-5.12019 -3.59374,-9.72571 -0.58138,-1.74628 -1.28834,-4.00224 -1.57102,-5.01325 -0.28269,-1.01101 -0.56824,-2.01867 -0.63456,-2.23925 l -0.12058,-0.40106 -0.006,0.96783 c -0.003,0.53231 0.0423,1.85581 0.10158,2.94111 0.11313,2.07019 0.0933,4.73597 -0.04,5.37837 -0.092,0.4432 -0.28284,0.63892 -0.62302,0.63892 -0.34531,0 -0.56231,-0.22782 -1.04023,-1.09209 -0.69484,-1.25657 -1.05182,-2.36912 -1.54368,-4.81105 -0.54628,-2.71206 -0.81703,-4.47571 -1.23847,-8.06712 -0.13158,-1.12129 -0.35851,-2.97746 -0.50429,-4.12481 -0.14578,-1.14735 -0.26658,-2.13998 -0.26844,-2.20584 -0.004,-0.14493 -0.55649,0.92379 -0.7686,1.48702 -0.0836,0.22197 -0.21532,0.7634 -0.29273,1.20318 -0.25092,1.42567 -0.53649,2.17786 -0.97204,2.56026 -0.20227,0.1776 -0.29447,0.21123 -0.57908,0.21123 -0.18617,0 -0.44831,-0.0509 -0.58255,-0.11317 -0.56886,-0.26377 -1.56674,-1.53302 -2.24445,-2.8548 -0.64525,-1.25848 -1.50057,-3.59924 -2.15175,-5.88878 -0.53134,-1.86818 -1.05176,-3.60346 -1.24289,-4.14428 -0.18472,-0.52267 -0.51425,-1.18542 -0.57396,-1.15434 -0.68028,0.35404 -0.83548,0.3996 -1.27637,0.37469 -0.33782,-0.0191 -0.55804,-0.079 -0.88053,-0.23968 -0.89955,-0.44812 -2.22195,-1.62287 -2.72767,-2.42311 -0.25347,-0.40106 -0.27462,-0.41905 -0.27512,-0.23395 -8.5e-4,0.27705 0.15917,1.15755 0.33387,1.83819 0.19661,0.76602 0.1589,1.09253 -0.15992,1.38471 -0.2544,0.23313 -0.53429,0.28281 -0.87136,0.15466 -0.2109,-0.0802 -2.24449,-1.92901 -2.65987,-2.4182 -0.87782,-1.0338 -2.14408,-3.50002 -2.72339,-5.30417 -0.51714,-1.61052 -1.26407,-5.00642 -1.43985,-6.54618 -0.23314,-2.04226 -0.24968,-6.19156 -0.0332,-8.32647 0.33234,-3.27741 0.75881,-5.60989 1.73521,-9.49026 0.25418,-1.01019 0.44718,-1.85167 0.42889,-1.86996 -0.0183,-0.0183 -0.50578,0.44727 -1.08331,1.03457 -2.1573,2.19387 -4.2125,4.88807 -5.84469,7.66191 -0.97899,1.66373 -2.35445,4.13355 -2.822149,5.06749 -0.890221,1.7777 -2.591148,5.57753 -3.587694,8.01483 -0.370299,0.90566 -1.087103,2.63927 -1.592891,3.85247 -0.505797,1.21321 -1.167408,2.86758 -1.470249,3.67639 -0.302845,0.8088 -0.866445,2.2827 -1.252449,3.27532 -0.386008,0.99263 -0.92654,2.4214 -1.201188,3.17506 -1.010647,2.77334 -1.521378,3.8973 -1.99604,4.39268 -0.234397,0.24464 -0.313688,0.28636 -0.544188,0.28636 -0.775159,0 -1.140388,-1.07559 -1.066794,-3.14164 0.05783,-1.62348 0.256683,-2.8026 1.054006,-6.24985 0.566504,-2.44932 0.810424,-3.38652 1.370411,-5.26546 0.238563,-0.80046 0.535909,-1.85324 0.660758,-2.33951 l 0.227005,-0.88414 -0.22996,0.26737 c -0.675028,0.78486 -1.49425,2.0629 -2.332048,3.63819 -1.072612,2.01678 -1.522427,2.54482 -2.167794,2.54482 -0.213575,0 -0.298199,-0.0397 -0.437803,-0.20565 -0.172862,-0.20544 -0.196962,-0.33453 -0.173724,-0.93068 0.02577,-0.66177 0.47698,-2.48211 1.001111,-4.03907 0.147599,-0.43844 0.256632,-0.80889 0.242307,-0.82322 -0.03885,-0.0388 -0.911634,1.63731 -1.332199,2.55839 -0.990152,2.16852 -2.174145,5.09209 -3.292531,8.13007 -1.477946,4.01468 -2.77257,6.93559 -3.314019,7.47704 -0.423134,0.42314 -1.013891,0.175 -1.183084,-0.49694 -0.107442,-0.42668 -0.09296,-1.46746 0.02951,-2.12067 0.273034,-1.45635 0.640806,-2.65626 1.378504,-4.49756 0.222046,-0.55423 0.552599,-1.39872 0.734572,-1.87665 0.478242,-1.25606 1.978156,-6.09073 2.602574,-8.38884 1.744986,-6.42229 2.198045,-7.95746 3.064494,-10.38402 0.999909,-2.80029 1.403678,-3.68315 2.792509,-6.10592 0.931236,-1.6245 1.444077,-2.66454 1.534476,-3.11187 0.03282,-0.16242 0.0172,-0.18382 -0.134335,-0.18382 -0.830822,0 -3.747284,1.67258 -6.068047,3.48001 -1.904937,1.48357 -3.903596,3.296 -5.326104,4.82981 -1.708366,1.84203 -2.021218,2.20426 -2.958938,3.42584 -0.477795,0.62243 -1.135573,1.47876 -1.461727,1.90295 -0.876431,1.13987 -3.251924,4.72257 -3.74337,5.6457 -0.234859,0.44116 -0.768649,1.4214 -1.186196,2.17831 -0.417551,0.7569 -1.072509,2.06536 -1.455465,2.90768 -1.17542,2.58537 -2.061396,4.03723 -2.64913,4.34116 -0.255435,0.13209 -0.308967,0.12502 -0.500035,-0.066 -0.154868,-0.15487 -0.164056,-0.20642 -0.163801,-0.9191 0,-0.41526 0.04608,-1.04078 0.102075,-1.39004 0.25735,-1.60517 1.055373,-4.32362 1.766151,-6.01638 0.935406,-2.2277 2.982201,-5.9316 4.432316,-8.02073 0.911094,-1.31258 2.708954,-3.76738 3.328948,-4.54534 1.032929,-1.29613 3.096363,-3.514 5.562585,-5.97892 1.395807,-1.39507 2.451358,-2.48106 2.34567,-2.4133 -2.285714,1.46542 -5.254362,3.93587 -8.071127,6.71665 -4.013461,3.96219 -7.376499,7.8526 -9.653491,11.16732 -1.349675,1.96479 -1.857833,2.82548 -2.50601,4.24456 -1.039698,2.27625 -1.494994,3.57723 -2.795426,7.98778 -0.514887,1.74628 -1.238225,4.16768 -1.60742,5.38089 -1.376704,4.52398 -2.735758,9.66321 -3.632522,13.73631 -0.462188,2.09929 -0.753063,3.26858 -1.147321,4.61219 -0.167215,0.56984 -0.392186,1.33687 -0.499946,1.7045 -0.296905,1.01291 -1.127107,4.28541 -1.127107,4.44284 0,0.17076 -0.03108,0.17744 1.57082,-0.33765 2.681917,-0.86237 4.412564,-1.14916 8.225676,-1.36309 3.762293,-0.21107 6.6072,0.18184 8.069067,1.1144 0.600832,0.38329 1.118187,1.16457 1.117703,1.68791 -8.5e-4,0.95466 -1.362107,1.46951 -3.208234,1.21344 -0.422786,-0.0586 -1.114611,-0.15046 -1.537397,-0.20403 -0.422786,-0.0536 -1.430448,-0.20505 -2.239251,-0.3366 -2.418045,-0.39327 -3.071942,-0.38947 -6.550649,0.0381 -2.404029,0.29549 -3.116706,0.51192 -4.46047,1.35461 -0.377559,0.23678 -0.860569,0.51571 -1.07335,0.61986 -0.271043,0.13267 -0.399022,0.23773 -0.427423,0.35089 -0.06607,0.26323 0.03078,2.19774 0.14371,2.87098 0.05749,0.34268 0.268118,1.27514 0.468064,2.07214 0.560509,2.23421 0.713649,3.34018 0.714073,5.15696 0,1.19647 -0.113899,2.123591 -0.712307,5.783891 -0.345672,2.11438 -0.590956,4.04418 -0.739141,5.81537 -0.142436,1.7025 -0.203852,6.19161 -0.101459,7.417 0.09798,1.17267 0.535119,3.7794 0.796307,4.74849 0.108996,0.4044 0.338646,1.26167 0.510323,1.90504 0.171682,0.64336 0.504664,1.80143 0.739969,2.57347 0.235306,0.77204 0.486275,1.65938 0.557703,1.97188 0.26867,1.17531 0.682552,3.36031 0.911621,4.81272 0.130467,0.82718 0.430271,2.66204 0.666235,4.07744 0.484568,2.90662 0.656181,4.08387 0.798995,5.48116 0.05449,0.53307 0.189366,1.82649 0.299737,2.87426 0.110371,1.04777 0.2475,2.50663 0.304734,3.24191 0.223897,2.87633 0.511185,4.97154 1.104425,8.05462 0.215758,1.1213 0.440984,2.32448 0.500511,2.67373 0.601422,3.52885 1.215531,5.76488 2.065273,7.51988 0.443191,0.91535 2.333297,4.25334 2.785354,4.91901 0.306763,0.45173 1.125191,1.48939 1.887209,2.39272 0.749178,0.88812 1.832689,2.35317 2.244211,3.03447 0.192558,0.31877 0.478691,0.87357 0.635868,1.23286 0.157182,0.3593 0.360236,0.77359 0.451246,0.92065 0.183358,0.29628 1.394868,2.73687 1.394868,2.80996 0,0.0254 0.130463,0.26077 0.289925,0.52311 0.159453,0.26235 0.450422,0.76275 0.646602,1.11201 0.641448,1.14199 2.325005,3.69919 2.754377,4.18369 1.1558,1.30421 2.30023,2.55762 2.517032,2.75672 0.580876,0.53344 2.529902,1.69016 3.684878,2.18694 1.633745,0.70269 2.841005,1.04429 5.414312,1.53203 1.89624,0.3594 3.109712,0.54731 3.810072,0.59001 0.887258,0.0541 4.129241,0.0399 5.013251,-0.022 z M 74.866251,162.90905 c -0.995476,-0.12903 -1.736256,-0.34041 -2.473202,-0.70575 -0.593007,-0.29398 -0.835543,-0.48423 -0.835543,-0.65541 0,-0.34413 0.523298,-0.38365 2.172408,-0.16405 1.266341,0.16862 1.457359,0.17685 3.620791,0.15606 l 2.283918,-0.022 0.172577,0.16205 c 0.215431,0.20229 0.220148,0.43146 0.01316,0.63846 -0.222755,0.22275 -0.507096,0.2848 -2.163865,0.47222 -1.319275,0.14923 -2.248147,0.18864 -2.790229,0.11838 z m 17.680071,-5.10422 c -1.033656,-0.0937 -2.359133,-0.19853 -3.375593,-0.26696 -0.551457,-0.0371 -1.634317,-0.14043 -2.40636,-0.22957 -3.259527,-0.37636 -6.387497,-0.60233 -7.419611,-0.536 -0.367641,0.0237 -1.224906,0.10541 -1.905038,0.18175 -1.593426,0.17883 -2.764885,0.17743 -3.60954,-0.004 -0.349256,-0.0751 -1.191482,-0.25774 -1.871614,-0.40578 -3.021649,-0.6577 -3.901227,-0.62657 -7.252503,0.25664 -0.845543,0.22284 -1.251456,0.29325 -1.938457,0.33624 -0.999281,0.0625 -1.120811,0.0308 -1.090109,-0.28475 0.01758,-0.18047 0.139583,-0.30921 0.822734,-0.86804 0.441166,-0.36089 1.060175,-0.85762 1.375575,-1.10384 0.315403,-0.24622 0.977151,-0.77251 1.470554,-1.16952 1.098808,-0.88415 2.887968,-2.14534 3.446511,-2.42946 0.826666,-0.42051 1.84465,-0.45277 3.502111,-0.11099 0.757441,0.15618 1.048584,0.1841 1.835992,0.1761 0.996869,-0.0102 0.903189,0.008 3.007952,-0.58505 2.167169,-0.61071 3.463236,-0.57869 5.681686,0.14035 0.691091,0.22401 1.851286,0.75137 2.423505,1.10161 0.806752,0.49378 3.03327,1.64526 4.127144,2.13443 0.689189,0.30818 1.99649,0.78488 3.676382,1.34056 2.015851,0.66681 2.77336,0.94912 3.341134,1.24517 0.711118,0.37081 0.735931,0.39127 0.788108,0.65023 0.04639,0.23022 0.03388,0.28363 -0.08992,0.38435 -0.130119,0.10586 -0.325836,0.11609 -2.058135,0.10766 -1.052889,-0.005 -2.170014,-0.0325 -2.482505,-0.0608 z m 3.184168,-0.63005 c -0.06852,-0.0519 -0.399387,-0.15869 -0.735278,-0.23732 -1.090367,-0.25527 -4.56544,-1.39465 -5.624545,-1.84414 -1.21599,-0.51607 -2.518718,-1.17313 -4.04351,-2.03942 -1.514711,-0.86057 -2.161568,-1.15182 -3.174979,-1.42961 -1.443972,-0.3958 -2.004145,-0.46856 -2.94111,-0.38205 -0.942577,0.087 -1.544165,0.23378 -2.774,0.67664 -1.124377,0.4049 -1.632318,0.50324 -2.606888,0.50475 -0.670995,8.5e-4 -0.90464,-0.0322 -1.838191,-0.26153 -0.934926,-0.22966 -1.17075,-0.26315 -1.874196,-0.26616 -0.945592,-0.004 -1.011224,0.0214 -2.205679,0.85358 -0.954814,0.66526 -4.347441,3.37133 -4.293862,3.42492 0.01346,0.0135 0.519421,-0.12453 1.124325,-0.30668 1.593808,-0.47993 2.486874,-0.66488 3.558462,-0.73693 1.648792,-0.11086 3.048309,0.0632 5.261766,0.65458 0.888142,0.23727 0.922953,0.2411 2.205832,0.24292 0.947838,10e-4 1.627847,-0.0383 2.492521,-0.14525 0.793506,-0.0982 1.560007,-0.14709 2.304073,-0.14709 1.203902,0 3.896798,0.19316 5.564127,0.3991 0.569837,0.0704 1.818138,0.20483 2.774001,0.29875 2.653668,0.26075 3.531522,0.36746 4.478502,0.54442 0.714184,0.13345 1.371392,0.21203 2.37294,0.2837 0.07554,0.005 0.06954,-0.0161 -0.02433,-0.0872 z M 66.24346,141.86043 c -0.931657,-0.14384 -1.736851,-0.3956 -2.540049,-0.79421 -2.209424,-1.09647 -3.634565,-2.96908 -4.14578,-5.44746 -0.245538,-1.19041 -0.310941,-1.83546 -0.34591,-3.41163 -0.02951,-1.33006 -0.01524,-1.78121 0.07608,-2.4019 0.15812,-1.07485 0.731775,-3.30809 1.443449,-5.6193 0.33395,-1.08454 0.904399,-3.12994 1.267658,-4.54535 0.363263,-1.41541 0.75449,-2.88931 0.8694,-3.27532 0.24902,-0.83656 1.081213,-3.4969 1.547303,-4.94641 0.395379,-1.2296 0.614873,-2.1185 0.759253,-3.0748 0.05828,-0.38602 0.223664,-1.2884 0.367526,-2.0053 0.188725,-0.94047 0.30997,-1.82464 0.435388,-3.17506 0.0956,-1.02939 0.247126,-2.43501 0.336731,-3.12362 0.0896,-0.688591 0.162905,-1.282671 0.162905,-1.320151 0,-0.17611 -0.658775,0.0148 -1.759277,0.5099 -1.45133,0.65291 -3.107743,1.095611 -5.225855,1.396731 -2.929289,0.41642 -5.375925,0.37564 -6.751177,-0.11253 -0.625233,-0.22194 -1.872094,-0.826661 -2.029951,-0.984521 -0.166026,-0.16603 -0.185824,-0.42432 -0.04169,-0.54393 0.139166,-0.1155 0.697803,-0.002 1.804266,0.36573 1.361466,0.45281 2.450262,0.56637 4.244551,0.44268 0.967178,-0.0667 3.396869,-0.37251 3.459869,-0.43551 0.01265,-0.0127 -0.196656,-0.0225 -0.465117,-0.022 -0.613927,0.001 -1.466402,-0.20207 -2.233889,-0.53297 -1.143003,-0.49282 -1.673354,-0.97959 -2.168141,-1.98997 -0.436318,-0.89102 -0.551228,-1.46256 -0.551003,-2.74059 0,-0.83806 0.02331,-1.07349 0.140988,-1.43426 0.07745,-0.23739 0.134509,-0.43638 0.126799,-0.4422 -0.0077,-0.006 -0.570479,0.0764 -1.250611,0.18265 -2.348522,0.36702 -3.062401,0.59182 -3.750939,1.18118 -0.338056,0.28936 -0.870084,1.0851 -1.053807,1.57617 -0.223633,0.5977 -0.552055,2.35478 -0.592425,3.16948 -0.02917,0.58855 -0.06408,0.78951 -0.156829,0.90238 -0.155246,0.18897 -0.331517,0.0926 -0.41674,-0.22791 -0.141455,-0.53194 0.133163,-2.65761 0.498269,-3.85678 0.198719,-0.65266 0.685711,-1.45101 1.19138,-1.95309 0.819006,-0.81317 1.499198,-1.05888 4.618913,-1.66847 5.069323,-0.99056 6.677923,-0.97022 8.68603,0.10985 1.115171,0.59979 1.875058,1.16042 2.813852,2.07599 0.499857,0.48749 0.932952,0.88634 0.962452,0.88634 0.08601,0 -0.02747,-2.58433 -0.141328,-3.2188 -0.112757,-0.6283 -0.07601,-0.81237 0.178297,-0.89308 0.338055,-0.1073 0.584935,0.26046 0.898123,1.33788 0.514272,1.76917 0.772755,5.36331 0.504769,7.01856 -0.03571,0.22058 -0.127371,0.94248 -0.203682,1.604231 -0.205317,1.78052 -0.28629,2.2318 -0.830776,4.63023 -0.273174,1.20329 -0.545835,2.51867 -0.605914,2.92307 -0.248081,1.6698 -0.409709,2.39611 -0.944552,4.24456 -0.474042,1.63831 -1.373583,5.00025 -2.061935,7.70625 -0.348008,1.36805 -0.810688,3.10399 -1.028191,3.85765 -1.815921,6.29228 -1.745325,5.97765 -1.79465,7.99888 -0.05608,2.29808 0.218297,3.79207 0.964342,5.25094 0.501143,0.97996 1.611505,2.02537 2.711773,2.55316 1.391798,0.66762 3.496502,0.93566 5.061226,0.64454 0.55099,-0.1025 1.503328,-0.61291 2.211933,-1.18548 0.888859,-0.71822 2.109485,-1.51587 2.963188,-1.93638 0.670872,-0.33046 2.240232,-0.87602 3.213719,-1.11718 0.705573,-0.1748 1.626726,-0.26007 2.300493,-0.21296 1.124407,0.0786 2.885187,0.30408 3.110711,0.39831 0.819774,0.34252 0.611867,1.1717 -0.344136,1.37248 -0.422421,0.0887 -0.677856,0.0827 -2.527019,-0.0596 -1.314829,-0.10116 -1.712021,-0.0421 -3.409012,0.50711 -1.532531,0.49597 -2.674864,1.13098 -4.612191,2.56388 -1.132746,0.83781 -1.953191,1.20017 -3.011179,1.32992 -0.797836,0.0978 -2.195209,0.0826 -2.937878,-0.0321 z M 60.51025,99.279809 c -0.02221,-0.0222 -0.07986,-0.0246 -0.128115,-0.005 -0.05332,0.0214 -0.03749,0.0372 0.04038,0.0404 0.07046,0.003 0.109946,-0.0129 0.08773,-0.0351 z m 0.987329,-0.22203 c 0.864602,-0.22897 2.384905,-0.76011 3.141641,-1.09757 0.460897,-0.20553 1.150413,-0.41538 1.779531,-0.54157 0.217715,-0.0437 0.281122,-0.29684 0.218322,-0.87167 l -0.0439,-0.40183 -1.144086,-1.14387 c -0.62925,-0.62913 -1.204242,-1.175 -1.277767,-1.21304 -0.129126,-0.0668 -0.134085,-0.046 -0.145268,0.60912 -0.01236,0.72464 -0.150278,1.51665 -0.363141,2.08558 -0.406392,1.08619 -1.533418,2.20529 -2.63257,2.61406 -0.548443,0.20396 -0.405777,0.19199 0.46724,-0.0392 z m -1.005603,-0.90011 c 1.066005,-0.33852 1.783211,-1.0292 2.150903,-2.07136 0.05286,-0.1498 0.139311,-0.64177 0.192125,-1.09328 0.116159,-0.99303 0.06929,-1.3158 -0.288035,-1.98381 -0.225311,-0.42119 -0.297414,-0.49729 -0.65137,-0.68738 -0.218913,-0.11756 -0.638654,-0.283 -0.932765,-0.36764 -0.480314,-0.13822 -0.674222,-0.15388 -1.905034,-0.15388 -0.764854,0 -1.705364,0.0412 -2.128676,0.0932 -0.836949,0.10287 -0.87641,0.12504 -1.202437,0.67548 -0.170242,0.28742 -0.178152,0.3424 -0.177796,1.2366 8.5e-4,2.10589 0.584176,3.22522 2.053346,3.93993 1.176121,0.57215 2.010896,0.6912 2.889739,0.41212 z m -1.635141,-2.04156 c -0.735766,-0.22381 -1.155894,-0.79554 -1.157529,-1.57521 -8.49e-4,-0.30213 0.04233,-0.48547 0.174217,-0.74328 0.311718,-0.6094 0.763096,-0.8644 1.442986,-0.81523 0.996334,0.0721 1.616786,0.80259 1.527394,1.79834 -0.05376,0.5988 -0.352165,1.02841 -0.883717,1.27225 -0.274334,0.12583 -0.798579,0.15584 -1.103351,0.0631 z m 24.807524,42.710861 c -0.483175,-0.11941 -0.732208,-0.47783 -0.526984,-0.75848 0.05095,-0.0697 0.341087,-0.19215 0.683949,-0.28871 0.327509,-0.0922 0.874996,-0.30368 1.216635,-0.46988 0.976039,-0.47481 1.44817,-1.07496 1.858312,-2.36219 0.477876,-1.49981 0.184241,-4.72982 -0.55524,-6.10766 -0.307494,-0.57294 -0.809448,-1.41486 -1.133242,-1.90077 -0.488091,-0.73247 -2.166082,-2.21105 -2.887654,-2.54449 -0.528384,-0.24418 -1.322102,-0.23546 -2.234839,0.0245 -0.599762,0.17084 -0.679665,0.1797 -0.835544,0.0926 -0.228329,-0.12756 -0.24958,-0.37453 -0.05701,-0.66255 0.212858,-0.31835 0.989541,-0.69509 1.729132,-0.83874 0.530958,-0.10312 0.614508,-0.10343 1.102914,-0.004 1.031707,0.2095 2.125607,0.92288 3.438945,2.24271 0.59724,0.60019 0.797102,0.86101 1.310961,1.7108 0.333458,0.55146 0.685194,1.15872 0.781638,1.34947 0.229298,0.45353 0.558943,1.6284 0.68102,2.42718 0.13574,0.88823 0.132823,3.31207 -0.0048,3.97828 -0.230826,1.11753 -0.735829,2.13618 -1.376751,2.77711 -0.504875,0.50488 -0.894497,0.74496 -1.762534,1.08611 -0.662236,0.26026 -1.084971,0.33389 -1.428924,0.24889 z m 16.635791,-37.73756 c -0.93164,-0.13003 -2.698942,-0.55155 -3.275326,-0.78121 -0.275726,-0.10987 -0.982595,-0.365451 -1.570816,-0.567961 -0.588222,-0.20251 -1.280052,-0.45116 -1.537402,-0.55254 -0.257346,-0.10139 -0.781502,-0.25093 -1.164797,-0.33232 -1.148506,-0.24388 -1.871432,-0.59822 -2.154309,-1.05592 -0.123283,-0.19948 -0.148584,-0.34122 -0.152294,-0.85328 -0.0043,-0.59411 0.003,-0.62512 0.227735,-0.95508 0.137477,-0.20193 0.382858,-0.43774 0.601592,-0.57814 1.199923,-0.77021 2.929369,-1.84015 4.46196,-2.76047 0.964172,-0.57899 1.724046,-1.0626 1.688601,-1.07471 -0.03545,-0.0121 -0.469839,0.0405 -0.965335,0.11698 -1.180401,0.1821 -1.580735,0.18242 -1.744574,10e-4 -0.159279,-0.176 -0.08175,-0.31678 0.270984,-0.49203 0.894539,-0.44443 3.760251,-0.99841 5.607111,-1.08393 1.43403,-0.0664 3.77817,0.14094 4.98751,0.44116 0.74815,0.18572 2.93712,0.74908 4.39743,1.13174 1.97633,0.51788 3.75427,1.2926 4.83079,2.10496 1.05738,0.79793 2.33568,2.28053 2.33568,2.70899 0,0.20386 -0.10844,0.33996 -0.27087,0.33996 -0.10668,0 -0.70188,-0.49798 -1.82944,-1.53062 -0.29699,-0.272 -0.76483,-0.64236 -1.03963,-0.82303 -0.51995,-0.34185 -1.58736,-0.89731 -1.63171,-0.84911 -0.014,0.0152 -8.5e-4,0.20818 0.0303,0.42876 0.078,0.56036 -0.0307,1.23672 -0.34732,2.16054 -0.31526,0.91996 -0.65717,1.52801 -1.17179,2.08385 l -0.37419,0.40418 0.55648,-0.20518 c 0.66568,-0.24545 0.88886,-0.2425 0.91833,0.0121 0.0243,0.21014 -0.19156,0.39461 -0.84287,0.72025 -2.57135,1.285641 -5.61757,1.947511 -8.90339,1.934491 -0.71689,-0.003 -1.58921,-0.045 -1.93846,-0.0938 z m 3.51911,-0.83239 c 0.83033,-0.0511 2.60887,-0.291321 2.67941,-0.361851 0.01,-0.01 -0.16985,-0.0704 -0.3997,-0.13421 -0.22985,-0.0638 -0.74879,-0.28615 -1.15319,-0.49413 -0.62837,-0.32318 -0.82279,-0.46584 -1.33718,-0.98123 -0.6465,-0.64773 -0.99464,-1.20659 -1.20472,-1.93387 -0.16719,-0.57879 -0.11024,-2.22095 0.0999,-2.88032 0.20492,-0.64301 0.56465,-1.30965 0.90247,-1.67241 0.15566,-0.16715 0.26494,-0.3149 0.24285,-0.32832 -0.13112,-0.0797 -2.00953,-0.11002 -2.68049,-0.0433 -1.85915,0.185 -2.51457,0.44504 -5.146936,2.04209 -0.680132,0.41262 -1.50965,0.92973 -1.843371,1.1491 -0.333725,0.21937 -1.028908,0.6462 -1.544857,0.94853 -1.16982,0.68546 -1.233517,0.74937 -1.233517,1.23776 0,0.20549 0.01932,0.40487 0.04293,0.44307 0.112481,0.182 0.770798,0.415 1.684512,0.59621 1.322349,0.26225 1.878344,0.4473 3.10373,1.03296 1.372722,0.65608 1.745419,0.78195 3.177359,1.07307 1.81506,0.369011 2.67316,0.426111 4.61083,0.306801 z m 5.01166,-1.815181 c 0.53005,-0.26395 1.18661,-0.74461 1.4585,-1.06774 0.26103,-0.31021 0.48708,-0.78913 0.74702,-1.58266 0.28709,-0.87641 0.33741,-1.33671 0.22508,-2.05879 l -0.0878,-0.56469 -0.33996,-0.09 c -1.42029,-0.37611 -5.59835,-1.37788 -5.74668,-1.37788 -0.253,0 -0.8988,0.62387 -1.16734,1.1277 -0.30663,0.57529 -0.41889,1.07784 -0.42001,1.88025 -0.003,1.71743 0.68601,2.70478 2.53512,3.63597 0.64464,0.32464 0.86367,0.37127 1.65154,0.35163 0.61459,-0.0153 0.70679,-0.0358 1.14456,-0.25377 z m -2.08037,-2.12149 c -0.55353,-0.25392 -0.83657,-0.69258 -0.83407,-1.29269 0.004,-0.91285 0.74193,-1.65652 1.64421,-1.65652 0.5477,0 0.93768,0.24368 1.18535,0.7407 0.54999,1.1037 -0.16636,2.33116 -1.36048,2.33116 -0.2149,0 -0.47871,-0.051 -0.63501,-0.12265 z m 11.65108,-4.98719 c -0.60047,-0.15182 -1.14097,-0.40168 -2.32643,-1.07543 -1.25391,-0.71266 -3.72276,-1.87455 -5.45785,-2.56857 -2.91343,-1.16536 -5.97362,-1.90826 -9.01374,-2.18823 -1.07164,-0.0987 -2.05842,-0.11749 -6.316711,-0.12034 -2.775674,-0.002 -5.182033,-0.0282 -5.347469,-0.0585 -0.362291,-0.0665 -1.169829,-0.35086 -1.402795,-0.49407 -0.30521,-0.18761 -0.745056,-0.64352 -0.88294,-0.91516 -0.07465,-0.14706 -0.199997,-0.33754 -0.278571,-0.4233 -0.193994,-0.21173 -0.189433,-0.73952 0.0099,-1.15138 0.195802,-0.40448 0.738025,-0.94714 1.131659,-1.13257 0.485302,-0.22862 1.794921,-0.64194 2.358504,-0.74435 0.720209,-0.13087 3.769736,-0.11087 5.31405,0.0349 2.127963,0.2008 6.655263,0.88674 9.125313,1.38258 2.07725,0.41701 5.30946,1.29059 7.28476,1.9689 2.75458,0.9459 5.036,2.12698 6.3773,3.3015 1.87775,1.64426 2.32074,3.42835 1.01719,4.0966 -0.35026,0.17955 -1.07139,0.21919 -1.59221,0.0875 z m 1.16087,-1.14744 c 0.51672,-0.46761 -0.64744,-2.0546 -2.31306,-3.15314 -1.77022,-1.16755 -3.68357,-1.94348 -7.42409,-3.01076 -3.82269,-1.09071 -5.50225,-1.43914 -10.00912,-2.07642 -3.212833,-0.4543 -4.452816,-0.55915 -6.634897,-0.56103 -1.971405,-0.002 -2.279994,0.0366 -3.477408,0.43137 -0.789298,0.26024 -1.079965,0.42986 -1.355437,0.79103 -0.186618,0.24468 -0.220348,0.33761 -0.190121,0.52387 0.0822,0.50654 0.620974,0.96903 1.446824,1.24198 0.704223,0.23274 1.536013,0.30465 2.740599,0.23692 0.533076,-0.03 2.367926,-0.0756 4.077446,-0.10146 4.977574,-0.0752 7.325054,0.12874 10.427584,0.90595 2.9736,0.74491 7.5434,2.55232 9.73595,3.85068 0.74931,0.44371 1.40364,0.76776 1.82795,0.90529 0.47766,0.15481 0.98639,0.16179 1.14778,0.0157 z m 15.93083,69.396171 c 0.52606,-0.83577 1.19494,-1.67034 1.47985,-1.84643 0.26963,-0.16664 0.66424,-0.18043 0.94902,-0.0332 0.11714,0.0606 0.36534,0.27089 0.55157,0.46737 l 0.33861,0.35724 0.16245,-0.16245 c 0.0893,-0.0894 0.19252,-0.14387 0.22927,-0.12115 0.078,0.0482 0.16012,-0.13507 0.76216,-1.70106 0.5367,-1.39605 0.84451,-2.02277 1.70917,-3.47998 0.72073,-1.21465 1.07965,-1.66832 1.49618,-1.89112 0.24754,-0.13242 0.37914,-0.14824 1.27859,-0.15372 1.22234,-0.007 1.13391,0.005 1.30924,-0.17771 0.26714,-0.27769 0.45052,-0.81046 0.76499,-2.22254 0.47122,-2.11587 0.73576,-2.86795 1.14474,-3.25436 0.37394,-0.35331 0.72893,-0.39423 1.8315,-0.21112 0.3664,0.0608 0.68564,0.0912 0.70941,0.0674 0.0238,-0.0238 0.0666,-0.86315 0.095,-1.86528 0.054,-1.89943 0.12821,-2.46896 0.3881,-2.97839 0.16669,-0.32675 0.40777,-0.52496 0.75084,-0.61735 0.30259,-0.0815 0.30999,-0.12558 0.16232,-0.96687 -0.1072,-0.61066 -0.0651,-0.96744 0.15625,-1.32568 0.21695,-0.35102 0.73682,-0.70048 1.43032,-0.96148 1.31262,-0.494 2.1697,-1.08171 3.3568,-2.30181 1.08406,-1.1142 1.95304,-2.35562 2.37151,-3.38788 0.55029,-1.3575 0.92008,-1.92521 1.37793,-2.1155 0.15699,-0.0652 0.23317,-0.0617 0.40439,0.0188 0.27388,0.12881 0.30005,0.18637 0.65939,1.45072 0.32975,1.1602 0.45502,1.4506 0.81759,1.89518 0.23885,0.29288 1.0667,1.01251 1.16477,1.01251 0.0706,0 0.34388,-0.55305 0.48221,-0.9758 0.0613,-0.18743 0.18475,-0.72209 0.27427,-1.18813 0.0895,-0.46604 0.21405,-0.95543 0.27673,-1.08753 0.29248,-0.61636 0.89429,-0.64502 2.11658,-0.10078 0.4338,0.19316 0.84033,0.33481 0.90339,0.3148 0.0631,-0.02 0.32302,-0.26645 0.57769,-0.54763 0.51483,-0.56844 0.78677,-0.72108 1.40658,-0.78953 0.53599,-0.0592 1.09147,-0.22034 1.31968,-0.38284 0.23187,-0.1651 0.34337,-0.37734 0.48462,-0.92243 0.17325,-0.6686 0.37842,-0.99862 0.97951,-1.57556 0.70195,-0.67375 1.19585,-1.06512 1.60718,-1.27356 0.20553,-0.10416 0.32146,-0.2065 0.32146,-0.2838 0,-0.24659 0.29541,-0.42387 0.76974,-0.46194 l 0.44472,-0.0357 -0.0423,-0.24106 c -0.0233,-0.13258 -0.12957,-0.64713 -0.23624,-1.14344 -0.25177,-1.17139 -0.64728,-3.33149 -0.70376,-3.84349 -0.0351,-0.31887 -0.009,-0.53744 0.12918,-1.06647 0.0954,-0.36598 0.17341,-0.84068 0.17341,-1.05489 0,-0.29891 0.0254,-0.39922 0.10935,-0.43143 0.15727,-0.0604 0.30702,0.0524 0.44921,0.3382 l 0.12408,0.24941 0.16286,-0.22059 c 0.0896,-0.12132 0.18056,-0.29103 0.20221,-0.37712 0.0765,-0.30446 -0.12326,-1.13122 -0.63258,-2.61747 l -0.5154,-1.50398 v -1.00265 c 0,-0.98637 0.006,-1.02545 0.3505,-2.40636 0.74118,-2.96829 0.78046,-4.24181 0.21763,-7.05487 -0.23807,-1.18992 -0.49896,-1.953081 -0.98155,-2.871371 -0.58866,-1.12008 -0.8434,-1.48927 -2.71992,-3.94187 -0.77422,-1.01189 -1.06735,-1.49699 -2.48526,-4.11275 -1.49973,-2.76671 -2.17188,-4.23939 -3.04318,-6.66765 -0.39646,-1.10492 -2.36248,-7.24925 -3.29909,-10.31056 -0.46117,-1.50732 -1.0508,-3.40233 -1.3103,-4.21114 -0.25949,-0.8088 -0.74129,-2.47041 -1.07066,-3.69246 -1.28962,-4.78469 -1.81452,-6.30123 -4.54061,-13.11864 -1.50602,-3.76622 -1.94484,-4.74387 -3.67535,-8.18831 -0.75729,-1.50732 -1.6281,-3.29705 -1.93515,-3.97718 -0.93965,-2.08143 -1.85024,-3.81652 -3.06824,-5.84628 -2.64877,-4.41415 -3.26641,-5.19011 -7.64165,-9.60047 -1.94546,-1.96106 -2.35138,-2.32411 -4.73052,-4.23103 -1.40103,-1.12294 -2.1796,-1.65009 -3.98273,-2.6966 -1.76794,-1.02608 -2.26645,-1.28548 -3.36678,-1.75194 -2.16752,-0.91889 -3.3577,-1.30203 -4.68785,-1.50911 -3.94673,-0.61442 -5.84468,-1.04316 -6.83148,-1.54322 -0.40465,-0.20505 -0.66871,-0.25516 -2.23811,-0.42474 -1.83847,-0.19867 -3.2119,-0.26864 -6.17069,-0.31438 -2.74473,-0.0424 -4.27776,0.003 -8.32202,0.24851 -2.735369,0.16583 -3.541815,0.26543 -4.812721,0.59438 -0.551457,0.14274 -1.296805,0.30795 -1.656336,0.36715 -0.359523,0.0592 -0.991193,0.20923 -1.403712,0.33342 -0.412511,0.1242 -1.095934,0.321 -1.51872,0.43734 -0.422786,0.11634 -1.174771,0.36398 -1.671087,0.55031 -0.496307,0.18634 -1.292254,0.45685 -1.768758,0.60114 -1.796157,0.54391 -6.271968,2.60321 -9.19355,4.22991 -5.355999,2.98216 -10.244253,6.79418 -13.909783,10.84729 -0.879356,0.97234 -2.896166,3.36322 -4.045076,4.79534 -1.375243,1.71425 -3.713644,4.94652 -5.0746,7.01441 -1.559017,2.36882 -2.375963,3.81165 -4.033136,7.12295 -1.611327,3.21971 -2.68007,5.72893 -3.880439,9.11058 -0.971407,2.73663 -1.333978,4.00031 -2.38201,8.30212 -0.349307,1.43379 -0.727214,2.90768 -0.839793,3.27532 -0.769851,2.51405 -2.481807,5.4305 -3.939,6.71037 -1.16014,1.01897 -2.772875,2.11254 -4.256673,2.88639 -0.579836,0.30241 -1.239537,0.68032 -1.465999,0.83979 -0.437846,0.30835 -0.719202,0.67571 -0.65188,0.85115 0.06616,0.17241 0.902424,0.55067 1.951161,0.88254 1.173357,0.37131 1.418568,0.55199 1.418568,1.04528 0,0.36015 -0.226924,0.75589 -0.943214,1.64492 -0.275985,0.34255 -0.557006,0.72533 -0.62449,0.85064 -0.117071,0.21739 -0.117474,0.24444 -0.0088,0.58982 0.100597,0.31981 0.102796,0.38845 0.01889,0.58923 -0.05222,0.12499 -0.247963,0.35537 -0.434972,0.51195 -0.393422,0.32938 -0.452108,0.46055 -0.347664,0.77702 0.154235,0.46734 0.683138,0.78633 1.805528,1.08894 0.565485,0.15246 0.766739,0.17176 1.838191,0.17635 0.971305,0.004 1.286917,-0.0183 1.637663,-0.11651 0.548651,-0.15362 1.372603,-0.49371 1.464564,-0.60452 0.03851,-0.0464 0.100024,-0.29579 0.13667,-0.55417 0.08617,-0.60759 0.118404,-0.68251 0.314878,-0.73182 0.116926,-0.0293 0.209372,0.002 0.324897,0.11067 0.254234,0.23884 0.321055,0.54593 0.282138,1.29667 -0.02951,0.56886 -0.08284,0.81526 -0.343223,1.58529 -0.169571,0.50146 -0.308313,0.96017 -0.308313,1.01936 0,0.15477 0.411746,0.1404 0.922885,-0.0322 0.306627,-0.10355 0.531151,-0.24599 0.865224,-0.54889 l 0.451144,-0.40905 -0.02259,-1.37286 c -0.01588,-0.96518 0.01129,-1.70036 0.09152,-2.47576 0.06274,-0.60661 0.121576,-1.29844 0.130726,-1.5374 0.0092,-0.23896 0.04867,-0.50968 0.0878,-0.60159 0.03915,-0.0919 0.164166,-0.60812 0.277849,-1.14712 0.275132,-1.30456 1.028679,-4.10192 1.572617,-5.83801 0.562844,-1.79643 0.884056,-2.98116 1.304847,-4.81272 0.367072,-1.59773 1.535554,-6.23454 2.07655,-8.24021 0.452311,-1.67687 0.798417,-2.85735 1.699606,-5.7969 0.417024,-1.36026 1.07515,-3.51094 1.4625,-4.7793 0.814739,-2.66779 1.297149,-4.10959 1.819373,-5.43764 0.415386,-1.05634 1.242446,-2.80042 1.772593,-3.73798 0.191871,-0.33931 0.535102,-0.96516 0.762744,-1.39078 1.924624,-3.59842 5.141277,-7.71792 9.488234,-12.15138 1.957262,-1.9962 4.5188,-4.32607 6.218249,-5.65585 0.330876,-0.25891 0.887347,-0.69909 1.236603,-0.97818 0.857333,-0.68511 3.700957,-2.54839 4.44023,-2.90945 0.776747,-0.37937 1.174614,-0.38007 1.174614,-0.002 0,0.12646 -1.570375,1.69393 -2.941109,2.93566 -1.317161,1.19321 -5.844783,5.98055 -7.159778,7.57049 -0.496171,0.59992 -1.979234,2.60375 -2.95425,3.99163 -2.071276,2.94837 -4.156763,6.79606 -5.202723,9.59897 -0.619327,1.65964 -1.348512,4.57749 -1.43207,5.73041 l -0.03847,0.53116 0.374685,-0.56817 c 0.365895,-0.55485 0.733889,-1.2717 1.966403,-3.83052 0.563218,-1.16933 1.689336,-3.2763 2.632771,-4.92596 0.496103,-0.86748 2.693452,-4.14122 3.387341,-5.04667 0.711572,-0.92853 2.001597,-2.57152 2.507929,-3.19412 0.662826,-0.81504 3.166429,-3.49306 3.887788,-4.15865 1.65865,-1.5304 3.468912,-3.02503 4.930929,-4.0712 0.709823,-0.50792 2.871697,-1.80254 3.469345,-2.07757 0.757483,-0.3486 1.610443,-0.59207 1.925949,-0.54975 0.493586,0.0662 0.716854,0.4615 0.590175,1.04488 -0.16358,0.7533 -0.865222,2.27854 -1.829589,3.97722 -1.023134,1.80218 -1.430631,2.75543 -2.379411,5.5661 -0.690968,2.04692 -1.141144,3.59749 -2.237782,7.70764 -0.982022,3.6806 -1.134516,4.20676 -2.0656,7.12706 -0.880201,2.76073 -0.992538,3.07727 -1.896941,5.34502 -0.760103,1.90591 -1.074836,2.83912 -1.361559,4.03717 -0.212434,0.88763 -0.334464,2.09649 -0.198872,1.97013 0.09998,-0.0932 0.792367,-1.50604 1.324947,-2.70362 0.416001,-0.93544 0.787128,-1.90034 1.853816,-4.81968 1.014158,-2.77559 2.709255,-6.75755 3.75347,-8.81729 0.926366,-1.82729 1.554368,-2.90173 1.865449,-3.19157 0.327327,-0.30498 0.683474,-0.30579 0.938973,-0.002 0.293563,0.34888 0.223163,0.7712 -0.46555,2.79286 -0.538189,1.57982 -1.107266,3.58708 -1.107266,3.90559 0,0.19286 0.206667,-0.12512 0.87089,-1.33993 0.66531,-1.2168 1.600363,-2.63161 2.358318,-3.56831 0.776093,-0.95911 1.102905,-1.26552 1.401449,-1.31397 0.210293,-0.0341 0.271119,-0.011 0.455509,0.17342 0.212199,0.2122 0.2127,0.21435 0.176628,0.76023 -0.04012,0.60701 -0.427848,2.17608 -1.018982,4.12355 -0.719236,2.36947 -1.761778,6.68823 -2.10574,8.72305 -0.330961,1.9579 -0.430131,4.03333 -0.21124,4.42075 0.107947,0.19104 0.728288,-1.16872 1.605119,-3.51836 0.404724,-1.08453 0.981601,-2.60355 1.281953,-3.37559 0.300348,-0.77204 0.855023,-2.2309 1.232612,-3.2419 0.377593,-1.01101 1.048529,-2.72554 1.490973,-3.81007 0.442453,-1.08454 1.082309,-2.66371 1.421914,-3.50928 0.877921,-2.18591 2.749303,-6.34495 3.777387,-8.39503 0.676375,-1.34874 3.210785,-5.70255 4.045705,-6.95002 1.752888,-2.61905 5.063578,-6.39312 6.572588,-7.49255 0.32435,-0.23632 0.64491,-0.25128 0.84657,-0.0395 0.12884,0.13529 0.13932,0.20077 0.1043,0.65172 -0.0214,0.27573 -0.23428,1.36777 -0.47306,2.42676 -0.77952,3.45728 -1.10577,5.33105 -1.33488,7.66659 -0.40905,4.16998 -0.29801,8.47076 0.29512,11.43021 0.28271,1.41062 0.97769,4.19997 1.24698,5.00485 0.44067,1.31713 1.49899,3.45491 2.11291,4.26804 0.23413,0.3101 1.44632,1.45488 1.4892,1.40639 0.009,-0.01 -0.0136,-0.34864 -0.0494,-0.75304 -0.0853,-0.96261 -0.0366,-2.26616 0.0962,-2.57895 0.20075,-0.47275 0.6314,-0.64737 1.05558,-0.42802 0.26552,0.13731 0.65129,0.6721 1.03594,1.43615 0.27732,0.55085 0.41133,0.72487 1.01103,1.31292 0.7489,0.73435 1.47105,1.26823 1.80361,1.33339 0.17482,0.0343 0.2523,0.003 0.46791,-0.1879 0.44171,-0.39139 0.56861,-0.45311 0.93167,-0.45311 0.56918,0 1.05751,0.4464 1.56844,1.43374 0.28347,0.54779 1.16304,3.20668 1.62635,4.91638 0.81582,3.0105 2.11355,6.16825 3.06293,7.45304 l 0.34576,0.4679 0.14961,-0.33422 c 0.0823,-0.18381 0.24326,-0.75481 0.35773,-1.26886 0.25169,-1.13033 0.38384,-1.43123 1.01923,-2.32082 0.27038,-0.37856 0.61657,-0.88381 0.76932,-1.12277 l 0.27772,-0.43449 -0.1317,-1.43713 c -0.15193,-1.65805 -0.14723,-2.12468 0.0225,-2.2312 0.0876,-0.055 0.13974,-0.0486 0.21469,0.0265 0.12109,0.1213 0.43702,1.68764 0.66714,3.30761 0.21892,1.54118 1.11513,8.32711 1.34184,10.16019 0.24014,1.94163 0.45003,3.26054 0.80681,5.06967 0.5448,2.7626 0.91264,4.0916 1.39968,5.0571 l 0.21917,0.43448 0.0507,-0.40106 c 0.0279,-0.22058 0.0236,-1.61928 -0.01,-3.10822 -0.0332,-1.48893 -0.0603,-3.79514 -0.0603,-5.12491 v -2.41775 l 0.16205,-0.17243 c 0.31995,-0.34043 0.69879,-0.16071 0.90866,0.43107 0.0583,0.16439 0.44837,1.44191 0.86682,2.83894 0.89895,3.00126 1.3767,4.46034 2.59355,7.92094 1.55952,4.43513 1.75293,4.94226 3.12092,8.1833 1.81206,4.29314 4.22927,10.58547 4.97062,12.939201 0.96783,3.07279 1.50318,5.30961 2.14372,8.95701 0.6519,3.71193 0.77478,4.77075 0.77466,6.67471 0,1.44362 -0.11437,2.65314 -0.37355,3.95338 -0.27355,1.37234 -1.18403,4.86393 -1.73433,6.65091 -1.34496,4.36749 -1.81747,6.40701 -2.50103,10.7952 -0.28008,1.79803 -1.25237,6.94926 -1.48175,7.85039 -0.18665,0.73324 -0.38969,1.20805 -0.86255,2.01705 -0.4631,0.79231 -0.65989,1.27866 -0.89405,2.2097 -0.38697,1.5386 -0.53909,2.65555 -0.90762,6.66438 -0.11113,1.20878 -0.20205,2.24151 -0.20205,2.29496 0,0.20409 0.16761,0.0232 0.5683,-0.61341 z M 44.998729,86.449629 c 1.215624,-0.79262 2.049992,-1.17198 3.130182,-1.42323 0.730857,-0.16999 3.148948,-0.57191 4.10408,-0.68215 1.065028,-0.12292 3.143956,-0.0448 4.385026,0.16483 0.551457,0.0931 1.812902,0.27676 2.803216,0.40804 1.588016,0.21052 1.855238,0.23022 2.263746,0.16684 0.489339,-0.0759 0.714986,-0.16253 0.714986,-0.27444 0,-0.0373 -0.04358,-0.15209 -0.09685,-0.2551 -0.327191,-0.63272 -1.608346,-1.1486 -3.412426,-1.37407 -1.710344,-0.21376 -2.894778,-0.24732 -4.865487,-0.13789 -2.382685,0.13232 -4.299989,0.38003 -5.762608,0.74452 -0.685945,0.17095 -3.739179,1.10701 -3.818237,1.1706 -0.04127,0.0332 -0.109696,0.39823 -0.152082,0.81122 -0.04237,0.413 -0.09271,0.84865 -0.111836,0.96814 -0.01911,0.11948 -0.01694,0.21724 0.0049,0.21724 0.02178,0 0.387834,-0.22705 0.81344,-0.50455 z"
       style="fill:#000000;stroke-width:0.0668435" />
  </g>
</svg>
