<?xml version="1.0" encoding="UTF-8" standalone="no"?>
<svg
   xmlns:dc="http://purl.org/dc/elements/1.1/"
   xmlns:cc="http://creativecommons.org/ns#"
   xmlns:rdf="http://www.w3.org/1999/02/22-rdf-syntax-ns#"
   xmlns:svg="http://www.w3.org/2000/svg"
   xmlns="http://www.w3.org/2000/svg"
   id="svg8"
   version="1.1"
   viewBox="0 0 210 297"
   height="297mm"
   width="210mm">
  <defs
     id="defs2" />
  <metadata
     id="metadata5">
    <rdf:RDF>
      <cc:Work
         rdf:about="">
        <dc:format>image/svg+xml</dc:format>
        <dc:type
           rdf:resource="http://purl.org/dc/dcmitype/StillImage" />
        <dc:title></dc:title>
      </cc:Work>
    </rdf:RDF>
  </metadata>
  <g
     id="layer1">
    <path
       id="path24"
       d="m 66.166102,263.62297 c -0.06269,-0.0693 -0.114002,-0.15491 -0.114002,-0.19027 0,-0.13827 0.831751,-2.17646 1.233148,-3.02179 0.233119,-0.49093 0.653097,-1.23489 0.933288,-1.65322 0.682823,-1.0195 2.907231,-3.72561 3.626951,-4.41238 1.117414,-1.06624 2.640801,-2.10459 4.956655,-3.37847 1.603378,-0.88196 2.059978,-1.1568 3.543513,-2.1329 1.812501,-1.19255 3.774556,-2.77263 4.389299,-3.53478 0.482169,-0.59779 1.727605,-2.60067 2.277218,-3.66217 0.444173,-0.85788 1.293209,-2.45002 2.469309,-4.63059 0.259977,-0.48201 0.731811,-1.28086 1.048529,-1.77524 0.316718,-0.49437 0.818179,-1.40959 1.114354,-2.03382 l 0.53851,-1.13496 -0.186561,-1.03288 c -0.214654,-1.1884 -0.69595,-4.29392 -0.838165,-5.40817 -0.173063,-1.35601 -0.201523,-2.98213 -0.07118,-4.06418 0.499842,-4.14766 1.336389,-7.30999 2.756842,-10.42146 0.695571,-1.52363 0.987678,-2.62495 0.899112,-3.38991 -0.06234,-0.53806 -0.335285,-1.60448 -0.687749,-2.68649 -0.530646,-1.62906 -1.003574,-3.23371 -1.350045,-4.58083 -0.185142,-0.71984 -0.40173,-1.54129 -0.481317,-1.82544 -0.190094,-0.67877 -0.203089,-1.50495 -0.0369,-2.34502 l 0.130051,-0.65734 -0.189095,-0.20371 c -0.367193,-0.39559 -0.520879,-0.80483 -0.819535,-2.18221 l -0.219869,-1.0141 -0.239528,0.32288 c -0.352895,0.47568 -0.652729,0.65735 -1.018776,0.61724 -0.465978,-0.0511 -0.840195,-0.49955 -1.075086,-1.28843 -0.448673,-1.50684 -0.503469,-4.94511 -0.10789,-6.76837 l 0.130872,-0.60321 -0.27518,-0.86075 c -0.151341,-0.47341 -0.434416,-1.1908 -0.629041,-1.59419 -0.28807,-0.59707 -0.430758,-0.80515 -0.767494,-1.11921 -1.217081,-1.13511 -1.541359,-1.46752 -1.921957,-1.97013 -0.545786,-0.72075 -0.904726,-1.47117 -0.903464,-1.88889 0.0011,-0.47008 0.201196,-0.98101 0.602138,-1.53986 l 0.358288,-0.49938 -0.221792,-0.39447 c -0.121988,-0.21697 -0.4826,-0.72805 -0.801368,-1.13574 -1.01803,-1.30204 -1.330438,-1.73404 -1.689325,-2.33607 -0.192944,-0.32367 -0.362663,-0.62404 -0.37715,-0.66748 -0.01451,-0.0434 -0.190946,0.069 -0.392132,0.24988 -0.487951,0.43873 -1.443236,1.06202 -1.932175,1.26068 -0.82352,0.33464 -1.726301,0.27064 -2.633267,-0.18665 -1.107815,-0.55856 -1.832361,-1.2511 -2.178286,-2.08207 -0.620136,-1.48961 -0.805195,-2.93086 -0.601801,-4.68701 0.06098,-0.52622 0.111117,-1.25468 0.111506,-1.61879 0.0011,-1.13893 0.129379,-2.2682 0.321376,-2.83189 0.308549,-0.90585 0.697715,-1.57446 1.213401,-2.08473 1.470866,-1.4554 1.647902,-1.8679 1.115605,-2.59942 -0.124059,-0.17048 -0.329586,-0.51146 -0.456715,-0.75772 -0.206874,-0.40071 -0.230929,-0.50587 -0.229005,-1.00095 l 0.0021,-0.55318 -0.243261,0.12772 c -0.187234,0.0983 -0.346355,0.12097 -0.690997,0.0984 -0.724263,-0.0474 -1.313679,-0.427 -1.798897,-1.15847 -0.09042,-0.13623 -0.370765,-0.42255 -0.623081,-0.63622 -0.996189,-0.84365 -1.372789,-1.93921 -1.223449,-3.55912 0.08721,-0.94602 0.203,-1.33384 0.654138,-2.1909 0.265762,-0.50486 0.373675,-0.78689 0.373675,-0.97661 0,-0.37689 -0.120722,-1.23505 -0.2786,-1.98042 -0.242114,-1.14303 -0.162813,-1.68487 0.457884,-3.12864 0.371003,-0.86296 0.390043,-0.93729 0.514722,-2.00996 0.07118,-0.61262 0.190609,-1.36502 0.265329,-1.67198 0.156629,-0.6434 0.631628,-1.94204 0.82578,-2.25763 l 0.132375,-0.21518 -0.227343,-0.89549 c -0.304817,-1.2007 -0.845125,-2.55556 -1.365915,-3.42516 -0.235161,-0.39264 -0.48956,-0.83052 -0.565332,-0.97306 -0.198264,-0.37292 -1.151757,-1.64291 -1.770856,-2.35863 -2.078617,-2.40304 -3.450823,-5.24106 -3.627275,-7.50199 -0.09763,-1.2509 0.137306,-2.91789 0.588132,-4.17303 l 0.248336,-0.6914 -0.418911,-0.87438 c -0.230391,-0.48091 -0.439554,-0.95962 -0.464789,-1.06381 -0.02521,-0.10419 -0.06668,-0.18943 -0.09208,-0.18943 -0.02541,0 -0.246783,0.20422 -0.491949,0.45385 -0.245164,0.24962 -0.893696,0.83083 -1.441177,1.29159 -0.547479,0.46074 -1.322431,1.11274 -1.72211,1.44886 -0.657966,0.55332 -2.006887,1.48079 -3.840054,2.64025 -0.371413,0.23493 -1.018639,0.70173 -1.438285,1.03736 -1.140189,0.91188 -2.089357,1.58874 -3.271969,2.33323 -0.584377,0.36788 -1.481378,0.96903 -1.993334,1.33588 -0.511949,0.36685 -1.674375,1.15576 -2.583171,1.7531 -0.90879,0.59736 -1.962322,1.3117 -2.34119,1.58742 -0.378863,0.27572 -1.215815,0.81934 -1.859882,1.20804 -2.086672,1.25933 -3.262742,2.07396 -4.270846,2.95834 -1.171075,1.02735 -1.939805,1.61392 -3.340901,2.54928 -1.407106,0.93938 -2.944174,2.03575 -4.324777,3.08482 -3.639986,2.76587 -6.993784,6.71176 -8.603339,10.12218 -0.694716,1.472 -1.265992,2.79599 -1.5831,3.669 -0.357509,0.98423 -1.018207,3.54207 -1.539112,5.95852 -0.196008,0.90927 -0.630455,2.75365 -0.965448,4.09863 -1.177829,4.72896 -2.307271,10.39911 -2.922608,14.67241 -0.09547,0.66301 -0.267341,2.13081 -0.381933,3.26174 -0.114586,1.13095 -0.33037,2.97533 -0.479511,4.09864 -0.14914,1.1233 -0.382172,3.03431 -0.51786,4.24667 -0.13568,1.21237 -0.553981,4.34318 -0.929558,6.95734 -0.375572,2.61417 -0.778893,5.55899 -0.896272,6.54403 -0.830941,6.97337 -1.149304,9.19326 -2.198079,15.32682 -0.113371,0.66301 -0.332359,2.02694 -0.486641,3.03092 -0.154282,1.00401 -0.356519,2.21292 -0.449426,2.6865 -0.149439,0.76175 -0.483841,2.64681 -0.623211,3.51312 -0.0274,0.17048 -0.06931,0.95725 -0.09309,1.74835 -0.04093,1.36149 -0.05095,1.44352 -0.18832,1.53452 -0.126964,0.0841 -0.163251,0.0809 -0.290301,-0.0263 -0.24835,-0.20932 -0.321135,-1.07068 -0.321773,-3.80771 l -5.83e-4,-2.44539 0.265929,-1.65323 c 0.249563,-1.5515 0.546976,-3.35893 1.354539,-8.23171 0.492692,-2.97291 0.964261,-6.53837 1.685473,-12.74365 0.185421,-1.59535 0.570605,-4.36251 1.102688,-7.92172 0.167085,-1.11766 0.414969,-3.00854 0.550856,-4.20196 0.135887,-1.19343 0.386286,-3.23261 0.556436,-4.53153 0.17015,-1.29892 0.385901,-3.20529 0.47945,-4.23639 0.09355,-1.03112 0.248316,-2.46372 0.343949,-3.18355 0.538663,-4.05497 1.7848,-10.3534 2.998312,-15.15461 0.335153,-1.32603 0.798337,-3.24791 1.029298,-4.27085 0.922588,-4.08623 1.331176,-5.46866 2.219175,-7.50841 1.226043,-2.81628 2.069549,-4.30363 3.535915,-6.23486 1.175858,-1.54862 1.986494,-2.43515 3.548339,-3.88054 1.828092,-1.69176 4.781329,-3.95501 7.874425,-6.03467 1.234667,-0.83013 1.791567,-1.25348 2.910713,-2.21271 1.106323,-0.94823 1.959495,-1.53109 4.311895,-2.94572 0.51979,-0.31258 1.294736,-0.82057 1.722118,-1.12886 0.427368,-0.3083 1.567491,-1.08683 2.533602,-1.73006 0.966107,-0.64322 2.082036,-1.40879 2.479844,-1.70127 0.714068,-0.52496 1.315169,-0.92268 2.501157,-1.65491 0.672341,-0.41509 1.903532,-1.32488 3.00961,-2.22392 0.397808,-0.32336 1.15609,-0.86099 1.685068,-1.19476 1.206414,-0.76122 1.808867,-1.20444 3.072219,-2.26024 0.551693,-0.46105 1.326645,-1.0807 1.722112,-1.377 0.395473,-0.29628 1.107092,-0.87186 1.581375,-1.27904 l 0.862346,-0.74034 -0.640578,-1.95261 c -0.352314,-1.07394 -0.750753,-2.32077 -0.885406,-2.77073 -0.134658,-0.44996 -0.486534,-1.4574 -0.781944,-2.23875 -0.59927,-1.58501 -0.83934,-2.31178 -1.197392,-3.624942 -0.277617,-1.018156 -1.295824,-5.727423 -1.452136,-6.716246 -0.264104,-1.670674 -0.307814,-3.589635 -0.245516,-10.780434 0.02654,-3.066411 0.02487,-3.112797 -0.154726,-4.305287 -0.09987,-0.663011 -0.247407,-1.700785 -0.327869,-2.306171 -0.08046,-0.605366 -0.157181,-1.111558 -0.170481,-1.124857 -0.01333,-0.01325 -0.240389,0.156524 -0.504633,0.377391 -1.04417,0.872776 -1.823395,1.192354 -3.038307,1.246067 -1.184729,0.05236 -2.196732,-0.18203 -3.416116,-0.791265 -1.328043,-0.663515 -2.795331,-2.903652 -3.387198,-5.171281 -0.142825,-0.547215 -0.180969,-0.886583 -0.210618,-1.873724 -0.04531,-1.507447 0.01851,-1.991833 0.498976,-3.788648 0.207677,-0.776678 0.377661,-1.532737 0.377748,-1.680146 0,-0.16995 -0.175378,-0.711799 -0.47963,-1.481013 -0.621568,-1.571465 -0.694366,-1.860982 -0.738044,-2.935126 -0.06494,-1.597461 0.208408,-3.530786 0.736724,-5.210434 0.639272,-2.032387 1.199694,-2.967916 2.700694,-4.508349 1.046454,-1.073943 2.217191,-2.012962 2.990392,-2.398518 1.933881,-0.96432 3.938784,-1.212855 4.734554,-0.586904 0.172883,0.135985 0.1841,0.136848 0.227015,0.01738 0.605512,-1.685765 2.096992,-4.081524 4.259462,-6.841942 1.459797,-1.863457 2.076587,-2.543613 3.362739,-3.708273 2.709338,-2.453408 3.557899,-3.015713 8.623492,-5.714451 3.386525,-1.804204 5.934958,-2.74126 8.369468,-3.07742 1.54897,-0.213893 2.872889,-0.46128 3.891981,-0.727263 1.387483,-0.362137 2.762866,-0.632922 4.900107,-0.964731 0.979929,-0.152139 2.107183,-0.337639 2.504989,-0.412237 1.79822,-0.337175 5.345408,-0.595999 7.186508,-0.524374 3.46491,0.134811 5.78437,0.420502 9.518,1.172363 3.02115,0.608385 4.06713,0.887693 6.26849,1.673856 3.25425,1.16218 6.71817,2.69296 7.88571,3.484881 0.46745,0.317076 3.18061,2.472088 3.928,3.119957 0.93858,0.813601 3.3054,3.399988 4.21863,4.609984 0.42892,0.568297 0.98332,1.296753 1.23199,1.61879 1.24585,1.613377 3.45697,5.105767 4.16499,6.578474 0.82583,1.717766 2.34,7.007057 2.61285,9.127202 0.0268,0.208381 0.0612,0.399971 0.0764,0.42577 0.0152,0.0258 0.34491,-0.103841 0.73263,-0.288086 0.88044,-0.418379 1.36591,-0.511451 2.35116,-0.450766 1.02108,0.06289 1.6649,0.272145 2.35024,0.763854 1.27539,0.915045 1.73224,1.45296 2.57647,3.033565 0.43567,0.815684 0.64997,1.326353 0.9973,2.376514 0.55225,1.669731 0.64634,2.033369 0.77239,2.985324 0.16087,1.214985 0.0414,3.752123 -0.31965,6.790637 -0.22512,1.894317 -0.32934,2.450311 -0.83116,4.433467 -0.63187,2.497253 -1.44625,4.822801 -2.51572,7.183863 -0.80311,1.773076 -1.32225,2.56555 -2.5442,3.883704 -0.36774,0.396705 -0.96558,1.074782 -1.32854,1.506833 -1.24202,1.478477 -2.60785,2.561291 -3.87966,3.075715 l -0.52756,0.213392 0.32498,0.511396 c 0.17876,0.281267 0.53442,0.89313 0.79037,1.359686 0.25597,0.466567 0.6665,1.155251 0.91232,1.530414 0.24581,0.375173 0.73577,1.279857 1.0888,2.010417 0.35303,0.73056 0.832,1.668824 1.06437,2.085021 0.94305,1.689051 1.31627,3.009011 1.45051,5.130031 0.12436,1.96495 -0.0859,3.72935 -0.55609,4.6666 l -0.21438,0.42733 0.29248,0.33039 c 0.53297,0.60208 1.62008,3.05053 1.96646,4.42904 0.0619,0.24627 0.21853,0.72268 0.34809,1.0587 0.12958,0.33601 0.25473,0.73065 0.27813,0.87698 0.0234,0.14632 0.0774,0.29376 0.12005,0.32764 0.11743,0.0934 3.489,1.70219 4.93387,2.35434 1.42243,0.64201 2.84692,1.357 6.09628,3.05987 2.68828,1.4088 3.10724,1.64024 5.373,2.9679 0.98505,0.57721 2.42646,1.39844 3.20314,1.82496 1.75317,0.96276 3.6316,2.11786 5.64853,3.47342 0.85245,0.57292 2.05651,1.35043 2.6757,1.72779 0.6192,0.37739 1.36315,0.87648 1.65324,1.10911 0.67516,0.54143 2.54401,2.31603 3.14547,2.98682 0.89856,1.00219 2.24136,2.98004 2.86898,4.22591 0.43124,0.85605 1.56459,3.42186 1.95195,4.41911 0.56552,1.45587 1.35568,4.00962 1.79805,5.81112 0.52964,2.15692 1.10552,3.94881 2.31651,7.20806 1.12466,3.02692 2.76547,7.68222 3.26553,9.26498 0.56297,1.78185 0.81416,2.82323 1.23573,5.12303 0.67874,3.70282 0.87091,5.01241 1.16372,7.93059 0.35255,3.5134 0.36722,3.80448 0.59014,11.71037 0.0637,2.26221 0.26554,6.76169 0.37992,8.4728 0.085,1.27258 0.45571,4.72983 0.65707,6.12907 0.11464,0.79652 0.40707,2.45567 0.64986,3.68698 0.78385,3.97546 0.83164,4.40952 0.7201,6.54188 -0.0425,0.81337 -0.0923,1.50307 -0.11062,1.53267 -0.0638,0.10325 -0.29636,0.0529 -0.36723,-0.0796 -0.0393,-0.0734 -0.1044,-0.37561 -0.14482,-0.67163 -0.0404,-0.29602 -0.13266,-0.81262 -0.20505,-1.14799 -0.0723,-0.33537 -0.1962,-1.07932 -0.27513,-1.65323 -0.079,-0.5739 -0.34176,-1.95791 -0.58403,-3.07556 -0.7365,-3.3976 -0.93429,-4.62968 -1.37117,-8.54168 -0.30511,-2.732 -0.35925,-3.37165 -0.48683,-5.75187 -0.20035,-3.73856 -0.24087,-4.98419 -0.2431,-7.47398 -0.001,-1.38286 -0.0317,-3.33572 -0.0677,-4.33972 -0.0667,-1.85997 -0.39781,-6.18561 -0.58792,-7.68063 -0.27322,-2.1485 -0.97145,-6.2342 -1.3126,-7.68063 -0.45974,-1.94923 -2.09278,-6.82735 -4.05862,-12.12369 -1.11178,-2.99535 -1.81334,-5.12693 -2.30116,-6.99178 -0.39637,-1.51538 -1.48522,-4.8292 -1.96912,-5.99295 -0.40214,-0.96718 -1.93161,-4.19299 -2.23952,-4.72343 -0.98225,-1.69213 -2.14811,-3.2507 -3.13969,-4.19725 -1.77575,-1.69513 -2.23913,-2.05119 -4.16594,-3.20107 -0.7822,-0.4668 -1.86831,-1.15752 -2.41355,-1.53495 -1.36827,-0.94716 -3.75597,-2.40306 -5.38915,-3.28605 -0.75178,-0.40645 -1.82121,-1.0029 -2.37652,-1.32545 -2.97565,-1.72839 -3.93867,-2.26788 -6.52845,-3.65721 -3.26006,-1.74889 -3.79835,-2.02314 -5.81558,-2.96286 -0.81297,-0.37873 -2.28409,-1.08187 -3.26914,-1.56256 -0.98505,-0.48068 -2.65141,-1.27417 -3.70304,-1.7633 -2.54897,-1.18557 -3.87321,-1.85564 -5.97524,-3.02351 -1.82191,-1.01224 -3.72507,-1.97084 -4.30105,-2.16639 -1.58747,-0.53895 -6.61343,-3.28569 -8.37372,-4.57631 -0.65479,-0.4801 -2.46998,-1.98741 -2.94311,-2.44394 -0.19796,-0.19102 -0.37145,-0.33364 -0.3855,-0.3169 -0.0141,0.0167 -0.095,0.38687 -0.17998,0.82257 -0.2074,1.06416 -0.34952,1.46789 -0.86717,2.46333 -0.92552,1.77981 -2.14472,3.3403 -4.58717,5.87123 -3.62925,3.76073 -4.56549,4.62084 -7.87375,7.23336 -0.69566,0.54935 -1.81227,1.44829 -2.48135,1.99765 -1.35325,1.11109 -2.5643,2.01089 -3.38618,2.51596 -0.79023,0.48561 -2.00657,1.33616 -2.33071,1.62981 -0.27582,0.24986 -0.27993,0.26051 -0.26537,0.68884 0.008,0.23928 0.12496,0.91553 0.25964,1.50278 0.61073,2.66319 0.45571,5.78775 -0.45228,9.11593 -0.18773,0.68816 -0.51774,1.79365 -0.73335,2.45667 -0.21562,0.66301 -0.39328,1.23094 -0.39482,1.26205 -10e-4,0.0311 0.15221,0.12231 0.34164,0.20266 0.89988,0.38165 1.91876,1.10363 2.61885,1.85571 0.63781,0.68517 0.90634,1.11941 1.4283,2.30966 0.47583,1.08507 0.55119,1.30047 1.0548,3.01493 0.33392,1.13674 0.69098,1.94055 1.24768,2.80878 0.48645,0.75867 1.35589,2.49752 1.55768,3.1153 0.3993,1.22245 0.49693,2.23707 0.2644,2.74783 -0.83235,1.82833 -1.01603,2.09314 -2.63169,3.79422 -0.68276,0.71885 -0.80541,0.91394 -1.41567,2.25187 -0.69861,1.53166 -1.64209,2.84514 -2.21376,3.08192 -0.19279,0.0799 -0.21322,0.12301 -0.2842,0.60029 -0.1063,0.71463 -0.0955,1.56437 0.0283,2.2165 0.14786,0.77945 0.89142,2.8931 1.45997,4.15017 0.63019,1.39333 0.6683,1.51707 0.66746,2.16699 -6.6e-4,0.49671 -0.0268,0.60542 -0.2652,1.10215 -0.49948,1.0407 -0.90925,1.39551 -2.07028,1.79268 -0.41675,0.14256 -0.79398,0.2935 -0.83829,0.33542 -0.12494,0.1182 -0.55302,1.23394 -0.74795,1.94945 -0.26587,0.97592 -0.76553,2.08753 -1.75893,3.91306 -1.777568,3.26662 -2.263908,4.00379 -3.853276,5.84062 -0.950039,1.09797 -1.177824,1.47628 -1.729739,2.87288 -0.390639,0.98846 -0.702605,1.52496 -1.163747,2.00129 l -0.296942,0.30674 -0.0032,0.92994 -0.0032,0.92995 0.384793,0.99882 c 0.211636,0.54936 0.4949,1.37081 0.629483,1.82544 0.134573,0.45465 0.538878,1.72556 0.898471,2.82427 0.981117,2.99777 1.127969,3.57463 1.1925,4.68416 0.06434,1.10594 -0.156104,1.9076 -1.286365,4.67823 -1.10997,2.72092 -1.853261,5.62562 -2.275398,8.89203 -0.331595,2.56585 0.35116,7.89449 1.729928,13.50137 0.187024,0.76054 0.653233,1.66977 1.501134,2.92759 0.395864,0.58724 0.964022,1.48444 1.26258,1.9938 0.7186,1.22596 1.30522,2.01284 2.1863,2.93267 0.39984,0.41741 0.850978,0.92055 1.002528,1.11807 0.29576,0.38549 2.91072,2.7315 4.18443,3.75407 0.4264,0.34232 1.05424,0.89034 1.39522,1.21783 0.34098,0.32749 0.86795,0.74603 1.17103,0.93009 0.3031,0.18407 0.96956,0.60581 1.48103,0.93721 0.51147,0.3314 1.16243,0.73497 1.44658,0.89682 0.28414,0.16187 0.68711,0.40927 0.89549,0.54983 0.73978,0.49896 2.46306,1.95518 3.69297,3.12067 0.68618,0.65022 1.56145,1.47077 1.94509,1.82344 0.38363,0.35268 0.83294,0.81765 0.99848,1.03327 0.39687,0.51693 1.63955,2.70054 1.61358,2.83535 -0.0117,0.0607 -0.0924,0.10542 -0.19039,0.10542 -0.13559,0 -0.32401,-0.19112 -0.929,-0.94234 -0.66751,-0.82884 -0.90408,-1.06021 -1.96438,-1.92104 -0.66302,-0.5383 -1.42311,-1.18367 -1.6891,-1.43418 -1.20945,-1.13905 -3.78789,-3.14612 -4.69884,-3.6576 -0.79387,-0.44574 -1.68097,-0.97424 -2.53261,-1.50883 -0.41675,-0.26161 -0.95852,-0.59508 -1.20394,-0.74105 -0.24541,-0.14598 -0.81886,-0.62422 -1.27436,-1.06278 -0.45549,-0.43855 -1.10715,-1.0263 -1.44812,-1.30612 -0.34099,-0.27981 -0.91445,-0.77375 -1.27437,-1.09765 -0.35992,-0.3239 -0.90239,-0.78728 -1.20549,-1.02974 -0.73879,-0.59101 -1.213398,-1.05141 -1.638948,-1.58987 -0.19464,-0.24625 -0.65808,-0.76904 -1.0299,-1.16171 -0.75017,-0.79228 -1.703798,-2.02543 -2.217896,-2.86804 -0.184921,-0.30309 -0.686298,-1.07804 -1.114165,-1.7221 -0.427877,-0.64408 -0.946475,-1.49296 -1.152434,-1.8864 -0.456568,-0.87218 -0.433533,-0.9276 -0.526598,1.26643 -0.09241,2.1778 -0.08253,3.26611 0.03638,3.99531 0.05562,0.34097 0.120148,1.16242 0.143488,1.82544 0.04699,1.3342 -0.03974,2.45463 -0.386391,4.99413 -0.108615,0.79562 -0.247708,1.94015 -0.309096,2.54341 -0.0614,0.60326 -0.123712,1.11643 -0.138515,1.14036 -0.01482,0.024 -0.07791,0.41273 -0.140355,0.86396 -0.06245,0.45123 -0.156188,0.90306 -0.208429,1.00406 -0.137012,0.26496 -0.507464,0.55513 -0.677709,0.53082 -0.202605,-0.0289 -0.230203,-0.33278 -0.04542,-0.50001 0.162559,-0.14712 0.187234,-0.64697 0.06981,-1.41509 -0.120726,-0.7898 -0.08085,-2.25281 0.104714,-3.83954 0.504542,-4.31446 0.515959,-4.67071 0.226524,-7.06574 -0.147746,-1.22263 -0.147862,-1.23381 -0.02755,-3.14551 0.148114,-2.35475 0.178319,-2.58063 0.532339,-3.98005 0.193385,-0.76442 0.267579,-1.17969 0.233851,-1.30882 l -0.04941,-0.18911 -0.09283,0.20665 c -0.05099,0.11366 -0.191524,0.43914 -0.312176,0.72328 -0.120653,0.28415 -0.429286,0.89144 -0.685857,1.34953 -0.25656,0.4581 -0.689736,1.27955 -0.962603,1.82545 -0.272856,0.5459 -0.674512,1.31803 -0.892562,1.71584 -0.218038,0.39781 -0.730202,1.35874 -1.138146,2.13542 -1.316749,2.50699 -2.288656,4.08303 -2.976563,4.82684 -1.142582,1.23539 -4.685569,3.79795 -7.255902,5.24801 -0.433628,0.24462 -1.160382,0.65454 -1.615016,0.91095 -1.357478,0.76556 -2.542892,1.54428 -3.453931,2.26895 -0.761983,0.6061 -1.016548,0.87078 -2.252616,2.34208 -2.007781,2.38988 -2.381582,2.90786 -3.488734,4.83442 -0.346157,0.60234 -0.710731,1.18042 -0.810172,1.2846 -0.209349,0.21936 -0.42965,0.24297 -0.592092,0.0635 z m 27.294033,-70.4853 c 0.148502,-0.39528 0.347344,-0.89357 0.441881,-1.10729 l 0.171885,-0.38858 -0.234682,-0.8169 c -0.436425,-1.51911 -1.278974,-2.96102 -2.461182,-4.21197 -0.672431,-0.71152 -0.728867,-0.79387 -0.935468,-1.36486 -0.120936,-0.3342 -0.238603,-0.80817 -0.261491,-1.05326 -0.05215,-0.5585 -0.09084,-0.46303 -0.321302,0.79238 -0.34645,1.88753 -0.437003,3.69794 -0.256266,5.12373 0.09073,0.71533 0.272909,1.51587 0.345063,1.51587 0.02513,0 0.101665,-0.0947 0.170034,-0.21056 0.305553,-0.51726 0.900532,-0.95982 1.290949,-0.96022 0.536082,-6.6e-4 0.747581,0.35321 0.997813,1.669 0.176489,0.92813 0.420538,1.96196 0.489454,2.07346 0.06329,0.1024 0.278817,-0.30348 0.563312,-1.0608 z m 2.30184,-4.00794 c 0.89049,-1.18188 1.424859,-1.98978 2.699627,-4.08141 0.4849,-0.79562 1.13049,-1.83406 1.43464,-2.30764 0.526528,-0.81983 1.349148,-2.42233 1.727418,-3.36508 l 0.17555,-0.4375 -0.18745,0.0455 c -0.10314,0.025 -0.68187,0.20197 -1.28617,0.39318 -1.645858,0.52079 -3.954213,1.72132 -5.360547,2.78793 -1.206179,0.91479 -3.219003,2.70461 -3.219003,2.86234 0,0.0343 0.364954,0.42513 0.811009,0.86845 0.661739,0.65768 0.889492,0.93984 1.237425,1.53306 0.432061,0.73661 0.906786,1.8273 1.055257,2.42444 0.04479,0.17996 0.09021,0.3272 0.101035,0.3272 0.01083,0 0.375867,-0.47271 0.811188,-1.05048 z m -3.092558,-6.63239 c 1.510102,-1.50073 2.62638,-2.29731 4.685775,-3.34376 1.3913,-0.70698 2.840068,-1.22773 4.482438,-1.6112 0.94616,-0.22091 1.75671,-0.45721 1.75607,-0.51193 0,-0.0229 -0.22447,-0.0957 -0.49826,-0.16173 -0.5785,-0.13957 -1.79868,-0.72306 -2.51113,-1.2008 -0.832408,-0.55819 -1.926258,-1.53592 -2.529638,-2.26109 -0.948361,-1.13978 -2.075121,-2.03664 -2.987617,-2.37805 -0.475513,-0.17792 -1.371787,-0.32229 -1.458186,-0.2349 -0.106365,0.10758 -0.946044,3.7122 -1.138209,4.88614 -0.09925,0.60617 -0.300517,1.75311 -0.447306,2.54872 -0.1468,0.79562 -0.316792,1.95805 -0.37776,2.58317 -0.06098,0.62514 -0.140712,1.40008 -0.177215,1.72212 -0.03648,0.32204 -0.06623,0.756 -0.06613,0.96439 v 0.37885 l 0.285756,-0.34442 c 0.157166,-0.18943 0.598679,-0.65541 0.981159,-1.03551 z m -2.892455,-0.39391 c 0.110444,-0.19887 0.269975,-0.44538 0.354514,-0.54781 0.106186,-0.12865 0.167385,-0.32037 0.197895,-0.61996 0.130693,-1.28358 0.226534,-1.81607 0.593191,-3.29584 0.221067,-0.8922 0.497855,-2.0601 0.61509,-2.59532 0.117236,-0.53523 0.291139,-1.20016 0.386465,-1.47762 0.349468,-1.01726 0.853452,-2.69906 0.819115,-2.73339 -0.01945,-0.0195 -0.624584,0.0538 -1.344789,0.16286 l -1.309452,0.19817 -0.184669,0.2451 c -0.984797,1.307 -2.493006,3.10939 -3.26009,3.89598 -0.949608,0.97373 -1.235575,1.37782 -1.235575,1.74596 0,0.46152 0.782581,1.33343 1.997665,2.22571 0.780719,0.57331 1.257368,1.12912 1.61921,1.88808 0.170739,0.35814 0.34767,0.79035 0.393173,0.96047 0.04552,0.17013 0.09956,0.3093 0.120095,0.30925 0.02061,-4e-5 0.127739,-0.16278 0.238162,-0.36164 z m 14.882278,-6.6602 c 0.0488,-0.0789 -0.14412,-0.64899 -0.61934,-1.82975 -0.43571,-1.08258 -1.01514,-2.94042 -1.18161,-3.78866 -0.0875,-0.44569 -0.12149,-0.94913 -0.12101,-1.791 l 6.6e-4,-1.17103 -0.65681,-10e-4 c -0.55018,-0.001 -0.80612,-0.0438 -1.57636,-0.26281 -1.702268,-0.4839 -2.008218,-0.53534 -3.42019,-0.575 -1.898722,-0.0533 -3.621323,0.061 -4.890803,0.32448 -0.568295,0.11798 -1.344915,0.23195 -1.725818,0.25328 -0.610843,0.0342 -0.728678,0.0217 -0.998821,-0.10649 -0.168458,-0.0799 -0.359393,-0.1839 -0.424324,-0.23114 -0.09935,-0.0723 -0.148439,-0.0573 -0.309979,0.0943 -0.255919,0.24028 -1.356795,0.95337 -1.728961,1.11992 -0.263289,0.11785 -0.292138,0.15281 -0.253396,0.30716 0.170371,0.67882 0.853873,1.5464 1.446875,1.83652 0.518366,0.25361 1.010743,0.24142 2.926718,-0.0724 1.418551,-0.2324 1.637473,-0.2514 2.58317,-0.22423 0.898386,0.0259 1.105081,0.0542 1.583381,0.2181 1.314835,0.45032 2.37087,1.18428 3.78961,2.63384 0.53042,0.54193 1.269578,1.21542 1.642568,1.49665 0.96512,0.72764 2.49236,1.49969 3.42046,1.72914 0.47866,0.11834 0.4665,0.11737 0.51396,0.0406 z m -18.004032,-1.84697 c 0.272614,-0.33151 0.90011,-1.01214 1.394443,-1.51251 0.578199,-0.58529 0.863303,-0.91976 0.79935,-0.93776 -0.05467,-0.0154 -0.254426,-0.065 -0.443858,-0.11027 -0.709512,-0.16948 -1.306414,-0.66513 -1.908058,-1.58438 -0.184932,-0.28256 -0.403055,-0.73345 -0.487635,-1.00802 l -0.153035,-0.49678 -0.585516,0.20539 c -0.929275,0.32594 -1.497317,0.65762 -2.083759,1.21668 -0.29363,0.27991 -0.533558,0.54358 -0.533201,0.5859 0.0011,0.15185 0.737436,1.05358 1.559726,1.91063 0.865216,0.90177 1.603451,1.78479 1.783904,2.13374 0.05688,0.11007 0.116647,0.20011 0.132722,0.20011 0.01609,0 0.252292,-0.27122 0.524917,-0.60273 z m -7.181467,-2.57174 c 0.571281,-0.24802 1.271226,-0.77769 2.342969,-1.77297 1.46563,-1.3611 1.97321,-1.68082 3.63091,-2.28707 0.50614,-0.18512 1.022172,-0.38872 1.146715,-0.45245 0.445845,-0.22812 1.403306,-0.92239 1.720035,-1.24722 0.386706,-0.3966 1.146178,-1.60596 1.721791,-2.74175 0.693521,-1.36842 1.14171,-1.92187 2.376906,-2.93522 0.95355,-0.78227 1.129609,-1.04503 1.264171,-1.8867 0.108068,-0.67599 0.235649,-1.04653 0.697064,-2.0244 0.221466,-0.46935 0.402666,-0.86098 0.402666,-0.87028 0,-0.0612 -0.998475,0.19106 -1.308885,0.33063 -0.438065,0.19696 -0.699619,0.43942 -1.224567,1.13522 -0.424639,0.56283 -0.961614,0.95848 -1.888187,1.39124 -0.814248,0.38028 -1.337797,0.53118 -2.397933,0.69112 -1.233157,0.18606 -1.830889,0.35714 -2.555867,0.73158 -0.759976,0.3925 -1.348499,0.92896 -1.94988,1.77736 -0.549098,0.77463 -0.746677,0.95555 -1.349446,1.23563 -0.381828,0.17742 -0.549161,0.21206 -1.13659,0.23532 -0.636843,0.0252 -0.746625,0.009 -1.454213,-0.21455 -1.089195,-0.34413 -1.712255,-0.458 -2.505959,-0.458 -0.808475,0 -1.110516,0.0955 -1.22668,0.38761 -0.04321,0.10885 -0.110507,0.74037 -0.149417,1.40338 -0.0389,0.66302 -0.116679,1.53096 -0.172799,1.92877 -0.217019,1.53821 -0.07854,2.69625 0.462435,3.86712 0.282791,0.61205 0.560914,0.9428 1.101485,1.3099 0.949892,0.64506 1.70847,0.78907 2.453276,0.46573 z m 10.791287,-5.60751 c 0.151542,-0.0229 0.77151,-0.16261 1.377685,-0.3105 1.609234,-0.39265 2.067485,-0.43766 4.51195,-0.44316 2.403609,-0.005 2.679679,0.0278 4.511927,0.54213 0.45464,0.12762 0.96055,0.25359 1.12426,0.27994 0.4093,0.0659 1.06854,-0.0712 1.59991,-0.33268 0.37064,-0.18235 0.51587,-0.31032 0.87376,-0.76979 0.23608,-0.3031 0.63545,-0.95406 0.8875,-1.44658 0.86651,-1.69331 0.91758,-1.76354 2.32952,-3.20314 1.11533,-1.13716 1.35678,-1.42095 1.57377,-1.84973 0.14095,-0.27857 0.2563,-0.58296 0.2563,-0.67644 0,-0.2159 -0.34587,-0.72183 -0.65427,-0.95706 -0.32056,-0.2445 -1.28366,-0.5425 -2.20444,-0.68209 -1.51342,-0.22943 -2.06059,-0.36095 -2.69582,-0.64799 -0.74631,-0.33723 -1.85433,-0.62454 -3.36422,-0.87236 -1.447448,-0.23758 -2.424218,-0.20318 -4.226264,0.14889 -0.127202,0.0248 -0.238908,0.19779 -0.541328,0.83805 -0.585316,1.23926 -0.830648,1.92561 -0.9472,2.64997 -0.196623,1.22184 -0.433776,1.64228 -1.34768,2.38919 -1.436487,1.17401 -1.633698,1.41508 -2.333485,2.85246 -0.260976,0.53605 -0.678855,1.31212 -0.928613,1.72459 -0.249758,0.41249 -0.437508,0.77683 -0.417227,0.80966 0.02029,0.0328 0.104714,0.0458 0.187655,0.0289 0.08295,-0.0169 0.274769,-0.0494 0.42631,-0.0723 z m -8.498121,-4.42327 c 0.264341,-0.11882 0.420928,-0.27969 0.912401,-0.9373 0.326307,-0.43661 0.796396,-0.97716 1.044629,-1.2012 1.002596,-0.90487 2.22834,-1.44101 3.751258,-1.64081 1.087713,-0.14268 1.776072,-0.3065 2.420096,-0.57596 0.891374,-0.37292 1.189998,-0.58437 1.717869,-1.21636 0.558286,-0.66841 1.130156,-1.12331 1.64479,-1.30837 0.191387,-0.0689 0.347975,-0.14578 0.347975,-0.171 0,-0.0573 -0.634814,-0.18905 -1.286092,-0.26691 -0.769375,-0.092 -1.094168,-0.36158 -1.374531,-1.14104 -0.104819,-0.29138 -0.121882,-0.54357 -0.110738,-1.63787 l 0.01314,-1.29345 -0.214496,-0.13045 c -0.215926,-0.13131 -1.22095,-0.34841 -1.611736,-0.34814 -0.31533,0 -1.898469,-0.46346 -2.107677,-0.61729 -0.307214,-0.22589 -0.487877,-0.23196 -1.10117,-0.037 -0.825349,0.2624 -1.542452,0.28739 -3.086828,0.10753 -1.402528,-0.16332 -2.068536,-0.13284 -3.015705,0.13803 -0.256402,0.0733 -0.477984,0.13331 -0.492398,0.13331 -0.0144,0 -0.30406,0.28674 -0.643635,0.63718 -0.454402,0.46895 -0.705674,0.80088 -0.951647,1.25715 -0.437644,0.81176 -0.48752,1.15812 -0.253596,1.76122 0.250084,0.64476 0.261849,0.74025 0.150448,1.22062 -0.116657,0.503 -0.123954,0.48139 0.476754,1.41122 0.449872,0.69632 0.52417,0.90861 0.52417,1.4976 0,0.39224 -0.03722,0.53701 -0.24448,0.95134 -0.225882,0.4515 -1.016537,1.41962 -1.613165,1.97523 -0.283118,0.26364 -0.693521,1.04093 -0.513037,0.97167 0.284379,-0.10913 1.206926,-0.19128 1.716282,-0.15283 0.631092,0.0476 1.688789,0.31402 2.118485,0.53354 0.160867,0.0822 0.369969,0.17467 0.464685,0.20555 0.286786,0.0935 0.977364,0.0279 1.317937,-0.12522 z m 27.269163,-5.77451 c 0,-0.20678 -1.03527,-2.299 -1.48395,-2.99899 -0.67336,-1.05052 -0.83234,-1.45898 -1.31029,-3.36676 -0.38437,-1.53423 -0.59387,-2.18109 -1.07171,-3.30892 -0.33087,-0.78098 -0.40849,-0.90448 -0.8495,-1.35152 -0.78135,-0.79207 -2.0431,-1.56339 -3.03406,-1.85473 -0.51976,-0.15281 -0.7025,-0.17575 -1.13055,-0.14195 -0.678388,0.0536 -1.004458,0.21333 -2.210358,1.08293 -0.54935,0.39615 -1.332349,0.96133 -1.739998,1.25595 -0.781509,0.56484 -2.004667,1.19145 -3.013034,1.54358 -0.322039,0.11245 -1.081489,0.3199 -1.687665,0.461 -0.606196,0.1411 -1.421988,0.33093 -1.8129,0.42184 -0.715768,0.16647 -2.111799,0.67142 -2.185372,0.79045 -0.02176,0.0352 0.03196,0.0647 0.119444,0.0655 0.08747,6.6e-4 0.420633,0.0936 0.740337,0.20634 0.319704,0.11272 0.832867,0.23622 1.140365,0.27444 1.262951,0.15695 1.858297,0.43308 2.153463,0.99889 0.08537,0.16366 0.109088,0.46453 0.113997,1.44657 0.0063,1.15412 0.01735,1.26258 0.167459,1.56739 0.172936,0.35114 0.191881,0.36046 0.872008,0.42839 0.227312,0.0227 0.844389,0.13707 1.371282,0.25416 l 0.957988,0.21288 0.970782,-0.1637 c 1.432344,-0.24153 3.284674,-0.23024 4.862772,0.0296 1.55236,0.25563 2.17125,0.4172 3.10892,0.81161 0.84433,0.35516 1.47168,0.52649 2.88403,0.78763 0.47358,0.0876 1.10905,0.25101 1.41214,0.36322 0.60481,0.2239 0.6544,0.23785 0.6544,0.18422 z m -32.808447,-2.4469 c 0.206706,-0.072 0.207831,-0.0753 0.209271,-0.60273 0.0011,-0.56397 0.151857,-1.10133 0.455086,-1.62695 0.08915,-0.15457 0.181683,-0.36255 0.205559,-0.46216 0.02387,-0.0997 0.177888,-0.33211 0.342224,-0.51665 0.164347,-0.18452 0.424723,-0.52148 0.57863,-0.74881 0.351833,-0.51968 0.525316,-0.67986 0.918373,-0.84798 1.1106,-0.47501 2.549589,-0.60222 4.095385,-0.36207 0.977847,0.15193 2.074949,0.19592 2.183311,0.0876 0.03322,-0.0332 0.0021,-0.13277 -0.07086,-0.22618 -0.0717,-0.0918 -0.204098,-0.30627 -0.294335,-0.47677 -0.153476,-0.28999 -0.162875,-0.37218 -0.145654,-1.27437 0.03354,-1.75486 -0.140901,-2.61851 -0.791044,-3.91782 -0.535146,-1.06947 -0.595682,-1.40575 -0.604366,-3.35714 -0.0084,-1.92778 -0.02923,-2.01411 -0.500378,-2.09918 -0.442838,-0.0799 -0.824824,-0.35247 -1.021394,-0.72869 -0.06666,-0.12752 -0.206527,-0.22048 -0.458819,-0.30487 -0.502312,-0.16804 -0.927603,-0.14839 -1.392214,0.0643 -0.595504,0.27264 -0.77887,0.28343 -1.861589,0.1097 -1.084927,-0.17409 -1.295522,-0.15494 -1.763508,0.16044 -0.520932,0.35106 -0.672578,0.77128 -0.750346,2.0791 -0.06624,1.1148 -0.152614,1.38015 -1.011701,3.10942 -0.607373,1.22259 -0.655746,1.35069 -0.68921,1.82544 -0.02996,0.42546 -6.63e-4,0.64624 0.176679,1.32461 0.321806,1.23179 0.309064,1.34183 -0.299708,2.58704 -0.281813,0.57643 -0.548838,1.22368 -0.593403,1.43832 -0.133239,0.6418 -0.05426,1.40759 0.214377,2.07957 0.201012,0.50276 0.314431,0.66873 0.836625,1.22441 0.332247,0.35354 0.64804,0.72728 0.701753,0.83052 0.149291,0.28696 0.409384,0.49822 0.74059,0.60153 0.377465,0.11775 0.344905,0.11608 0.590699,0.0304 z m 10.972046,-5.81919 c 0.132596,-0.0479 0.535577,-0.21765 0.895495,-0.37701 0.398366,-0.17639 1.179969,-0.42289 1.997654,-0.63001 2.379408,-0.60274 3.313015,-0.91763 4.507608,-1.52035 0.494038,-0.24927 1.988685,-1.26544 3.189006,-2.16814 1.01077,-0.76013 1.22926,-0.87935 1.933,-1.05471 0.358368,-0.0892 0.573288,-0.18348 0.661438,-0.28982 0.2244,-0.27075 0.46323,-0.86473 0.50312,-1.25132 0.0661,-0.64058 -0.34601,-1.32701 -1.035568,-1.72482 -0.27097,-0.15633 -0.3677,-0.16768 -1.73355,-0.20352 -5.316133,-0.13946 -5.747101,-0.18259 -7.591395,-0.75972 -0.409005,-0.12798 -1.007127,-0.28559 -1.329165,-0.35025 -0.322027,-0.0647 -0.833497,-0.17636 -1.13659,-0.24823 -0.669067,-0.15864 -1.643476,-0.17149 -2.190996,-0.0288 -0.666702,0.17365 -1.04055,0.40245 -1.262111,0.77245 -0.195067,0.32574 -0.197779,0.3449 -0.197779,1.39798 0,1.22579 -0.0084,1.19067 0.738907,2.96203 0.771174,1.82707 0.845294,2.2755 0.629505,3.80845 -0.138189,0.98167 -0.09,1.22109 0.320692,1.59209 0.252639,0.22824 0.300664,0.2456 0.567801,0.20519 0.160499,-0.0243 0.400321,-0.0834 0.532928,-0.13141 z m 14.613561,-9.91563 c 0.21978,-0.7364 0.44957,-1.70339 0.62242,-2.61935 0.12864,-0.68165 0.15593,-1.06218 0.15555,-2.16986 -6.7e-4,-1.48354 -0.0714,-2.12184 -0.37247,-3.35489 -0.28011,-1.14714 -0.35995,-1.85199 -0.27643,-2.44085 0.12228,-0.86222 0.16066,-0.90645 2.00337,-2.30858 0.35605,-0.27092 1.15881,-0.83413 1.78394,-1.2516 1.68057,-1.12227 6.66961,-5.18956 9.21438,-7.51199 0.44458,-0.40573 1.10195,-0.98442 1.46081,-1.28597 0.66805,-0.56137 2.91517,-2.72095 3.72656,-3.5814 2.10781,-2.23524 3.57588,-4.48449 4.02258,-6.16298 0.0958,-0.35992 0.17424,-0.71661 0.17434,-0.79264 0,-0.14244 -0.37797,-1.15311 -0.56453,-1.50883 l -0.10515,-0.2005 -0.29881,0.51049 c -0.16434,0.28075 -0.63616,1.23891 -1.04849,2.12925 -0.88796,1.91735 -1.16984,2.4077 -2.07398,3.60766 -1.66858,2.21455 -3.84272,4.5802 -5.24528,5.70733 -0.96099,0.77227 -4.75807,2.95552 -7.2268,4.15529 -1.50073,0.72932 -4.2644,2.17247 -5.16988,2.69964 -0.88154,0.51324 -3.135958,1.71255 -3.857528,2.05216 -0.80902,0.38076 -1.867138,0.74454 -3.478675,1.19599 -1.134897,0.31792 -2.932963,0.79776 -3.547559,0.94673 -1.225587,0.29707 -1.756549,0.51596 -1.756549,0.72414 0,0.029 0.796648,0.44749 1.770342,0.92986 0.973674,0.48238 2.004372,1.03199 2.290412,1.22138 0.340868,0.22569 1.10158,0.91873 2.207744,2.01133 1.424975,1.40752 1.789525,1.7294 2.342065,2.06796 0.87383,0.53542 1.12902,0.7451 1.487898,1.22249 0.21538,0.28651 0.35369,0.57457 0.47962,0.99884 0.0974,0.32791 0.29117,0.85968 0.43075,1.18172 0.23819,0.54953 0.25395,0.62998 0.25636,1.30881 0.003,0.71332 0.0465,0.97891 0.19167,1.16004 0.10791,0.13454 0.22604,-0.0544 0.40132,-0.64167 z m -25.331538,-3.2261 c 0.100088,-0.0732 0.130083,-0.22534 0.159647,-0.80939 0.0471,-0.93044 -0.05688,-1.34599 -0.628085,-2.51028 -0.652613,-1.33022 -0.765454,-1.71213 -0.763173,-2.58317 0.0021,-0.64838 0.02103,-0.75988 0.186341,-1.07654 0.230655,-0.44173 0.528722,-0.74317 0.939525,-0.95015 0.427436,-0.21536 1.516526,-0.61267 2.103357,-0.76735 0.427666,-0.11271 0.458986,-0.13228 0.309979,-0.19362 -0.09115,-0.0375 -0.716725,-0.32372 -1.390133,-0.63598 -1.539014,-0.71363 -2.395421,-1.29913 -3.967184,-2.71225 -0.91662,-0.8241 -1.681549,-1.7978 -3.114612,-3.9647 -0.735714,-1.11246 -1.356424,-2.02427 -1.379364,-2.02621 -0.06627,-0.006 -0.129491,0.85277 -0.130015,1.76558 -6.63e-4,0.71194 0.03131,0.96261 0.20919,1.65323 0.609446,2.36605 1.099112,3.2908 3.367283,6.35926 1.258996,1.70322 1.739115,2.43749 2.207027,3.37534 0.610885,1.22442 1.138903,2.58821 1.26681,3.27201 0.05677,0.30311 0.154916,0.83006 0.21826,1.17105 0.147641,0.79473 0.159289,0.81294 0.405147,0.63317 z m 13.163368,-9.33025 c 2.225953,-0.69197 3.581161,-1.08744 5.131908,-1.49754 2.607734,-0.68962 3.868244,-1.22085 6.346202,-2.67455 0.5542,-0.32513 1.51514,-0.85985 2.13542,-1.18825 0.62028,-0.3284 1.15877,-0.62055 1.19666,-0.64921 0.0378,-0.0287 1.26231,-0.67962 2.72093,-1.44655 1.45863,-0.76693 3.19453,-1.70612 3.85754,-2.08708 0.66302,-0.38097 1.56197,-0.89237 1.99766,-1.13643 0.4357,-0.24407 1.00915,-0.61626 1.27437,-0.82712 1.24139,-0.987 3.70243,-3.73432 5.1236,-5.71963 0.66847,-0.93385 0.86019,-1.28191 1.42926,-2.59477 0.63198,-1.45797 1.18165,-2.49135 2.11159,-3.96965 0.44394,-0.705742 0.80697,-1.310203 0.80674,-1.343258 0,-0.03301 -0.0926,-0.112536 -0.20522,-0.176615 -0.27258,-0.155085 -0.48262,-0.513909 -0.48294,-0.825013 -6.6e-4,-0.372882 0.0578,-0.470594 0.28,-0.470594 0.17069,0 0.20629,0.03585 0.26989,0.272068 0.0436,0.161802 0.14996,0.326685 0.2625,0.406819 0.44996,0.320408 1.69322,0.49367 2.08051,0.289929 0.39918,-0.209985 0.92044,-0.674228 1.42208,-1.266526 0.29452,-0.347733 0.67803,-0.790949 0.85224,-0.984922 0.17422,-0.193974 0.60623,-0.732484 0.96,-1.196654 0.83166,-1.091203 1.23842,-1.484649 2.16912,-2.098099 0.86712,-0.571534 1.00249,-0.644781 2.65605,-1.437107 1.07903,-0.517032 2.06654,-1.125057 2.06654,-1.272414 0,-0.0553 -1.33315,-1.138115 -1.66035,-1.348657 -0.17347,-0.111611 -0.18681,-0.109141 -0.40616,0.07538 -0.32841,0.276189 -0.81606,0.772561 -1.16192,1.182692 -0.4923,0.583781 -0.92271,0.742314 -2.24901,0.828325 -0.73391,0.04763 -0.89193,0.07969 -1.15714,0.235133 -0.29373,0.172137 -0.62246,0.586105 -0.90635,1.141332 -0.17141,0.335274 -0.71159,0.892141 -1.01606,1.047467 -0.75749,0.386444 -1.54092,0.149533 -1.9337,-0.584769 -0.21447,-0.4009 -0.20872,-1.472937 0.011,-2.075086 0.42454,-1.162968 1.43345,-2.084263 2.76354,-2.523537 0.83341,-0.275264 1.06119,-0.391469 1.46479,-0.747276 0.33591,-0.296133 0.40132,-0.414515 0.22899,-0.414515 -0.054,0 -0.60422,-0.158585 -1.2227,-0.352401 -2.7237,-0.853575 -3.46674,-1.623865 -3.71336,-3.849556 -0.14417,-1.301063 -0.54219,-2.443341 -1.45218,-4.167518 -0.33993,-0.644076 -0.79417,-1.397545 -1.00945,-1.674386 -0.21525,-0.276851 -0.63071,-0.814752 -0.92323,-1.19536 -0.2925,-0.380609 -0.75812,-0.944551 -1.03469,-1.253206 -3.53331,-3.943192 -4.61848,-5.848436 -4.71709,-8.281875 -0.0654,-1.614047 0.1167,-2.156048 1.69512,-5.045772 0.53548,-0.980314 1.09929,-2.072202 1.25291,-2.42642 0.89619,-2.066252 1.73146,-5.290007 1.93205,-7.456755 0.10586,-1.143413 0.0409,-2.492533 -0.1499,-3.113203 -0.26072,-0.848176 -1.18492,-2.880038 -1.38541,-3.045877 -0.0994,-0.08216 -1.26045,-0.619317 -3.11603,-1.441528 -1.19453,-0.529296 -2.28639,-0.882301 -3.48379,-1.126317 -1.99659,-0.406877 -4.28913,-0.591435 -6.58032,-0.529735 -3.14935,0.0848 -5.21576,0.535121 -8.748328,1.906418 -0.757739,0.294135 -1.860466,0.691671 -2.450513,0.883401 -0.590048,0.19173 -1.396,0.478084 -1.791001,0.636333 -1.02459,0.410492 -3.843304,1.335614 -5.057914,1.660046 -0.835338,0.223127 -1.191607,0.283049 -1.859886,0.312816 -1.481968,0.066 -2.903294,-0.274254 -4.305276,-1.030712 -1.062375,-0.573218 -3.533934,-2.323762 -4.546392,-3.220092 -1.110874,-0.98346 -2.13763,-1.658023 -3.389857,-2.227062 l -0.531141,-0.241364 -0.433237,0.279097 c -0.238278,0.153498 -0.727719,0.563878 -1.087641,0.911939 -0.359924,0.348068 -1.217885,1.150392 -1.906578,1.782943 -1.923904,1.767062 -3.282125,3.243518 -4.097398,4.454078 -0.702113,1.042526 -1.381546,2.685522 -1.951766,4.71976 -0.59101,2.108403 -0.661813,2.826318 -0.723534,7.336212 -0.02826,2.064813 -0.08541,4.157181 -0.127003,4.649707 -0.04159,0.492526 -0.108191,1.338533 -0.148001,1.880022 -0.138261,1.880871 -0.618806,3.86744 -1.139638,4.711251 l -0.245655,0.397998 0.214954,1.87473 c 0.118227,1.031098 0.291383,2.434331 0.384773,3.118285 0.257683,1.886999 0.344625,4.470789 0.234239,6.960978 -0.113936,2.570067 -0.06109,6.752861 0.09955,7.883427 0.166097,1.168793 0.402844,2.334936 0.977024,4.812488 0.684289,2.952687 0.914129,3.771017 1.928183,6.865077 0.472246,1.44091 1.031129,3.20879 1.241964,3.92864 0.399216,1.36304 1.278643,3.72162 1.698549,4.55545 0.13383,0.26575 0.50497,0.93038 0.824765,1.47698 0.319788,0.54658 0.651743,1.13329 0.737671,1.30377 0.182794,0.36268 1.109268,1.7251 2.037673,2.99648 1.657005,2.26917 2.175729,2.81927 3.783323,4.01217 1.009114,0.7488 1.683027,1.11277 3.054352,1.64955 1.408047,0.55116 3.988463,1.15928 5.625105,1.32565 0.340973,0.0346 1.239916,0.0549 1.997654,0.045 l 1.377685,-0.0181 z m -7.852836,-9.77905 c -0.299466,-0.0417 -1.464158,-0.3395 -1.820271,-0.46523 -0.167647,-0.0592 -0.759146,-0.15106 -1.314446,-0.20417 -1.464348,-0.14001 -2.25699,-0.43513 -2.84996,-1.0611 -0.203919,-0.21526 -0.20803,-0.39163 -0.01083,-0.46728 0.05709,-0.022 0.309002,0.0561 0.559748,0.17348 0.674197,0.3155 1.113334,0.41295 2.344777,0.52035 0.8309,0.0724 1.403916,0.16978 2.273191,0.38603 l 1.162253,0.28913 1.308801,-0.0782 c 1.74122,-0.10408 1.870031,-0.10167 1.922598,0.0353 0.07097,0.18488 -0.08526,0.2932 -0.687854,0.477 -1.15787,0.35318 -2.182607,0.49323 -2.887966,0.39471 z m 1.894327,-2.85177 c -0.284147,-0.0325 -0.749116,-0.11234 -1.033274,-0.17734 -0.39558,-0.0905 -0.871703,-0.12023 -2.032096,-0.12686 -1.72873,-0.009 -1.782085,-0.0213 -3.179799,-0.68496 -1.000829,-0.47517 -1.634949,-0.67785 -2.811427,-0.8986 -1.055395,-0.19803 -1.697762,-0.43651 -2.320183,-0.86137 -0.220508,-0.15052 -0.427575,-0.27366 -0.46014,-0.27366 -0.03257,0 -0.107925,0.12398 -0.16745,0.27553 -0.195072,0.49662 -0.532626,0.29947 -0.532626,-0.31108 0,-0.38761 0.144238,-0.93531 0.282805,-1.07387 0.246333,-0.24634 0.612696,-0.0939 0.612696,0.25498 0,0.23659 0.228263,0.30724 1.140853,0.35314 0.708039,0.0356 0.825075,0.022 1.653231,-0.19209 1.342801,-0.34711 1.558874,-0.32794 2.677739,0.23757 1.62165,0.81965 2.017103,0.89613 3.412787,0.66013 0.823888,-0.13933 0.98978,-0.14784 1.513887,-0.0777 0.670444,0.0898 2.261857,0.53085 3.045227,0.84401 0.840583,0.33605 1.465009,0.46997 2.585598,0.55457 0.831731,0.0628 1.111379,0.061 1.360474,-0.008 0.172453,-0.0483 0.313544,-0.12433 0.313544,-0.169 0,-0.0447 0.04163,-0.13821 0.09262,-0.20786 0.14005,-0.19151 0.425522,-0.0933 0.52047,0.17907 0.0819,0.23492 0.101665,0.80693 0.03396,0.98332 -0.0594,0.15469 -0.276599,0.13494 -0.396337,-0.0361 l -0.10156,-0.14497 -0.541769,0.20892 c -1.707798,0.6586 -3.768438,0.91044 -5.66922,0.69284 z m 3.030928,-0.81287 c 0.157702,-0.0454 0.149018,-0.0538 -0.103347,-0.1004 -0.151541,-0.028 -0.678508,-0.18536 -1.171043,-0.34967 -1.672409,-0.55794 -2.695264,-0.85329 -3.242648,-0.93631 -0.489697,-0.0742 -0.618381,-0.0677 -1.248086,0.0635 -1.347921,0.28083 -2.044838,0.16786 -3.516671,-0.57005 -0.483283,-0.24229 -1.00269,-0.45893 -1.154232,-0.4814 -0.288258,-0.0427 -2.052239,0.35166 -1.994037,0.44585 0.01588,0.0258 0.207652,0.0691 0.425996,0.0962 0.843401,0.10461 2.048654,0.46161 2.911284,0.8622 1.387852,0.6445 1.585137,0.68848 2.873594,0.64056 0.995258,-0.037 1.176268,-0.0245 2.020184,0.13935 0.50984,0.099 1.004468,0.19233 1.099183,0.20738 0.305417,0.0485 2.921841,0.0341 3.099813,-0.0171 z m -7.26733,-6.1844 c -0.780163,-0.10346 -1.799938,-0.59682 -2.366677,-1.14494 -0.202973,-0.19631 -0.538521,-0.61184 -0.745667,-0.92342 -0.403024,-0.60621 -0.547594,-0.74654 -1.151057,-1.11737 -0.547037,-0.33614 -0.755109,-0.66261 -0.787312,-1.23529 -0.05036,-0.895128 0.451722,-1.906198 0.867887,-1.747823 0.209881,0.0799 0.226313,0.282434 0.07601,0.936803 -0.09231,0.40199 -0.13022,0.72177 -0.09988,0.84281 0.05099,0.20313 0.271237,0.42557 0.796868,0.80476 0.198379,0.14311 0.464107,0.45909 0.738014,0.87758 0.235407,0.35968 0.578829,0.79434 0.763152,0.9659 0.432702,0.40276 1.119695,0.73812 1.80041,0.87887 0.702037,0.14516 1.125604,0.0669 2.484732,-0.45914 l 0.998822,-0.38659 1.377695,-0.002 c 1.501324,-0.002 1.581636,-0.0185 2.146273,-0.43391 0.418373,-0.30779 0.72319,-0.95962 0.766831,-1.63982 0.02776,-0.43268 0.0011,-0.63047 -0.156882,-1.165633 -0.104714,-0.354493 -0.171927,-0.692522 -0.149417,-0.751176 0.0225,-0.05867 0.116752,-0.106649 0.209428,-0.106649 0.183723,0 0.516169,0.399081 0.799202,0.959388 0.304397,0.60261 0.231938,1.53128 -0.187486,2.40312 -0.249969,0.51957 -0.906198,1.17468 -1.430295,1.42785 -0.409783,0.19793 -0.425038,0.19975 -1.791001,0.21358 l -1.377685,0.0139 -0.929948,0.31709 c -0.511469,0.1744 -1.208922,0.36267 -1.549895,0.41837 -0.618402,0.10104 -0.711657,0.1056 -1.102159,0.0538 z M 78.399895,92.42291 c -0.0472,-0.04721 -0.06771,-0.197538 -0.0492,-0.362505 0.01735,-0.154989 0.07969,-0.715767 0.138641,-1.246182 0.05898,-0.530405 0.165945,-1.32086 0.237731,-1.756549 0.07181,-0.435699 0.179843,-1.179653 0.240117,-1.653232 0.06024,-0.473579 0.198799,-1.310522 0.307834,-1.859882 0.493545,-2.486583 0.524234,-3.414628 0.149681,-4.526869 -0.208524,-0.61919 -0.195593,-0.812743 0.04468,-0.668425 0.154212,0.09262 0.412675,0.610801 0.535987,1.074519 0.191198,0.719005 0.192165,1.511574 0.0032,2.846416 -0.528039,3.735054 -0.832257,5.57263 -1.236163,7.466684 -0.153055,0.717702 -0.219206,0.839479 -0.37265,0.686025 z m 15.137156,-5.947648 c -0.311356,-0.100194 -0.748359,-0.419895 -1.29037,-0.94417 -0.717545,-0.694068 -0.818705,-2.115478 -0.228143,-3.205819 0.115039,-0.212415 0.196297,-0.399071 0.180559,-0.41482 -0.04637,-0.04636 -1.215536,0.521573 -1.464095,0.711163 -0.125468,0.09567 -0.351476,0.355649 -0.50226,0.577683 -0.427341,0.629305 -0.655641,0.763299 -1.478446,0.86775 -0.252723,0.03207 -0.387685,0.09452 -0.527062,0.243692 -0.315341,0.337567 -0.510786,0.237762 -0.393372,-0.200891 0.04826,-0.180117 0.12572,-0.257706 0.361737,-0.362105 0.165219,-0.07307 0.450439,-0.152529 0.633836,-0.176542 0.49796,-0.06518 0.669246,-0.182325 0.975272,-0.66688 0.325854,-0.515959 0.652813,-0.812534 1.28013,-1.161213 0.841172,-0.467544 1.15911,-0.556425 2.114795,-0.591225 0.979235,-0.03564 1.782853,0.05057 2.765999,0.296775 1.07005,0.267956 1.449511,0.416543 2.878271,1.126991 1.787178,0.888682 2.984938,1.79978 3.612288,2.747779 0.26404,0.398986 0.23741,0.765759 -0.056,0.771152 -0.0315,6.63e-4 -0.40387,-0.332173 -0.82733,-0.739454 -1.10828,-1.065939 -1.659598,-1.46706 -2.921128,-2.125277 l -1.11937,-0.584054 -0.001,0.605544 c -0.002,1.070818 -0.310122,1.934836 -0.94071,2.63621 -0.459954,0.511583 -0.839259,0.646344 -1.882542,0.668843 -0.607562,0.01304 -0.95231,-0.01083 -1.171032,-0.08116 z m 1.897692,-0.663197 c 0.681409,-0.17158 1.265895,-0.992146 1.417195,-1.989611 0.06918,-0.45578 0.06245,-0.573142 -0.05625,-0.996267 l -0.134623,-0.479604 -0.408185,-0.12429 c -0.543546,-0.165513 -1.776661,-0.375741 -2.543597,-0.433649 -0.568716,-0.0429 -0.635371,-0.03459 -0.806373,0.100614 -0.102506,0.08106 -0.287501,0.35279 -0.411076,0.603789 -0.203583,0.413547 -0.224673,0.515065 -0.224852,1.082309 0,0.544776 0.02366,0.671726 0.183933,0.978877 0.25859,0.495637 0.89354,1.050979 1.413988,1.236731 0.317391,0.113283 1.158858,0.124595 1.569861,0.02113 z m -1.551126,-1.548119 c -0.461909,-0.417311 -0.446717,-1.044955 0.03554,-1.468385 0.725229,-0.636759 1.705999,0.251335 1.31391,1.189746 -0.141154,0.337809 -0.418478,0.525989 -0.775179,0.525989 -0.248107,0 -0.348217,-0.0431 -0.574277,-0.24735 z m -17.9262,-1.024033 c -0.178225,-0.09641 -0.374238,-0.175207 -0.435584,-0.175207 -0.06939,0 -0.102506,-0.04552 -0.08768,-0.120537 0.01987,-0.100509 0.100929,-0.120547 0.487257,-0.120547 0.330985,0 0.463381,-0.02523 0.463371,-0.08831 -1.1e-5,-0.22176 -0.233494,-0.600245 -0.634877,-1.029216 -0.240222,-0.256749 -0.610906,-0.683796 -0.82373,-0.948998 -0.437182,-0.544766 -0.883542,-0.98445 -1.4263,-1.404946 -0.393659,-0.304986 -1.188956,-0.788511 -1.477161,-0.898092 l -0.173196,-0.06592 0.139927,0.316319 c 0.183909,0.415745 0.255328,1.814877 0.124184,2.432838 -0.170461,0.80325 -0.741783,1.534398 -1.48196,1.896545 -0.314475,0.153854 -0.462183,0.180107 -1.048014,0.186257 -0.626202,0.0063 -0.719194,-0.01051 -1.137527,-0.206022 -0.250558,-0.117257 -0.599178,-0.345557 -0.774694,-0.507348 -0.640353,-0.590258 -1.274921,-1.86899 -1.274921,-2.569103 0,-0.388967 0.168571,-1.016148 0.415972,-1.547646 0.11219,-0.241042 0.203988,-0.452216 0.203988,-0.469269 0,-0.01703 -0.159867,0.05604 -0.355245,0.162349 -0.39698,0.216063 -1.040099,0.891648 -1.594411,1.674912 -0.358868,0.507085 -0.563176,0.65195 -0.671737,0.476291 -0.09274,-0.150059 0.182222,-0.739706 0.598135,-1.282717 1.16086,-1.515621 2.438162,-2.042483 4.330894,-1.786459 2.226279,0.301148 3.985798,1.161938 5.455171,2.66876 1.814362,1.86059 2.062386,2.198472 2.135307,2.908772 0.03017,0.294062 0.01335,0.377434 -0.09609,0.476197 -0.229761,0.207263 -0.504195,0.21396 -0.861043,0.02103 z m -5.442296,-0.788847 c 0.424574,-0.218396 0.752311,-0.647629 0.922162,-1.207766 0.293114,-0.96664 0.0697,-2.415816 -0.469924,-3.048244 -0.267667,-0.313711 -1.93684,-0.634288 -2.813628,-0.540392 l -0.444318,0.04752 -0.202722,0.356385 c -0.333918,0.587009 -0.443083,1.079208 -0.406737,1.833928 0.02706,0.561524 0.06462,0.72872 0.252296,1.121924 0.284344,0.595798 0.777831,1.100823 1.331673,1.36284 0.372361,0.176153 0.514112,0.205107 1.004581,0.205149 0.426784,4.2e-5 0.635603,-0.03312 0.826617,-0.131397 z m -1.7541,-1.691165 c -0.250466,-0.108951 -0.414817,-0.328788 -0.476552,-0.637442 -0.141983,-0.709932 0.709372,-1.419791 1.321199,-1.101601 0.372773,0.193858 0.530995,0.428918 0.565032,0.839374 0.03874,0.466924 -0.08274,0.681609 -0.490309,0.866667 -0.338973,0.153897 -0.618362,0.163926 -0.91937,0.03301 z m 31.044521,0.814384 c -0.35993,-0.248381 -1.16587,-0.698799 -1.791,-1.000945 -0.907474,-0.438622 -1.330999,-0.599194 -2.100984,-0.796616 -0.896736,-0.229909 -1.039288,-0.247551 -2.032096,-0.251493 -1.251208,-0.0042 -1.854271,0.100404 -2.94232,0.514161 -0.394455,0.150006 -0.746257,0.254773 -0.781761,0.232821 -0.231465,-0.143036 0.15336,-0.498559 0.934258,-0.863093 0.854346,-0.398828 1.46357,-0.51168 2.755381,-0.510387 1.047467,6.73e-4 1.154557,0.0143 2.158037,0.265896 1.251495,0.313827 2.685115,0.887106 3.279935,1.311566 0.59583,0.425165 1.509168,1.310126 1.471138,1.425427 -0.065,0.19719 -0.3155,0.110927 -0.950588,-0.327337 z m 5.541158,-0.755887 c -0.2251,-0.136759 -0.74719,-0.452573 -1.1602,-0.701795 -0.88184,-0.532129 -3.15657,-1.582782 -4.13987,-1.912116 -0.378858,-0.126898 -1.122818,-0.315951 -1.653228,-0.420129 -0.88432,-0.173693 -1.10162,-0.189684 -2.617613,-0.192691 -1.778784,-0.0032 -1.947515,0.01588 -3.609757,0.414494 -1.068463,0.256245 -2.135485,0.409058 -3.360683,0.481254 -0.762626,0.045 -0.772687,0.04363 -0.947159,-0.130903 -0.09704,-0.09704 -0.176331,-0.229173 -0.176331,-0.293757 0,-0.154517 0.56983,-0.673756 0.886779,-0.808044 0.812418,-0.344232 1.592633,-0.645086 2.350791,-0.906482 0.47359,-0.163285 1.127422,-0.391101 1.452961,-0.506255 0.753059,-0.26638 2.480716,-0.611632 3.511446,-0.701711 0.618245,-0.05404 1.066098,-0.04605 1.997656,0.03553 2.389778,0.209397 3.293888,0.570388 6.126008,2.44598 1.2194,0.80756 2.19077,1.567895 2.39247,1.872659 0.13013,0.196644 0.19127,0.393183 0.21217,0.682019 0.0282,0.388883 0.0192,0.415881 -0.21305,0.648177 -0.31392,0.313921 -0.52751,0.312649 -1.05239,-0.0063 z m 0.45145,-0.732946 c -6.6e-4,-0.247056 -0.79603,-0.868918 -2.78449,-2.177971 -2.69364,-1.773285 -3.645598,-2.089005 -6.342365,-2.10344 -1.150152,-0.0063 -1.317285,0.0095 -2.30839,0.21827 -0.589269,0.124038 -1.711866,0.439411 -2.503025,0.703162 -1.399101,0.46642 -3.101148,1.101696 -3.060513,1.142331 0.01819,0.01819 1.079828,-0.152162 4.290115,-0.688328 1.462834,-0.244312 2.507221,-0.283411 3.926234,-0.146999 2.296886,0.220804 2.984564,0.380314 4.797064,1.112693 1.35246,0.546479 2.03772,0.886559 3.09022,1.53361 0.43569,0.267862 0.81542,0.488309 0.84383,0.489907 0.0284,0.0011 0.0515,-0.03585 0.0513,-0.08327 z M 65.154085,76.965401 c -0.146792,-0.176879 0.121266,-0.634814 0.724582,-1.237877 0.906978,-0.906576 1.697738,-1.230002 2.997702,-1.226081 0.731919,0.0021 1.795435,0.189821 2.362915,0.416838 0.202961,0.08116 0.257238,0.137685 0.241066,0.250852 -0.02295,0.160561 -0.0026,0.159468 -0.810795,0.04437 -0.694305,-0.09893 -2.108582,-0.09651 -2.523686,0.0042 -0.698378,0.169708 -1.180349,0.460364 -2.177109,1.312932 -0.597969,0.51147 -0.703938,0.567991 -0.814675,0.434564 z m 10.67962,-0.952226 c -1.503637,-0.527724 -3.746722,-1.610285 -5.571996,-2.689177 -1.316322,-0.77806 -1.929456,-0.9992 -3.020463,-1.089385 -0.673899,-0.05572 -1.061034,-0.04742 -1.930425,0.04163 -1.576068,0.16136 -1.886383,0.15194 -2.144245,-0.06497 -0.258187,-0.21725 -0.33088,-0.540466 -0.194815,-0.866141 0.172519,-0.412896 1.321756,-1.319903 2.017203,-1.592034 1.10225,-0.431309 3.173284,-0.284112 4.460379,0.317023 0.505694,0.236185 1.629895,1.028691 2.807942,1.979434 0.362987,0.292958 0.936452,0.70927 1.274359,0.925133 1.793346,1.145653 2.852304,1.961834 3.171819,2.444655 0.180453,0.272688 0.234408,0.57966 0.120463,0.685488 -0.154358,0.143352 -0.380261,0.122451 -0.990221,-0.09157 z m -0.309979,-0.909341 c -0.27826,-0.23156 -1.456158,-1.032886 -2.135419,-1.45271 -0.303092,-0.187339 -1.275426,-0.923576 -2.160732,-1.636085 -2.105862,-1.694823 -2.543924,-1.900624 -4.04564,-1.900624 -1.227404,0 -2.418553,0.400973 -3.17915,1.070187 -0.611416,0.537953 -0.510225,0.611368 0.642574,0.466261 1.01235,-0.127412 2.935259,-0.084 3.608728,0.08159 0.573769,0.141017 1.47686,0.57187 2.516607,1.200638 1.241095,0.750525 4.577919,2.349781 4.8908,2.34402 0.03785,-6.62e-4 -0.02408,-0.07864 -0.137768,-0.17323 z M 148.16079,114.5031 c -0.3542,-1.13991 -1.12822,-2.83552 -1.72761,-3.78458 -0.42785,-0.67744 -1.09318,-1.22186 -2.64492,-2.16428 -0.78832,-0.47877 -2.30755,-1.654 -2.30755,-1.78505 0,-0.404 0.4503,-0.37317 1.4706,0.10072 0.45524,0.21144 1.13979,0.50844 1.52122,0.66 0.38142,0.15158 0.85227,0.36607 1.04631,0.47664 0.19404,0.11057 0.37083,0.20105 0.39285,0.20105 0.0774,0 0.31231,-0.61808 0.43707,-1.15006 0.18271,-0.77911 0.18088,-3.27628 -0.003,-4.25739 -0.23736,-1.26554 -0.49591,-1.98408 -1.23841,-3.441431 -0.38682,-0.759262 -0.86713,-1.752448 -1.06735,-2.207093 -0.2002,-0.454634 -0.62136,-1.291579 -0.9359,-1.859875 -0.31455,-0.568305 -0.76055,-1.405251 -0.99111,-1.859895 -0.58488,-1.153307 -0.51274,-1.083581 -1.04607,-1.011007 -0.72961,0.09925 -1.84586,-0.0095 -2.94357,-0.28583 l -0.98096,-0.247287 -0.7756,0.621472 c -0.42658,0.341804 -1.34907,1.013215 -2.04997,1.492009 -3.02597,2.067137 -4.19365,3.062741 -5.44712,4.644388 -1.17352,1.480769 -1.6082,2.504399 -1.69417,3.989639 l -0.0423,0.73059 0.95696,0.82082 c 1.07239,0.91982 1.5093,1.24367 2.62144,1.94301 1.92843,1.21262 3.90498,2.27917 6.03165,3.25467 2.16804,0.99449 3.60589,1.72192 5.56414,2.81498 0.89033,0.49696 2.14593,1.16477 2.7902,1.48401 1.33341,0.66072 3.22787,1.54419 3.2561,1.51846 0.0105,-0.009 -0.0764,-0.32387 -0.19284,-0.69866 z m -20.8841,-21.478021 c 0.27746,-0.14436 0.44795,-0.357847 0.8029,-1.005371 0.64656,-1.179485 1.08284,-1.443374 2.51735,-1.522582 1.27095,-0.07023 1.43382,-0.14496 1.90232,-0.873154 0.12867,-0.199998 0.36229,-0.50287 0.51914,-0.67303 0.15685,-0.170161 0.2729,-0.320588 0.25789,-0.334266 -0.11846,-0.107941 -1.04474,-0.515717 -1.58651,-0.69842 -0.77442,-0.261165 -0.76099,-0.265034 -1.35869,0.391133 -0.36361,0.399165 -0.96686,0.75861 -1.83513,1.093443 -0.52357,0.201911 -1.19469,0.671022 -1.50934,1.055016 -0.13391,0.163421 -0.32956,0.480938 -0.43479,0.705611 -0.16301,0.348112 -0.19129,0.496783 -0.19129,1.005687 0,0.537228 0.0168,0.615038 0.167,0.774948 0.18928,0.20148 0.46108,0.230865 0.74915,0.08095 z M 140.92963,90.4671 c 1.75092,-0.406682 2.69962,-0.940861 4.03141,-2.269943 0.7529,-0.751345 2.68421,-2.807313 3.07414,-3.272555 0.70054,-0.835821 1.53179,-2.388145 2.21323,-4.133076 0.74316,-1.903012 1.70271,-5.13461 2.11886,-7.135965 0.078,-0.375341 0.20319,-1.317895 0.2781,-2.094567 0.33146,-3.43678 0.43061,-5.054953 0.38794,-6.331492 -0.0409,-1.22538 -0.0886,-1.439499 -0.78104,-3.506554 -0.36672,-1.094793 -0.54595,-1.509956 -1.01062,-2.340991 -0.49759,-0.889882 -0.64689,-1.093487 -1.2537,-1.709619 -1.09396,-1.110762 -1.82457,-1.493817 -3.02163,-1.584228 -0.6611,-0.04995 -0.93983,0.01313 -1.78306,0.403593 -0.6886,0.31884 -0.67487,0.286732 -0.46409,1.085718 0.18542,0.702824 0.35504,2.500387 0.35426,3.754213 -6.6e-4,1.131015 -0.1423,2.528196 -0.35951,3.547557 -0.24378,1.14397 -0.65002,3.708314 -0.596,3.762319 0.008,0.0089 0.20182,-0.0479 0.4288,-0.126201 1.2352,-0.426055 3.38172,-0.09261 4.61476,0.716867 0.71969,0.472465 1.13167,0.994859 1.70084,2.156608 0.4918,1.003857 0.55499,1.291569 0.29188,1.329186 -0.11138,0.01587 -0.22689,-0.106375 -0.52849,-0.559579 -0.21228,-0.318969 -0.62151,-0.860707 -0.90941,-1.203856 -0.81355,-0.969636 -1.4105,-1.344048 -2.60391,-1.633175 -0.75002,-0.181706 -1.11966,-0.214032 -1.18774,-0.103873 -0.0901,0.145706 0.12086,0.334125 0.76927,0.687184 1.33631,0.727648 1.70168,0.981474 2.32964,1.618506 0.7968,0.808276 1.40249,1.662001 1.88339,2.654599 0.29352,0.605859 0.39012,0.884382 0.41209,1.188253 0.026,0.358183 0.0156,0.396915 -0.10642,0.396915 -0.0997,0 -0.1577,-0.07696 -0.2209,-0.292758 -0.16398,-0.5598 -1.07964,-1.972516 -2.05646,-3.172744 -0.50196,-0.616783 -1.35077,-1.290613 -2.10001,-1.6671 -0.69205,-0.347754 -0.95625,-0.412916 -1.40278,-0.345946 -0.46821,0.07023 -0.64531,0.276694 -0.64531,0.752344 0,0.521594 0.0825,0.692701 0.43297,0.898092 0.2248,0.131734 0.39884,0.177236 0.67799,0.177236 0.50937,0 1.08657,0.160078 1.67253,0.463834 0.36228,0.187802 0.66656,0.432797 1.17738,0.947957 1.15906,1.168908 1.5645,2.07846 1.03419,2.320091 -0.23856,0.108699 -0.40589,-0.02092 -1.03196,-0.799318 -0.61051,-0.759051 -1.15954,-1.222821 -1.68018,-1.419266 -0.74904,-0.282633 -1.56497,-0.239843 -1.90471,0.09988 -0.0879,0.08789 -0.19433,0.323773 -0.24184,0.536051 -0.0843,0.37654 -0.0833,0.381439 0.15488,0.750903 0.2887,0.447916 0.36892,0.518251 0.96499,0.84584 0.86871,0.477459 2.04105,1.536029 2.59863,2.346438 0.76487,1.111684 1.13865,2.85937 0.70442,3.293607 -0.23131,0.231328 -0.38985,0.09694 -0.39862,-0.33785 -0.0184,-0.90973 -0.716,-2.211308 -1.77833,-3.317841 -1.03812,-1.081331 -1.62168,-1.449786 -2.68777,-1.697031 -0.5533,-0.128317 -0.83556,-0.0757 -1.26582,0.235985 -0.58185,0.421485 -0.64535,0.93347 -0.29677,2.392466 0.27851,1.165723 0.39382,2.519826 0.28839,3.386841 -0.20571,1.691985 -0.97754,3.123867 -2.5146,4.665117 -0.98298,0.985659 -1.41832,1.272824 -1.75229,1.155872 -0.27985,-0.09799 -0.27766,-0.342634 0.004,-0.460437 0.40452,-0.169089 1.36152,-1.203306 2.00489,-2.166634 1.09952,-1.646336 1.57016,-3.13846 1.41824,-4.496348 -0.22102,-1.975554 -0.73348,-2.751312 -1.81851,-2.752815 -0.35287,-6.62e-4 -1.18866,0.230098 -1.6125,0.444867 -0.66659,0.337798 -0.95448,0.921043 -1.24155,2.515274 -0.19944,1.107636 -0.32666,1.545574 -0.62899,2.16549 -0.33791,0.692849 -0.74252,1.23527 -1.23418,1.654505 -0.66313,0.565488 -1.49163,0.959491 -1.68323,0.800475 -0.13339,-0.110707 -0.0644,-0.290183 0.17734,-0.461163 0.42169,-0.298309 1.26417,-1.412148 1.66214,-2.197526 0.37594,-0.741882 0.54323,-1.768575 0.38731,-2.376958 -0.0503,-0.196308 -0.13159,-0.372314 -0.18062,-0.391122 -0.22924,-0.088 -0.5155,0.417963 -0.63243,1.117792 -0.20423,1.222117 -0.66669,2.328323 -1.26702,3.030633 -0.37054,0.433502 -1.03067,0.861348 -1.32897,0.861348 -0.22606,0 -0.44097,-0.192386 -0.44097,-0.39476 0,-0.04868 0.17823,-0.301558 0.39608,-0.561892 0.51853,-0.619654 1.04729,-1.50493 1.16804,-1.955569 0.11629,-0.433985 0.0767,-0.84176 -0.15646,-1.614732 -0.2058,-0.682019 -0.81087,-1.628904 -1.36378,-2.134244 -0.54734,-0.500231 -1.3921,-0.899312 -2.07598,-0.980749 -0.50643,-0.06024 -0.57899,-0.05288 -0.89549,0.09199 -1.25035,0.57208 -2.79496,2.336304 -3.31898,3.790853 -0.17066,0.473726 -0.23263,1.445149 -0.12976,2.03403 0.16992,0.972664 0.56475,1.551998 1.32701,1.94721 0.52939,0.274475 1.8996,0.740127 2.77612,0.943433 0.99824,0.231549 2.5699,0.807256 3.56599,1.306257 1.01086,0.506392 1.5545,0.852516 2.41312,1.536386 0.78234,0.623112 1.59462,0.965693 2.81016,1.185204 0.72098,0.130188 1.34081,0.131723 1.88785,0.0042 z m -13.01918,-5.948276 c -0.10377,-0.0287 -0.18074,-0.106439 -0.19368,-0.195614 -0.0186,-0.12839 0.0411,-0.166607 0.45085,-0.288637 0.78159,-0.232778 1.06085,-0.645243 1.10698,-1.635075 0.0254,-0.546816 0.002,-0.730182 -0.17871,-1.377696 -0.27732,-0.995247 -0.309,-1.212508 -0.22325,-1.530982 0.13448,-0.499368 0.43844,-0.431451 0.50563,0.112968 0.0222,0.179675 0.17153,0.667657 0.33191,1.084411 0.258,0.670392 0.29502,0.838723 0.32134,1.460552 0.0245,0.580554 0.004,0.787512 -0.1181,1.189526 -0.29367,0.966871 -1.08629,1.434026 -2.00297,1.180547 z m -0.86107,-0.724105 c -0.27774,-0.122597 -0.41911,-0.296543 -0.50939,-0.626687 -0.17955,-0.656608 -0.009,-1.839794 0.37817,-2.635768 0.0972,-0.19942 0.3533,-0.548152 0.56912,-0.774959 0.32111,-0.33744 0.43272,-0.412359 0.61443,-0.412359 0.27733,0 0.49758,0.209334 0.49758,0.472906 0,0.108552 -0.062,0.276179 -0.13777,0.372514 -0.16995,0.216051 -0.17001,0.248138 -0.001,0.881354 0.26945,1.013278 0.1276,1.906933 -0.38675,2.436549 -0.3725,0.383552 -0.63647,0.45741 -1.02377,0.28645 z m -0.9538,-4.019604 c 0.8137,-1.230286 2.02149,-2.379934 3.01646,-2.871281 1.21412,-0.599541 2.4279,-0.683596 4.20584,-0.291212 2.21741,0.489359 4.13989,0.59215 4.98134,0.266337 0.80427,-0.31143 1.4097,-0.933659 2.23722,-2.299316 0.75101,-1.23937 1.86577,-3.616108 2.0777,-4.429798 0.12444,-0.47773 0.2767,-1.517416 0.41844,-2.857156 0.0824,-0.779219 0.17786,-1.278517 0.35546,-1.859889 0.21421,-0.701144 0.2506,-0.932577 0.30912,-1.96575 0.0365,-0.644068 0.0542,-2.147476 0.0396,-3.340901 -0.0242,-1.961199 -0.045,-2.282467 -0.21648,-3.340901 -0.2137,-1.318956 -0.54252,-2.827838 -0.93821,-4.305281 -1.18628,-4.429314 -1.26715,-4.690619 -1.8789,-6.070791 -0.24513,-0.552999 -1.82278,-3.243855 -2.49876,-4.261897 -1.79336,-2.700819 -4.55737,-5.884394 -6.78081,-7.810096 -0.8492,-0.735474 -3.40586,-2.740072 -3.98935,-3.12791 -1.72523,-1.14675 -7.68699,-3.495402 -10.95167,-4.314436 -2.7785,-0.697065 -7.59441,-1.525539 -9.8269,-1.690501 -2.53048,-0.18698 -7.024678,2.6e-5 -9.157738,0.381051 -0.762082,0.136132 -1.77373,0.285014 -2.307636,0.339611 -1.247107,0.127527 -3.956334,0.634461 -5.33855,0.998921 -0.717807,0.189269 -2.082792,0.451157 -3.926423,0.753333 -0.454634,0.07452 -1.074603,0.211897 -1.377685,0.305294 -1.967323,0.606188 -2.836093,0.88768 -3.216985,1.042333 -1.166007,0.473427 -5.705008,3.07979 -7.666726,4.402335 -1.574539,1.061531 -3.006673,2.261616 -4.651892,3.898145 -1.345783,1.338679 -3.976265,4.663419 -5.477292,6.9229 -0.607211,0.914037 -1.702748,3.077952 -1.84836,3.650886 -0.403918,1.589329 -0.832739,4.905446 -1.046665,8.093929 -0.142898,2.129838 -0.10675,6.683454 0.06428,8.093944 0.183033,1.509743 0.666469,4.610839 0.728456,4.672819 0.106956,0.106963 0.341845,-0.09007 0.412522,-0.346032 0.06762,-0.244899 0.09588,-0.528328 0.314693,-3.155752 0.186271,-2.236661 0.245013,-3.766697 0.199684,-5.200789 -0.09624,-3.044623 0.255825,-5.919016 1.00403,-8.197258 0.582473,-1.773616 0.99684,-2.652507 1.899851,-4.029747 0.943078,-1.438351 2.430353,-3.179142 3.654221,-4.277127 1.074216,-0.963711 3.226203,-2.615657 3.662208,-2.811227 0.257424,-0.115467 0.292066,-0.157784 0.292066,-0.356725 0,-0.508945 0.344002,-0.557238 1.388248,-0.194887 1.231937,0.42748 2.413462,1.191209 4.001153,2.586328 0.632059,0.555386 3.096553,2.242763 3.978907,2.724244 1.236468,0.674722 2.631952,1.062248 3.823086,1.061671 0.708145,-3.85e-4 1.929127,-0.274572 3.535774,-0.794131 0.517946,-0.167496 1.263793,-0.402479 1.657427,-0.522185 0.393625,-0.119706 0.998097,-0.3255 1.343243,-0.45732 0.345157,-0.131827 1.123522,-0.3793 1.729708,-0.549947 0.606185,-0.170641 1.884224,-0.602288 2.840087,-0.959213 3.135658,-1.170863 4.572178,-1.520212 7.515698,-1.827754 1.02863,-0.107474 4.75428,-0.03994 5.93278,0.10752 1.20464,0.150746 2.78976,0.477619 3.7224,0.767616 1.03557,0.32199 1.95694,0.701482 3.62777,1.494174 3.42104,1.623042 3.41672,1.621483 5.35471,1.938101 0.99735,0.162945 1.3193,0.240381 1.37652,0.331092 0.0577,0.09149 0.0469,0.146083 -0.0476,0.240236 -0.1083,0.107865 -0.25827,0.120767 -1.30764,0.112483 -1.02175,-0.0081 -1.28031,-0.03343 -1.87388,-0.183962 -0.37871,-0.09603 -0.70091,-0.162263 -0.716,-0.147178 -0.0151,0.01505 0.14848,0.304902 0.36348,0.644055 0.9148,1.443028 1.02982,1.902484 1.03624,4.139497 0.004,1.485085 -0.0141,1.786896 -0.15284,2.514284 -0.21243,1.113462 -0.43673,1.990481 -0.84563,3.306459 -0.68907,2.217588 -1.17765,3.360709 -2.21778,5.188835 -0.28727,0.504897 -0.7269,1.326346 -0.97696,1.825446 -0.56658,1.130835 -0.68241,1.624242 -0.64157,2.732888 0.0253,0.686895 0.0632,0.892875 0.2853,1.549905 0.50337,1.489344 1.24205,2.57975 3.52106,5.197688 0.96623,1.109897 1.64495,1.951437 2.60257,3.226878 0.43415,0.578231 1.72151,3.060271 1.84817,3.563299 0.0427,0.169414 0.0975,0.308034 0.12188,0.308034 0.0244,0 0.20332,-0.240401 0.39765,-0.534221 z M 58.288029,75.271134 c 0.290394,-0.06539 1.025445,-0.495384 1.476827,-0.863912 0.240415,-0.196287 0.768206,-1.044408 0.81924,-1.316455 0.154414,-0.823089 -0.254054,-5.481866 -0.526544,-6.005544 -0.1735,-0.333447 -0.690013,-0.852666 -1.06936,-1.074985 -0.464922,-0.272455 -1.196323,-0.442208 -1.905376,-0.442208 -0.717444,0 -1.198373,0.14406 -1.711384,0.51262 -0.18765,0.134811 -0.38141,0.245111 -0.430573,0.245111 -0.153386,0 -0.254711,-0.156119 -0.254711,-0.392442 0,-0.345056 0.383871,-0.721616 1.102197,-1.081213 1.058216,-0.529741 1.990541,-0.575309 3.051111,-0.149115 0.583196,0.234365 0.702386,0.179119 0.64832,-0.300497 -0.02866,-0.254161 -0.08888,-0.360878 -0.334894,-0.593319 -0.271745,-0.256755 -0.514178,-0.377124 -1.125832,-0.55899 -0.143768,-0.04272 -0.213887,-0.112257 -0.230419,-0.228408 -0.03801,-0.267288 0.150282,-0.346894 0.820666,-0.346894 0.661813,0 0.734765,-0.03887 0.796499,-0.424383 0.06893,-0.430453 -0.490661,-0.996143 -1.406144,-1.421475 -0.361242,-0.167828 -0.46534,-0.182833 -1.254966,-0.180923 -0.994677,0.0026 -1.665306,0.155549 -2.407846,0.549835 -0.261133,0.138666 -0.470216,0.210788 -0.506337,0.174661 -0.114061,-0.114061 0.02627,-0.343053 0.360626,-0.588503 0.545622,-0.400522 1.186134,-0.659114 2.08216,-0.840627 0.74313,-0.150534 0.901385,-0.161738 1.408545,-0.09971 0.363246,0.04445 0.699016,0.134579 0.921838,0.247493 0.192765,0.09768 0.380314,0.159164 0.416788,0.13663 0.09784,-0.06043 0.08058,-0.356507 -0.03363,-0.577412 -0.09777,-0.189076 -0.648924,-0.488705 -0.898945,-0.488705 -0.361256,0 -0.499935,-0.351192 -0.2338,-0.592065 0.11424,-0.1034 0.254605,-0.132191 0.661806,-0.1358 0.414234,-0.004 0.53,-0.02812 0.583203,-0.123176 0.194649,-0.347823 -0.240847,-0.854678 -1.080014,-1.25699 -0.912404,-0.437418 -1.928674,-0.44317 -3.134252,-0.01778 -0.779496,0.27507 -1.0196,0.312776 -1.074853,0.168789 -0.135057,-0.351935 0.397205,-0.827472 1.205923,-1.077406 0.754235,-0.233098 1.274079,-0.281273 2.348049,-0.217608 1.209784,0.07171 1.404837,0.04358 1.434152,-0.206656 0.04816,-0.411142 -0.527639,-1.147698 -1.138311,-1.456103 -0.626973,-0.316631 -1.811044,-0.478071 -2.287702,-0.311901 -0.306587,0.10687 -0.423865,-0.0066 -0.278201,-0.269312 0.154043,-0.27773 0.510987,-0.427859 1.017583,-0.427985 0.597585,-1.39e-4 0.949375,0.09762 1.894125,0.526365 0.447231,0.202967 0.876184,0.369024 0.953223,0.369024 0.126545,0 0.135356,-0.02826 0.09118,-0.292755 -0.09481,-0.567648 -0.439322,-0.858526 -1.570495,-1.325988 -0.836674,-0.34576 -0.960567,-0.407866 -1.108287,-0.555587 -0.141479,-0.141486 -0.138873,-0.433537 0.0053,-0.592848 0.267454,-0.295542 1.422356,-0.05002 2.636604,0.560475 0.304034,0.152863 0.600743,0.277936 0.659352,0.277936 0.14467,0 0.209727,-0.199504 0.303271,-0.929937 0.134161,-1.047734 0.277849,-1.733502 0.590254,-2.817031 0.165002,-0.572277 0.320312,-1.09175 0.345143,-1.154372 0.03503,-0.08842 -0.05214,-0.161772 -0.390213,-0.328187 -1.928999,-0.94964 -5.360418,0.769526 -7.488324,3.751712 -0.546034,0.76524 -0.801813,1.309502 -1.203018,2.559918 -0.551938,1.720194 -0.772299,3.257428 -0.716422,4.997757 0.0398,1.239144 0.117842,1.534686 0.782249,2.961348 0.589704,1.266237 0.662782,1.67454 0.456239,2.549039 -0.08271,0.350225 -0.291881,1.083496 -0.46481,1.629497 -0.404083,1.275816 -0.47015,1.795415 -0.42898,3.374057 0.02946,1.130835 0.05513,1.35474 0.217946,1.901714 0.246558,0.828356 0.511498,1.382205 1.043588,2.181534 0.815935,1.225744 1.790771,1.935845 3.10231,2.259818 1.093427,0.270091 1.694561,0.301841 2.458342,0.129851 z m -1.142842,-2.634055 c -0.623012,-0.232968 -1.148249,-0.76373 -1.294968,-1.308601 -0.106094,-0.394013 -0.04863,-1.19208 0.109709,-1.524045 0.07229,-0.151549 0.334489,-0.479862 0.582653,-0.729584 0.769506,-0.774368 1.642837,-0.984859 2.430427,-0.58579 0.448862,0.22744 0.952757,0.680865 1.123431,1.01091 0.236223,0.456807 0.194755,1.453052 -0.0852,2.046885 -0.185747,0.394002 -0.700887,0.869579 -1.09112,1.007316 -0.466454,0.164641 -1.435318,0.209891 -1.774935,0.08295 z M 46.886657,257.80764 c -0.270665,-0.21045 -0.725517,-2.24727 -1.026791,-4.59804 -0.03642,-0.28415 -0.07678,-2.20603 -0.08969,-4.27085 -0.01493,-2.38976 -0.0538,-3.99205 -0.106838,-4.4086 -0.08252,-0.64777 -0.25802,-1.38267 -0.718597,-3.00908 -0.52074,-1.83886 -0.63289,-3.10002 -0.651273,-7.32361 -0.0256,-5.88812 -0.183861,-7.18743 -1.342233,-11.02153 -1.078475,-3.56964 -1.501837,-5.18402 -1.860672,-7.09512 -0.476704,-2.53889 -0.519995,-3.08854 -0.536069,-6.80657 -0.02295,-5.31036 -0.127873,-8.34838 -0.372713,-10.79343 -0.05692,-0.56831 -0.348831,-2.75367 -0.648712,-4.85636 -0.299886,-2.10271 -0.59296,-4.21057 -0.651278,-4.68416 -0.05831,-0.47358 -0.200877,-1.636 -0.316803,-2.58317 -0.115926,-0.94716 -0.33157,-2.49707 -0.479211,-3.44423 -0.455204,-2.92031 -1.148972,-8.16682 -1.31623,-9.95381 -0.106353,-1.1363 -0.10695,-4.17044 -0.0014,-5.51077 0.357395,-4.5248 0.973336,-8.14362 2.210066,-12.98474 1.489258,-5.82966 2.995175,-10.00062 4.320187,-11.96567 0.252934,-0.37512 0.485507,-0.69787 0.516832,-0.71723 0.112198,-0.0694 0.331259,0.0544 0.331259,0.18707 0,0.14301 -0.259461,0.80609 -0.496029,1.26764 -0.651372,1.27086 -1.853108,5.02748 -2.732463,8.54169 -1.602471,6.40407 -2.359645,10.86167 -2.702838,15.91212 -0.100372,1.47716 -0.04067,4.77973 0.107667,5.95698 0.200971,1.59475 0.868721,6.36114 1.139002,8.13012 0.419567,2.74611 0.463383,3.06408 0.754905,5.47817 0.150852,1.24924 0.494814,3.80575 0.764358,5.68115 0.654316,4.55253 0.660121,4.59756 0.78209,6.06183 0.218503,2.62315 0.266459,4.26824 0.258054,8.85167 -0.0089,4.83523 0.01307,5.34386 0.306302,7.09511 0.375067,2.2402 0.570459,3.00345 2.195479,8.57613 0.966502,3.31441 1.115597,4.61753 1.177842,10.29436 0.02076,1.89646 0.06594,3.87272 0.100319,4.39168 0.07123,1.07537 0.297744,2.27936 0.645401,3.4306 0.682205,2.25906 0.748848,2.82699 0.719415,6.13073 -0.05129,5.75614 -0.02421,8.18254 0.100571,9.0211 0.141691,0.95197 0.140882,0.86504 0.0093,0.99669 -0.130672,0.13066 -0.241775,0.13698 -0.389475,0.0222 z m 28.947048,-9.11544 c -0.820461,-0.14572 -1.039173,-0.19666 -1.360822,-0.31702 -0.464716,-0.17387 -1.590502,-1.0087 -2.070683,-1.53551 -0.740118,-0.81201 -1.253095,-2.22036 -1.252161,-3.43773 6.64e-4,-0.76816 0.19457,-1.6291 0.493356,-2.18967 0.427474,-0.80202 1.706993,-1.97286 2.625927,-2.40289 0.725902,-0.33969 1.40094,-0.44784 2.184352,-0.35 0.765065,0.0956 1.828239,0.4411 2.380123,0.77358 0.526314,0.31707 1.182113,1.02724 1.490042,1.61358 0.40623,0.77354 0.567244,1.49465 0.56102,2.51257 -0.01178,1.91729 -0.388673,3.00627 -1.423597,4.11261 -0.540277,0.57756 -0.876046,0.80311 -1.514749,1.01751 -0.509662,0.17108 -1.666543,0.28223 -2.112808,0.20297 z m 0.914682,-2.17252 c 0.968448,-0.48534 1.714589,-1.15927 2.025136,-1.82916 0.09084,-0.19594 0.213297,-0.58341 0.272141,-0.86105 0.140471,-0.66275 0.0451,-1.24218 -0.326527,-1.98472 -0.427278,-0.8537 -0.862178,-1.14631 -2.251607,-1.51496 -0.918551,-0.24373 -1.168425,-0.24453 -1.70888,-0.005 -0.382827,0.16934 -1.079449,0.87454 -1.306477,1.32256 -0.220345,0.43483 -0.402787,1.47249 -0.341683,1.9434 0.106332,0.81948 0.654858,1.79394 1.361868,2.41934 0.437907,0.38736 0.667584,0.51611 1.120252,0.62799 0.529258,0.13078 0.692732,0.11411 1.155777,-0.11795 z m 84.913693,0.34916 c -0.0556,-0.10387 -0.0534,-0.20824 0.008,-0.39552 0.0631,-0.19123 0.0729,-0.83863 0.039,-2.60818 -0.0502,-2.62557 -0.12906,-3.42326 -0.49989,-5.05242 -0.46206,-2.02997 -0.64248,-2.86119 -0.75506,-3.47867 -0.15692,-0.86075 -0.20064,-3.03848 -0.10857,-5.40744 0.0419,-1.07977 0.096,-4.30356 0.12007,-7.16399 0.0371,-4.4076 0.0263,-5.49495 -0.0709,-7.12956 -0.2314,-3.89319 -0.60612,-6.08164 -1.62176,-9.47163 -0.90372,-3.01633 -0.972,-3.52322 -1.34546,-9.98825 -0.16535,-2.86218 -0.24853,-3.58785 -0.68313,-5.95985 -0.13177,-0.71911 -0.3353,-1.96859 -0.4523,-2.77662 -0.24527,-1.6938 -0.31319,-2.01447 -0.7248,-3.42166 -0.42501,-1.453 -1.03417,-3.7978 -1.20166,-4.62549 -0.0778,-0.38449 -0.20391,-1.23694 -0.28023,-1.89434 -0.0763,-0.65738 -0.18287,-1.52072 -0.23675,-1.91853 -0.16299,-1.20301 -0.19242,-1.82287 -0.10103,-2.12788 0.11764,-0.39264 0.34979,-0.58993 0.69417,-0.58993 0.32898,0 0.56243,0.2207 0.67167,0.63502 0.14791,0.56089 0.63207,2.91433 0.73318,3.5638 0.15078,0.96866 0.33025,1.76446 0.60967,2.70336 0.13253,0.44536 0.33671,1.16623 0.45373,1.60194 0.11702,0.43569 0.39682,1.38113 0.62178,2.10098 0.46702,1.49441 0.61227,2.1662 0.8584,3.97004 0.0963,0.70596 0.2981,1.89013 0.44841,2.63149 0.50198,2.47598 0.57586,3.49782 0.60986,8.43481 0.0231,3.35944 0.159,4.26847 1.11412,7.45446 0.6662,2.22224 1.12298,4.25937 1.33775,5.96606 0.15947,1.26721 0.31419,4.0018 0.31419,5.55306 0,1.60228 -0.11812,7.14422 -0.16794,7.87935 -0.0183,0.2693 -0.0545,2.25318 -0.0804,4.40861 -0.0538,4.46454 -0.0445,4.61212 0.42808,6.68832 0.47219,2.07486 0.70561,3.30102 0.75136,3.94689 0.0228,0.32203 0.0523,0.6906 0.0655,0.81904 0.0343,0.33205 -0.0576,1.17293 -0.33819,3.09285 -0.28867,1.97559 -0.34808,2.2358 -0.57098,2.5007 -0.20592,0.24471 -0.52523,0.27423 -0.64031,0.0592 z m -77.744968,-9.01485 c -0.562103,-0.15264 -0.894602,-0.31017 -1.561345,-0.73968 -1.289877,-0.83097 -2.024716,-1.99421 -2.152297,-3.40709 -0.116762,-1.29318 0.496646,-2.91037 1.485427,-3.91618 0.794903,-0.80858 2.470361,-1.53374 3.268407,-1.41462 2.115846,0.31587 2.698408,0.55563 3.56579,1.46749 1.405251,1.47731 1.707366,3.51317 0.794282,5.35237 -0.584349,1.17704 -1.68368,2.25221 -2.657227,2.59881 -0.587535,0.20917 -2.072299,0.24106 -2.743037,0.0589 z m 2.235047,-2.14056 c 0.936635,-0.42509 1.871577,-1.95497 1.790707,-2.9302 -0.06792,-0.8191 -0.756003,-1.75532 -1.592875,-2.1673 -0.405378,-0.19958 -1.574318,-0.54692 -1.851464,-0.55017 -0.219184,-0.003 -0.876402,0.28167 -1.290181,0.55797 -1.046437,0.6988 -1.494752,2.40158 -0.931472,3.53792 0.112305,0.22658 0.381155,0.58952 0.597438,0.80655 0.43306,0.43457 0.782391,0.57811 1.879945,0.77251 0.760082,0.13464 1.053797,0.1289 1.397902,-0.0272 z m 11.139093,-10.78698 c -0.848425,-0.14934 -1.618484,-0.41078 -2.069775,-0.70271 -1.049055,-0.67862 -1.692132,-1.89056 -1.798728,-3.38989 -0.04794,-0.67486 0.113083,-1.44238 0.459312,-2.18889 0.24897,-0.53681 1.055784,-1.62388 1.651456,-2.22509 1.265559,-1.27736 3.081015,-1.59262 4.677313,-0.81224 1.0168,0.49708 2.09541,1.71592 2.34303,2.64765 0.14463,0.54413 0.20864,1.5355 0.13883,2.14985 -0.0748,0.65806 -0.38749,1.67281 -0.66283,2.15084 -0.72351,1.25614 -2.01013,2.20372 -3.269738,2.40811 -0.54908,0.0892 -0.7829,0.0832 -1.46887,-0.0376 z m 1.85989,-2.34098 c 0.50171,-0.24427 1.061668,-0.78172 1.295758,-1.24369 0.31282,-0.61731 0.40999,-1.0821 0.37823,-1.80896 -0.0336,-0.77051 -0.15132,-1.05504 -0.61782,-1.49424 -0.993998,-0.93582 -1.726078,-1.22328 -2.605788,-1.0232 -0.577143,0.13128 -0.985854,0.42214 -1.417947,1.00909 -0.333918,0.45361 -0.884571,1.55628 -1.008441,2.01941 -0.157534,0.58901 0.250294,1.66297 0.82291,2.16699 0.459838,0.40476 1.273268,0.62575 2.188718,0.59459 0.44416,-0.0151 0.63125,-0.0578 0.96438,-0.21999 z m 0.35669,-16.42861 c -1.66523,-0.1813 -2.864545,-0.86105 -3.548152,-2.01101 -0.636401,-1.07055 -0.938306,-2.06547 -0.935162,-3.08187 0.0021,-0.62583 0.03112,-0.80753 0.21642,-1.34848 0.441313,-1.28803 1.071385,-2.16961 1.822783,-2.55038 0.358531,-0.18167 1.068801,-0.36936 1.403911,-0.37097 0.11661,-6.6e-4 0.41108,-0.0839 0.65441,-0.18515 0.84285,-0.3508 2.158158,-0.20102 3.417638,0.3892 1.48201,0.69449 2.52606,2.45757 2.40763,4.06578 -0.0422,0.5725 -0.29962,1.53554 -0.58007,2.16986 -0.65261,1.47596 -1.59646,2.35544 -2.97735,2.77428 -0.5713,0.17327 -1.20024,0.22298 -1.882058,0.14874 z m 1.606508,-2.2075 c 0.57738,-0.271 1.05938,-0.7466 1.34145,-1.32366 0.86507,-1.76966 0.47093,-3.17083 -1.10535,-3.92956 -0.8772,-0.42223 -1.26972,-0.49954 -2.072738,-0.40828 -1.25162,0.14226 -1.75007,0.451 -2.19634,1.3604 -0.349688,0.71258 -0.422841,1.166 -0.281319,1.74379 0.266926,1.08978 0.948929,2.11715 1.612459,2.42905 0.81449,0.38286 2.035868,0.44083 2.701838,0.12826 z"
       style="fill:#ffffff;stroke-width:0.0688846" />
  </g>
</svg>
