<?xml version="1.0" encoding="UTF-8" standalone="no"?>
<svg
   xmlns:dc="http://purl.org/dc/elements/1.1/"
   xmlns:cc="http://creativecommons.org/ns#"
   xmlns:rdf="http://www.w3.org/1999/02/22-rdf-syntax-ns#"
   xmlns:svg="http://www.w3.org/2000/svg"
   xmlns="http://www.w3.org/2000/svg"
   id="svg8"
   version="1.1"
   viewBox="0 0 210 297"
   height="297mm"
   width="210mm">
  <defs
     id="defs2" />
  <metadata
     id="metadata5">
    <rdf:RDF>
      <cc:Work
         rdf:about="">
        <dc:format>image/svg+xml</dc:format>
        <dc:type
           rdf:resource="http://purl.org/dc/dcmitype/StillImage" />
        <dc:title></dc:title>
      </cc:Work>
    </rdf:RDF>
  </metadata>
  <g
     id="layer1">
    <path
       id="path176"
       d="m 104.74202,263.89149 c -0.97504,-0.10042 -2.36249,-0.33902 -4.60805,-0.79247 -1.40887,-0.28448 -2.628622,-0.51725 -2.710582,-0.51725 -0.08514,0 -0.181743,0.086 -0.225306,0.20064 -0.06507,0.17103 -0.126913,0.20052 -0.419337,0.19988 -0.87652,-0.002 -2.0705,-1.13857 -5.545709,-5.27932 -1.261922,-1.50361 -3.062487,-4.27617 -3.797279,-5.84718 -0.428105,-0.91529 -0.925225,-2.39685 -1.141279,-3.40129 -0.840179,-3.90616 -2.30159,-12.29245 -2.859558,-16.4096 -0.155535,-1.14764 -0.320693,-2.27399 -0.367016,-2.50301 -0.212438,-1.05033 -0.776111,-1.35891 -3.719955,-2.03656 -3.559071,-0.81927 -8.401315,-2.72709 -11.141752,-4.3898 -2.031099,-1.23232 -4.026718,-2.76737 -5.159511,-3.9687 -2.720858,-2.8855 -5.312158,-6.44034 -7.608451,-10.43749 -0.602728,-1.04918 -1.210923,-2.18678 -1.351546,-2.52802 -0.14062,-0.34124 -0.264654,-0.63307 -0.275633,-0.64852 -0.02557,-0.0359 -0.614124,0.15118 -0.689755,0.21929 -0.07143,0.0643 0.129248,1.42962 0.343465,2.33681 0.465331,1.97069 0.844036,2.91436 2.560499,6.38024 0.743247,1.50076 1.640187,3.32454 1.993203,4.05285 1.083798,2.23603 5.027881,8.93996 6.918525,11.75978 2.211336,3.29809 7.185701,9.77572 9.550739,12.437 0.588403,0.66208 1.580897,1.7997 2.205551,2.52802 0.624653,0.72831 1.639503,1.84785 2.255236,2.48788 0.615731,0.64003 1.647609,1.77765 2.29308,2.52802 1.257721,1.46215 6.865898,7.15611 8.653314,8.78567 0.595891,0.54327 1.426524,1.26683 1.845852,1.6079 0.940713,0.76516 1.063141,0.90029 1.029694,1.13641 -0.02164,0.1525 -0.08224,0.19181 -0.327225,0.21209 -0.73955,0.0612 -2.048632,-0.93957 -5.929905,-4.53339 -2.155662,-1.99601 -4.733059,-4.61806 -6.336639,-6.44643 -0.599967,-0.68408 -1.425422,-1.60492 -1.834345,-2.04632 -0.40893,-0.4414 -1.379007,-1.54289 -2.155735,-2.44777 -0.776725,-0.90487 -1.83095,-2.11471 -2.34272,-2.68852 -2.798677,-3.13803 -8.297403,-10.17003 -10.338589,-13.22143 -1.58841,-2.37452 -3.493117,-5.4981 -5.028699,-8.24668 -1.260599,-2.25639 -1.838713,-3.41831 -2.795163,-5.61783 -0.374284,-0.86073 -0.935376,-2.13261 -1.24687,-2.82638 -1.453482,-3.2373 -2.036452,-5.19304 -2.153792,-7.22551 l -0.04981,-0.86272 h -0.38003 c -0.521295,0 -1.667909,-0.33844 -2.463576,-0.72715 -1.22601,-0.59895 -2.346717,-1.65593 -3.289798,-3.10274 -0.578979,-0.88824 -0.959749,-1.73263 -1.535294,-3.40469 -0.263676,-0.76606 -0.684469,-1.97064 -0.935085,-2.67688 -0.651798,-1.83676 -1.370533,-4.09621 -2.284884,-7.18279 -0.934306,-3.15397 -1.192879,-3.92226 -2.579511,-7.66432 -1.396932,-3.76984 -1.377777,-3.7226 -1.936233,-4.77514 -0.269328,-0.50762 -0.511026,-1.02694 -0.5371,-1.15409 -0.04651,-0.22678 -0.06787,-0.23529 -1.129521,-0.44923 -4.111798,-0.82867 -6.808372,-2.3515 -9.30457,-5.25456 -0.814915,-0.94775 -1.418275,-1.79404 -2.10187,-2.94816 -0.918215,-1.55022 -1.324454,-2.49702 -1.551733,-3.61655 -0.03974,-0.19572 -0.08049,-0.22069 -0.360222,-0.22069 -0.867426,0 -3.246105,-0.65368 -4.286285,-1.17788 -0.661608,-0.33343 -1.419887,-0.84975 -1.916598,-1.30503 -0.514602,-0.47168 -1.229695,-1.49424 -1.551575,-2.21868 -0.487307,-1.09678 -0.80581,-3.19241 -0.61156,-4.02381 l 0.07916,-0.3388 -0.572802,-0.3149 c -1.284615,-0.70622 -2.663535,-1.83253 -3.4452328,-2.81407 -1.0627067,-1.33439 -1.3536555,-2.64966 -0.7680452,-3.47207 0.2888954,-0.40573 0.5613233,-0.4862 1.7116,-0.50558 0.886728,-0.015 1.146926,-0.0504 1.708104,-0.23322 0.743467,-0.24213 1.857264,-0.9412 2.400263,-1.50655 0.875756,-0.91175 1.680978,-2.30162 1.912951,-3.30187 l 0.120096,-0.51784 -0.875063,-1.79501 c -1.251789,-2.5678 -2.340006,-5.33294 -2.776588,-7.05525 -0.23761,-0.93736 -0.542212,-2.67906 -0.736249,-4.20981 -0.206042,-1.62549 -0.205271,-5.42429 0.0014,-6.65132 0.423207,-2.51325 1.436045,-5.08276 3.250407,-8.24612 1.490939,-2.59947 2.667966,-4.16958 4.506843,-6.01192 1.139327,-1.14146 2.394802,-2.10781 3.023061,-2.32681 l 0.239194,-0.0834 0.09691,-2.54529 c 0.10167,-2.670173 0.208794,-3.864623 0.483785,-5.394333 0.745531,-4.147204 2.78672,-8.31572 6.106072,-12.469823 2.160177,-2.703414 4.555117,-4.913193 7.34502,-6.777153 2.117946,-1.415021 4.253769,-2.40264 5.765093,-2.665826 l 0.534706,-0.09312 0.08577,-0.333009 c 0.875395,-3.398296 2.007249,-5.298228 4.530695,-7.605201 2.401339,-2.195341 5.03682,-3.899245 8.185971,-5.292425 2.12511,-0.940139 3.952363,-1.488095 6.139477,-1.841095 1.472817,-0.237722 1.444583,-0.231011 1.444583,-0.343343 0,-0.190648 1.251419,-2.59091 1.721061,-3.301054 1.703789,-2.576299 4.438016,-5.296264 7.708855,-7.668659 3.140678,-2.277975 5.533588,-3.568052 7.824827,-4.218535 0.419332,-0.11905 0.834651,-0.280676 0.922931,-0.359165 0.423961,-0.376971 1.767237,-0.887799 3.454679,-1.313775 1.907683,-0.481576 8.411527,-1.694616 10.589879,-1.975137 4.869265,-0.627048 8.860255,-0.258613 13.201885,1.218753 4.84631,1.649102 9.4929,4.492921 14.8333,9.07834 3.06306,2.630026 5.31524,4.759045 11.76219,11.118949 2.46696,2.433625 4.51887,4.424774 4.55981,4.424774 0.0409,0 0.19183,-0.08953 0.33531,-0.19896 0.36503,-0.278423 1.50075,-0.798826 2.34623,-1.07507 4.64128,-1.516466 10.46503,-0.555295 14.98542,2.473245 2.21278,1.482515 3.20263,2.460649 4.26008,4.209653 1.06789,1.766255 2.14188,4.077561 2.84934,6.131913 l 0.45055,1.308319 0.51996,0.183054 c 0.64615,0.227478 1.10409,0.460536 1.72381,0.8773 1.45976,0.981682 2.57202,2.117835 4.19064,4.280631 1.93757,2.588954 2.75055,3.923282 3.0207,4.957808 0.0775,0.296731 0.23205,0.598291 0.42883,0.836672 0.83384,1.01008 1.01414,1.34703 2.17477,4.064633 1.05163,2.462435 1.31712,3.217957 1.45735,4.147273 0.14684,0.973188 -0.0578,1.530913 -0.67055,1.827556 -0.62148,0.30085 -1.14012,0.19904 -3.78317,-0.742704 -2.57308,-0.916789 -3.79295,-1.123299 -5.57463,-0.943712 -0.92036,0.09279 -3.31565,0.528001 -3.5127,0.638274 -0.064,0.03586 0.0742,0.113979 0.36018,0.203758 0.58151,0.182517 1.45308,0.617372 2.02895,1.012294 0.24278,0.1665 1.33397,1.01963 2.42488,1.89588 2.05862,1.65352 3.07203,2.34741 4.43705,3.03808 1.6862,0.85321 3.36385,1.21373 5.29665,1.13823 1.63388,-0.0638 2.43715,-0.35681 3.89235,-1.41972 1.70657,-1.24653 1.81343,-1.30981 2.26602,-1.34209 0.52142,-0.0372 0.93272,0.17562 1.31945,0.68266 0.4151,0.54422 0.58776,1.23217 0.58776,2.34177 0,1.70046 -0.51124,3.12477 -1.84429,5.13814 -0.89559,1.35266 -1.56925,2.13672 -2.76468,3.21779 -1.27975,1.15732 -2.65891,2.68661 -2.48353,2.75391 0.43458,0.16677 1.88534,0.221 4.93899,0.18462 3.59208,-0.0427 4.13387,-0.0968 5.8051,-0.57774 1.37327,-0.39528 2.24993,-0.8938 3.25031,-1.84836 0.76052,-0.7257 0.93468,-0.84105 1.26973,-0.84105 0.33894,0 0.70366,0.36194 0.79426,0.78822 0.1217,0.57247 0.0638,3.2128 -0.0874,3.98692 -0.32651,1.67144 -0.93674,3.78969 -1.48843,5.1668 -0.0952,0.23747 -0.15524,0.4495 -0.13356,0.47118 0.0547,0.0548 0.86645,-0.41049 1.48872,-0.85341 0.2855,-0.20323 0.79802,-0.63034 1.13894,-0.94918 0.34092,-0.31881 0.71251,-0.60292 0.82577,-0.63134 0.27301,-0.0686 0.57775,0.1361 0.64262,0.4315 0.14487,0.6596 -0.95408,4.21985 -2.05345,6.65251 -0.55814,1.23504 -1.22946,2.42789 -2.11411,3.7565 -0.92627,1.39112 -1.77311,2.40851 -2.9015,3.48584 -0.57241,0.54653 -0.80166,0.81032 -0.67056,0.77162 0.57618,-0.17008 2.35105,-0.98403 4.13168,-1.89475 2.14596,-1.09756 2.73677,-1.32184 3.31136,-1.25708 1.31803,0.14856 1.45394,1.68082 0.37533,4.23131 -0.196,0.46346 -0.66721,1.38437 -1.04712,2.04649 -0.37991,0.66209 -0.92505,1.61912 -1.21142,2.12674 -1.04523,1.85273 -3.15628,4.89741 -4.26603,6.15273 -1.34659,1.52321 -2.92967,2.6794 -4.54554,3.31981 -0.68499,0.27147 -1.1192,0.61186 -1.20216,0.94241 -0.0685,0.27246 -0.43529,0.80467 -1.09694,1.59116 -0.65583,0.77957 -3.09604,3.17633 -3.8973,3.82791 -1.20408,0.97915 -2.51212,1.61656 -3.85965,1.88081 l -0.71399,0.14003 -0.0942,0.4561 c -0.2156,1.04391 -1.85327,3.7367 -3.87241,6.36733 -2.02322,2.63596 -3.42546,3.74695 -5.62989,4.46053 l -0.76547,0.24778 0.0727,0.25358 c 0.18874,0.65814 -0.032,3.9892 -0.37857,5.7116 -0.19425,0.96552 -0.65618,2.48216 -1.5156,4.97616 -0.4259,1.23593 -1.0274,2.98748 -1.33669,3.89235 -1.09705,3.20969 -1.42998,3.99533 -2.65046,6.25433 -0.94781,1.75432 -1.30013,2.26893 -2.04241,2.98316 -0.88295,0.8496 -1.65478,1.14019 -3.01664,1.13575 l -0.78063,-0.003 -0.47697,1.49584 c -0.62534,1.96118 -0.92136,2.93624 -1.61144,5.30794 -0.31465,1.08142 -1.07334,3.465 -1.68597,5.2968 -0.61263,1.83181 -1.31694,3.9987 -1.56514,4.81528 -1.5081,4.96157 -3.79089,11.96733 -4.49363,13.79069 -0.29493,0.76525 -0.51609,1.41149 -0.49147,1.43612 0.0592,0.0592 4.52482,-0.11228 6.70945,-0.2576 3.19561,-0.21255 7.86645,-0.38042 9.05552,-0.32547 2.57588,0.11905 3.33279,0.3983 3.70637,1.3674 0.24934,0.64679 0.066,1.97389 -0.52769,3.81986 -0.53357,1.65902 -1.26342,2.92776 -2.87147,4.99163 -1.52117,1.95236 -5.41951,5.85443 -8.56763,8.57582 -4.32603,3.73966 -8.22028,6.32343 -14.03718,9.3135 -4.39037,2.25678 -7.34659,3.48948 -10.43302,4.35039 -1.45263,0.4052 -4.06426,1.04495 -5.22059,1.27885 -1.94765,0.39397 -5.14736,0.75528 -8.26219,0.93295 -1.28206,0.0731 -9.77332,0.0958 -10.43309,0.0278 z m 8.58723,-1.66976 c 3.8756,-0.0671 8.04828,-0.58616 11.27578,-1.40267 2.0736,-0.52459 4.81288,-1.31972 5.73821,-1.66565 2.89532,-1.08235 7.9355,-3.53347 11.31589,-5.50309 1.62947,-0.94944 4.88669,-3.04815 5.81058,-3.74392 2.23395,-1.68235 5.20604,-4.38144 9.03029,-8.20086 2.94664,-2.94293 4.10086,-4.23666 5.3092,-5.95102 1.06403,-1.50959 1.98621,-4.23381 1.57307,-4.64696 -0.46399,-0.46398 -3.83086,-0.45196 -9.44419,0.0338 -1.57728,0.13647 -2.66322,0.17294 -5.48968,0.18432 l -3.52347,0.0142 -0.31024,0.79395 c -0.17064,0.43667 -0.72204,2.00379 -1.22531,3.48249 -0.50329,1.47869 -1.04073,3.01628 -1.1943,3.41686 -0.46774,1.22007 -1.70509,3.91254 -2.61584,5.69204 -0.89426,1.7473 -3.40467,6.05003 -4.14393,7.10254 -0.66767,0.95056 -1.67584,2.13421 -2.60482,3.05821 -0.98737,0.98208 -2.5696,2.07914 -4.6778,3.24343 -1.99984,1.10445 -2.98363,1.45881 -6.68563,2.40804 -3.8189,0.9792 -7.87773,1.39723 -12.59193,1.29682 -3.67701,-0.0784 -5.88848,-0.43691 -8.51814,-1.38127 -1.086622,-0.39022 -5.087349,-2.28013 -6.544585,-3.09161 -0.471712,-0.26269 -0.877916,-0.47759 -0.902666,-0.47759 -0.05884,0 1.396119,1.96984 2.264361,3.06562 0.478211,0.60354 0.742831,0.87113 0.890686,0.90068 0.1157,0.0231 0.60763,0.0991 1.093171,0.16904 1.118291,0.16089 2.283662,0.35363 4.855413,0.80306 1.12557,0.19669 2.35346,0.38773 2.72865,0.42449 0.65797,0.0645 3.98145,0.0549 8.58723,-0.0248 z m -0.56178,-2.16996 c 3.84717,-0.26975 6.8551,-0.78753 10.3079,-1.7744 1.81221,-0.51796 2.50851,-0.77632 3.69654,-1.37154 3.28901,-1.64784 4.57727,-2.59322 6.26953,-4.60086 0.98129,-1.16418 1.35968,-1.7234 2.79067,-4.12435 2.42258,-4.06465 2.74885,-4.6734 3.94276,-7.35633 0.84616,-1.90153 1.2989,-3.11132 2.08411,-5.56921 0.67544,-2.11429 0.85298,-2.63396 1.85064,-5.41718 0.37182,-1.03728 1.11273,-3.16805 1.64644,-4.73502 0.53373,-1.56697 1.40516,-3.91443 1.93651,-5.21656 1.11972,-2.74397 1.08638,-2.65567 2.5907,-6.86176 1.46244,-4.08898 1.76441,-5.02528 2.97645,-9.22928 0.54721,-1.89803 1.28455,-4.40799 1.63852,-5.57771 0.35396,-1.1697 0.98895,-3.49909 1.41106,-5.17641 0.42213,-1.67733 1.11228,-4.33175 1.53367,-5.89872 0.87571,-3.25638 1.25734,-4.85804 1.67327,-7.02227 0.16117,-0.83866 0.49282,-2.46383 0.73698,-3.61146 0.51942,-2.44157 0.91534,-4.6463 0.83948,-4.67484 -0.37991,-0.14293 -1.55208,-0.91004 -2.13846,-1.39948 -1.27009,-1.06013 -1.92377,-1.94453 -2.5387,-3.43469 -0.50274,-1.21838 -0.75757,-2.11998 -0.87463,-3.09467 -0.0984,-0.81937 -0.0949,-0.93374 0.13355,-4.24979 0.19126,-2.77727 0.12768,-4.25843 -0.28593,-6.66114 -0.18235,-1.05936 -0.47253,-2.6484 -0.64484,-3.5312 -0.71493,-3.66292 -0.76157,-4.07534 -0.76239,-6.74138 -8.3e-4,-2.25783 0.0204,-2.61239 0.3373,-5.69808 0.48984,-4.768 0.52814,-5.37345 0.47225,-7.46368 -0.0756,-2.82595 -0.27878,-4.76245 -0.78324,-7.46369 -0.30786,-1.64852 -0.54923,-2.60061 -1.03847,-4.09629 -0.65825,-2.01238 -1.46802,-3.365 -2.54756,-4.25547 -0.56577,-0.46668 -1.98947,-1.22677 -3.14222,-1.67759 -1.5543,-0.60788 -3.61559,-1.07708 -5.46099,-1.2431 -1.27851,-0.115 -1.81296,-0.10746 -3.60822,0.051 l -1.56173,0.13779 -0.64526,0.46269 c -2.54002,1.82133 -6.06893,2.71913 -9.72593,2.47442 -2.16785,-0.14505 -3.65351,-0.46011 -6.25247,-1.3259 -1.92913,-0.64266 -2.58045,-0.75991 -4.221,-0.75991 h -1.27516 l -0.70064,0.35183 c -2.30567,1.15785 -4.7831,1.48856 -6.95678,0.92866 -0.35516,-0.0915 -1.2055,-0.40376 -1.88968,-0.69397 -2.2935,-0.97285 -2.53877,-1.06552 -3.15889,-1.19378 l -0.6175,-0.12769 -0.34297,0.20099 c -4.020384,2.3561 -8.067604,2.57987 -13.426184,0.74235 -1.386429,-0.47541 -2.81838,-1.09431 -5.407275,-2.33704 -4.695837,-2.25412 -7.2341,-3.26873 -9.043366,-3.61489 -0.603426,-0.11546 -0.613933,-0.11454 -1.059794,0.0917 -0.247675,0.11458 -0.703121,0.29999 -1.0121,0.41199 -1.49426,0.54171 -3.028125,1.60087 -6.255934,4.31982 -2.864113,2.41257 -5.146923,4.79669 -6.490527,6.77857 -1.82707,2.69499 -3.285705,5.63832 -3.868949,7.80699 -0.450523,1.67519 -0.604156,4.16345 -0.410379,6.6469 0.111826,1.43318 0.585857,4.78544 0.787584,5.56963 0.04542,0.17657 0.129571,0.64606 0.18701,1.04331 0.05744,0.39727 0.214384,1.33624 0.34877,2.08663 0.322657,1.80165 0.374301,2.30214 0.259641,2.51638 -0.05067,0.0947 -0.143729,0.17215 -0.206794,0.17215 -0.179713,0 -0.490907,-0.52388 -0.695712,-1.17119 -0.10294,-0.32534 -0.209102,-0.59219 -0.235914,-0.59298 -0.06983,-0.002 -0.151882,0.87599 -0.151882,1.62519 0,0.9865 0.201544,2.13061 0.800547,4.54459 0.666202,2.68477 0.841301,3.68097 0.782844,4.45387 -0.09424,1.24607 -0.614951,2.13483 -2.062414,3.52016 -1.040639,0.99597 -1.887445,1.63789 -2.831481,2.14638 l -0.621974,0.33501 -8.79e-4,0.49462 c 0,0.27205 0.04045,1.65831 0.09063,3.08057 0.06943,1.96789 0.06866,2.8261 -0.0033,3.59075 -0.08103,0.86181 -0.07589,1.11625 0.03608,1.78793 0.477018,2.8611 1.732118,5.49584 4.349055,9.12962 1.729325,2.40126 1.890099,2.66569 2.338818,3.84659 0.590844,1.55496 0.779161,2.2676 1.05734,4.00123 0.585385,3.64814 0.9139,5.15536 1.518818,6.96816 0.462876,1.38714 0.866685,2.12935 1.578374,2.90108 0.963498,1.04477 1.369859,1.72738 1.866065,3.13469 0.386208,1.0953 0.551351,1.83026 0.855219,3.80603 0.62824,4.08494 0.860907,4.79292 2.402557,7.31068 0.369252,0.60304 1.124721,1.71038 1.678822,2.46077 1.256545,1.70162 1.531258,2.21436 1.471395,2.74618 -0.0362,0.32168 -0.09598,0.43059 -0.369532,0.67346 -0.353891,0.31418 -1.040131,0.55379 -1.58022,0.55177 -0.779971,-0.004 -1.816178,-0.37962 -2.683265,-0.97544 -0.28691,-0.19716 -0.792515,-0.49898 -1.123564,-0.67073 -0.752894,-0.39057 -1.396255,-1.02967 -2.070707,-2.05699 -0.50041,-0.76222 -0.509712,-0.77086 -0.882799,-0.82061 -0.492876,-0.0657 -0.839487,-0.2843 -1.005455,-0.63406 -0.187947,-0.39607 -0.171591,-0.57744 0.146865,-1.62806 0.404268,-1.33372 0.408441,-1.31138 -0.388489,-2.07864 -0.895336,-0.86199 -0.945199,-0.95073 -1.025917,-1.82554 -0.07641,-0.82797 -0.188726,-1.00878 -0.870363,-1.40103 -1.382456,-0.79558 -1.768087,-1.18423 -1.768087,-1.78195 v -0.33238 l -1.289315,-0.63574 c -0.70913,-0.34965 -1.416438,-0.73269 -1.571803,-0.85119 -0.345489,-0.26352 -0.589133,-0.64747 -0.589534,-0.92904 0,-0.11577 0.238123,-0.6936 0.529519,-1.28407 0.58842,-1.19229 0.834513,-2.00909 0.834513,-2.76975 v -0.5068 l -0.260828,0.0582 c -0.143454,0.032 -0.820604,0.0579 -1.504773,0.0574 -1.391499,-8.3e-4 -1.661562,-0.0759 -1.842335,-0.51239 -0.150966,-0.36445 -0.0042,-0.67702 0.682542,-1.4531 0.951652,-1.07548 1.225496,-1.79565 1.296995,-3.41081 0.06902,-1.55918 -0.288026,-3.48257 -0.854959,-4.60565 -0.37483,-0.74255 -1.055118,-1.46976 -1.658583,-1.773 -0.954893,-0.47982 -1.13574,-1.01323 -0.661164,-1.95005 0.357711,-0.70615 0.343948,-1.03721 -0.08228,-1.97866 -0.208769,-0.46114 -0.486144,-0.91599 -0.709636,-1.16369 -0.522449,-0.57902 -1.027444,-1.64996 -1.096679,-2.32573 -0.03858,-0.37648 -0.134274,-0.68579 -0.321196,-1.03813 -0.146434,-0.27603 -0.283836,-0.55421 -0.305344,-0.61818 -0.03145,-0.0936 -0.06258,-0.097 -0.159257,-0.0172 -0.498614,0.41134 -2.56323,1.35056 -3.658591,1.66434 -1.150539,0.32958 -1.515442,0.38159 -3.043826,0.4338 l -1.459549,0.0499 0.327469,0.48152 c 0.541869,0.7968 1.042446,1.9512 2.053212,4.73503 1.166798,3.21358 1.738828,4.95398 2.545458,7.74457 1.681256,5.81643 3.132739,10.2969 3.8131,11.77036 0.912823,1.97686 2.360543,3.41895 4.043771,4.02801 1.380108,0.49937 2.168576,0.48524 3.539005,-0.0636 0.758013,-0.30352 1.034224,-0.31457 1.208666,-0.0484 0.186135,0.28407 0.08341,0.62291 -0.291526,0.96165 -0.173597,0.15681 -0.315623,0.3312 -0.315623,0.3875 0,0.17455 0.894733,1.7144 1.913005,3.2923 1.008782,1.5632 3.386271,4.76063 4.786263,6.43695 1.05103,1.25847 3.430989,3.64696 4.295611,4.31101 2.168345,1.66531 4.520984,3.09561 6.558448,3.98726 0.406989,0.17811 1.77971,0.70066 3.050493,1.16119 2.209555,0.80078 3.348009,1.12733 5.635228,1.61638 2.826898,0.60446 3.829259,1.26385 4.329827,2.84833 0.303714,0.96134 0.697829,3.455 1.775762,11.23564 1.182686,8.53673 1.584572,10.12195 3.338821,13.16982 0.337023,0.58558 0.372556,0.61911 0.887908,0.83814 0.295262,0.12549 0.918199,0.45973 1.384289,0.74274 1.776528,1.07874 2.59198,1.51893 4.458907,2.40699 2.470531,1.17517 3.287461,1.52026 4.663931,1.97011 1.50828,0.49295 2.94185,0.77332 4.9265,0.96351 0.82424,0.079 4.59251,0.0359 6.09934,-0.0697 z m 1.72548,-33.13561 c -0.35312,-0.0595 -1.16971,-0.2539 -1.81466,-0.43226 -1.81216,-0.50115 -2.17603,-0.52534 -6.97322,-0.4638 -4.66919,0.0599 -5.12835,0.0307 -6.976741,-0.44344 -1.395157,-0.3579 -1.93488,-0.67612 -1.722381,-1.01551 0.133848,-0.21374 0.442048,-0.21136 1.380862,0.0106 1.85369,0.43844 2.42254,0.47895 5.63291,0.40128 4.13831,-0.10013 6.74808,-0.0879 7.42355,0.0348 0.30898,0.0561 1.15768,0.24307 1.88598,0.41546 2.98805,0.70727 4.94921,0.62877 7.06282,-0.2827 0.37496,-0.1617 1.02485,-0.38526 1.44418,-0.4968 0.73354,-0.19513 0.88858,-0.20516 4.09299,-0.26492 4.11424,-0.0768 5.65859,-0.183 6.56755,-0.45189 0.36788,-0.10882 0.74671,-0.18673 0.84187,-0.17311 0.22323,0.0319 0.26806,0.27423 0.0877,0.47361 -0.23683,0.2617 -1.97451,1.18139 -2.48372,1.31453 -1.35751,0.35496 -3.33162,0.45081 -7.54137,0.36617 -1.63431,-0.0329 -1.88537,0.002 -3.24024,0.44735 -1.47591,0.48535 -2.1416,0.60232 -3.62152,0.6363 -0.94741,0.0219 -1.61341,-0.004 -2.0465,-0.0757 z m 2.40764,-14.41134 c -0.55758,-0.14334 -0.92445,-0.37799 -0.9217,-0.58949 0.004,-0.28899 0.1469,-0.33508 1.17943,-0.37986 1.21205,-0.0525 1.50125,-0.15596 2.42739,-0.86798 1.29995,-0.99944 2.3694,-1.72407 2.9195,-1.97822 0.5773,-0.26669 1.65736,-0.52012 2.21663,-0.52012 0.47915,0 0.72894,0.38986 0.42492,0.66315 -0.0773,0.0694 -0.77058,0.38134 -1.54072,0.69312 -1.41948,0.57465 -2.00706,0.91054 -3.45515,1.97517 -0.83416,0.61328 -1.21041,0.80739 -1.86338,0.96134 -0.54155,0.12767 -1.00178,0.14191 -1.38692,0.0429 z m -2.72866,-2.0396 c -0.35311,-0.14802 -1.03093,-0.45289 -1.50624,-0.67748 -0.47532,-0.22461 -1.11564,-0.49907 -1.42296,-0.60991 -0.57156,-0.20619 -2.48315,-0.63064 -3.47115,-0.77077 -0.75024,-0.10641 -1.04046,-0.2627 -1.00802,-0.54287 0.0449,-0.38752 0.33614,-0.45804 1.8708,-0.45285 2.01189,0.007 2.8673,0.21671 4.89554,1.20121 1.10327,0.53553 1.7871,1.05021 1.96455,1.47865 0.0856,0.20683 0.081,0.27443 -0.0308,0.44498 -0.18201,0.27777 -0.50175,0.26021 -1.29177,-0.0709 z m 11.53439,-0.25412 c -0.28608,-0.20038 -0.2291,-0.47935 0.15469,-0.75737 0.18319,-0.1327 0.37791,-0.24126 0.43273,-0.24126 0.16447,0 0.90941,-0.7165 1.12188,-1.07909 0.60908,-1.0393 0.73173,-2.20848 0.41297,-3.93683 -0.32456,-1.75993 -0.54864,-2.42834 -1.37211,-4.09299 -0.70538,-1.42595 -0.80937,-1.58869 -1.60383,-2.50947 -0.87364,-1.01257 -0.98267,-1.23827 -0.72342,-1.49752 0.28103,-0.28102 0.73565,-0.1096 1.54661,0.58314 0.62361,0.53268 1.03461,1.15833 1.8554,2.82441 1.20427,2.44447 1.64037,4.11489 1.64417,6.29752 0.002,0.94113 -0.0299,1.3089 -0.14453,1.68535 -0.38338,1.25911 -1.24939,2.36395 -2.10332,2.68345 -0.52703,0.19717 -0.97639,0.21215 -1.22124,0.0407 z m -20.1072,-0.36398 c -1.86169,-0.19661 -2.73026,-0.49869 -3.34196,-1.16232 -1.14158,-1.23847 -1.25376,-3.40039 -0.35882,-6.9154 0.29746,-1.16833 0.55057,-1.83165 0.72435,-1.89834 0.16906,-0.0649 0.33266,0.0229 0.37995,0.20376 0.0471,0.17991 0.0489,0.16273 -0.22462,1.99498 -0.32241,2.15899 -0.39073,3.06557 -0.2868,3.80611 0.1185,0.84445 0.46735,1.57913 0.8979,1.89103 0.48043,0.34802 1.3882,0.69591 2.51342,0.96323 1.14579,0.27222 1.44806,0.4016 1.51231,0.64733 0.1355,0.5181 -0.29711,0.63001 -1.81573,0.46962 z m -23.405446,-31.2149 c -1.754575,-0.16947 -2.806394,-0.48565 -4.858611,-1.46043 -0.838661,-0.39838 -1.759582,-0.81274 -2.046492,-0.92081 -0.790885,-0.29794 -1.011939,-0.57324 -0.608033,-0.75726 0.284621,-0.12969 1.051825,0.0655 2.749739,0.69925 3.417778,1.27588 3.817934,1.35963 6.485666,1.35727 2.994294,-0.003 4.584434,-0.20909 7.782605,-1.01034 1.934919,-0.48476 3.655922,-1.03903 5.366928,-1.72846 1.700217,-0.68509 1.809308,-0.75092 1.815398,-1.09557 0.0089,-0.51185 -1.665565,-2.47428 -3.207631,-3.75893 -0.716894,-0.59724 -1.356409,-0.97151 -2.32145,-1.35869 -0.820088,-0.32902 -2.365206,-0.71177 -2.466095,-0.61089 -0.02947,0.0294 0.0027,0.11693 0.07045,0.19443 0.194233,0.22093 0.430145,0.73302 0.617008,1.33935 0.559487,1.81542 0.03554,4.62688 -1.085588,5.8255 -0.484482,0.51793 -1.564212,1.24109 -2.173445,1.45562 -0.721776,0.25419 -1.897136,0.35503 -2.77529,0.23812 -0.936267,-0.12466 -2.109853,-0.51325 -2.69289,-0.89168 -0.60028,-0.38962 -1.38978,-1.24592 -1.64382,-1.78292 -0.504482,-1.0664 -0.599389,-3.13807 -0.196014,-4.27899 0.301817,-0.85366 0.519653,-1.23052 1.006009,-1.74041 0.243962,-0.25577 0.392926,-0.46496 0.331035,-0.46485 -0.24676,8e-4 -1.65672,0.41965 -2.426452,0.72143 -1.777704,0.69694 -3.637031,2.04161 -6.344083,4.58804 -1.866106,1.75536 -2.132893,1.91692 -2.426314,1.46909 -0.170477,-0.26017 -0.0989,-0.41476 0.370326,-0.79982 0.198633,-0.16302 0.934205,-0.82557 1.634603,-1.47238 4.644042,-4.28861 7.471988,-5.45621 13.573647,-5.60432 2.788597,-0.0678 5.336654,0.2103 6.899072,0.75273 1.176406,0.40842 2.074868,0.90253 3.01929,1.6605 1.330513,1.06784 2.872284,2.76102 3.318673,3.64457 0.162355,0.32138 0.244875,0.94499 0.174615,1.31955 -0.1105,0.58904 -0.885253,1.21149 -1.784954,1.43409 -0.215063,0.0532 -0.734143,0.23838 -1.15347,0.41147 -2.176989,0.89861 -3.012609,1.14839 -6.219733,1.85922 -1.607703,0.35635 -2.876847,0.57212 -4.012734,0.68224 -1.274012,0.1235 -3.887901,0.16967 -4.771936,0.0842 z m 5.417177,-3.17023 c 0.9152,-0.23682 1.97872,-1.0391 2.311987,-1.74404 0.426707,-0.9026 0.579258,-2.5072 0.330118,-3.4723 -0.242175,-0.93817 -0.52925,-1.41917 -1.135878,-1.9032 -0.436426,-0.34821 -0.655268,-0.46401 -1.020056,-0.53975 -0.255429,-0.0529 -0.592214,-0.14981 -0.748416,-0.21506 -0.282264,-0.11794 -1.1535,-0.11147 -2.886342,0.0215 -0.574147,0.0441 -0.58013,0.047 -1.116902,0.53877 -0.850029,0.77892 -1.281518,1.57145 -1.52207,2.79574 -0.125432,0.63836 -0.125449,0.72668 0,1.34447 0.174906,0.86319 0.433502,1.43319 0.86023,1.89613 0.617778,0.67022 1.320502,1.05198 2.354888,1.2793 0.681047,0.14968 1.991415,0.14888 2.572706,-0.002 z m -1.969438,-2.41161 c -0.364597,-0.15768 -0.772511,-0.55218 -0.988212,-0.95568 -0.236054,-0.44159 -0.234527,-1.31123 0.0034,-1.76559 0.560502,-1.07179 1.847682,-1.33269 2.849012,-0.57749 1.08594,0.81899 0.888672,2.63318 -0.355915,3.27336 -0.363864,0.18717 -1.105051,0.19966 -1.507972,0.0254 z m 47.109457,3.12787 c -1.47941,-0.19892 -2.73875,-0.55562 -4.61281,-1.30654 -2.16266,-0.86656 -2.873,-1.10048 -3.66189,-1.2059 -1.01299,-0.13536 -1.29898,-0.29942 -1.44094,-0.82665 -0.13179,-0.48948 0.0191,-0.79417 0.82104,-1.65806 1.87144,-2.01596 4.01378,-3.59417 6.76786,-4.98566 2.09335,-1.05766 3.21422,-1.33788 5.65794,-1.4145 1.93447,-0.0607 2.77606,0.032 3.99632,0.44001 1.99012,0.66539 3.5795,1.70964 4.49515,2.95334 0.49141,0.66748 1.21935,1.78012 1.21935,1.86377 0,0.14005 -0.23591,0.26328 -0.4027,0.21034 -0.22857,-0.0725 -0.97039,-0.83562 -1.48192,-1.52439 -0.46128,-0.62113 -0.90461,-1.05255 -1.63118,-1.58742 -0.45026,-0.33146 -1.64786,-0.99343 -2.12645,-1.17539 l -0.2112,-0.0803 0.2349,0.38178 c 0.47334,0.76927 0.59124,1.7752 0.36209,3.08927 -0.15984,0.9165 -0.37495,1.46592 -0.85495,2.18359 -1.26295,1.88827 -2.77293,2.86449 -4.44208,2.87183 -0.87271,0.004 -1.5224,-0.1536 -2.44102,-0.59157 -1.90782,-0.90961 -2.90592,-2.01135 -3.34049,-3.68733 -0.1591,-0.61355 -0.12177,-1.63347 0.0847,-2.31524 0.0715,-0.23609 0.11055,-0.44871 0.0868,-0.47248 -0.0624,-0.0623 -1.28233,0.71711 -2.28046,1.45686 -1.00863,0.74752 -3.64963,3.35588 -3.6096,3.56497 0.0205,0.10676 0.16704,0.14519 0.73412,0.19248 0.80647,0.0673 1.42535,0.26302 3.65238,1.15535 1.54659,0.61968 2.46326,0.88926 3.82655,1.1253 1.04459,0.18087 4.21197,0.20365 5.0526,0.0364 1.17064,-0.23297 2.89987,-0.91496 5.04377,-1.98917 0.89687,-0.44938 1.20555,-0.50607 1.36542,-0.2507 0.27022,0.43168 -0.36222,0.92086 -2.75761,2.13303 -1.59052,0.80486 -2.59608,1.18893 -3.70839,1.41637 -0.7827,0.16005 -3.19591,0.15823 -4.39732,-0.004 z m 3.66329,-3.41353 c 0.68114,-0.25339 1.32756,-0.72841 1.90494,-1.39979 0.90492,-1.05226 1.1964,-1.82667 1.20543,-3.20271 0.006,-0.91969 -0.0524,-1.07261 -0.81982,-2.14681 l -0.44437,-0.62197 -0.64804,-0.0106 c -2.21379,-0.0365 -3.44027,0.0851 -4.63318,0.45941 -0.88534,0.2778 -1.82022,0.7125 -2.09169,0.97259 -0.35117,0.33644 -0.50407,0.90339 -0.50407,1.86913 0,0.79019 0.0158,0.87291 0.25397,1.32836 0.40501,0.77459 0.83546,1.25173 1.60091,1.77452 0.81315,0.5554 1.17839,0.74971 1.77772,0.94578 0.94485,0.3091 1.62916,0.31828 2.3982,0.0322 z m -2.20692,-2.16078 c -1.33432,-0.26226 -2.04697,-1.64516 -1.4504,-2.81455 0.19595,-0.3841 0.53728,-0.64155 1.25606,-0.94744 1.59814,-0.68007 2.97308,0.20705 2.93363,1.89275 -0.0287,1.22476 -1.36809,2.13874 -2.73929,1.86924 z m -64.508026,0.2855 c -0.160011,-0.41699 0.682397,-1.23583 2.526833,-2.45615 3.070332,-2.03138 7.30205,-3.67275 11.128114,-4.3163 3.754645,-0.63153 6.885452,-0.52137 9.89639,0.34822 1.998642,0.57723 4.050721,1.48778 5.443782,2.41548 1.322857,0.88096 1.716907,1.30414 1.291292,1.38671 -0.07063,0.0137 -0.501039,-0.20043 -0.956408,-0.47584 -1.01377,-0.61316 -2.8007,-1.47864 -3.873684,-1.87617 -2.367871,-0.87729 -5.679991,-1.39808 -8.230045,-1.29409 -4.24115,0.17298 -7.738942,1.06152 -11.396153,2.89498 -1.663399,0.83392 -2.688192,1.46629 -4.581136,2.82686 -0.934235,0.67149 -1.162607,0.77139 -1.248985,0.5463 z M 122.89962,169.032 c -0.16249,-0.0656 -0.114,-0.51598 0.10661,-0.99016 0.5313,-1.14199 2.33972,-3.043 4.07645,-4.28514 3.28677,-2.35076 8.01565,-3.58185 11.71281,-3.04927 1.23104,0.17735 2.90151,0.60606 3.51665,0.90253 1.0535,0.50774 3.10492,2.2514 3.28276,2.79027 0.07,0.21208 0.0686,0.30465 -0.006,0.3944 -0.17774,0.21417 -0.45085,0.12359 -1.01044,-0.33517 -1.72247,-1.41201 -2.8801,-1.92538 -5.32708,-2.3623 -5.62366,-1.00414 -11.97287,1.542 -15.47472,6.20562 -0.56193,0.74836 -0.64945,0.82112 -0.87717,0.72922 z m -28.390066,-5.01183 c -0.264849,-0.0437 -1.294103,-0.22105 -2.287263,-0.39406 -0.99315,-0.173 -2.564135,-0.42477 -3.491076,-0.5595 -0.92694,-0.1347 -2.60627,-0.40584 -3.73184,-0.60249 -3.025568,-0.52863 -6.165697,-0.84484 -9.991697,-1.00616 -2.950664,-0.12442 -4.825146,0.009 -6.365072,0.45282 -0.383528,0.11055 -1.370597,0.48871 -2.19348,0.84033 -2.672935,1.14219 -3.683068,1.22512 -4.055842,0.33294 -0.248749,-0.59534 -0.02686,-1.16651 0.837063,-2.15469 0.788029,-0.90136 1.72789,-1.58848 3.109836,-2.27352 2.836205,-1.40594 5.765336,-1.9787 11.556657,-2.25979 3.34225,-0.16221 10.016539,0.007 12.811819,0.32601 0.766289,0.0872 2.187773,0.23439 3.158856,0.32692 3.16624,0.30172 4.681496,0.63139 6.106049,1.32849 0.841356,0.41172 1.414406,0.9165 1.661416,1.46349 0.2465,0.54586 0.235,1.4392 -0.0255,1.98115 -0.43902,0.91328 -1.48491,1.59618 -3.087183,2.01572 -0.682096,0.17858 -1.007332,0.21401 -2.166883,0.23599 -0.750378,0.0142 -1.581011,-0.01 -1.845851,-0.0536 z m 3.410819,-1.58804 c 1.69975,-0.38447 2.487887,-0.92462 2.487887,-1.70509 0,-0.47734 -0.413754,-0.87738 -1.398803,-1.35238 -1.280682,-0.61759 -2.301565,-0.81676 -6.787166,-1.32408 -4.069948,-0.46032 -8.790433,-0.64665 -13.161754,-0.51954 -4.902529,0.14258 -7.705879,0.49201 -10.024322,1.24953 -1.005213,0.32845 -2.665561,1.1123 -3.059483,1.44438 -0.153221,0.12918 -0.495277,0.37888 -0.760115,0.55487 -0.569286,0.37832 -1.645221,1.4235 -1.645221,1.59819 0,0.23328 0.416377,0.0987 2.407641,-0.77838 2.066884,-0.91036 3.446661,-1.26626 5.537567,-1.42842 2.816751,-0.21845 9.756222,0.28876 13.803795,1.0089 0.860725,0.15315 2.449769,0.40595 3.531196,0.56177 1.081436,0.15581 2.652421,0.39355 3.491085,0.5283 0.838662,0.13474 1.795691,0.27644 2.126742,0.31486 0.899631,0.10445 2.657579,0.0265 3.450951,-0.15291 z m 26.724417,-1.15457 c -1.17529,-0.33421 -2.0126,-1.54269 -1.90051,-2.74298 0.051,-0.54522 0.44675,-1.69995 0.73004,-2.12966 0.8967,-1.36012 1.80056,-1.77548 4.97903,-2.28804 0.70411,-0.11355 1.87783,-0.24525 2.60828,-0.29266 2.43859,-0.1583 8.183,0.0246 10.67775,0.33999 0.88842,0.11232 2.04415,0.40015 3.28479,0.81808 1.71232,0.57681 2.17254,0.96637 2.17254,1.83897 0,0.57395 -0.19228,0.99069 -0.61965,1.34299 -0.49276,0.4062 -1.48074,0.87631 -2.20029,1.04696 -1.03226,0.24484 -2.98084,0.46893 -4.88451,0.56176 -2.0431,0.0996 -5.22122,0.36178 -6.46049,0.53291 -0.48554,0.0671 -2.07458,0.32216 -3.5312,0.5669 -2.86426,0.48124 -4.19637,0.5923 -4.85578,0.40478 z m 2.76916,-1.37918 c 0.70624,-0.10773 1.98829,-0.30396 2.84903,-0.43609 3.22912,-0.49565 5.81678,-0.74225 9.79106,-0.93303 3.61598,-0.17359 4.67791,-0.36363 5.49634,-0.98358 0.97404,-0.73787 0.70408,-1.1163 -1.24192,-1.74094 -1.63747,-0.5256 -2.72901,-0.70111 -5.24644,-0.84354 -1.79936,-0.10182 -6.45069,-0.10257 -8.01393,-0.002 -3.1966,0.20708 -5.3756,0.7766 -6.52636,1.70578 -0.48224,0.38937 -0.62779,0.64297 -0.76276,1.32896 -0.18804,0.9559 0.18893,1.68885 1.02132,1.98571 0.45112,0.16089 1.19271,0.13779 2.63366,-0.082 z m -59.76219,53.44645 c 0.07355,-0.0735 -0.305547,-0.71073 -0.896935,-1.50751 -0.769416,-1.03666 -1.412522,-1.9944 -2.068128,-3.07995 -1.417891,-2.34776 -1.68367,-3.20084 -2.196002,-7.04872 -0.316925,-2.38026 -0.486325,-3.20808 -0.903239,-4.414 -0.396596,-1.14713 -0.70161,-1.67138 -1.374201,-2.36193 -0.727444,-0.74687 -0.981802,-1.1094 -1.390893,-1.98238 -0.793364,-1.69299 -1.440313,-4.16471 -1.952441,-7.45948 -0.470517,-3.02704 -0.672309,-3.79644 -1.347138,-5.13638 -0.378812,-0.75219 -0.823565,-1.39241 -1.874587,-2.69849 -0.483262,-0.60055 -1.152906,-1.56134 -1.504173,-2.15817 -0.665695,-1.13108 -0.759384,-1.27979 -1.402617,-2.22635 -0.464114,-0.68297 -1.492304,-2.66405 -1.846707,-3.55815 -0.314598,-0.79368 -0.532131,-1.66099 -0.680906,-2.71479 -0.14436,-1.02258 -0.176327,-8.19728 -0.04452,-9.99169 0.223259,-3.03926 0.740011,-5.51393 1.353348,-6.48106 0.269969,-0.42569 0.656346,-0.70098 0.984508,-0.70143 0.454602,-8e-4 0.480823,0.46567 0.115038,2.04619 -0.112365,0.48553 -0.259617,1.26201 -0.327223,1.72547 -0.145735,0.99915 -0.371379,3.39291 -0.32426,3.44003 0.064,0.064 1.138693,-0.87364 1.891689,-1.65043 0.817081,-0.84288 1.323078,-1.52915 1.664569,-2.25761 0.195428,-0.41688 0.212699,-0.53544 0.206519,-1.41797 -0.0059,-0.84056 -0.05402,-1.17231 -0.378583,-2.60828 -0.632062,-2.79655 -0.806938,-4.00703 -0.80579,-5.57769 0.0012,-1.49322 0.113069,-2.31757 0.479698,-3.5312 0.120006,-0.39727 0.217577,-0.81258 0.216815,-0.92293 -8.79e-4,-0.11035 -0.240643,-1.37436 -0.533075,-2.80891 -0.671812,-3.29559 -0.769624,-3.90074 -0.830233,-5.13629 -0.08231,-1.6779 0.199111,-4.68948 0.572496,-6.12654 0.402574,-1.54942 1.381526,-3.68227 2.80546,-6.11229 1.541347,-2.63038 2.243855,-3.52687 4.657312,-5.94321 2.295154,-2.29791 4.618516,-4.19646 7.265289,-5.93689 1.664201,-1.09431 2.046878,-1.2854 2.97987,-1.48796 0.418776,-0.0909 0.87643,-0.24648 1.032861,-0.35106 0.43494,-0.2908 0.844575,-0.38659 1.6377,-0.38293 2.033522,0.009 5.461812,1.08463 10.922145,3.42564 2.952849,1.26599 4.986362,1.92771 7.0624,2.29815 1.274421,0.2274 3.257476,0.24597 4.414005,0.0412 1.570416,-0.27787 3.694788,-1.10812 5.361389,-2.09533 1.41961,-0.84091 4.57292,-3.37602 8.43629,-6.78233 1.17647,-1.0373 2.25446,-1.949194 2.39553,-2.026435 0.92643,-0.507278 1.47921,0.311745 0.80835,1.197675 -1.112,1.46851 -5.13831,5.27095 -8.53067,8.05634 -0.66231,0.54382 -1.196,0.99605 -1.18595,1.00497 0.0532,0.0472 3.54114,1.16774 3.95072,1.26913 2.97158,0.73566 5.78306,-0.12194 9.14275,-2.78885 1.05021,-0.83364 3.78522,-3.5355 5.1296,-5.06741 1.55737,-1.77458 1.59078,-1.80594 1.9239,-1.80594 0.48448,0 0.71465,0.40122 0.54843,0.95599 -0.309,1.03138 -3.22781,4.4598 -5.76961,6.77699 l -1.15718,1.0549 0.8694,0.0504 c 1.03182,0.0598 1.42866,0.14975 3.43752,0.77978 2.5404,0.79674 4.02543,1.04894 6.20282,1.05337 2.59821,0.005 4.56535,-0.38776 6.40249,-1.27926 1.98932,-0.96536 3.50616,-2.48532 5.89527,-5.90734 1.05147,-1.50609 3.05292,-4.56867 4.09023,-6.258861 0.40455,-0.659177 0.82981,-1.297819 0.94501,-1.419209 0.36971,-0.389553 0.83833,-0.236641 0.9475,0.309193 0.13265,0.663249 -1.12911,3.064307 -3.55874,6.772077 -1.60959,2.45632 -2.60599,3.82666 -3.58482,4.93016 -0.46194,0.52076 -0.52765,0.62655 -0.36442,0.58659 1.35637,-0.33198 3.71711,-0.42925 5.4157,-0.22315 1.96222,0.23809 4.1,0.79226 5.69122,1.47532 3.36875,1.4461 4.76302,3.40446 6.06643,8.52079 0.99659,3.91194 1.365,6.81795 1.36314,10.75274 -8.1e-4,2.09813 -0.0565,2.79836 -0.51947,6.54212 -0.47588,3.84897 -0.55502,4.88684 -0.49794,6.52988 0.0555,1.59788 0.13702,2.16029 0.72912,5.03164 0.54748,2.65487 0.97233,5.18123 1.09817,6.5302 0.11446,1.22702 0.063,3.33219 -0.12958,5.30251 -0.16005,1.63739 -0.12728,3.44676 0.0756,4.17323 0.2095,0.75022 0.87412,2.22128 1.2782,2.82909 0.48069,0.72307 1.6383,1.83155 2.36128,2.26106 0.65199,0.38736 2.01361,0.8911 2.95705,1.09402 2.56683,0.55209 5.48683,-0.42072 7.9447,-2.6468 1.25626,-1.13779 3.92679,-4.64319 5.12523,-6.72749 0.15805,-0.27488 0.18797,-0.38121 0.10722,-0.38121 -0.36477,0 -2.34754,-0.18026 -2.75232,-0.25023 -0.96575,-0.16692 -1.56497,-0.55168 -1.56497,-1.00488 0,-0.42467 0.11114,-0.44464 2.00133,-0.35952 3.33998,0.15038 4.55934,-0.12868 6.62857,-1.51698 1.03634,-0.69531 1.88339,-1.37865 2.46154,-1.98577 0.25174,-0.26435 0.95597,-0.96207 1.56497,-1.55048 0.609,-0.58839 1.11673,-1.09074 1.12829,-1.11632 0.0115,-0.0256 -0.29527,-0.0553 -0.68189,-0.0662 -1.65558,-0.0463 -4.49218,-0.93636 -5.66238,-1.77673 -0.61232,-0.43974 -0.80068,-1.05822 -0.35625,-1.16975 0.0989,-0.0248 0.76944,0.10018 1.49005,0.27778 2.5949,0.63961 3.32827,0.7639 4.46715,0.75719 1.31726,-0.007 1.97385,-0.17368 3.29043,-0.83134 1.1511,-0.57497 2.04999,-1.2084 3.29689,-2.32322 1.77405,-1.58612 2.36188,-2.35639 3.64772,-4.77975 0.53867,-1.01521 1.34142,-2.42368 1.78387,-3.12993 0.44245,-0.70625 0.9236,-1.56217 1.06921,-1.90206 0.33115,-0.7729 0.67554,-1.85384 0.67554,-2.12023 0,-0.17245 -0.0263,-0.19374 -0.18056,-0.1459 -0.27062,0.084 -0.9975,0.45684 -2.45081,1.25738 -2.9732,1.6377 -5.84276,2.73489 -8.24312,3.15178 -1.13261,0.19672 -2.60769,0.23565 -3.41083,0.09 -0.87808,-0.15921 -1.65327,-0.54584 -1.85434,-0.92492 -0.18103,-0.34125 -0.0803,-0.61541 0.19594,-0.53323 0.0956,0.0284 0.46261,0.10703 0.81573,0.17472 1.17504,0.22517 3.74331,-0.006 4.57452,-0.41135 1.0764,-0.52524 3.58235,-2.73775 4.95456,-4.37444 1.48266,-1.76843 2.94184,-4.17286 3.89862,-6.42423 0.3484,-0.81977 0.99835,-2.66756 1.09705,-3.11883 l 0.0598,-0.27365 -0.55091,0.46823 c -1.16415,0.98944 -2.94536,1.96731 -3.69742,2.02985 -0.38089,0.0317 -0.43948,0.0131 -0.6621,-0.20947 -0.36637,-0.36637 -0.33251,-0.68106 0.2289,-2.12744 0.60588,-1.56098 1.06822,-2.9939 1.4563,-4.51365 0.31936,-1.25068 0.63871,-2.95133 0.63871,-3.40148 v -0.25798 l -0.54173,0.47513 c -0.94291,0.82703 -1.7965,1.31638 -3.09542,1.77463 -1.88168,0.66384 -3.35837,0.88399 -6.3595,0.94813 -3.78946,0.081 -6.90836,-0.1707 -7.49886,-0.60515 -0.38494,-0.2832 -0.57971,-0.66042 -0.53792,-1.0418 0.0503,-0.45814 0.25262,-0.65893 1.39581,-1.38451 0.9564,-0.60702 2.3377,-1.81966 3.84367,-3.37437 0.79695,-0.82272 1.10046,-1.24543 1.8967,-2.64165 0.98237,-1.72259 1.26245,-2.59776 1.32466,-4.13912 0.0592,-1.46714 0.0451,-1.47982 -0.78845,-0.71293 -1.78707,1.64398 -3.26442,2.42065 -5.12087,2.69209 -0.76124,0.11131 -2.60168,0.0655 -3.29767,-0.0821 -1.39058,-0.29484 -3.23397,-1.12551 -4.77515,-2.15174 -1.14418,-0.76189 -1.69578,-1.23046 -3.60831,-3.06525 -1.43798,-1.37953 -1.96375,-1.80016 -2.74211,-2.19381 -0.82541,-0.41745 -3.51703,-1.220526 -5.16611,-1.541372 -0.3752,-0.07292 -0.76565,-0.185985 -0.86767,-0.251086 -0.24816,-0.158376 -0.2025,-0.435888 0.0952,-0.578101 0.3787,-0.180977 1.73879,-0.209211 2.76858,-0.05742 l 0.91263,0.134464 0.29768,-0.196982 c 0.88489,-0.585602 2.44523,-1.184664 3.90666,-1.499897 0.54415,-0.117377 1.21048,-0.184445 2.12903,-0.214318 1.54013,-0.05007 2.37723,0.05683 3.8595,0.493031 0.49658,0.146127 1.41961,0.418662 2.05117,0.60565 0.63157,0.186987 1.17217,0.316127 1.20131,0.286969 0.11951,-0.119483 -0.26942,-1.21721 -0.93993,-2.65291 -0.39167,-0.838664 -0.80947,-1.759586 -0.92841,-2.046495 -0.32978,-0.795379 -0.75768,-1.620135 -1.59796,-3.079949 -0.74649,-1.296837 -1.09037,-2.008995 -1.20609,-2.497744 -0.10635,-0.44912 -1.89747,-2.68036 -3.36525,-4.192163 -1.74758,-1.799964 -3.12953,-2.71407 -4.63456,-3.065543 -0.36977,-0.08635 -1.34041,-0.252092 -2.157,-0.368311 -1.85886,-0.264549 -4.68934,-0.813099 -4.9853,-0.966149 -0.43555,-0.225225 -0.45119,-0.604638 -0.0293,-0.710532 0.82656,-0.207444 3.68203,-0.172158 6.51939,0.08057 0.32001,0.02848 0.58184,0.03549 0.58184,0.0156 0,-0.0199 -0.33899,-0.778636 -0.7533,-1.686031 -1.36453,-2.988467 -2.43192,-4.791816 -3.54118,-5.982818 -1.01202,-1.086602 -3.07855,-2.542473 -4.89467,-3.448325 -3.59981,-1.795533 -7.10856,-2.369399 -10.41582,-1.703548 -0.82815,0.166728 -2.76324,0.780784 -3.2375,1.027338 l -0.25718,0.13371 1.08518,1.203821 c 1.99148,2.209192 2.76516,3.273466 3.55879,4.895529 0.45603,0.932082 0.71942,1.72321 0.71942,2.160971 0,0.368552 -0.2109,0.757771 -0.44203,0.815782 -0.41134,0.103236 -0.57905,-0.06753 -1.04929,-1.06827 -0.52784,-1.123374 -1.37766,-2.558321 -2.01733,-3.406335 -1.0286,-1.363598 -2.88711,-3.290496 -8.44547,-8.756245 -7.40484,-7.281445 -8.30515,-8.129723 -11.4401,-10.779015 -3.8436,-3.24816 -7.07946,-5.444031 -10.51335,-7.134453 -3.57981,-1.762243 -6.77066,-2.717407 -10.35286,-3.099082 -2.10266,-0.224036 -7.550688,-0.03524 -10.874506,0.376765 -2.339541,0.290028 -6.742841,1.050003 -6.880332,1.187493 -0.01312,0.01312 0.47329,0.0487 1.080833,0.07916 1.217964,0.06108 2.202072,0.192803 3.699978,0.495288 1.089643,0.220041 1.48342,0.357912 1.757345,0.615245 0.244304,0.229508 0.245992,0.650308 0.0035,0.820304 -0.239651,0.16785 -0.407604,0.160214 -2.055036,-0.09335 -1.265607,-0.194808 -1.642682,-0.218547 -3.504802,-0.220701 -1.899024,-0.0025 -2.162383,0.01444 -2.929299,0.185307 -2.481945,0.552884 -4.661176,1.753048 -9.108895,5.016519 -2.032377,1.491241 -2.986227,2.282896 -4.344951,3.606097 -1.228241,1.196135 -1.790179,1.836308 -2.56961,2.927368 -0.464643,0.650416 -1.231603,1.993666 -1.231035,2.156036 0,0.0388 0.550886,0.0771 1.223883,0.08498 1.896601,0.02236 3.063183,0.350738 3.48862,0.982038 0.233397,0.346339 0.231126,0.533132 -0.0083,0.690052 -0.175836,0.115214 -0.244928,0.110541 -0.862737,-0.05836 -0.599253,-0.163804 -0.840159,-0.182732 -2.23656,-0.175658 -2.270209,0.01146 -4.383233,0.288799 -6.781514,0.889979 -3.184302,0.798215 -6.479499,2.477578 -9.590426,4.887646 -1.113747,0.862839 -3.146775,2.858495 -3.589982,3.523984 -0.489809,0.735492 -1.897364,3.074804 -2.14713,3.568489 -0.309896,0.612505 -0.588485,1.387254 -0.543798,1.512257 0.02063,0.0577 -0.0176,0.166074 -0.08498,0.240767 -0.225161,0.249615 -0.712555,2.02665 -0.994451,3.625807 -0.08543,0.484639 -0.297751,0.532868 -0.475283,0.107974 -0.158904,-0.380314 -0.109579,-1.075706 0.177755,-2.506098 0.109903,-0.547098 0.189529,-1.023829 0.176948,-1.059388 -0.04328,-0.122278 -1.549133,0.440941 -2.59103,0.96908 -4.052324,2.054137 -7.719181,5.365103 -10.667511,9.632165 -2.691075,3.894737 -4.258641,7.605885 -4.932319,11.677049 -0.231111,1.396628 -0.320928,2.400365 -0.41384,4.624805 -0.209947,5.02634 0.397933,10.15697 1.530639,12.91889 0.617308,1.50523 0.668099,1.68269 0.523105,1.82768 -0.287036,0.28704 -1.022259,-0.41215 -1.550598,-1.47461 -0.918689,-1.84741 -1.541558,-4.88822 -1.828849,-8.92831 -0.02904,-0.4083 -0.07804,-0.74236 -0.108908,-0.74236 -0.131359,0 -1.235664,0.9711 -2.043102,1.79664 -1.998595,2.04344 -3.156314,3.6223 -4.721829,6.43951 -2.259902,4.06679 -3.11888,7.58239 -2.870251,11.74724 0.184888,3.09715 0.749163,6.40527 1.456444,8.53859 0.739717,2.23115 2.172394,5.59298 2.473336,5.80376 0.08714,0.061 0.217851,0.31694 0.290475,0.56868 0.07721,0.26767 0.377626,0.83781 0.723445,1.37302 0.32527,0.50342 0.5914,0.95944 0.5914,1.01343 0,0.37385 -0.571255,0.25025 -1.066115,-0.2307 l -0.357473,-0.34743 -0.140626,0.44827 c -0.590297,1.88167 -2.194847,3.65107 -4.079589,4.49871 -0.807715,0.36328 -1.523665,0.51082 -2.481975,0.51153 -0.474506,0 -0.862737,0.0264 -0.862737,0.0579 0,0.13748 0.737321,1.03736 1.199561,1.46402 1.372768,1.26712 3.072946,2.19462 4.824036,2.63167 0.681192,0.17002 0.93259,0.18886 2.48339,0.18616 2.317232,-0.004 4.060683,-0.29197 6.321576,-1.04411 2.11692,-0.70422 3.400193,-1.37561 5.171151,-2.70544 0.584411,-0.43884 1.181671,-0.8547 1.327249,-0.92412 0.241586,-0.11519 0.275947,-0.11495 0.393725,0.003 0.173646,0.17365 0.09918,0.54172 -0.251039,1.24084 -0.515952,1.02997 -1.50309,1.92157 -3.200721,2.89099 -2.132526,1.21772 -4.917011,2.11955 -7.604229,2.46284 -2.562977,0.3274 -4.311309,0.2374 -6.241197,-0.32128 l -0.191138,-0.0553 0.05892,0.63409 c 0.135743,1.46087 0.666827,2.85069 1.470555,3.84834 1.206069,1.49708 3.599405,2.56779 6.551303,2.93089 1.569246,0.19302 4.617082,-0.0356 7.05375,-0.52902 1.963693,-0.39766 3.340283,-0.88917 4.568958,-1.63133 0.939573,-0.56753 1.21441,-0.55792 0.949748,0.0332 -0.732826,1.63683 -5.245938,3.10388 -10.520023,3.4197 -0.86073,0.0516 -1.578043,0.10358 -1.594024,0.11565 -0.0732,0.0553 0.68273,1.45142 1.276784,2.35809 2.052578,3.13277 3.985213,5.08657 6.256082,6.3246 1.80431,0.98368 4.832007,1.80835 7.406918,2.01745 2.365403,0.19206 4.583689,-0.35375 6.829918,-1.68052 0.686571,-0.40554 0.731041,-0.41993 1.160266,-0.37563 0.535756,0.0553 0.524305,0.0422 1.23296,1.40463 0.374563,0.72009 0.545868,1.146 0.586621,1.4585 0.07291,0.55909 0.472588,1.35852 0.986908,1.97404 0.237247,0.28394 0.585125,0.86902 0.855673,1.43915 0.566276,1.19328 0.598082,1.58899 0.206334,2.56732 -0.282382,0.70521 -0.278008,0.72054 0.309575,1.08627 0.772915,0.48108 1.687,1.8274 2.123432,3.12749 1.026579,3.05814 0.821374,6.21539 -0.507715,7.81158 -0.178581,0.21446 -0.324694,0.40943 -0.324694,0.43324 0,0.071 1.303936,-0.0453 1.572519,-0.14038 0.136568,-0.0484 0.327253,-0.19466 0.423735,-0.32516 0.125856,-0.17023 0.242779,-0.23728 0.413786,-0.23728 0.438252,0 0.526597,0.18822 0.639452,1.36238 0.163407,1.70021 -0.02859,2.63774 -0.848066,4.14108 -0.312464,0.57322 -0.354823,0.70073 -0.267658,0.80575 0.05694,0.0687 0.629277,0.37758 1.271828,0.68656 1.65874,0.79762 1.930699,1.04269 1.930699,1.73975 0,0.31238 0.01074,0.32371 0.777717,0.82056 1.416838,0.91784 1.70525,1.29756 1.708412,2.24937 0.002,0.61526 0.127138,0.82815 0.962003,1.63721 0.872513,0.84551 0.960102,1.23704 0.604832,2.70348 -0.110296,0.45523 -0.200581,0.8548 -0.200637,0.8879 -5.5e-5,0.0331 0.09922,0.061 0.220595,0.062 0.50042,0.004 0.860425,0.2702 1.369868,1.01298 0.663336,0.96714 1.354287,1.65879 1.964125,1.96611 0.27399,0.13807 0.683858,0.36961 0.910817,0.51453 0.631349,0.40313 0.905957,0.53197 1.473332,0.69123 0.48176,0.13525 1.228106,0.14959 1.351704,0.026 z m 90.37245,-17.02332 c 0.84065,-0.27703 1.58417,-1.15145 2.76185,-3.248 1.36076,-2.42252 1.78752,-3.4593 2.97977,-7.23892 0.42054,-1.3332 1.0148,-3.20436 1.32057,-4.15815 0.58908,-1.83746 0.96564,-3.26 1.17672,-4.44544 0.15846,-0.88984 0.23547,-2.72029 0.15795,-3.7542 l -0.0579,-0.77259 -0.77528,0.046 c -0.86929,0.0517 -1.9947,-0.0636 -2.91539,-0.29808 -0.33841,-0.0862 -0.63636,-0.15675 -0.66211,-0.15675 -0.0257,0 -0.0468,0.17154 -0.0468,0.3812 -2e-5,0.63211 -0.28767,2.20129 -1.08452,5.91633 -0.92535,4.31417 -1.05933,4.86379 -1.97566,8.10487 -0.39986,1.41429 -1.10093,4.03409 -1.55795,5.82176 -0.45701,1.78767 -0.86889,3.37647 -0.9153,3.53066 -0.1527,0.50743 -0.14996,0.50978 0.5376,0.45977 0.3421,-0.0248 0.81751,-0.10967 1.05651,-0.18842 z"
       style="fill:#000000;stroke-width:0.0802546" />
  </g>
</svg>
