<?xml version="1.0" encoding="UTF-8" standalone="no"?>
<svg
   xmlns:dc="http://purl.org/dc/elements/1.1/"
   xmlns:cc="http://creativecommons.org/ns#"
   xmlns:rdf="http://www.w3.org/1999/02/22-rdf-syntax-ns#"
   xmlns:svg="http://www.w3.org/2000/svg"
   xmlns="http://www.w3.org/2000/svg"
   id="svg8"
   version="1.1"
   viewBox="0 0 210 297"
   height="297mm"
   width="210mm">
  <defs
     id="defs2" />
  <metadata
     id="metadata5">
    <rdf:RDF>
      <cc:Work
         rdf:about="">
        <dc:format>image/svg+xml</dc:format>
        <dc:type
           rdf:resource="http://purl.org/dc/dcmitype/StillImage" />
        <dc:title></dc:title>
      </cc:Work>
    </rdf:RDF>
  </metadata>
  <g
     id="layer1">
    <path
       id="path24"
       d="m 104.52725,265.6724 c -0.76921,-0.061 -3.64241,-0.45536 -4.44616,-0.61033 -1.193951,-0.23023 -3.831116,-0.94818 -4.763896,-1.29695 -2.28891,-0.85584 -4.89151,-2.16088 -6.77441,-3.39694 -0.87826,-0.57655 -3.587487,-2.73328 -4.306277,-3.4281 -0.713549,-0.68973 -2.039626,-2.20074 -2.947088,-3.35806 -1.093334,-1.3944 -1.562402,-1.78867 -2.63692,-2.21646 -0.497436,-0.19804 -1.376252,-0.57683 -1.952914,-0.84175 -0.576662,-0.26491 -1.585756,-0.6648 -2.242413,-0.88862 -1.23089,-0.41957 -4.13298,-1.62488 -5.171581,-2.14788 -1.102593,-0.55524 -2.869742,-1.8248 -4.15904,-2.98792 -0.890967,-0.80378 -3.60697,-3.72661 -4.514431,-4.8582 -0.304043,-0.37915 -0.930616,-1.24986 -1.39237,-1.93491 -0.461768,-0.68505 -1.453349,-2.07105 -2.203505,-3.07998 -0.750163,-1.00893 -1.735776,-2.41017 -2.190251,-3.11386 -0.454461,-0.70369 -1.501907,-2.28832 -2.32765,-3.52141 -1.896642,-2.83225 -2.055187,-3.11121 -3.256215,-5.72949 -2.560692,-5.58246 -4.566424,-11.35183 -6.451927,-18.55861 -0.556962,-2.12883 -1.263474,-4.27702 -1.910744,-5.80976 -0.618027,-1.4635 -0.88861,-1.9924 -1.681441,-3.28662 -1.273673,-2.07915 -2.006786,-3.42 -2.994272,-5.47648 -1.937957,-4.03591 -3.831138,-9.28023 -3.834244,-10.6213 -7.05e-4,-0.29269 -0.05178,-0.3707 -0.516558,-0.78885 -1.219844,-1.0974 -2.136095,-2.19703 -3.409347,-4.09166 -0.78989,-1.17537 -1.478903,-2.48584 -2.17476,-4.13627 -0.547348,-1.29819 -1.896913,-3.61224 -2.874734,-4.9292 -0.367714,-0.49526 -1.045901,-1.44777 -1.507071,-2.11669 -1.059369,-1.53659 -1.699994,-2.36355 -2.832201,-3.65598 -1.276814,-1.45749 -1.813364,-2.14705 -2.592101,-3.33126 -2.543015,-3.86713 -3.806795,-7.13481 -4.849263,-12.53848 -0.463243,-2.40123 -0.828343,-3.79238 -1.514557,-5.77102 -0.6686424,-1.92797 -0.8618584,-2.68225 -1.0259584,-4.00507 -0.2662377,-2.14621 -0.2321937,-4.04051 0.09741,-5.41954 0.205309,-0.85901 1.0279884,-2.49574 1.4833044,-2.95106 0.531279,-0.53127 1.384905,-0.91403 2.33146,-1.04541 0.408089,-0.0566 0.751723,-0.10893 0.763631,-0.1162 0.01189,-0.007 -0.03404,-0.171 -0.102045,-0.36381 -0.403325,-1.14315 -0.122208,-4.25581 0.67187,-7.43922 0.650354,-2.60722 0.664185,-2.65627 1.908572,-6.76745 1.012584,-3.34537 1.339117,-6.38923 1.082302,-10.088924 -0.358391,-5.163043 -0.379864,-7.504232 -0.09976,-10.877748 0.183878,-2.214615 0.333043,-3.184445 0.753482,-4.899139 1.535331,-6.261547 5.214776,-13.989106 10.459601,-21.967255 2.608553,-3.96799 4.752175,-6.520385 9.506516,-11.319338 3.720454,-3.755353 4.782857,-4.754462 8.223641,-7.73367 3.686225,-3.191724 3.519632,-3.05243 5.563268,-4.651476 0.981902,-0.768296 2.513914,-2.000461 3.404482,-2.738146 2.254286,-1.8673 2.756208,-2.235776 5.77102,-4.236728 4.087226,-2.712735 5.932426,-3.775138 9.577792,-5.51461 2.071903,-0.988654 3.523656,-1.616046 6.149907,-2.657759 2.082138,-0.825886 3.647311,-1.337629 5.34994,-1.749194 1.545424,-0.373561 2.041891,-0.458378 3.418058,-0.583954 0.548038,-0.05 1.151732,-0.125193 1.341532,-0.167092 0.53648,-0.118405 4.77964,-0.644842 6.67147,-0.827701 2.83703,-0.274229 3.59604,-0.249908 10.545586,0.337829 14.10192,1.192638 21.5262,2.595291 29.23869,5.524025 1.64215,0.623589 7.63895,3.42879 9.70532,4.539987 3.41227,1.834958 6.85097,4.231778 11.33445,7.900276 2.25675,1.846524 3.31069,2.836346 6.52411,6.127224 3.20937,3.286726 3.91292,4.08626 6.33575,7.200104 1.74463,2.242192 2.12284,2.789589 2.95411,4.275386 0.32916,0.588335 1.12463,1.952202 1.76769,3.030815 1.94722,3.266079 3.08648,5.586187 4.67339,9.517427 0.51619,1.278758 1.25584,2.997604 1.64367,3.819665 0.38782,0.822061 0.91816,2.017782 1.17854,2.657161 0.26039,0.639379 0.79245,1.909833 1.18237,2.823234 0.38992,0.913395 1.03496,2.501465 1.43343,3.529041 0.39847,1.027569 1.00976,2.55325 1.35844,3.390395 0.34868,0.837145 0.63396,1.537675 0.63396,1.556726 0,0.01902 0.46334,1.239793 1.02964,2.712763 0.88288,2.29642 2.2014,6.176296 3.11117,9.154955 0.45717,1.49678 1.66959,6.522201 2.01333,8.345151 0.18516,0.98191 0.38764,2.00948 0.44998,2.2835 0.21115,0.92824 0.52866,3.78738 0.7051,6.34906 0.0486,0.70613 0.10016,1.29559 0.11449,1.30992 0.0144,0.0143 0.20334,-0.0499 0.42006,-0.14284 0.21669,-0.0929 0.76121,-0.26198 1.21005,-0.37575 1.9172,-0.48598 3.62655,-0.0943 4.71157,1.07964 0.5039,0.54519 1.25664,1.79987 1.49486,2.49165 0.0787,0.22835 0.37866,0.86357 0.66672,1.41162 1.55071,2.95021 1.94269,4.07745 2.18593,6.28622 0.16121,1.4636 -0.0128,4.41267 -0.39329,6.66743 -0.35693,2.11489 -1.51083,5.73672 -2.87039,9.00944 -0.70513,1.69735 -4.99506,10.85527 -6.96266,14.86349 -1.8843,3.83849 -1.90845,3.89567 -2.94598,6.97504 -1.01219,3.00414 -1.63849,4.58094 -2.53109,6.37233 -0.76094,1.52717 -2.94596,5.21857 -4.3463,7.34271 -1.45676,2.20971 -1.78732,2.94587 -2.42882,5.40903 -0.47428,1.82107 -0.74549,2.50715 -1.45921,3.69135 -0.44885,0.74475 -1.63986,2.06366 -2.43726,2.69905 -0.49463,0.39411 -0.44523,0.25006 -1.52994,4.46162 -1.72497,6.69754 -3.70732,13.09698 -6.09612,19.6796 -1.41413,3.8968 -5.24766,11.35381 -7.14825,13.90481 -0.47849,0.64223 -2.7,3.89488 -4.20093,6.15083 -0.90697,1.36322 -1.75193,2.37777 -3.06389,3.67882 -1.7918,1.77694 -3.62024,3.2619 -5.17634,4.20395 -0.35413,0.21439 -0.8399,0.56731 -1.07947,0.78427 -0.23959,0.21695 -0.66337,0.54782 -0.94172,0.73526 -0.27836,0.18743 -0.70807,0.52383 -0.95492,0.74755 -0.69583,0.63064 -1.75506,1.46617 -3.19758,2.52228 -0.72601,0.53152 -2.28683,1.77281 -3.46852,2.75843 -1.18169,0.98561 -2.61431,2.12011 -3.18362,2.52112 -1.49191,1.05087 -4.60373,3.28157 -5.60254,4.01618 -6.2076,4.56562 -6.21781,4.57279 -8.08063,5.67811 -1.82408,1.08234 -2.52907,1.44775 -3.5651,1.84788 -0.41049,0.15852 -1.36435,0.56029 -2.11967,0.8928 -2.36388,1.04065 -3.97098,1.50056 -5.9403,1.69997 -1.98098,0.20058 -4.58844,0.28869 -5.77102,0.195 z m 4.66417,-2.18378 c 2.362,-0.15484 3.84785,-0.49429 6.00599,-1.37209 0.63938,-0.26006 1.64261,-0.65536 2.22941,-0.87845 0.5868,-0.2231 1.3715,-0.56661 1.74376,-0.76338 1.35454,-0.71595 3.18157,-1.75389 3.7492,-2.12992 2.60135,-1.72333 5.93651,-4.1038 6.80897,-4.8599 0.74184,-0.64291 2.46942,-1.95796 4.54644,-3.46083 1.83634,-1.32872 2.56006,-1.89262 4.54603,-3.54214 1.17201,-0.97346 4.80637,-3.67962 6.43531,-4.79178 0.59371,-0.40535 1.30367,-0.93838 1.57769,-1.18451 0.27402,-0.24612 0.79715,-0.64938 1.16251,-0.89613 1.93865,-1.30925 2.4116,-1.68674 4.08936,-3.26396 1.81822,-1.70928 2.40075,-2.46691 5.52983,-7.19199 0.63512,-0.95906 1.37853,-2.03788 1.652,-2.39737 1.66215,-2.18491 4.52509,-7.3402 6.27735,-11.30361 1.56759,-3.54568 4.61859,-13.22838 6.6665,-21.15691 0.36323,-1.40623 0.90351,-3.36796 1.20064,-4.3594 0.29712,-0.99144 0.63001,-2.1576 0.73974,-2.59146 0.2869,-1.1343 0.75052,-3.73181 1.0443,-5.85081 0.13955,-1.00652 0.3814,-2.63342 0.53743,-3.61533 0.72117,-4.53819 1.54156,-10.46572 1.79282,-12.95366 0.10948,-1.08411 0.13657,-4.0784 0.0815,-9.00942 -0.0408,-3.65682 0.16453,-6.32663 0.69799,-9.07456 0.35293,-1.81798 0.71058,-2.80732 1.25967,-3.48445 0.33869,-0.41768 0.62555,-0.52063 0.85985,-0.30859 0.21311,0.19287 0.20743,0.32729 -0.0841,1.99202 -0.87327,4.98611 -1.09752,7.74493 -1.12697,13.86488 -0.012,2.50108 -0.0627,4.90624 -0.11457,5.43888 -0.15464,1.58783 -0.49854,4.42469 -0.75499,6.22771 -0.13315,0.93624 -0.35593,2.54905 -0.49507,3.58403 -0.13914,1.03498 -0.38096,2.66041 -0.53738,3.61207 -0.15643,0.95167 -0.40016,2.55236 -0.54162,3.5571 -0.14146,1.00473 -0.38617,2.57149 -0.54379,3.48169 -0.15764,0.9102 -0.27285,1.66865 -0.25605,1.68545 0.0168,0.0168 0.16852,-0.13003 0.33714,-0.32631 0.55084,-0.64121 1.0423,-1.8501 1.66309,-4.09078 0.16407,-0.59221 0.44738,-1.41662 0.62956,-1.83203 0.43466,-0.99109 1.44802,-2.84307 2.17315,-3.97156 1.0935,-1.70175 3.31557,-5.57585 4.00738,-6.98672 0.90398,-1.84357 1.45595,-3.25914 2.49312,-6.39379 0.99492,-3.00695 1.19288,-3.48419 2.93953,-7.0865 1.30359,-2.68855 2.32097,-4.8667 3.24467,-6.94663 0.26366,-0.59371 1.00365,-2.22232 1.64442,-3.61915 2.69282,-5.87012 4.1412,-10.13138 4.62622,-13.61087 0.1818,-1.3042 0.25733,-4.34359 0.13023,-5.24035 -0.14621,-1.03156 -0.46536,-2.1657 -0.82396,-2.92797 -0.37338,-0.79367 -1.73756,-3.05223 -2.40818,-3.987 -0.79963,-1.11457 -1.69901,-1.79478 -2.37309,-1.79478 -1.1586,0 -2.99789,0.95974 -4.57352,2.38647 -0.92979,0.84192 -1.17172,1.11362 -2.56668,2.88256 -1.12109,1.42166 -1.38918,1.80479 -2.18444,3.12192 -0.31568,0.52285 -0.69147,1.13746 -0.83508,1.36581 -0.2113,0.33599 -0.29405,0.61318 -0.43382,1.45314 -0.44931,2.70035 -1.30623,5.00845 -3.52988,9.50765 -1.41158,2.85613 -2.11446,3.77597 -2.98512,3.90653 -0.53643,0.0804 -0.97908,-0.16536 -1.74901,-0.97124 -1.25278,-1.31127 -1.52525,-2.50934 -1.69456,-7.45111 -0.0429,-1.25062 -0.10884,-2.30476 -0.14662,-2.34254 -0.0658,-0.0657 -3.70914,2.09231 -5.00752,2.96611 -1.09841,0.73922 -4.56173,2.75562 -5.35207,3.11607 -0.29551,0.13476 -0.79095,0.96202 -1.01192,1.68958 -0.21814,0.7183 -0.21904,4.0381 -0.001,5.18663 0.15155,0.79972 0.3636,2.81996 0.60173,5.73264 0.18677,2.28459 0.12518,6.60253 -0.11812,8.28088 -0.2746,1.89423 -0.77827,3.61947 -1.57024,5.37858 -0.16449,0.36537 -0.51206,1.21401 -0.77238,1.88588 -0.5953,1.53644 -1.05233,2.19814 -2.57032,3.7214 -0.93867,0.94192 -1.32357,1.25833 -2.36653,1.94542 -1.55968,1.02748 -1.98576,1.25304 -2.59033,1.37124 -0.26511,0.0519 -0.89305,0.28408 -1.39541,0.51609 -1.3244,0.61166 -2.23125,0.94766 -3.69022,1.3673 -2.29224,0.65929 -4.2717,0.91265 -7.64423,0.97839 -0.93624,0.0182 -1.90776,0.0789 -2.15894,0.13467 -0.46867,0.10415 -1.07192,0.0968 -6.72595,-0.0823 -2.66156,-0.0843 -3.15576,-0.13642 -4.72817,-0.49883 -0.57356,-0.13219 -1.28572,-0.28258 -1.58258,-0.33419 -1.01812,-0.17702 -3.00484,-0.83112 -3.81343,-1.25549 -0.95903,-0.50334 -2.9157,-1.89455 -4.3169,-3.06934 -1.33351,-1.11804 -2.72257,-2.70072 -3.8953,-4.4383 -1.21714,-1.80339 -1.49721,-2.3043 -2.73921,-4.89914 -0.59021,-1.23308 -1.68895,-3.51243 -2.44166,-5.06521 -0.75271,-1.55278 -1.60213,-3.34636 -1.88763,-3.98574 -0.91005,-2.03814 -0.98761,-2.19565 -1.44612,-2.93688 -0.24753,-0.40016 -0.56396,-0.95322 -0.70317,-1.229 -0.47659,-0.9441 -1.80226,-1.89588 -2.81839,-2.02347 -0.71504,-0.0898 -1.516664,0.0181 -1.838784,0.24748 -0.702844,0.50047 -1.513942,1.8995 -1.832122,3.16016 -0.098,0.38819 -0.53068,1.75206 -0.96156,3.03082 -0.53843,1.59795 -0.86159,2.71451 -1.03341,3.57056 -0.31178,1.55328 -0.73457,3.04522 -1.20348,4.24687 -0.19863,0.50899 -0.53416,1.51788 -0.74566,2.24198 -0.39762,1.36143 -1.05033,2.83912 -2.01197,4.55497 -0.25596,0.4567 -0.65293,1.16666 -0.88215,1.57769 -1.02982,1.84662 -2.14804,3.24672 -3.59544,4.50178 -1.310319,1.13619 -1.589669,1.34346 -2.778916,2.06182 -1.294747,0.78208 -2.810721,1.38651 -5.596514,2.23135 -1.824268,0.55324 -3.058648,0.7854 -6.393789,1.20253 -2.578569,0.32251 -3.607691,0.38216 -6.476827,0.37541 -4.634146,-0.0109 -6.96201,-0.36668 -10.951936,-1.67382 -0.851375,-0.27892 -1.710784,-0.66049 -3.279931,-1.45626 -2.363446,-1.1986 -2.671356,-1.38082 -3.606216,-2.1341 -0.994978,-0.80172 -1.785395,-1.77027 -2.295024,-2.81226 -0.23802,-0.48666 -0.647199,-1.20245 -0.909285,-1.59064 -0.661123,-0.97923 -1.42573,-2.3918 -1.775417,-3.27994 -0.161836,-0.41103 -0.525091,-1.51333 -0.80724,-2.44956 -0.282149,-0.93624 -0.675894,-2.24406 -0.874999,-2.90627 -0.871453,-2.89843 -1.858988,-7.53511 -1.9896,-9.34159 -0.02642,-0.36535 -0.101689,-1.07531 -0.16727,-1.57768 -0.315103,-2.41396 -0.36505,-2.91206 -0.412155,-4.1103 -0.104268,-2.65249 -0.367387,-3.48156 -1.328,-4.1844 -1.051599,-0.76941 -2.992349,-2.3485 -3.794945,-3.08776 -0.442374,-0.40746 -1.413899,-1.29996 -2.158942,-1.98334 -0.745049,-0.68337 -2.158009,-2.03451 -3.139911,-3.00252 -1.780502,-1.75533 -1.787247,-1.76085 -2.519006,-2.06076 -1.527946,-0.62623 -2.357008,-1.1054 -3.445392,-1.99129 -1.25069,-1.01801 -2.907325,-1.88856 -3.967428,-2.08485 -0.493525,-0.0914 -1.165089,-0.31689 -2.025395,-0.68011 -1.813115,-0.7655 -1.884471,-0.78785 -2.53261,-0.79343 -0.679049,-0.006 -1.172931,0.11671 -1.496815,0.37148 -0.310808,0.24448 -0.823386,1.36606 -0.998076,2.18392 -0.188536,0.88272 -0.191335,2.95766 -0.0057,4.40092 0.169933,1.32288 0.412213,2.34862 0.95122,4.02726 0.696484,2.16908 0.824461,2.722 1.38373,5.97862 0.69224,4.03086 1.660239,6.79268 3.523415,10.05271 1.051121,1.83916 1.624792,2.64501 3.37692,4.74365 0.88873,1.06449 1.976217,2.45857 2.416634,3.09795 0.440416,0.63938 1.195336,1.72153 1.677609,2.40476 1.460699,2.06939 2.544048,4.00559 3.370247,6.02342 0.577886,1.41137 1.144663,2.47198 2.041221,3.81967 0.681912,1.02505 2.303876,3.11944 2.363823,3.05233 0.0354,-0.0396 -0.211676,-1.58393 -0.501552,-3.13537 -0.485271,-2.59718 -0.794655,-5.2003 -0.674804,-5.6778 0.06303,-0.25128 0.366638,-0.36019 0.622407,-0.2233 0.361111,0.19325 0.752741,1.08775 1.129421,2.57965 0.348983,1.38219 1.107294,5.2904 1.41155,7.27493 0.161828,1.05549 0.403267,2.30726 0.536536,2.78171 0.282911,1.00718 1.208135,3.60718 1.970783,5.53812 0.990285,2.50732 3.059859,6.90841 3.975789,8.45477 1.425223,2.40623 2.333205,4.88553 3.690961,10.07837 1.48005,5.66056 2.028658,7.45534 3.388423,11.08534 0.865263,2.30989 1.060373,2.7885 2.136927,5.24196 1.396045,3.18154 1.959417,4.14524 4.362675,7.46259 0.59555,0.82206 1.497499,2.1112 2.004336,2.86475 0.506837,0.75356 1.507334,2.15479 2.223319,3.11386 0.715977,0.95907 1.651243,2.2482 2.078355,2.86475 1.482421,2.13992 1.819909,2.55251 3.755736,4.59152 2.317587,2.44113 4.484904,4.14176 6.58016,5.16325 1.535916,0.7488 3.798691,1.73241 5.106728,2.21986 0.616545,0.22976 1.415274,0.56549 1.774961,0.74608 0.466141,0.23404 0.679583,0.30271 0.743177,0.23912 0.124558,-0.12456 0.755597,-0.11138 1.075999,0.0225 0.315743,0.13193 1.722343,1.18399 2.415152,1.80642 0.268054,0.24082 0.926364,0.96335 1.462921,1.60564 1.441306,1.72531 2.445101,2.70453 4.09647,3.99614 2.0671,1.61679 2.38863,1.83823 4.12518,2.84127 1.54356,0.89157 3.88128,1.97858 5.21861,2.42658 1.788625,0.59919 5.412916,1.36638 7.568966,1.60219 0.63321,0.0692 3.62843,0.0537 4.83024,-0.0251 z m -3.46015,-24.49958 c -0.4567,-0.0418 -1.19189,-0.132 -1.63377,-0.20043 -0.77836,-0.12052 -3.45374,-0.79172 -4.552427,-1.1421 -0.625964,-0.19962 -2.459619,-1.03247 -3.093799,-1.40521 -0.52772,-0.31016 -2.60742,-1.74708 -3.46606,-2.39479 -0.34252,-0.25838 -1.13355,-0.81372 -1.75784,-1.23408 -2.58907,-1.74334 -4.20707,-3.07808 -6.16818,-5.0883 -1.68533,-1.72754 -3.533813,-3.44262 -4.182643,-3.8808 -0.259237,-0.17506 -0.849801,-0.51201 -1.312381,-0.74878 -0.715436,-0.36619 -0.892185,-0.49885 -1.183265,-0.88808 -0.193457,-0.25867 -0.342209,-0.55036 -0.342209,-0.67099 0,-0.25478 0.57659,-0.97569 0.924099,-1.15539 0.131367,-0.0679 0.733853,-0.57559 1.338854,-1.12813 1.419654,-1.29654 1.882049,-1.6446 3.591103,-2.70312 0.776386,-0.48087 1.673179,-1.0507 1.992869,-1.26631 1.584583,-1.0687 2.866083,-1.72267 4.778973,-2.4388 1.66988,-0.62517 2.26776,-0.79701 3.77376,-1.08464 2.46579,-0.47093 2.67881,-0.48757 6.476816,-0.50582 5.16601,-0.0249 7.06086,-0.16272 10.25498,-0.74624 0.84489,-0.15436 2.11535,-0.34312 2.82323,-0.41948 0.70788,-0.0764 1.54862,-0.17099 1.86831,-0.21029 1.47202,-0.18098 3.85881,-0.0316 6.14469,0.38455 2.12473,0.38681 2.3466,0.43824 5.35584,1.24152 3.88263,1.03641 4.13543,1.11919 6.14468,2.01206 2.07016,0.91994 2.4894,1.2557 2.49054,1.99462 7.2e-4,0.62803 -0.32239,1.10163 -1.56374,2.29029 -1.86403,1.78488 -2.83463,2.77918 -3.73954,3.83087 -0.90886,1.05628 -4.135,5.36552 -5.15155,6.88106 -1.39566,2.08074 -2.83648,3.88761 -4.15425,5.20968 -1.7291,1.73473 -2.71298,2.43734 -5.153,3.67985 -1.44483,0.73574 -3.2251,1.29941 -5.27281,1.66947 -0.8954,0.16181 -3.98969,0.2315 -5.23128,0.11781 z m 4.12225,-2.07541 c 1.0036,-0.10135 2.66952,-0.46523 3.84923,-0.84079 1.02722,-0.32701 3.04202,-1.33399 4.19724,-2.09774 1.37953,-0.91205 2.89199,-2.48239 4.56387,-4.73852 2.47062,-3.33399 3.01807,-4.04278 4.51701,-5.84827 1.65768,-1.99667 4.29084,-4.69569 5.50884,-5.6466 0.42244,-0.32982 0.76808,-0.6087 0.76808,-0.61976 0,-0.011 -1.03692,-0.004 -2.30426,0.0161 l -2.30425,0.0362 -0.9134,0.44049 c -1.27464,0.61468 -1.59903,0.82794 -3.52904,2.32002 -2.01221,1.55561 -2.48729,1.87296 -4.73307,3.16161 -2.17993,1.25088 -2.71542,1.49943 -4.5492,2.11151 -3.63789,1.21426 -6.35592,1.66048 -10.1067,1.65921 -2.37846,-7.1e-4 -5.296907,-0.24564 -6.912488,-0.5799 -0.950768,-0.19671 -3.014348,-0.88027 -4.878648,-1.61606 -2.21419,-0.87389 -2.64884,-1.02737 -4.11951,-1.45453 -2.05143,-0.59586 -2.33495,-0.62995 -4.144017,-0.49829 l -1.52363,0.1109 0.741773,0.66966 c 0.407961,0.36831 1.414356,1.33961 2.236414,2.15845 1.97064,1.9629 3.2396,2.98382 6.47683,5.21081 0.54804,0.377 1.33463,0.9358 1.74799,1.24178 1.16205,0.86015 3.19308,2.17419 4.000095,2.58797 1.301894,0.66753 1.901451,0.88835 3.876891,1.42785 2.85011,0.77839 5.19726,1.02384 7.53395,0.78788 z m -5.45047,-12.09873 c -0.0204,-0.12559 -0.0783,-0.5086 -0.12886,-0.85112 -0.25726,-1.74429 -0.60377,-2.17814 -1.01217,-1.26728 -0.15024,0.33508 -0.17587,0.54108 -0.16796,1.35032 0.005,0.5252 0.0121,0.96425 0.0155,0.97567 0.004,0.0114 0.30413,0.0207 0.66834,0.0207 h 0.66222 z m 3.67727,0.14209 c 0.44348,-0.0474 0.8485,-0.10058 0.90003,-0.11807 0.11192,-0.038 -0.54082,-2.42366 -0.75085,-2.74421 -0.0991,-0.15121 -0.20917,-0.20684 -0.40934,-0.20684 -0.39121,0 -1.14354,0.40547 -1.31745,0.71005 -0.16709,0.29264 -0.31072,1.17629 -0.31309,1.92635 l -0.001,0.51898 h 0.54301 c 0.29866,0 0.90586,-0.0388 1.34934,-0.0863 z m -6.70845,-0.24644 c 0,-0.29363 -0.24962,-1.8576 -0.34451,-2.15839 -0.19306,-0.61206 -0.54781,-0.7486 -0.91687,-0.35291 -0.350137,0.37542 -0.413437,0.57956 -0.479567,1.54666 -0.0348,0.50802 -0.0575,0.93129 -0.0506,0.94059 0.0263,0.0357 1.102647,0.17066 1.438717,0.18043 0.30134,0.009 0.3529,-0.0141 0.3529,-0.15638 z m 10.2965,-0.33379 c 0.95193,-0.22536 1.93585,-0.50914 2.02069,-0.5828 0.0381,-0.0331 0.011,-0.17312 -0.0604,-0.31112 -0.0714,-0.13801 -0.20974,-0.54399 -0.30751,-0.90218 -0.17734,-0.64975 -0.4705,-1.25141 -0.70426,-1.44542 -0.1827,-0.15164 -0.71291,0.0316 -1.04106,0.35973 -0.39642,0.39642 -0.63688,0.99831 -0.73149,1.83103 -0.0784,0.68989 -0.0496,1.21975 0.0663,1.21845 0.0286,0 0.36952,-0.0758 0.75772,-0.16769 z m -13.499178,-0.30919 c -0.1457,-0.99954 -0.541398,-1.84756 -0.862098,-1.84756 -0.15829,0 -0.73166,0.51341 -0.95636,0.85634 -0.20601,0.31443 -0.29852,0.70815 -0.18326,0.77999 0.12529,0.0781 1.806298,0.59683 1.950318,0.60186 0.0828,0.003 0.0951,-0.0906 0.0514,-0.39063 z m -3.846018,-1.34478 c -0.25263,-0.66485 -0.39105,-0.83492 -0.67954,-0.83492 -0.26531,0 -0.60581,0.28808 -0.68117,0.57629 -0.0344,0.13144 0.0803,0.20242 0.71748,0.44421 0.41713,0.15827 0.76935,0.27828 0.78273,0.26668 0.0134,-0.0116 -0.0494,-0.21511 -0.1395,-0.45226 z m 21.730796,0.20027 c 0.82704,-0.38027 1.92756,-1.0438 1.9165,-1.15551 -0.005,-0.048 -0.1075,-0.36669 -0.22834,-0.7082 -0.17368,-0.49085 -0.27882,-0.66046 -0.50186,-0.8096 -0.59218,-0.396 -1.26789,-0.1387 -1.59851,0.60872 -0.19066,0.43103 -0.41363,2.35798 -0.27284,2.35798 0.0259,0 0.3341,-0.13203 0.68505,-0.29339 z m -34.097246,-2.15847 c 0.334097,-0.0698 0.92506,-0.22321 1.31325,-0.341 0.835571,-0.25354 5.06268,-1.88583 6.89202,-2.66135 1.53095,-0.64902 2.02124,-0.8252 2.74019,-0.98465 0.60466,-0.1341 2.85134,-0.24887 7.224136,-0.36904 2.59145,-0.0712 3.21881,-0.11626 5.18977,-0.37259 1.23309,-0.16037 3.04535,-0.38561 4.02726,-0.50051 3.47972,-0.40722 5.51528,-0.74843 7.43814,-1.24681 0.59723,-0.15479 1.34205,-0.32236 1.65516,-0.37238 1.1752,-0.18774 4.49344,0.17639 7.18181,0.7881 1.34412,0.30584 2.49894,0.45951 3.86118,0.51377 1.38908,0.0553 3.91457,-0.038 3.80642,-0.14064 -0.20768,-0.19717 -2.67081,-1.2032 -3.54121,-1.44637 -2.07616,-0.58003 -6.13007,-1.54595 -7.67365,-1.8284 -1.89222,-0.34624 -2.64681,-0.43781 -4.21024,-0.51091 -1.33146,-0.0623 -3.48731,0.1293 -6.23411,0.55395 -3.49699,0.54064 -4.53167,0.65059 -6.93622,0.73705 -1.63186,0.0587 -2.85239,0.0581 -3.94153,-0.002 -2.001681,-0.11024 -4.182216,7.1e-4 -5.854046,0.29756 -1.65545,0.29406 -1.95912,0.38086 -3.81476,1.09046 -1.65778,0.63396 -2.44832,1.03481 -3.99065,2.02357 -0.47954,0.30742 -1.112319,0.68003 -1.406184,0.82802 -0.730321,0.36779 -1.834125,1.05988 -2.561219,1.6059 -0.54232,0.40725 -2.592457,2.32473 -2.592457,2.42469 0,0.0857 0.848191,0.0343 1.42694,-0.0865 z m 38.173366,-0.17725 c 0.71213,-0.39537 1.50262,-0.9294 1.50262,-1.01511 0,-0.14488 -0.4984,-0.74557 -0.66156,-0.79735 -0.40114,-0.12732 -1.12791,0.14393 -1.3083,0.48829 -0.14111,0.26938 -0.26228,1.62827 -0.14519,1.62827 0.0356,0 0.31118,-0.13685 0.61243,-0.3041 z m -20.270327,-2.09668 c 0.169437,-0.0873 0.436857,-0.29286 0.594237,-0.4567 l 0.28615,-0.2979 -1.946861,0.002 -1.946885,0.002 0.20759,0.16249 c 0.48277,0.37789 1.507645,0.72545 2.183002,0.7403 0.17308,0.004 0.453327,-0.0645 0.622767,-0.15189 z m 4.454637,-0.0412 c 0.1815,-0.0758 0.35941,-0.25246 0.50564,-0.50197 0.12408,-0.21173 0.21004,-0.40052 0.19102,-0.41954 -0.019,-0.019 -0.40656,0.003 -0.86121,0.0488 -0.45465,0.0459 -1.0228,0.10317 -1.26257,0.12734 -0.23977,0.0241 -0.43547,0.0693 -0.43491,0.10025 0.002,0.0986 0.60122,0.4496 1.03405,0.60552 0.51089,0.18404 0.48519,0.18281 0.82798,0.0396 z m -9.823906,-0.25311 c 0.154,-0.0665 0.39211,-0.20072 0.52911,-0.29814 l 0.24911,-0.17714 -0.99643,0.0469 c -0.54804,0.0258 -1.14492,0.0893 -1.32638,0.1411 l -0.32995,0.0943 0.28843,0.15356 c 0.35643,0.18976 1.19033,0.21055 1.58611,0.0395 z M 108.9224,217.7806 c 0.23702,-0.12257 0.67006,-0.57972 0.67006,-0.70738 0,-0.0379 -0.0654,-0.056 -0.14532,-0.0402 -0.0799,0.0158 -0.73383,0.0939 -1.45313,0.17364 -0.7193,0.0797 -1.30782,0.17404 -1.30782,0.20967 0,0.0753 0.26733,0.23661 0.62277,0.37569 0.36112,0.14131 1.33135,0.13443 1.61344,-0.0115 z m 4.42115,-0.14871 c 0.16779,-0.10253 0.37736,-0.27983 0.46571,-0.39401 0.2219,-0.28675 0.45114,-0.74697 0.37309,-0.74897 -0.0354,-7.1e-4 -0.67149,0.0799 -1.41348,0.17962 l -1.34907,0.18128 0.14876,0.25632 c 0.17694,0.30488 0.87033,0.70852 1.2208,0.71065 0.137,7.1e-4 0.38638,-0.0824 0.55419,-0.18489 z m 4.5616,-1.42736 c 0.36138,-0.15563 0.79725,-0.51181 0.72076,-0.58898 -0.0325,-0.0328 -0.57426,0.0693 -1.20402,0.22669 l -1.14501,0.28622 0.24911,0.14119 c 0.28773,0.16308 0.91842,0.1333 1.37916,-0.0651 z m -49.590465,6.41428 c -0.257342,-0.0862 -0.285717,-0.14413 -0.906592,-1.85188 -0.265669,-0.73072 -0.614594,-1.64619 -0.775383,-2.03439 -0.746189,-1.80143 -1.009706,-3.33758 -0.940152,-5.48039 0.05306,-1.63457 0.171692,-2.3103 0.936648,-5.33508 0.988518,-3.90884 2.13175,-6.64683 4.515964,-10.81548 0.470165,-0.82206 1.290068,-2.33633 1.822003,-3.36504 0.531928,-1.02872 1.145411,-2.13609 1.363283,-2.46084 0.739558,-1.10229 1.796292,-2.33909 3.481023,-4.0742 0.990826,-1.02045 1.9359,-2.08271 2.303122,-2.58868 1.465321,-2.01902 1.875412,-2.54182 2.54914,-3.24979 0.829504,-0.87167 2.061234,-1.91981 3.785833,-3.22155 1.18541,-0.89475 1.24278,-0.92708 1.64543,-0.92708 0.54565,0 0.7384,0.10786 0.7384,0.4132 0,0.13271 -0.0382,0.2649 -0.0849,0.29375 -0.0466,0.0288 -0.23835,0.26022 -0.42595,0.51415 -0.18758,0.25393 -0.57523,0.69701 -0.86144,0.98463 -0.60809,0.61109 -1.28527,1.67 -1.961431,3.06708 -0.767043,1.58484 -0.844496,1.96951 -0.8527,4.23484 -0.0057,1.59411 0.01766,1.99907 0.141744,2.44957 0.301556,1.09477 0.557175,1.3686 1.548717,1.65906 3.91105,1.14571 4.18482,1.25813 5.41163,2.22246 0.39337,0.30921 1.1407,0.94219 1.66072,1.40663 2.08612,1.86312 4.28693,3.27989 6.306639,4.05991 2.251197,0.86941 5.763307,0.95079 8.532387,0.19769 0.88184,-0.23983 1.18121,-0.41743 2.72364,-1.61579 1.06705,-0.82902 1.87246,-1.56328 3.47145,-3.16476 2.12771,-2.13101 2.52922,-2.47525 3.61823,-3.10207 1.39172,-0.80106 2.1764,-1.52042 2.61841,-2.40044 0.24646,-0.4907 0.57167,-1.72367 0.71789,-2.72183 0.16337,-1.11516 -0.09,-2.35863 -0.98722,-4.84448 -0.58433,-1.619 -1.00391,-2.47578 -1.72052,-3.51332 -0.68575,-0.99288 -1.13505,-1.84581 -1.06959,-2.03051 0.0959,-0.27071 0.30049,-0.43479 0.54205,-0.43479 0.17766,0 0.4853,0.19177 1.16553,0.72657 2.13589,1.67922 3.56057,2.83235 4.37992,3.54512 1.16109,1.01007 1.39258,1.181 2.36652,1.7474 0.99597,0.57922 4.03835,2.73996 4.67815,3.3225 1.59057,1.44822 4.43821,4.8173 6.87807,8.13755 1.29855,1.76711 2.03566,2.91427 3.20133,4.98217 0.43764,0.7764 1.26696,2.21499 1.84291,3.1969 2.35102,4.00809 2.98687,5.73236 3.09467,8.39203 0.0546,1.34614 -0.0124,1.70891 -0.36673,1.98766 -0.39728,0.31249 -0.76979,0.0408 -0.76979,-0.56147 0,-0.48981 -0.32704,-1.76001 -0.89153,-3.46272 -0.64568,-1.94758 -1.44365,-3.52948 -4.12752,-8.1823 -1.21728,-2.1103 -2.164,-3.56519 -3.16091,-4.85762 -0.42273,-0.54804 -1.09991,-1.43184 -1.50484,-1.96401 -2.46765,-3.24299 -4.60686,-5.72212 -5.70952,-6.61675 -0.87315,-0.70842 -2.85036,-2.14281 -4.08214,-2.96142 -0.64183,-0.42654 -1.35728,-0.94665 -1.58989,-1.15578 -0.23261,-0.20914 -0.4401,-0.38025 -0.4611,-0.38025 -0.021,0 0.0666,0.29595 0.19458,0.65768 0.28984,0.81907 0.63348,2.4261 0.70445,3.29427 0.0843,1.03175 -0.32579,3.02263 -0.86984,4.22249 -0.63948,1.41034 -1.83619,2.7534 -3.14864,3.53367 -1.93217,1.14873 -1.95723,1.16934 -4.33275,3.56456 -1.94391,1.96001 -2.48257,2.45134 -3.62204,3.30376 -1.89269,1.41588 -2.43001,1.64339 -4.84773,2.05261 -2.19928,0.37226 -4.02375,0.35993 -6.10822,-0.0413 -1.885774,-0.36297 -4.184956,-1.38759 -5.913256,-2.63522 -0.39848,-0.28766 -1.14103,-0.82277 -1.65012,-1.18913 -0.50909,-0.36637 -1.26386,-0.97913 -1.67725,-1.36169 -0.99051,-0.91665 -1.93515,-1.66231 -2.41023,-1.90258 -0.21135,-0.10689 -1.12622,-0.44179 -2.03304,-0.74422 -1.888625,-0.62988 -2.977786,-1.15348 -3.421842,-1.645 -0.712337,-0.78847 -1.032547,-2.02924 -1.032547,-4.00096 0,-1.27131 0.173473,-3.01498 0.378782,-3.80729 0.07079,-0.27325 0.110855,-0.51471 0.08901,-0.53657 -0.02187,-0.0219 -0.384978,0.47738 -0.806912,1.10941 -1.167112,1.74826 -1.814974,2.5912 -2.713576,3.53065 -2.305671,2.4105 -3.779503,4.46977 -5.456842,7.62438 -0.400675,0.75356 -1.048173,1.94928 -1.438898,2.65717 -1.554412,2.81615 -2.955705,5.96125 -3.743445,8.40182 -0.426279,1.3207 -1.216411,4.40341 -1.326326,5.1746 -0.268859,1.88645 -0.185908,2.97938 0.403345,5.31433 0.48077,1.90507 0.652164,2.86731 0.721091,4.0482 0.04523,0.77445 0.03319,0.91373 -0.09051,1.05044 -0.183238,0.20247 -0.368569,0.24823 -0.63886,0.15773 z M 185.37592,157.88114 c -0.18884,-0.20865 -0.173,-0.34962 0.0767,-0.68313 0.82808,-1.10592 1.90976,-4.25143 3.09656,-9.00481 0.60685,-2.43056 0.79855,-4.2897 0.59932,-5.81254 -0.15087,-1.15323 -0.65008,-3.55953 -0.88483,-4.26499 -0.31504,-0.94681 -1.39025,-3.04326 -1.4656,-2.85766 -0.033,0.0812 -0.25003,1.13781 -0.48237,2.34807 -0.50866,2.64952 -0.73304,3.64828 -1.17444,5.22764 -0.64345,2.30231 -1.1405,3.53946 -1.52264,3.78984 -0.19149,0.12547 -0.22246,0.12545 -0.41454,0 -0.17783,-0.11652 -0.20748,-0.19826 -0.20681,-0.57005 7.2e-4,-0.23871 0.0924,-0.92679 0.20427,-1.52908 0.1119,-0.60228 0.37441,-2.20903 0.58335,-3.57056 0.71475,-4.65761 1.1537,-6.82333 1.75497,-8.65886 1.11786,-3.41252 3.39653,-6.01591 5.86253,-6.69792 0.2406,-0.0665 0.86805,-0.14319 1.39436,-0.17031 0.76865,-0.0396 1.05452,-0.0212 1.45313,0.094 1.18506,0.34215 2.09727,1.08794 2.44497,1.99896 0.38872,1.01842 0.29357,2.84801 -0.25426,4.88818 -0.13619,0.50725 -0.46753,1.78168 -0.73633,2.83208 -0.2854,1.11542 -0.53845,1.94124 -0.60833,1.98533 -0.19582,0.12355 -0.37864,-0.006 -0.43551,-0.30947 -0.0293,-0.15633 0.0414,-1.10179 0.1572,-2.10103 0.42111,-3.63478 0.49377,-6.25098 0.18956,-6.82447 -0.19086,-0.3598 -0.78823,-0.73155 -1.37166,-0.85358 -1.00831,-0.21093 -2.36756,0.22124 -3.40052,1.08117 -1.08886,0.90648 -2.17547,2.61842 -2.6827,4.22656 l -0.19207,0.60899 0.19634,0.34593 c 0.10799,0.19025 0.58145,0.9251 1.05211,1.63298 0.95001,1.42881 1.26332,2.08788 1.56608,3.29435 0.49751,1.98253 0.74555,4.9972 0.55446,6.73877 -0.22316,2.03378 -1.16772,5.59523 -2.1313,8.03602 -0.54162,1.37192 -1.45345,3.25425 -1.90666,3.93597 -0.60796,0.91452 -1.01516,1.17582 -1.31537,0.84409 z m -157.123267,-1.6957 c -0.416629,-0.4928 -0.773132,-1.41041 -1.395304,-3.59132 -0.338749,-1.18742 -0.821078,-2.70076 -1.071847,-3.36297 -0.250776,-0.66221 -0.60879,-1.69124 -0.795602,-2.28673 -0.275027,-0.87672 -0.433472,-1.22428 -0.832787,-1.82681 -0.911258,-1.37498 -2.476288,-3.18513 -4.412416,-5.10348 -1.037098,-1.02758 -2.231936,-2.29803 -2.655202,-2.82324 -0.870384,-1.08 -1.355798,-1.6053 -1.937153,-2.09631 l -0.401572,-0.33916 0.0505,0.3666 c 0.334077,2.42437 0.500513,3.43493 0.709988,4.31085 0.305281,1.27652 0.314718,1.57118 0.05804,1.81233 -0.417568,0.39228 -0.792383,0.15766 -1.224089,-0.76623 -0.431079,-0.92256 -0.697481,-1.90227 -0.995683,-3.66174 -0.426799,-2.51819 -0.416201,-3.2144 0.05748,-3.77735 0.44167,-0.52491 1.001182,-0.63477 1.589737,-0.31219 0.711676,0.39008 2.416506,1.88868 3.446389,3.0295 0.572311,0.63396 1.538914,1.6018 2.148003,2.15075 1.161642,1.04695 2.26264,2.19825 3.761178,3.93298 1.677168,1.94153 2.143445,2.76914 2.7836,4.94066 0.228876,0.77639 0.526636,1.7749 0.661685,2.21889 0.358776,1.17949 0.486717,1.88151 0.627507,3.44313 0.148531,1.64749 0.324255,2.66975 0.545104,3.17114 0.185146,0.42033 0.199924,0.60146 0.06047,0.74092 -0.190167,0.19017 -0.537618,0.11415 -0.778039,-0.17022 z m 43.392246,20.28918 c 1.955015,-0.19881 3.231009,-0.38004 3.944223,-0.56019 1.059455,-0.26759 2.974365,-1.16045 4.724777,-2.20299 0.756081,-0.45032 3.357683,-2.55777 3.955284,-3.20402 0.711326,-0.7692 2.205421,-3.05787 2.939631,-4.50294 1.20651,-2.37468 1.75026,-3.7271 2.93789,-7.30719 1.3679,-4.12355 1.82506,-5.57581 2.27404,-7.22416 0.30055,-1.10338 0.33184,-1.31763 0.37423,-2.56304 0.0546,-1.60223 -0.008,-1.97683 -0.50889,-3.04191 -0.52865,-1.12438 -1.2832,-1.91435 -2.3711,-2.48242 -0.85445,-0.44618 -1.61645,-0.63091 -3.14518,-0.76249 -0.76033,-0.0654 -2.223144,-0.23042 -3.25072,-0.36665 -3.049575,-0.40429 -5.674067,-0.66498 -6.666915,-0.66221 l -0.930901,0.003 1.472344,0.48969 c 2.069303,0.68824 2.90298,1.12731 4.50627,2.37327 1.234623,0.95947 2.026984,1.93735 2.032561,2.50846 0.0021,0.22941 -0.272855,0.51897 -0.493048,0.51897 -0.0895,0 -0.304349,-0.15412 -0.477459,-0.34251 -0.321633,-0.35 -3.327321,-2.38341 -4.107276,-2.77865 -1.083385,-0.54899 -3.801518,-1.47569 -5.590553,-1.90601 -2.48663,-0.59811 -2.916619,-0.64591 -5.275115,-0.58645 -2.898849,0.0731 -3.813782,0.16412 -5.134103,0.51078 -1.40118,0.36789 -2.36163,0.7383 -3.630403,1.40011 -1.887569,0.9846 -2.849244,1.68678 -5.032116,3.67427 -1.317516,1.19959 -2.16813,2.12135 -2.837906,3.07528 -0.250341,0.35656 -0.564518,0.7525 -0.698164,0.87987 -0.21533,0.20522 -0.255157,0.21692 -0.349859,0.10281 -0.08769,-0.10565 -0.08091,-0.23665 0.03775,-0.72979 0.306257,-1.27278 0.975421,-2.25786 2.692978,-3.96432 1.865932,-1.85386 3.231886,-2.91075 4.944864,-3.82602 0.440352,-0.23529 0.781828,-0.44661 0.75883,-0.4696 -0.0574,-0.0574 -2.510303,0.20071 -3.827763,0.40282 -1.359187,0.20852 -7.132942,1.71743 -8.070373,2.10911 -0.784542,0.3278 -1.93367,1.30065 -2.603318,2.20395 -0.535966,0.72298 -0.672575,1.04664 -1.050794,2.48952 -0.308636,1.17744 -0.31474,1.22996 -0.313408,2.69549 0.0021,2.08155 0.29019,3.83822 1.294626,7.88844 0.271822,1.09608 0.55234,2.27312 0.623376,2.61565 0.185309,0.89346 0.693927,2.23301 1.481858,3.9027 0.377151,0.79923 0.772071,1.67733 0.877592,1.95135 0.764101,1.98418 1.818349,3.09152 3.935862,4.13408 0.459397,0.22618 1.190252,0.61905 1.624116,0.87304 1.537468,0.90005 2.597463,1.31155 5.314322,2.06306 0.942403,0.26069 3.480404,0.68212 4.657002,0.77329 1.709893,0.1325 7.040389,0.0403 8.960941,-0.15504 z m -4.831352,-15.40827 c -2.828269,-0.28353 -5.311771,-1.08748 -7.35453,-2.38077 -1.559119,-0.9871 -2.198356,-1.51349 -3.624021,-2.98428 -0.689725,-0.71157 -1.440878,-1.41779 -1.669227,-1.56939 -0.228349,-0.15161 -0.500783,-0.35272 -0.6054,-0.44692 -0.10463,-0.0942 -0.310145,-0.21004 -0.456704,-0.25741 -0.217259,-0.0702 -0.271252,-0.13551 -0.292312,-0.35344 -0.02535,-0.26221 -0.01068,-0.27452 0.770874,-0.64713 0.695672,-0.33165 0.920908,-0.49819 1.776087,-1.31322 1.112884,-1.06065 3.169589,-2.49869 4.495438,-3.14321 1.588384,-0.77214 3.695178,-1.34101 5.771018,-1.55826 1.266778,-0.13259 3.747055,-0.25738 4.22457,-0.21257 0.234004,0.0219 1.004643,0.0794 1.712522,0.12773 1.577459,0.10762 2.442516,0.25846 3.380168,0.58941 1.902832,0.67161 3.284668,1.54619 4.840425,3.06355 0.570872,0.55678 1.374251,1.31336 1.785281,1.68129 1.335643,1.19559 1.619202,1.62526 1.619202,2.45351 0,0.91266 -0.320295,1.46337 -1.352009,2.32463 -0.776365,0.6481 -4.080362,2.8588 -4.839663,3.23822 -0.738227,0.36889 -2.097478,0.8233 -3.013081,1.0073 -1.926299,0.38711 -5.312378,0.56705 -7.168638,0.38096 z m 3.870816,-1.54176 c 3.714301,-0.41872 5.130487,-0.86963 7.490486,-2.38491 0.495989,-0.31846 1.095834,-0.677 1.332985,-0.79675 0.542476,-0.27395 1.833064,-1.29801 2.080656,-1.65098 0.107152,-0.15276 0.186834,-0.38989 0.186834,-0.55604 0,-0.26248 -0.107444,-0.39527 -1.144172,-1.41396 -2.04773,-2.01209 -3.458966,-3.14713 -4.732974,-3.80666 -0.792012,-0.40999 -1.683755,-0.78669 -1.736779,-0.73366 -0.02179,0.0218 0.02393,0.40698 0.10161,0.85596 0.194505,1.12416 0.202047,3.26195 0.01439,4.07488 -0.442004,1.91454 -1.810173,4.13024 -3.030459,4.9077 -0.456661,0.29093 -1.130995,0.52762 -2.028301,0.71193 -1.194133,0.24528 -3.556653,-0.0614 -4.590276,-0.59579 -1.053306,-0.54459 -1.989406,-1.4433 -2.456003,-2.35791 -0.58179,-1.1404 -0.824981,-3.29148 -0.533659,-4.72045 0.183551,-0.90034 0.536116,-1.93828 0.86406,-2.54377 0.14116,-0.26061 0.242871,-0.48764 0.22602,-0.50447 -0.05605,-0.0561 -1.078898,0.36291 -1.934105,0.79226 -0.839203,0.42133 -2.884021,1.74064 -3.771584,2.43342 -0.655353,0.51154 -1.945728,1.73239 -1.83104,1.73239 0.0527,0 0.740106,0.62164 1.527618,1.3814 1.688371,1.62887 2.25467,2.10093 3.590811,2.99321 1.199759,0.80121 1.34176,0.87651 2.322372,1.23148 1.377177,0.49852 2.974898,0.87722 4.18616,0.99223 1.624471,0.15423 2.182103,0.14825 3.865375,-0.0415 z m -1.322957,-2.87828 c 0.6516,-0.13482 0.675438,-0.14866 1.248097,-0.72472 0.695914,-0.70004 1.268068,-1.77999 1.496259,-2.82424 0.256638,-1.1744 0.03184,-3.49299 -0.472793,-4.87707 -0.153666,-0.42145 -0.206811,-0.48572 -0.434476,-0.52549 -0.14267,-0.0249 -0.446235,-0.0843 -0.674583,-0.13187 -0.228349,-0.0476 -1.311976,-0.1061 -2.408052,-0.12997 -2.073947,-0.0452 -3.288798,0.0395 -3.353553,0.23378 -0.01973,0.0593 -0.212188,0.29535 -0.427653,0.52468 -0.491993,0.52368 -0.773579,1.08051 -1.040593,2.05779 -0.430175,1.57445 -0.341355,2.87619 0.284655,4.17172 0.702629,1.45409 1.767034,2.20125 3.416155,2.39797 0.488476,0.0583 1.665737,-0.0276 2.366537,-0.17258 z m -2.325016,-3.13479 c -0.42078,-0.19263 -1.057032,-0.65598 -1.237991,-0.90158 -0.403951,-0.54822 -0.07832,-1.75004 0.625142,-2.30718 1.11656,-0.88434 2.325215,-0.71293 2.9135,0.41318 0.512157,0.98038 0.205038,2.14425 -0.703279,2.66516 -0.490413,0.28126 -1.150218,0.33513 -1.597372,0.13042 z m 74.17077,19.26015 c 1.7304,-0.15513 2.33285,-0.24139 3.80026,-0.54419 1.24954,-0.25784 2.61786,-0.66496 3.61442,-1.07542 0.61861,-0.25479 3.32828,-1.66934 4.27403,-2.23122 0.88065,-0.52319 2.69942,-2.41172 3.54869,-3.68479 1.18947,-1.78306 2.25692,-4.74927 2.46831,-6.85896 0.10799,-1.07773 0.11102,-3.18492 0.006,-4.32984 -0.0439,-0.47954 -0.11999,-1.61921 -0.1691,-2.53261 -0.1254,-2.3321 -0.31755,-4.07452 -0.49877,-4.52276 -1.12391,-2.77995 -1.38777,-3.28128 -2.52383,-4.79544 -1.12427,-1.49843 -1.53954,-1.88943 -2.49468,-2.34883 -1.95343,-0.93959 -3.1421,-1.31158 -4.78863,-1.49861 -1.07178,-0.12175 -1.2346,-0.0845 -0.73799,0.16872 0.88353,0.45055 1.67758,1.12652 2.48932,2.11917 0.70702,0.86459 0.8859,1.28312 0.64945,1.51956 -0.14724,0.14725 -0.40776,0.12052 -0.68919,-0.0707 -0.13702,-0.0931 -0.492,-0.31342 -0.78885,-0.48963 -0.29685,-0.1762 -0.83867,-0.55205 -1.20403,-0.83523 -1.34583,-1.0431 -2.20634,-1.34604 -5.31432,-1.87086 -2.22873,-0.37635 -2.37144,-0.39048 -3.446,-0.34127 -0.61655,0.0282 -1.7749,0.12603 -2.57412,0.21733 -1.59666,0.1824 -3.94279,0.42375 -6.06166,0.62357 -1.9773,0.18646 -2.75088,0.32813 -3.83706,0.70266 -1.26209,0.43519 -1.52754,0.55624 -3.62063,1.65117 -1.53305,0.80197 -2.20074,1.21081 -3.52384,2.15774 l -0.26828,0.19201 -0.14085,-0.17395 c -0.11572,-0.14292 -0.12484,-0.22162 -0.0511,-0.44111 0.14205,-0.42286 1.41873,-1.61006 2.33411,-2.17054 0.44173,-0.27046 0.78966,-0.50523 0.77319,-0.5217 -0.10841,-0.1084 -4.31172,1.00521 -5.21769,1.38236 -1.37234,0.57131 -2.85594,1.58335 -3.56117,2.42929 -1.04175,1.24956 -1.67967,2.49282 -1.82363,3.55407 -0.10843,0.79928 -0.0564,2.29827 0.13553,3.90271 0.14348,1.19958 0.15572,1.25236 0.7127,3.07234 0.39801,1.30056 0.60004,1.79467 1.73152,4.23485 0.26471,0.57087 0.60076,1.32821 0.74677,1.68296 0.31452,0.76416 1.62237,2.9699 2.29355,3.86812 1.48925,1.99304 2.66751,3.20099 4.31277,4.42146 1.98586,1.47314 3.5896,2.30667 5.23803,2.72247 0.79693,0.20102 3.4379,0.55944 5.22642,0.70929 1.90789,0.15987 7.22321,0.1633 8.98013,0.006 z m -8.82124,-15.90591 c -1.82669,-0.18783 -4.84431,-0.8434 -6.08541,-1.32201 -1.32824,-0.51222 -3.30396,-1.91154 -4.31354,-3.0551 -1.04997,-1.18931 -2.13817,-2.27078 -2.4683,-2.45304 -0.46361,-0.25596 -0.70918,-0.65187 -0.70918,-1.14333 0,-0.37112 0.0253,-0.41827 0.38268,-0.71429 0.37514,-0.3107 0.98883,-0.70368 2.31599,-1.48306 0.79087,-0.46442 0.79105,-0.46456 3.04451,-2.15836 2.20771,-1.6594 2.41874,-1.804 3.21354,-2.20179 0.94101,-0.471 2.27585,-0.8929 4.95185,-1.56513 1.32843,-0.3337 2.32606,-0.49202 4.27636,-0.67863 2.08735,-0.19973 5.5196,0.0686 6.92893,0.54168 0.78579,0.26378 2.02453,0.87406 2.57873,1.27044 0.80326,0.57451 2.78414,2.27677 3.14574,2.7033 0.20115,0.23725 0.66836,0.78635 1.03826,1.22021 0.89823,1.05356 1.0356,1.35369 0.98754,2.15759 -0.0247,0.41345 -0.097,0.74013 -0.21409,0.96777 -0.25067,0.48726 -1.03735,1.45555 -1.98498,2.44323 -2.8507,2.97121 -6.20995,4.49266 -11.81583,5.35155 -1.04085,0.15947 -4.18834,0.23049 -5.2728,0.11897 z m 6.22771,-2.06497 c 2.7859,-0.45765 4.18438,-0.86481 5.81034,-1.69166 1.86138,-0.94658 2.96464,-1.81329 4.51359,-3.54584 0.80382,-0.8991 1.1766,-1.44284 1.1766,-1.71621 0,-0.2026 -0.68781,-1.01396 -2.11532,-2.49535 -0.88113,-0.91437 -0.93749,-0.93154 -0.95119,-0.28965 -0.0157,0.73393 -0.5505,2.63942 -1.03988,3.70492 -0.6577,1.43194 -1.7921,2.39396 -3.54574,3.0069 -2.18101,0.76235 -4.41774,-0.16345 -5.89182,-2.43864 -0.96442,-1.48854 -1.16802,-2.47348 -1.0031,-4.85278 0.0548,-0.79064 0.159,-1.6991 0.23152,-2.01879 0.0725,-0.31969 0.15221,-0.66955 0.17708,-0.77745 0.0443,-0.19235 0.0364,-0.19514 -0.40219,-0.14197 -1.10574,0.13407 -1.7172,0.25466 -3.27064,0.64504 -2.9447,0.74001 -4.05209,1.21726 -5.85406,2.52289 -2.30194,1.6679 -2.63116,1.92135 -3.48517,2.68296 -0.48082,0.42882 -1.125,0.94712 -1.43148,1.15178 l -0.55725,0.37211 0.80636,0.88024 c 1.61068,1.75824 2.04846,2.17648 2.91423,2.78418 1.4394,1.01035 2.20834,1.34753 4.07832,1.78842 2.59556,0.61194 3.82558,0.75262 6.26925,0.71706 1.75282,-0.0255 2.1829,-0.0603 3.57055,-0.28816 z m 3.40001,-4.60417 c 1.13209,-0.41093 2.0309,-1.09565 2.43136,-1.85223 0.36646,-0.69236 0.84196,-2.26548 0.95535,-3.16065 0.12822,-1.01215 -0.0102,-2.14013 -0.29175,-2.37654 -0.53254,-0.44724 -1.92046,-0.99091 -2.99411,-1.17285 -1.02789,-0.17418 -3.70813,-0.32783 -4.4673,-0.25611 l -0.63431,0.0599 -0.0974,0.96945 c -0.0536,0.53321 -0.10938,1.05756 -0.12397,1.16523 -0.0404,0.29821 0.17918,2.24879 0.32538,2.88992 0.28118,1.23304 1.16327,2.51836 2.22291,3.23908 1.04765,0.71256 1.72735,0.83834 2.67387,0.49477 z m -1.51002,-2.67247 c -1.37971,-0.68754 -1.82703,-2.42692 -0.9746,-3.78972 0.15746,-0.25173 0.43931,-0.56373 0.62633,-0.69333 0.94272,-0.65331 2.41914,-0.11218 3.11345,1.14114 0.21372,0.38578 0.24372,0.52276 0.24186,1.10468 -0.001,0.51394 -0.046,0.76253 -0.19623,1.09832 -0.21411,0.47871 -0.77718,1.04984 -1.21562,1.23303 -0.45215,0.18892 -1.10445,0.15043 -1.59519,-0.0941 z m -95.015141,-6.93219 c 0.936235,-0.0432 2.169319,-0.15308 2.740197,-0.24421 0.570872,-0.0911 1.056634,-0.1661 1.079468,-0.16661 0.02286,-7.1e-4 0.04152,-0.2166 0.04152,-0.48015 0,-0.37154 0.05968,-0.60009 0.265547,-1.0172 0.405881,-0.82229 0.891601,-1.23783 3.471081,-2.96968 0.818165,-0.54931 3.788065,-2.02495 5.189771,-2.57862 1.717821,-0.67853 6.048752,-2.26297 6.892008,-2.52137 0.782832,-0.2399 3.027609,-0.78617 4.940654,-1.20232 0.960044,-0.20884 1.117756,-0.21808 4.317891,-0.25276 2.949338,-0.032 3.512162,-0.0164 5.023691,0.13876 1.499778,0.15398 1.815821,0.21342 2.657161,0.49978 2.764363,0.94091 4.502936,2.02789 4.843016,3.02793 0.39497,1.16144 -0.0808,2.39679 -1.202187,3.12157 -1.008061,0.65155 -2.163877,1.00341 -4.886369,1.48752 -1.027576,0.18274 -2.036471,0.38579 -2.241986,0.45123 l -0.373661,0.11901 0.360029,0.008 c 1.591041,0.0363 4.205334,0.24607 7.40386,0.59416 6.748574,0.73443 7.484984,0.819 9.690414,1.11295 3.185875,0.42463 3.979689,0.48856 5.380656,0.43334 1.86673,-0.0736 2.71292,-0.23012 6.97505,-1.29033 2.81811,-0.701 4.48435,-1.16281 6.6429,-1.84116 1.7721,-0.55689 3.99506,-1.09934 5.77102,-1.40826 0.79923,-0.13903 2.06968,-0.36366 2.82323,-0.49919 1.9522,-0.35112 5.39173,-0.81544 9.21703,-1.24424 2.34428,-0.2628 4.53145,-0.35985 7.05808,-0.3132 1.3016,0.024 2.32917,0.0313 2.2835,0.016 -0.0457,-0.0152 -1.44691,-0.25329 -3.11386,-0.52908 -4.76166,-0.78776 -7.0096,-1.0337 -13.36884,-1.4627 -1.07324,-0.0724 -3.76362,-0.16326 -5.97862,-0.20191 -3.62251,-0.0632 -4.10652,-0.0878 -4.8161,-0.24436 -0.97365,-0.21489 -1.25733,-0.30486 -1.78527,-0.56623 -0.9406,-0.46565 -1.28707,-0.92424 -1.28707,-1.70353 0,-0.92649 0.69378,-1.81351 2.32449,-2.97197 1.04288,-0.74088 1.78686,-1.1471 2.49176,-1.36053 0.72157,-0.2185 2.10283,-0.37528 3.32182,-0.37704 1.87707,-0.003 4.36367,-0.34784 6.89149,-0.95649 1.63306,-0.39322 3.29448,-0.68647 5.18977,-0.91604 2.68557,-0.32527 6.51207,0.0532 10.96079,1.08408 2.67142,0.61906 4.00462,1.09461 6.85049,2.44359 2.01345,0.95441 2.53765,1.25139 3.94061,2.23249 1.73476,1.21316 2.51065,2.19094 2.59652,3.27218 0.10206,1.28496 -0.48662,1.96814 -2.1383,2.4815 l -0.62068,0.19293 0.99644,0.0982 c 0.54804,0.054 2.2482,0.11094 3.77815,0.12653 l 2.78171,0.0283 0.98069,-0.53974 c 0.53937,-0.29685 1.69773,-1.0087 2.57412,-1.58187 0.8764,-0.57318 1.9671,-1.26164 2.4238,-1.52992 0.4567,-0.26827 1.54032,-0.94405 2.40805,-1.50174 0.86774,-0.55769 2.05716,-1.266 2.64317,-1.57403 0.58602,-0.30804 1.08198,-0.60305 1.10213,-0.65559 0.0202,-0.0526 -0.0382,-0.67353 -0.12976,-1.38 -0.20364,-1.57181 -0.40791,-6.21554 -0.55146,-12.53591 -0.0535,-2.35524 0.0259,-3.84963 0.42128,-7.92997 0.38281,-3.95067 0.3936,-4.96824 0.0863,-8.137556 -0.25812,-2.662431 -0.33268,-3.054738 -0.9213,-4.847925 -0.248,-0.755497 -0.54722,-1.823406 -0.66491,-2.373139 -0.55413,-2.58819 -0.81477,-3.426347 -1.62771,-5.234376 -0.56032,-1.246168 -1.81418,-3.59277 -2.35155,-4.400921 -1.27177,-1.912646 -3.82001,-4.145629 -5.44684,-4.773 -0.8113,-0.312874 -2.6278,-0.682169 -4.772,-0.970151 -1.46679,-0.197004 -1.93228,-0.222736 -4.10401,-0.226846 -2.54363,-0.005 -2.93041,0.02528 -6.89202,0.536629 -1.89897,0.245107 -5.61293,0.875825 -6.84991,1.16328 -0.59403,0.138048 -1.80869,0.418658 -2.69925,0.623582 -3.46074,0.796336 -5.93453,1.530959 -8.09561,2.404092 -0.8429,0.34055 -2.04724,0.810957 -2.67632,1.045353 -0.62908,0.234388 -1.93912,0.776928 -2.9112,1.205642 -0.97209,0.428715 -2.29859,0.979089 -2.94779,1.223049 -0.6492,0.24396 -1.7969,0.706654 -2.55046,1.028203 -0.75355,0.321555 -2.26689,0.921029 -3.36297,1.332166 -1.09608,0.411138 -2.27312,0.859196 -2.61564,0.995676 -0.34252,0.136481 -1.23931,0.462709 -1.99287,0.724944 -0.75356,0.262243 -1.83718,0.681706 -2.40805,0.93214 -0.57088,0.250434 -1.50503,0.652555 -2.07591,0.893602 -0.57087,0.241047 -1.26215,0.540047 -1.53617,0.664463 -0.89452,0.40613 -2.60504,0.957103 -3.21893,1.036849 -1.576161,0.204739 -4.100826,0.04067 -5.235156,-0.340187 -0.89309,-0.299876 -2.74305,-1.153145 -3.07551,-1.418557 -0.33425,-0.266816 -1.80306,-0.853868 -3.49995,-1.398837 -3.131311,-1.005647 -7.785009,-1.954908 -12.16482,-2.481373 -7.486796,-0.899934 -12.61209,-0.911942 -18.600119,-0.04359 -4.685527,0.679491 -10.194218,2.109836 -13.398776,3.479016 -2.02536,0.865363 -6.235473,3.051796 -7.52636,3.908655 -1.464068,0.971817 -3.267446,2.785466 -3.899724,3.921953 -0.196528,0.353234 -0.471889,0.829083 -0.611917,1.057432 -0.498361,0.812695 -0.631502,1.180807 -0.961027,2.657158 -0.568792,2.548354 -0.6738,3.682614 -0.761038,8.220604 -0.04216,2.19215 -0.09343,4.03039 -0.113989,4.08496 -0.02058,0.0546 0.0043,1.04478 0.05441,2.20046 0.07058,1.61585 0.06787,2.48487 -0.01175,3.76196 -0.05698,0.9134 -0.134088,2.87514 -0.171351,4.35941 -0.06716,2.67623 -0.313785,5.88868 -0.535432,6.97504 l -0.110121,0.53974 1.500404,1.53617 c 1.843882,1.88783 4.987255,4.95101 7.362495,7.17464 0.980363,0.9178 2.02662,1.90476 2.325015,2.19323 l 0.542525,0.52451 1.287063,-0.051 c 0.707886,-0.0281 2.053072,-0.0863 2.989307,-0.12953 z M 117.0242,115.56694 c -0.0456,-0.0187 -0.18471,-0.0564 -0.30898,-0.0837 -0.28019,-0.0617 -0.43521,-0.31914 -0.32086,-0.53281 0.13257,-0.24769 1.03706,-0.59955 2.3291,-0.90606 3.99007,-0.94656 5.67222,-1.39807 9.96734,-2.67533 1.13333,-0.33703 4.54133,-1.12927 6.14468,-1.42843 1.13688,-0.21213 4.69872,-0.30436 5.98584,-0.15501 2.23173,0.25895 6.12971,1.07189 6.41822,1.33854 0.22164,0.20485 0.12281,0.52493 -0.20385,0.66024 -0.20784,0.0861 -0.70732,0.0879 -2.59594,0.009 -4.00578,-0.16662 -6.82499,-0.11359 -8.56632,0.16113 -1.40803,0.22214 -4.54126,0.96303 -7.18263,1.69842 -2.72018,0.75733 -6.6236,1.60014 -8.22059,1.77495 -0.86356,0.0945 -3.31318,0.1932 -3.44601,0.1388 z m -31.180101,-4.95805 c -2.737848,-0.14941 -9.135497,-0.21952 -12.243729,-0.13418 -2.491003,0.0684 -3.317408,0.0642 -3.944224,-0.02 -0.436128,-0.0586 -0.839666,-0.14351 -0.896757,-0.18873 -0.162113,-0.12843 -0.122735,-0.34731 0.100151,-0.5567 0.186955,-0.17563 0.309761,-0.19705 1.473896,-0.25703 0.698471,-0.036 1.774392,-0.10526 2.390937,-0.15394 2.750867,-0.21719 4.980296,-0.27469 11.66659,-0.30091 7.488461,-0.0293 12.689341,-0.13483 14.157676,-0.28708 2.446191,-0.25363 8.051221,-1.44651 11.123321,-2.36729 0.70594,-0.21159 1.65878,-0.4757 2.11742,-0.5869 1.59289,-0.38625 4.59426,-0.70029 6.69265,-0.70029 0.86876,0 0.9102,0.008 1.03823,0.20352 0.26435,0.40343 -0.0635,0.77196 -0.92311,1.03744 -0.83867,0.25904 -3.09705,0.73933 -4.53119,0.96365 -1.80299,0.28202 -2.1906,0.3688 -4.60762,1.03162 -3.0748,0.84317 -7.30793,1.72782 -9.996294,2.08903 -1.933932,0.25985 -10.427202,0.40191 -13.617947,0.22778 z m 6.476835,-13.201325 c -1.34,-0.117443 -3.06244,-0.405874 -4.23486,-0.709147 -0.61654,-0.159478 -1.38254,-0.357978 -1.70223,-0.441085 -0.319701,-0.08312 -1.515422,-0.341754 -2.657165,-0.574746 -3.349287,-0.683458 -5.852953,-0.886117 -8.330858,-0.674327 -0.533067,0.04558 -1.66048,0.139828 -2.505375,0.209496 -0.844894,0.06965 -2.320863,0.23676 -3.279931,0.371339 -2.235747,0.313714 -3.369363,0.392292 -7.182639,0.497849 -3.253266,0.09007 -3.929074,0.05527 -4.124775,-0.21236 -0.150205,-0.205423 -0.138938,-0.308821 0.06146,-0.563571 0.371603,-0.472402 1.969922,-0.762015 6.720493,-1.217736 1.955194,-0.187561 2.12101,-0.208799 4.483958,-0.574447 2.139862,-0.331142 6.147158,-0.668879 7.939092,-0.669128 1.366473,0 3.338838,0.147328 4.557863,0.340871 1.010034,0.160368 4.669317,0.961404 6.352277,1.390553 1.73724,0.44298 3.56591,0.735791 6.26924,1.003831 1.91991,0.190374 4.268622,0.336896 5.400136,0.336896 0.67534,0 0.80945,0.02336 0.95212,0.166073 0.21704,0.217032 0.20969,0.379117 -0.0279,0.61676 -0.24086,0.240848 -0.6987,0.341468 -2.271671,0.499266 -2.714785,0.272341 -4.859035,0.340357 -6.419175,0.203613 z M 54.830061,139.51505 c 0.822054,-0.091 2.484856,-0.2942 3.695107,-0.45152 1.210257,-0.15734 2.592813,-0.32752 3.072343,-0.37819 1.256117,-0.13272 3.062165,-0.38661 4.733073,-0.66535 0.79922,-0.13332 2.07035,-0.31764 2.824715,-0.4096 0.75438,-0.092 1.837999,-0.26265 2.408052,-0.37931 0.570059,-0.11667 1.596959,-0.30308 2.282012,-0.41427 1.527141,-0.24786 2.530444,-0.45248 3.841124,-0.78336 0.552418,-0.13948 1.857193,-0.40427 2.899518,-0.58847 3.3054,-0.58409 4.453425,-1.01769 4.635245,-1.75069 0.08006,-0.32278 -0.197766,-0.57743 -1.203947,-1.10352 -1.269499,-0.66377 -2.659725,-1.18296 -3.446005,-1.28694 -2.59037,-0.34256 -3.253159,-0.38218 -6.393789,-0.38216 l -3.15538,3e-5 -1.909833,0.44017 c -3.048819,0.70269 -3.351409,0.79003 -6.699647,1.93383 -4.946437,1.68975 -6.080018,2.19709 -8.039292,3.59807 -0.525205,0.37554 -1.331077,0.92955 -1.79083,1.23115 -0.775553,0.50875 -1.44758,1.11533 -1.44758,1.3066 0,0.0447 0.102751,0.10387 0.228349,0.13158 0.125591,0.0277 0.265718,0.0628 0.311385,0.0781 0.247706,0.0826 1.84735,0.0187 3.15538,-0.12611 z m 122.674609,-1.00424 c 0.27697,-0.48429 1.04507,-1.99763 1.70687,-3.36297 1.62943,-3.36164 2.12748,-4.88008 2.65948,-8.10813 0.0713,-0.43278 0.0778,-0.64354 0.0197,-0.64354 -0.0475,0 -0.85503,0.48063 -1.79454,1.06804 -0.9395,0.58743 -2.28117,1.40014 -2.9815,1.80604 l -1.27329,0.738 0.0444,0.41518 c 0.10789,1.00999 0.22357,2.90317 0.29935,4.89914 0.086,2.26548 0.23997,3.60343 0.46462,4.03786 0.16985,0.32845 0.19609,0.30238 0.85494,-0.84962 z m -24.65032,-6.44964 c 1.31266,-0.34458 1.41162,-0.38887 1.41162,-0.63179 0,-0.6159 -1.70538,-2.0376 -3.89939,-3.25075 -2.74415,-1.51733 -4.96649,-2.38995 -8.22775,-3.23071 -3.1869,-0.82158 -5.5477,-1.20915 -7.71853,-1.26716 -2.35216,-0.0628 -4.58944,0.21709 -7.47569,0.93537 -2.36683,0.58902 -4.2668,0.83202 -7.42932,0.95021 -2.61298,0.0977 -3.08092,0.23058 -4.0671,1.15539 -0.27494,0.25783 -0.74278,0.67835 -1.03963,0.93449 -0.29685,0.25614 -0.61242,0.60316 -0.70127,0.77117 -0.18889,0.35719 -0.16427,0.38647 0.49368,0.5871 1.03922,0.31692 1.81504,0.37029 5.39736,0.37137 3.51143,0.001 4.78054,0.0597 9.05095,0.41783 3.05311,0.25607 4.81854,0.48226 8.7188,1.11702 3.70122,0.60238 6.12636,0.95288 8.05452,1.16412 2.53579,0.2778 2.43934,0.27255 4.567,0.24855 1.8226,-0.0206 1.95345,-0.033 2.86475,-0.27221 z M 27.92327,125.69036 c 0.153766,-1.42531 0.247051,-2.88264 0.297646,-4.65003 0.04053,-1.41576 0.114702,-3.02252 0.164827,-3.57055 0.05612,-0.61341 0.07255,-1.87421 0.0428,-3.27993 -0.02656,-1.25593 -0.01375,-4.11445 0.02849,-6.35228 0.07108,-3.76298 0.0935,-4.178 0.29816,-5.52191 0.121716,-0.79923 0.270034,-1.68668 0.329589,-1.97212 0.05954,-0.28544 0.093,-0.518987 0.07432,-0.518987 -0.01866,0 -0.496104,0.700627 -1.060929,1.556937 -1.74383,2.64377 -3.462691,5.82743 -3.928733,7.27677 -0.119195,0.37068 -0.27195,0.73935 -0.339467,0.81927 -0.16435,0.19456 -0.534342,0.18417 -0.719296,-0.0202 -0.24176,-0.26714 -0.12854,-1.31073 0.275048,-2.53511 0.683543,-2.07374 2.418201,-5.72399 3.669467,-7.721684 1.284584,-2.050863 3.241907,-4.439244 5.520393,-6.736141 1.954111,-1.969893 2.966723,-2.655872 6.47756,-4.388122 3.512518,-1.733083 4.991221,-2.33839 7.899137,-3.233502 5.172308,-1.592152 10.739934,-2.543999 16.845671,-2.879962 3.115936,-0.17145 6.771231,0.01 11.95722,0.593456 6.019993,0.677318 12.294151,2.089003 14.731871,3.314658 0.35288,0.177426 0.78842,0.348278 0.96786,0.379665 0.17945,0.03141 0.56478,0.185823 0.85627,0.343192 0.67607,0.364965 2.03985,0.884194 2.88348,1.097807 1.11404,0.282092 2.46835,0.362173 3.852182,0.227779 1.408034,-0.136744 1.493234,-0.165781 6.310754,-2.150837 0.66221,-0.272869 2.28765,-0.861902 3.61207,-1.308963 4.22866,-1.427389 6.52574,-2.240119 7.84693,-2.776342 0.70788,-0.287305 1.92229,-0.75616 2.69868,-1.041913 0.77639,-0.285745 1.991,-0.771152 2.69912,-1.078669 0.70813,-0.307525 2.05331,-0.847216 2.98931,-1.199311 0.93599,-0.352095 2.13151,-0.819825 2.65671,-1.039399 2.04446,-0.854723 4.50953,-1.565144 9.05096,-2.608446 4.35759,-1.00106 7.04946,-1.481488 10.78767,-1.925309 3.21436,-0.38163 5.05876,-0.47869 7.04425,-0.370698 2.54735,0.138554 5.67436,0.585337 7.04022,1.005904 1.40211,0.431727 2.67424,1.218255 4.2035,2.598931 2.18165,1.969672 3.33289,3.591273 5.20041,7.325131 0.88896,1.777383 1.32699,2.963825 1.80627,4.892552 0.23897,0.96164 0.66466,2.45384 0.946,3.316019 0.59317,1.817879 0.74165,2.606181 1.04876,5.567876 0.2037,1.964464 0.21937,2.349691 0.17393,4.276378 -0.0275,1.16458 -0.10559,2.73397 -0.17362,3.48753 -0.48588,5.38287 -0.49923,10.22715 -0.0466,16.93939 0.0792,1.17457 0.32507,3.66904 0.36606,3.71374 0.0273,0.0298 2.35538,-1.00069 3.03832,-1.34494 0.34252,-0.17265 1.00315,-0.533 1.46807,-0.80079 0.46492,-0.26777 1.4738,-0.80917 2.24198,-1.20309 0.76817,-0.39392 1.90068,-1.03886 2.51668,-1.43321 1.02584,-0.65672 1.28428,-0.8791 3.07458,-2.64565 1.07502,-1.06076 2.02502,-1.98016 2.11111,-2.04311 0.14522,-0.10619 0.15275,-0.20065 0.10429,-1.30975 -0.0769,-1.75976 -0.45053,-5.28111 -0.68348,-6.44112 -0.11166,-0.55603 -0.33576,-1.71438 -0.49799,-2.57412 -0.29487,-1.56263 -1.42809,-6.370364 -1.80996,-7.67882 -0.11129,-0.381324 -0.60191,-1.963782 -1.09027,-3.516563 -0.84483,-2.686198 -1.33165,-3.993999 -3.5546,-9.549169 -0.45688,-1.141744 -1.14053,-2.865696 -1.51924,-3.831004 -0.37871,-0.9653 -0.99534,-2.441269 -1.37032,-3.279931 -0.37497,-0.838655 -0.99139,-2.240156 -1.36981,-3.114428 -0.37843,-0.87428 -1.03096,-2.312886 -1.45009,-3.196895 -0.41912,-0.884016 -1.11434,-2.466731 -1.54496,-3.51714 -1.13851,-2.777233 -2.76068,-5.998606 -4.30685,-8.552732 -0.71882,-1.187417 -1.64369,-2.738125 -2.05526,-3.446004 -0.87686,-1.508125 -1.43176,-2.287987 -3.42683,-4.816103 -2.1917,-2.777283 -2.62125,-3.252084 -5.97379,-6.60308 -3.44143,-3.439851 -4.06168,-4.010395 -6.31387,-5.807983 -4.56764,-3.645651 -7.65835,-5.802571 -10.51507,-7.338165 -0.94897,-0.510092 -6.69252,-3.261771 -8.12658,-3.893337 -2.73368,-1.203947 -6.47897,-2.437366 -10.27148,-3.382653 -2.50202,-0.623639 -3.00082,-0.729545 -5.46389,-1.160111 -4.04588,-0.707252 -8.70083,-1.303699 -14.57286,-1.867249 -8.006616,-0.76841 -7.871966,-0.763239 -11.915696,-0.457808 -1.99248,0.15049 -6.034591,0.325629 -7.013231,0.303871 -0.614772,-0.01367 -0.858369,0.03041 -1.951354,0.352949 -2.135468,0.630213 -3.65048,1.180666 -6.104811,2.218077 -3.436155,1.452416 -4.494854,1.936348 -7.052035,3.223482 -3.64459,1.834473 -4.853644,2.544724 -8.97564,5.272658 -2.47161,1.63571 -3.097378,2.100177 -5.313261,3.943668 -0.799812,0.665396 -2.369671,1.94159 -3.488588,2.835982 -1.118909,0.8944 -2.374763,1.92068 -2.790771,2.280631 -0.416016,0.359943 -1.68496,1.457829 -2.81988,2.43973 -3.08255,2.666947 -3.712506,3.253103 -6.955289,6.47162 -4.235267,4.203582 -5.65354,5.77159 -7.778232,8.59946 -3.750331,4.991513 -8.10352,12.746927 -10.60356,18.890752 -0.969816,2.38331 -2.016493,5.917792 -2.299141,7.763889 -0.470927,3.075762 -0.575152,8.079867 -0.257713,12.372404 0.217003,2.934352 0.243262,4.658532 0.09155,6.012002 -0.300289,2.67909 -0.622165,4.18435 -1.575301,7.36691 -1.492157,4.98239 -2.166392,8.3539 -2.165024,10.82616 4.7e-4,0.81545 0.03789,1.45508 0.09242,1.58 0.0777,0.17792 0.178387,0.22487 0.66123,0.30832 0.313258,0.0541 0.977806,0.25265 1.476766,0.44114 0.49896,0.1885 1.166791,0.39684 1.484067,0.463 0.704873,0.14696 1.32795,0.40156 2.459138,1.00483 0.798237,0.42571 0.884657,0.45391 1.124885,0.36704 0.143119,-0.0518 0.429754,-0.11734 0.636957,-0.14574 0.815224,-0.11173 2.464523,0.50746 3.974592,1.49221 0.388041,0.25304 0.72931,0.4338 0.758383,0.40167 0.02906,-0.0321 0.153645,-0.99256 0.276814,-2.13432 z"
       style="fill:#ffffff;stroke-width:0.0830365" />
  </g>
</svg>
