<?xml version="1.0" encoding="UTF-8" standalone="no"?>
<svg
   xmlns:dc="http://purl.org/dc/elements/1.1/"
   xmlns:cc="http://creativecommons.org/ns#"
   xmlns:rdf="http://www.w3.org/1999/02/22-rdf-syntax-ns#"
   xmlns:svg="http://www.w3.org/2000/svg"
   xmlns="http://www.w3.org/2000/svg"
   id="svg8"
   version="1.1"
   viewBox="0 0 210 297"
   height="297mm"
   width="210mm">
  <defs
     id="defs2" />
  <metadata
     id="metadata5">
    <rdf:RDF>
      <cc:Work
         rdf:about="">
        <dc:format>image/svg+xml</dc:format>
        <dc:type
           rdf:resource="http://purl.org/dc/dcmitype/StillImage" />
        <dc:title></dc:title>
      </cc:Work>
    </rdf:RDF>
  </metadata>
  <g
     id="layer1">
    <path
       id="path74"
       d="m 119.81828,283.54353 c -1.30083,-0.38791 -2.1535,-0.89851 -3.14431,-1.8829 -0.92228,-0.91632 -1.16745,-1.32179 -1.92741,-3.18759 -0.50763,-1.24636 -1.42485,-2.54277 -2.95343,-4.17442 -1.55143,-1.65607 -2.11606,-2.63021 -2.32218,-4.00637 -0.18134,-1.21083 -0.008,-1.98943 1.06056,-4.76349 l 0.19652,-0.5102 -0.66669,-0.75462 c -0.69165,-0.78288 -1.43598,-1.87682 -1.95316,-2.87057 l -0.29987,-0.57618 -0.66933,0.94098 c -0.59527,0.83685 -1.82183,2.39742 -3.58067,4.55573 -1.30923,1.6066 -1.87491,3.04951 -2.22057,5.66416 -0.12796,0.96786 -0.30017,2.08221 -0.38269,2.47635 -0.40716,1.94457 -1.535094,4.23177 -2.677054,5.42847 -1.05806,1.10878 -2.88445,2.02963 -3.71607,1.87362 -0.99907,-0.18742 -1.52042,-1.07693 -2.41141,-4.11429 -0.22181,-0.75614 -0.49163,-1.54866 -0.59957,-1.76118 -0.2308,-0.45432 -0.73848,-0.98841 -0.93955,-0.98841 -0.0777,0 -0.57165,0.57306 -1.09772,1.27346 -1.5191,2.0225 -1.98423,2.23347 -3.40845,1.54587 -1.37837,-0.66546 -2.21038,-1.37399 -6.47484,-5.51392 -1.49545,-1.45179 -3.02534,-3.02476 -3.399742,-3.49549 -0.840957,-1.05734 -1.547197,-2.41515 -1.785319,-3.43244 -0.299639,-1.28011 -0.224358,-1.18933 -0.716279,-0.86379 -0.854331,0.56537 -1.695661,0.21423 -3.146718,-1.31336 -1.23098,-1.29592 -2.175882,-2.79599 -3.049393,-4.84109 -0.95634,-2.239 -1.373619,-4.11009 -1.599148,-7.17067 -0.191945,-2.60482 -0.203514,-2.68142 -0.461624,-3.05593 -0.614544,-0.8917 -1.45936,-1.83406 -2.141061,-2.38826 -0.409249,-0.3327 -1.192926,-0.9788 -1.741525,-1.43578 -0.548587,-0.45698 -1.616087,-1.29663 -2.372221,-1.86588 -0.756138,-0.56926 -2.315157,-1.80607 -3.464482,-2.74849 -2.839052,-2.32792 -3.761272,-3.03204 -5.114236,-3.90469 -3.394313,-2.1893 -5.721488,-4.41657 -7.682008,-7.35217 -1.322908,-1.98086 -2.053745,-3.39537 -3.019697,-5.84452 -0.656757,-1.6652 -1.059825,-3.17935 -1.668838,-6.26907 -0.666808,-3.38291 -0.717497,-4.00733 -0.717497,-8.83794 v -4.37233 l -0.271837,-0.36846 c -0.261069,-0.35386 -1.388291,-1.63255 -3.543858,-4.02008 -1.219288,-1.35049 -3.102623,-3.81588 -3.610583,-4.72645 -0.480146,-0.86072 -1.541111,-3.56029 -1.933666,-4.9201 -0.817583,-2.83218 -1.126614,-7.90263 -0.651145,-10.68381 0.277202,-1.62152 0.453309,-2.13253 1.62096,-4.70371 l 0.958055,-2.10965 -1.124824,-2.21006 c -1.266228,-2.48786 -1.457281,-2.98676 -1.71043,-4.46635 -0.30229,-1.76685 -0.940581,-6.66562 -1.117567,-8.57708 -0.431884,-4.66462 -0.840164,-6.34935 -2.092347,-8.63371 -0.87217,-1.59113 -2.351636,-4.96373 -2.733291,-6.23086 -0.313947,-1.04235 -0.854428,-3.3746 -1.066596,-4.60252 -0.329545,-1.90728 -0.13582,-4.22339 0.630172,-7.53387 0.209945,-0.90737 0.484906,-2.09519 0.611002,-2.63961 0.373055,-1.61058 0.33236,-2.78737 -0.155935,-4.50933 -0.222993,-0.78638 -0.613939,-2.44438 -0.868772,-3.68444 -0.809468,-3.93902 -0.663762,-5.44526 1.003492,-10.37433 0.483696,-1.42998 0.879437,-2.70445 0.879437,-2.83219 0,-0.12772 -0.290486,-0.63588 -0.645536,-1.12922 -0.952777,-1.32389 -1.413927,-2.07713 -1.672606,-2.73198 -0.352322,-0.8919 -0.972962,-3.686535 -1.088859,-4.902889 -0.306998,-3.221961 0.76964,-6.499501 3.994599,-12.160591 1.265648,-2.22171 2.497707,-3.8766 4.260083,-5.72213 l 1.200745,-1.257403 0.107718,-0.808923 c 0.05925,-0.44491 0.157619,-1.724538 0.218603,-2.843619 0.19542,-3.58555 0.994294,-5.994971 2.957282,-8.919174 1.359573,-2.0253 2.590397,-3.427897 5.410982,-6.16612 2.632829,-2.555942 3.183901,-3.191918 3.335998,-3.849935 0.03725,-0.16116 0.115493,-1.076775 0.173874,-2.034696 0.165964,-2.723455 0.526237,-4.24163 1.490661,-6.281619 1.202977,-2.544587 3.372227,-5.45102 5.212295,-6.983581 2.49765,-2.080261 3.961565,-3.069835 5.902258,-3.989787 0.816012,-0.386821 1.972555,-1.02567 2.570096,-1.419666 1.353885,-0.892712 1.871842,-1.58665 2.159691,-2.893507 0.516459,-2.344724 1.292328,-4.505195 2.114202,-5.887228 1.716368,-2.88614 5.551077,-5.283689 9.27741,-5.800454 0.971395,-0.134711 1.784153,-0.105105 5.097715,0.185696 2.20755,0.193737 3.40287,0.153924 5.31435,-0.177004 0.68473,-0.118545 1.84781,-0.271335 2.58461,-0.33953 1.65969,-0.153613 2.65836,-0.0131 5.20255,0.732038 2.6794,0.784726 2.88473,0.819619 3.75351,0.637848 0.46055,-0.09636 0.9677,-0.302037 1.34564,-0.545731 0.33359,-0.215102 0.92823,-0.549326 1.32142,-0.742719 0.71455,-0.351462 0.71586,-0.351646 2.74958,-0.388294 2.37237,-0.04275 2.786507,0.02501 4.391114,0.718261 1.84206,0.795858 2.57291,0.805643 5.45241,0.07299 1.9332,-0.491871 4.4623,-0.925208 6.10409,-1.04587 1.97501,-0.145154 6.16491,-0.05166 7.65702,0.170859 3.53248,0.526805 7.1605,1.669714 11.97504,3.772425 3.86198,1.686686 5.70207,2.407868 7.22428,2.831388 0.74494,0.20726 1.91824,0.532605 2.60734,0.722988 2.84601,0.786273 7.63968,2.939651 9.44228,4.241589 1.34633,0.97239 3.17595,2.885734 4.25292,4.447512 1.43413,2.079737 2.04376,2.844619 3.21676,4.03598 1.24964,1.2692 2.60722,3.182111 3.3138,4.669296 0.2434,0.512328 0.7253,1.818755 1.07088,2.903168 0.34558,1.084414 0.72755,2.16963 0.84883,2.411598 0.12127,0.241963 0.62603,0.959604 1.12169,1.594758 1.22789,1.573482 1.50664,1.999174 2.13377,3.258553 0.70492,1.415591 1.02553,2.327972 1.55424,4.423047 0.52734,2.089564 0.9986,3.503821 1.39395,4.183146 0.16271,0.279621 1.26888,1.498256 2.45815,2.708077 2.81674,2.865438 3.53719,3.851182 5.22484,7.148928 2.0515,4.008685 3.29815,8.210285 4.28677,14.447695 0.53204,3.35674 0.708,3.78539 3.06232,7.46001 2.33906,3.650805 2.73286,4.478939 3.6479,7.67136 0.68192,2.37916 0.85846,3.65177 0.87052,6.27555 0.0132,2.87136 -0.1311,3.80025 -1.24186,7.99302 -0.74125,2.79803 -0.86791,3.66725 -0.99883,6.85475 -0.10725,2.61109 -0.30706,4.5987 -0.93984,9.34861 -0.47598,3.57288 -0.85214,5.10535 -1.88971,7.69884 -1.08395,2.70938 -1.61883,3.65632 -3.467,6.13781 -0.72955,0.97955 -1.69507,2.21487 -2.14556,2.74516 -0.80487,0.94737 -0.81778,0.97221 -0.74343,1.42978 0.083,0.51048 1.11825,4.55498 1.19973,4.68683 0.11069,0.17909 0.72788,3.54113 0.83024,4.52251 0.17271,1.65614 0.13845,5.11617 -0.0646,6.52401 -0.35733,2.4774 -1.12717,4.89647 -2.15892,6.78399 -0.24801,0.45369 -0.61099,1.12184 -0.80663,1.48478 l -0.35573,0.6599 0.15228,0.7149 c 0.30851,1.44831 0.14849,2.89218 -0.4518,4.0768 l -0.28055,0.55365 0.49746,2.51975 c 0.27362,1.38588 0.57268,3.09339 0.66458,3.7945 0.37773,2.88146 0.091,6.10007 -0.89131,10.00717 -0.87236,3.46958 -1.9024,6.10691 -3.25768,8.34104 -1.35597,2.23528 -1.51352,2.58967 -1.51008,3.39656 0.002,0.3798 0.12591,1.38343 0.27619,2.23031 0.73391,4.13591 0.61487,7.60724 -0.4073,11.87821 -0.9354,3.90842 -2.54172,7.17038 -5.11021,10.37734 -2.90382,3.62563 -6.05836,6.15284 -10.39489,8.32769 -1.0005,0.50177 -2.70111,1.20094 -7.02335,2.88751 l -0.49492,0.19313 0.009,0.54545 c 0.005,0.3 0.11752,0.9909 0.25027,1.53532 0.1862,0.76363 0.26702,1.58052 0.35367,3.57447 0.14744,3.39268 0.0929,3.86807 -0.6432,5.60916 -0.4805,1.13647 -0.76478,1.57817 -1.24254,1.93065 -0.77649,0.57287 -1.79336,0.25085 -3.51141,-1.11203 -0.51418,-0.40786 -1.35556,-0.94452 -1.86973,-1.19254 l -0.93486,-0.45097 -1.53977,0.007 c -0.84687,0.003 -1.91096,0.0749 -2.36464,0.15827 -0.45369,0.0833 -1.31136,0.14923 -1.90594,0.14643 -0.94406,-0.004 -1.074,0.0174 -1.02543,0.17168 0.0306,0.0972 0.23526,0.69293 0.45481,1.32382 0.21955,0.63088 0.46987,1.45185 0.55627,1.82436 0.20188,0.87053 0.4905,3.87873 0.4905,5.11244 0,1.97131 -0.759,3.88953 -2.19595,5.54978 -0.66431,0.76756 -3.07814,2.84986 -4.843,4.17785 -1.77827,1.33808 -3.50186,3.01017 -4.03779,3.91717 -0.57321,0.97008 -0.73059,1.79386 -0.65825,3.44551 0.0539,1.23141 0.0341,1.49255 -0.15088,1.98693 -0.24311,0.64976 -0.63589,1.07224 -1.22614,1.3188 -0.61905,0.25859 -2.14755,0.21661 -3.16555,-0.087 z m 2.52604,-1.98749 c 0.0555,-0.14605 0.0739,-0.87606 0.0409,-1.62226 -0.15024,-3.39302 0.86358,-5.05896 5.07694,-8.34251 3.56744,-2.78018 5.31915,-4.48207 5.94186,-5.77292 0.84034,-1.74198 0.92451,-4.66455 0.22168,-7.69822 -0.27547,-1.18903 -1.03463,-3.57509 -1.30804,-4.11122 -0.23356,-0.45795 -0.29229,-0.49693 -1.18967,-0.78943 -2.27336,-0.74096 -4.04305,-1.85351 -5.68676,-3.57511 -1.11579,-1.16868 -2.49755,-3.08019 -2.89673,-4.00737 -0.34103,-0.79211 -0.65468,-2.26591 -0.57389,-2.69662 0.0862,-0.45923 0.34323,-0.50552 0.4469,-0.0805 0.18767,0.76953 1.01157,2.3826 1.72732,3.3819 2.34429,3.27292 5.16292,5.15811 8.97166,6.00047 1.1668,0.25806 2.49313,0.26928 4.5514,0.0385 2.05339,-0.23024 4.38255,-0.16438 5.25225,0.14851 1.058,0.38062 1.55057,0.68863 2.40923,1.50658 1.06639,1.01582 1.25496,1.12085 1.6029,0.89288 0.457,-0.29944 0.62598,-1.10787 0.68397,-3.27228 0.0597,-2.22614 -0.095,-3.4475 -0.64462,-5.09231 -0.57142,-1.70991 -1.31275,-2.76238 -2.51686,-3.57321 -0.33278,-0.2241 -1.2732,-0.79239 -2.08983,-1.26288 -1.66293,-0.95807 -2.96604,-1.90277 -4.50448,-3.26557 -1.30098,-1.15245 -1.76458,-1.74296 -1.76458,-2.24764 0,-0.56582 0.24218,-0.49015 1.48757,0.46483 1.62094,1.24295 3.66198,2.55581 5.43468,3.49574 0.86315,0.45766 1.7894,0.98062 2.05835,1.16214 0.26896,0.18152 0.51522,0.33003 0.54723,0.33003 0.15071,0 -0.15801,-0.84622 -0.80251,-2.19968 -1.24682,-2.61839 -1.97666,-5.30964 -2.08844,-7.70113 -0.0763,-1.63226 0.003,-2.61226 0.23675,-2.92748 0.31046,-0.4186 0.47528,0.0159 0.71527,1.886 0.36091,2.81226 1.2048,5.66011 2.35944,7.96241 0.68865,1.37314 1.05002,2.37223 1.05002,2.90308 0,0.20355 0.0273,0.39745 0.0608,0.4309 0.0334,0.0334 0.49125,-0.105 1.01734,-0.30765 0.5261,-0.20265 1.64944,-0.57132 2.49631,-0.81925 0.84687,-0.24794 1.83731,-0.61675 2.20095,-0.81958 0.36367,-0.20283 1.04456,-0.52107 1.51313,-0.7072 1.41609,-0.56254 2.49276,-1.15012 4.10196,-2.23858 0.8429,-0.57014 1.78363,-1.17118 2.09049,-1.33565 0.63568,-0.3407 2.27278,-1.90324 4.10151,-3.91473 1.4485,-1.59328 3.00658,-3.84964 3.76806,-5.45686 1.00622,-2.12376 1.8412,-5.07231 2.36346,-8.34608 0.3185,-1.99655 0.26292,-4.61404 -0.16581,-7.80883 -0.66304,-4.94068 -0.66549,-5.10554 -0.11041,-7.42389 0.41059,-1.71482 0.51929,-1.99957 0.74653,-1.95569 0.15346,0.0296 0.1777,0.26392 0.18223,1.76087 0.003,0.94967 0.0438,1.76526 0.0909,1.81241 0.1146,0.11461 0.64508,-0.54005 1.04341,-1.28763 0.92045,-1.72754 2.59041,-6.81604 3.09498,-9.43069 0.45066,-2.33521 0.59404,-7.4497 0.26292,-9.37739 -0.20595,-1.19889 -0.87164,-3.13691 -1.85126,-5.38944 -0.71043,-1.63356 -1.22199,-3.3425 -1.09761,-3.66665 0.14121,-0.36797 0.4738,-0.19861 0.77422,0.39423 0.16049,0.31674 0.41766,0.77454 0.57147,1.01735 0.15382,0.24281 0.48965,0.83371 0.74628,1.31312 l 0.46663,0.87162 0.0769,-0.41009 c 0.0423,-0.22555 0.0528,-0.98899 0.0234,-1.69652 -0.0454,-1.0891 -0.11723,-1.48885 -0.46859,-2.60621 -0.73842,-2.34821 -0.84336,-2.87296 -0.78085,-3.90442 0.0608,-1.00304 0.37576,-2.28228 0.73564,-2.9877 0.17146,-0.3361 0.27741,-0.42773 0.46392,-0.40119 0.23956,0.0341 0.24134,0.0501 0.19996,1.81178 -0.0334,1.42219 -0.003,1.93323 0.14933,2.55712 0.10508,0.42885 0.23782,0.77973 0.29496,0.77973 0.17081,0 1.59094,-3.04656 1.99946,-4.28935 0.53946,-1.64118 0.7327,-2.93189 0.73156,-4.88616 -0.002,-3.20188 -0.3549,-6.21261 -0.88671,-7.56181 -0.11841,-0.30041 -0.44245,-1.3221 -0.72007,-2.2704 -0.94256,-3.21957 -0.8582,-5.69894 0.19826,-5.82663 0.32314,-0.039 0.47489,0.11787 0.60634,0.62701 l 0.0966,0.37397 1.36865,-2.07872 c 2.05804,-3.12578 2.8924,-4.62023 3.6148,-6.47463 1.22262,-3.13845 1.6393,-4.72026 1.88346,-7.15 0.13839,-1.37702 0.24458,-11.13284 0.11961,-10.98668 -0.0451,0.0527 -0.40594,0.51663 -0.80182,1.0308 -0.85502,1.11053 -3.79022,4.00231 -4.31767,4.25385 -0.74408,0.35483 -0.96211,-0.14788 -0.40042,-0.92327 0.17605,-0.24303 0.61039,-0.75775 0.96523,-1.14384 1.04814,-1.14049 2.48283,-2.8415 3.14683,-3.73101 0.77931,-1.04394 2.12196,-3.48246 2.90429,-5.2747 0.70878,-1.6238 1.02417,-2.74887 1.41824,-5.05925 0.33826,-1.98313 0.32262,-3.47706 -0.0582,-5.55417 -0.4348,-2.37181 -1.67393,-6.165981 -2.6649,-8.159792 -0.66458,-1.337151 -1.09831,-1.877098 -3.73946,-4.655368 -2.66829,-2.80681 -3.09194,-3.30163 -3.71777,-4.34224 -1.07132,-1.7814 -1.4144,-2.66775 -1.10629,-2.85817 0.21654,-0.13383 0.5714,0.196 1.3934,1.29511 0.9584,1.28148 2.09791,2.66922 2.45751,2.99284 l 0.24441,0.21997 -0.0782,-0.87987 c -0.10507,-1.18175 -0.87341,-5.84091 -1.21352,-7.35864 -0.79669,-3.555285 -2.27846,-6.672374 -5.33776,-11.228577 -1.89371,-2.820301 -2.80722,-3.983379 -4.23462,-5.391413 -0.73711,-0.727113 -1.43753,-1.482069 -1.55649,-1.677679 -0.2147,-0.353061 -0.21774,-0.354046 -0.41575,-0.135259 -0.23395,0.258527 -0.5858,0.289177 -0.67423,0.05873 -0.0341,-0.08892 -0.007,-0.497227 0.0617,-0.907362 0.0873,-0.526271 0.0937,-1.328254 0.0218,-2.725407 -0.0963,-1.870294 -0.12437,-2.04331 -0.50798,-3.130639 -0.68464,-1.940567 -1.13658,-2.655384 -2.85725,-4.519093 -0.58342,-0.631925 -1.21123,-1.408788 -1.39517,-1.726364 -0.18391,-0.317579 -0.35077,-0.577416 -0.37082,-0.577416 -0.0921,0 -0.7134,1.224976 -0.93681,1.847107 -0.17966,0.500273 -0.29742,0.683042 -0.42457,0.658962 -0.28154,-0.05331 -0.26274,-0.487532 0.0939,-2.170217 0.38616,-1.821721 0.44443,-3.383358 0.16657,-4.464623 -0.64392,-2.505759 -2.86686,-5.186022 -5.96314,-7.189938 -0.57257,-0.370572 -0.90736,-0.658948 -0.90736,-0.781577 0,-0.204419 0.20869,-0.327852 0.55431,-0.327852 0.18971,0 0.18,-0.05879 -0.12044,-0.728412 -0.58079,-1.294456 -1.43509,-2.244068 -3.34843,-3.722034 -2.60324,-2.010862 -3.62941,-2.574694 -7.47889,-4.109302 -2.01101,-0.801699 -3.39213,-1.218923 -5.16922,-1.561581 -0.36295,-0.06998 -1.84773,-0.165285 -3.29951,-0.211787 -2.45866,-0.07875 -2.73008,-0.108245 -3.95941,-0.430228 -1.57088,-0.411446 -1.81473,-0.508538 -1.81473,-0.722596 0,-0.20886 0.51281,-0.302907 1.42979,-0.262216 1.14134,0.05065 2.63961,-0.01204 2.63961,-0.11042 0,-0.448143 -8.58462,-3.563579 -11.4383,-4.151062 -3.41025,-0.702069 -7.67159,-1.105249 -9.69379,-0.917167 -2.6229,0.243955 -5.27257,0.780427 -7.33694,1.485501 -1.30338,0.445159 -1.57772,0.501757 -2.44536,0.504504 -1.07105,0.0034 -1.28611,-0.07245 -2.58688,-0.912177 -1.056854,-0.682277 -2.695024,-0.924795 -4.388054,-0.649623 -0.78879,0.128207 -3.06511,0.974273 -3.77987,1.404913 -0.28022,0.16883 -0.64793,0.367465 -0.81713,0.441412 -0.46481,0.203145 -1.57848,0.161603 -2.49789,-0.09318 -1.63561,-0.45325 -3.70104,-0.886425 -4.50838,-0.945522 -0.64768,-0.04741 -1.35646,0.02784 -3.2995,0.350348 -2.92663,0.485751 -4.01106,0.514499 -6.434041,0.17057 -4.08623,-0.580017 -5.881414,-0.403486 -8.303758,0.816541 -2.323149,1.170074 -3.84244,2.688045 -4.859646,4.855419 -0.425745,0.907154 -2.069317,5.710336 -2.069317,6.0474 0,0.195418 -0.04957,0.204484 1.002226,-0.183327 0.893317,-0.329376 0.910476,-0.331284 1.117531,-0.124231 0.198619,0.198618 0.200303,0.229583 0.03036,0.558205 -0.406652,0.786388 -1.857731,1.561758 -3.524916,1.883508 -0.362947,0.07005 -1.229066,0.36209 -1.924712,0.648982 -0.695646,0.286894 -1.438035,0.58694 -1.649754,0.666767 -2.078711,0.783776 -5.754338,3.526592 -7.561334,5.642378 -1.566276,1.833932 -2.974538,4.212148 -3.59533,6.071661 -0.355963,1.066437 -0.660093,2.89419 -0.816137,4.905276 -0.195682,2.521819 -0.519065,3.073779 -3.325582,5.676264 -1.869818,1.73388 -3.65901,3.634891 -4.584631,4.871171 -2.645216,3.532999 -3.515241,5.71743 -3.766816,9.457517 -0.05903,0.877707 -0.138767,1.763835 -0.177172,1.969176 -0.07932,0.424148 -0.132894,0.44042 0.895487,-0.271999 0.362943,-0.251435 1.055839,-0.669471 1.539769,-0.928971 0.483927,-0.259503 1.288566,-0.715047 1.78809,-1.012321 0.499522,-0.297273 0.993878,-0.524003 1.098572,-0.503842 0.5905,0.113722 -0.0094,0.894979 -1.786828,2.32667 -0.604907,0.487265 -1.448726,1.221237 -1.875154,1.631045 -0.426428,0.409808 -1.242484,1.107362 -1.813474,1.550117 -2.83454,2.19799 -5.73704,6.3902 -7.851142,11.33981 -1.274898,2.98483 -1.664547,4.60136 -1.567486,6.503004 0.07655,1.499951 0.60887,3.929036 1.060482,4.839246 0.180079,0.36295 0.924379,1.46942 1.654001,2.45883 0.729632,0.98941 1.421437,1.98484 1.53736,2.21206 0.524634,1.02837 0.841923,3.20049 0.547786,3.75008 -0.128859,0.24079 -0.466793,0.28157 -0.623632,0.0753 -0.05748,-0.0756 -0.193712,-0.38494 -0.302739,-0.68739 -0.272133,-0.7549 -0.915545,-1.97895 -1.153353,-2.19415 -0.185291,-0.16769 -0.203383,-0.13944 -0.328831,0.51342 -0.07302,0.37999 -0.347415,1.53225 -0.60977,2.5606 -0.65714,2.57581 -0.872323,4.03002 -0.789328,5.3342 0.06935,1.0899 0.710438,4.38664 1.293934,6.654 0.602578,2.34152 0.566152,3.20365 -0.292778,6.92896 -1.178999,5.11356 -1.204318,6.44632 -0.200421,10.54954 0.208396,0.85175 0.470883,1.79612 0.583308,2.09857 0.494321,1.32988 1.837078,4.15724 2.431439,5.11974 0.900238,1.45787 1.13856,2.04637 1.645938,4.06445 0.481155,1.91379 0.697835,3.51644 0.877283,6.48846 0.192219,3.18374 0.705831,7.30106 1.111306,8.90867 0.335923,1.33184 1.280991,4.09658 1.357837,3.97225 0.03885,-0.0629 0.16439,-0.54331 0.278973,-1.06765 0.230964,-1.05691 0.349285,-1.25837 0.63368,-1.07898 0.274287,0.17302 0.378772,0.67259 0.311309,1.48837 -0.08204,0.99212 -0.342137,1.78835 -1.615416,4.94557 -1.267342,3.14248 -1.499902,4.0865 -1.599667,6.49342 -0.108808,2.62524 0.29613,6.29897 0.909202,8.24857 0.306667,0.97521 1.211853,3.20953 1.653314,4.08099 0.320703,0.63306 2.285888,3.25701 3.23377,4.31777 0.378377,0.42344 0.984979,1.14107 1.348005,1.59476 1.409371,1.76133 1.655515,2.01629 1.734659,1.79679 0.04007,-0.11112 0.107628,-0.94442 0.150137,-1.85178 0.08413,-1.79597 0.206759,-2.48074 0.490196,-2.73726 0.310617,-0.2811 0.46091,-0.0386 0.681349,1.09923 0.309033,1.59524 0.421293,3.4077 0.316038,5.10251 -0.132035,2.12589 -0.12482,9.34859 0.01045,10.45131 0.149348,1.21762 0.905882,5.0024 1.308697,6.54717 1.035778,3.97211 3.401327,8.31405 6.016494,11.04318 1.259345,1.31423 2.866434,2.63735 4.850561,3.99349 1.354171,0.92555 3.121947,2.31034 5.100715,3.99565 0.703017,0.59876 1.662185,1.41035 2.131483,1.80354 0.469312,0.39319 1.156178,0.98884 1.526384,1.32365 0.370204,0.33482 0.970054,0.8528 1.333001,1.15105 1.482237,1.21807 3.452735,2.98713 4.128805,3.70672 l 0.719315,0.76563 0.300847,-1.35635 c 0.39175,-1.76605 0.735449,-4.37675 0.733999,-5.57516 -0.0013,-0.58923 -0.106508,-1.45198 -0.27839,-2.2702 -0.449626,-2.14056 -0.43965,-2.0347 -0.191822,-2.0347 0.294567,0 0.518944,0.27146 0.857913,1.03793 0.504737,1.14131 0.747836,2.39436 0.748141,3.85634 0,1.73727 -0.153668,2.90226 -0.777955,5.88412 -0.510228,2.437 -0.518077,2.50557 -0.516815,4.50932 0.0013,1.86999 0.02532,2.12156 0.298234,3.10777 0.590918,2.13538 1.94453,5.10744 2.933874,6.44175 1.00073,1.34969 2.20371,2.57849 2.380583,2.43169 0.0789,-0.0655 0.278655,-0.47426 0.443893,-0.9084 1.275656,-3.35155 2.616686,-5.14722 5.623647,-7.53027 1.34941,-1.06943 2.0258,-1.48155 2.35276,-1.43352 0.42842,0.063 0.34322,0.27881 -0.36617,0.92781 -1.22162,1.11765 -3.87292,3.83583 -4.18911,4.2948 -0.39266,0.56996 -0.828373,2.52161 -0.916823,4.10666 -0.152886,2.73978 0.641313,4.26377 3.532413,6.77831 1.96276,1.70713 3.90273,3.5952 4.61852,4.495 0.7978,1.00287 1.45539,1.6562 2.0885,2.07497 0.46734,0.30911 0.91321,0.37755 0.99149,0.1522 0.44721,-1.28728 0.55994,-1.49121 1.14284,-2.06713 0.33948,-0.33542 0.73304,-0.68264 0.87459,-0.77162 l 0.25737,-0.16177 -0.40674,-0.60317 c -0.94864,-1.40683 -1.57475,-2.97124 -1.86486,-4.65948 -0.22695,-1.32069 -0.22366,-2.25324 0.008,-2.34223 0.23075,-0.0885 0.29416,0.0266 0.76772,1.39428 0.79828,2.30548 1.9839,4.45571 3.24447,5.88412 1.03856,1.17685 1.4583,1.8985 1.96325,3.37546 0.6339,1.85411 1.54686,4.15841 1.64755,4.15841 0.17299,0 2.73405,-2.71746 3.01489,-3.199 0.44108,-0.7563 0.726153,-2.05547 0.854633,-3.89494 0.16392,-2.34665 0.332817,-3.10713 0.977134,-4.39934 0.692907,-1.38971 1.785077,-2.84288 4.174337,-5.55417 2.0733,-2.35273 2.67441,-3.18394 3.14173,-4.34435 0.46434,-1.15296 0.86102,-1.40647 1.41986,-0.90737 0.15239,0.13611 0.7139,1.06663 1.24778,2.06782 0.62138,1.16525 1.28579,2.22348 1.84625,2.9406 1.30045,1.66395 1.55114,2.04839 1.62249,2.48804 0.0815,0.50226 -0.12622,1.30786 -0.6365,2.46844 -0.21896,0.49802 -0.4789,1.27777 -0.57764,1.73277 -0.30074,1.38585 0.007,2.07495 1.78286,3.99532 1.28001,1.38401 1.94601,2.39632 2.78566,4.23418 0.81576,1.78562 1.19014,2.36805 1.81986,2.83131 0.61192,0.45018 1.04062,0.62922 2.21758,0.92618 1.33967,0.33802 1.68224,0.33778 1.81114,-8.4e-4 z M 74.379774,250.37552 c -0.229381,-0.18617 -0.258715,-0.29958 -0.251666,-0.97279 0.01023,-0.97709 0.137943,-1.18104 1.68837,-2.69628 1.330778,-1.3006 1.761038,-2.00029 2.192548,-3.56561 0.36302,-1.31692 0.38115,-1.82254 0.12727,-3.55017 -0.35811,-2.4369 -0.24375,-3.17745 0.8157,-5.28197 0.87476,-1.73766 1.27257,-2.7419 1.27091,-3.20829 -10e-4,-0.20139 -0.0752,-0.63839 -0.16545,-0.97109 -0.0903,-0.3327 -0.40929,-2.11443 -0.70892,-3.95941 -0.29964,-1.84497 -0.66617,-3.92366 -0.81453,-4.6193 -0.40211,-1.88549 -0.43306,-2.27268 -0.25134,-3.14426 0.19564,-0.93829 0.61762,-1.89253 1.36004,-3.07559 1.10316,-1.75789 1.48318,-2.69849 1.74416,-4.31708 0.17365,-1.07692 0.22191,-3.22019 0.10114,-4.49173 -0.0523,-0.55074 -0.0322,-0.80531 0.0747,-0.9444 0.24743,-0.32205 0.42809,-0.0612 0.71246,1.02859 0.46758,1.79202 0.51447,4.84142 0.0987,6.42074 -0.16939,0.64345 -0.72441,1.83268 -1.80096,3.85881 -0.59233,1.11481 -0.8549,2.10902 -0.74481,2.82008 0.04,0.25852 0.28923,1.18768 0.55379,2.0648 1.04275,3.45725 2.04574,7.14507 2.21352,8.13879 0.11529,0.68279 0.21276,2.32152 0.2813,4.72929 0.0577,2.02644 0.14324,4.20412 0.19011,4.83927 0.09,1.22024 -0.0155,3.26308 -0.20496,3.96663 -0.1514,0.56228 -1.13011,2.00784 -1.81947,2.68738 -0.30683,0.30245 -1.00001,0.79579 -1.5404,1.09632 -0.74396,0.41372 -1.28967,0.84355 -2.24748,1.77025 -0.69574,0.67314 -1.423288,1.30575 -1.616803,1.40582 -0.465935,0.24095 -0.938941,0.23011 -1.257938,-0.0288 z m -9.094825,-51.40425 c -0.06514,-0.0785 -0.400549,-1.10544 -0.74537,-2.28216 -1.538033,-5.24862 -1.511384,-5.05735 -1.532116,-10.99314 -0.01736,-4.96599 -0.07075,-5.59055 -0.590326,-6.9047 -0.657536,-1.66311 -2.775389,-4.82613 -4.329665,-6.46637 -0.626314,-0.66096 -1.568674,-1.71113 -2.094122,-2.3337 l -0.955371,-1.13194 v 0.82084 c 0,1.04955 -0.293566,4.68565 -0.441121,5.46369 -0.06204,0.32715 -0.181384,0.66341 -0.265215,0.74724 -0.33819,0.33818 -0.393477,0.0279 -0.395093,-2.21725 -0.0036,-4.87863 -0.313672,-7.98893 -1.098869,-11.01936 -0.297792,-1.14933 -0.71641,-2.85683 -0.930262,-3.79444 -0.365762,-1.60365 -0.458499,-1.84823 -1.563801,-4.12438 -0.646241,-1.3308 -1.252548,-2.53123 -1.347342,-2.6676 -0.297374,-0.42781 -1.315359,-1.03305 -2.553875,-1.51838 -1.498249,-0.58712 -1.980186,-0.86588 -3.282645,-1.89876 -1.88504,-1.49487 -2.720322,-2.30224 -3.024008,-2.92298 -0.291247,-0.59528 -0.28235,-0.87742 0.03149,-0.99785 0.178678,-0.0686 2.323745,1.31073 4.22493,2.71668 0.988082,0.73069 1.773672,1.18708 2.597634,1.50908 l 0.585522,0.22883 -0.08873,-0.634 c -0.140394,-1.00308 -0.07995,-2.75353 0.183264,-5.30647 0.275465,-2.67181 0.258723,-4.67319 -0.04833,-5.77597 -0.101052,-0.36294 -0.748054,-2.32489 -1.437783,-4.35987 -0.933132,-2.7531 -1.4923,-4.20347 -2.184997,-5.66746 -0.944431,-1.99599 -1.722947,-4.23903 -1.937547,-5.58235 -0.20577,-1.28807 0.174863,-3.01702 1.143234,-5.19292 1.119368,-2.51513 2.835419,-5.91143 3.659802,-7.2432 1.174866,-1.89796 1.800904,-3.08713 2.999338,-5.69718 2.083893,-4.538494 2.624901,-6.929699 2.158857,-9.54189 -0.206812,-1.1592 -1.097913,-3.39883 -2.382376,-5.98773 -0.600246,-1.20981 -1.171567,-2.52137 -1.269608,-2.91456 -0.260251,-1.04369 -0.156957,-3.23314 0.215327,-4.56432 0.335714,-1.20035 1.073926,-3.053805 1.760596,-4.420368 1.302183,-2.591492 2.003261,-4.685654 2.220115,-6.631597 l 0.07952,-0.71351 -1.24939,1.592468 c -1.333219,1.699318 -2.58732,3.069788 -5.105416,5.579145 -3.968567,3.954792 -6.633723,7.895462 -7.420554,10.971952 -0.279789,1.09398 -0.369678,3.11786 -0.229623,5.17019 0.09832,1.4408 0.08948,2.07867 -0.04876,3.519464 -0.294176,3.065945 -0.343161,3.364752 -0.592428,3.614022 -0.211433,0.211427 -0.241764,0.215037 -0.408281,0.0485 -0.132827,-0.13283 -0.218637,-0.592187 -0.32806,-1.756241 -0.08151,-0.866994 -0.221727,-2.021788 -0.311615,-2.566205 -0.376287,-2.27917 -0.501118,-3.56537 -0.501118,-5.16333 0,-1.9963 0.159409,-2.95992 0.724407,-4.37892 1.501198,-3.77031 3.430013,-6.37847 8.797848,-11.896475 5.550659,-5.705965 7.315993,-8.551077 9.012986,-14.525892 0.694237,-2.444305 1.118982,-4.664996 1.255603,-6.56463 0.0639,-0.888453 0.116176,-1.685111 0.116176,-1.770354 0,-0.127624 -0.237817,-0.146096 -1.347296,-0.104653 -2.643136,0.09874 -4.695484,-0.557469 -4.423519,-1.414344 0.107522,-0.338788 0.393456,-0.395379 2.416317,-0.478219 2.284722,-0.09357 2.963034,-0.192055 4.32738,-0.628333 2.153753,-0.688706 4.672014,-2.136876 8.740415,-5.02634 1.359935,-0.965855 2.169578,-1.678184 4.894267,-4.306036 1.795613,-1.731802 3.487481,-3.340768 3.759689,-3.575476 0.27221,-0.23471 1.187822,-1.100052 2.034692,-1.922986 2.51754,-2.446355 3.86236,-3.512867 5.50658,-4.366964 0.93909,-0.487812 2.68477,-1.206703 3.80693,-1.56773 0.83494,-0.268619 4.89342,-1.055827 5.97421,-1.15879 0.42343,-0.04034 1.07846,-0.11959 1.45562,-0.176113 0.37716,-0.05652 1.5224,-0.173403 2.54499,-0.25974 1.56247,-0.131927 2.15522,-0.23787 3.713587,-0.663743 1.019897,-0.278717 2.357927,-0.702172 2.973407,-0.941008 1.49051,-0.578398 2.42633,-0.601942 3.79474,-0.09547 0.93818,0.347231 1.36637,0.474228 3.93989,1.168536 0.81663,0.220318 2.44988,0.742839 3.62945,1.161155 5.2364,1.857005 7.04705,2.220018 13.58071,2.722782 0.84565,0.06507 1.75576,0.167218 2.02248,0.226993 0.31058,0.0696 1.12092,0.528056 2.25363,1.275003 0.97276,0.641477 2.09185,1.340126 2.48685,1.552552 0.395,0.212427 1.01774,0.571296 1.38388,0.797491 1.03501,0.639414 2.53888,1.36609 3.6079,1.743352 1.46865,0.518293 4.44457,1.289436 6.17484,1.600075 2.0438,0.366928 2.84413,0.584328 3.12936,0.850069 0.19627,0.182844 0.21257,0.248773 0.0962,0.389004 -0.1173,0.141335 -0.32431,0.156512 -1.27039,0.09314 -0.62166,-0.04164 -1.13028,-0.04388 -1.13028,-0.005 0,0.252978 1.51289,2.830366 2.43289,4.144755 1.74773,2.496911 2.15273,3.560137 2.05625,5.398206 -0.0544,1.0373 -0.36325,1.818637 -1.29203,3.269093 -1.25022,1.952433 -1.6172,3.044304 -1.49481,4.447391 0.077,0.882209 0.56329,2.672285 0.69125,2.544321 0.0373,-0.0373 0.18494,-0.474991 0.32809,-0.972648 0.4546,-1.580512 1.84989,-4.001715 2.823,-4.898692 0.73645,-0.678839 2.48397,-1.43439 2.82711,-1.222323 0.19512,0.120588 0.0905,0.226257 -0.86318,0.871837 -0.40211,0.272208 -0.93041,0.733056 -1.17401,1.024099 l -0.44289,0.529177 0.25747,0.48534 c 0.14161,0.266938 0.70908,0.921912 1.26104,1.455503 0.86598,0.837159 1.11307,1.010693 1.80234,1.265825 1.78651,0.661277 3.42642,0.650191 5.15085,-0.03482 2.12574,-0.844439 1.87105,0.371564 -0.30911,1.475762 -0.5957,0.30171 -1.04799,0.439275 -1.76318,0.536266 l -0.96193,0.130457 -0.0578,0.388129 c -0.0318,0.213468 -0.45363,1.996635 -0.93742,3.96259 -0.48378,1.965955 -0.97814,4.250322 -1.09858,5.076366 -0.30017,2.058877 -0.43879,4.739144 -0.32093,6.205409 0.30917,3.845991 2.52769,8.409221 6.55888,13.490821 0.56332,0.71011 1.02423,1.39063 1.02423,1.51227 0,0.32625 -0.43162,0.2837 -0.94587,-0.0932 -0.7981,-0.58502 -3.25075,-3.33971 -4.18898,-4.70484 l -0.57054,-0.83013 -0.0819,0.42257 c -0.045,0.23241 -0.085,1.61039 -0.0887,3.06218 -0.0109,4.23015 0.3284,5.51426 2.21983,8.40202 0.77074,1.176724 3.27543,3.714079 5.1665,5.23391 1.28111,1.02961 1.55941,1.34572 1.40485,1.59578 -0.18086,0.29264 -0.70589,0.0581 -2.86017,-1.27754 -0.72589,-0.45005 -1.43341,-0.898437 -1.57226,-0.996427 l -0.25245,-0.178137 0.2316,0.594124 c 0.91978,2.35952 2.15123,4.05819 5.2947,7.30351 1.23063,1.2705 2.40254,2.56814 2.60423,2.88364 0.77974,1.21968 1.06834,2.44097 0.88623,3.7503 -0.29107,2.09274 -0.936,3.8314 -2.1933,5.91292 -0.66112,1.09452 -0.97872,1.77763 -0.98194,2.11198 -0.003,0.31345 0.58804,0.58562 2.08727,0.9612 3.03693,0.76076 5.98101,0.50929 7.74496,-0.66157 1.77314,-1.17694 3.5286,-3.56295 4.39363,-5.97185 0.69481,-1.93486 1.28994,-5.20751 1.52078,-8.36281 0.13217,-1.80666 0.23881,-2.20145 0.56119,-2.07774 0.91572,0.3514 0.89899,4.12803 -0.0389,8.78555 -1.0217,5.07358 -4.19332,9.02359 -8.07754,10.05997 -0.62175,0.16588 -1.16671,0.20541 -2.83211,0.20541 -1.30007,0 -2.06302,0.0406 -2.06437,0.10998 -8.5e-4,0.0605 -0.0998,0.92662 -0.2191,1.92472 -0.11933,0.9981 -0.26704,2.80457 -0.32827,4.01439 -0.16684,3.29706 -0.32061,5.27683 -0.49583,6.38364 -0.28171,1.77953 -0.84944,3.28342 -1.72133,4.55973 -1.674,2.45047 -2.4175,4.45298 -2.56308,6.90333 -0.035,0.58875 -0.0893,1.47111 -0.12082,1.9608 l -0.0572,0.8903 0.63842,-0.16633 c 0.69028,-0.17984 1.20898,-0.11838 1.31416,0.15574 0.13382,0.34873 -0.17511,0.68876 -1.0301,1.13378 -1.94697,1.0134 -4.43367,3.21366 -5.08073,4.49548 -0.68324,1.3535 -0.70966,1.56755 -0.72905,5.90871 -0.0179,3.99502 -0.0658,4.64381 -0.35124,4.75335 -0.28453,0.10919 -0.37609,-0.1471 -0.48471,-1.35703 -0.0591,-0.65816 -0.22887,-1.9483 -0.37727,-2.86701 -0.14841,-0.91869 -0.27058,-1.80956 -0.2715,-1.9797 -0.003,-0.63251 -0.0877,-0.62914 -1.63443,0.0653 -1.50507,0.67584 -1.96992,0.99181 -3.22883,2.19472 -1.20993,1.1561 -3.05119,4.14488 -3.9731,6.4492 -0.55827,1.39543 -1.83037,4.87271 -1.83037,5.00333 0,0.0599 0.17074,0.33268 0.37941,0.60606 0.49917,0.65395 1.56151,2.55274 1.96495,3.51213 0.36211,0.86106 0.73156,2.50365 0.73374,3.26208 8.5e-4,0.36153 -0.0592,0.56026 -0.21159,0.69818 -0.28456,0.25752 -0.39437,0.16608 -0.6214,-0.51745 -0.10525,-0.31686 -0.6483,-1.54123 -1.20678,-2.7208 -0.55849,-1.17957 -1.10144,-2.34265 -1.20658,-2.58461 l -0.19114,-0.43994 -0.0971,0.43994 c -0.10548,0.47812 -0.61854,1.78238 -0.79167,2.01251 -0.0591,0.0786 -0.21042,0.12802 -0.33631,0.10999 -0.31839,-0.0456 -0.36701,-0.37184 -0.38226,-2.56465 -0.0148,-2.13262 -0.16231,-2.86337 -0.89258,-4.42254 l -0.42402,-0.90529 -0.72076,0.72075 c -0.53524,0.53524 -0.78503,0.71164 -0.97046,0.68532 -0.34315,-0.0487 -0.37152,-0.40812 -0.0777,-0.98406 0.37181,-0.7288 0.65288,-1.62815 0.65288,-2.08901 0,-0.83786 -0.82243,-2.42604 -1.89874,-3.66663 l -0.37758,-0.43521 -0.12204,0.76516 c -0.34189,2.14367 -0.47205,2.74783 -0.62486,2.90064 -0.14958,0.14959 -0.19156,0.14281 -0.39888,-0.0645 -0.20616,-0.20618 -0.24866,-0.46028 -0.38559,-2.30617 -0.16758,-2.25878 -0.30357,-2.88111 -0.87943,-4.02463 -0.47523,-0.94368 -1.87203,-3.05801 -2.45358,-3.71398 l -0.43878,-0.49492 -0.005,1.62571 c -0.004,1.40886 -0.029,1.63503 -0.18679,1.69559 -0.30396,0.11664 -0.55448,-0.33949 -0.81313,-1.48052 -0.48087,-2.12129 -1.34723,-4.14334 -2.2915,-5.34813 -0.4756,-0.60683 -1.66688,-1.60188 -2.54239,-2.12361 -0.3176,-0.18927 -1.87649,-0.80307 -2.03956,-0.80307 -0.0257,0 0.14604,0.2547 0.38167,0.56603 0.63719,0.84188 1.01962,1.65876 0.97825,2.08958 -0.0606,0.63075 -0.33898,0.52869 -1.27341,-0.46677 -1.51548,-1.61445 -2.96187,-2.8211 -3.93807,-3.28535 -1.07253,-0.51008 -2.08861,-0.83376 -2.95825,-0.94242 l -0.64775,-0.0809 0.44811,0.5375 c 0.79847,0.95777 1.19338,1.95605 0.90923,2.29844 -0.0747,0.0901 -0.19632,0.16377 -0.27015,0.16377 -0.0738,0 -0.69566,-0.56849 -1.38186,-1.2633 -1.06551,-1.07888 -1.37925,-1.3276 -2.14917,-1.70375 -0.49584,-0.24224 -1.19962,-0.5168 -1.56395,-0.61014 -0.74529,-0.19093 -3.1026,-0.47972 -3.1026,-0.38009 0,0.0356 0.16889,0.2284 0.37532,0.42848 0.43044,0.4172 0.54486,0.71883 0.33783,0.89064 -0.1958,0.1625 -0.60431,-0.0195 -2.04318,-0.91015 -1.37539,-0.85136 -1.65756,-0.94285 -3.1793,-1.03086 -0.94572,-0.0547 -1.36551,-0.0233 -2.31841,0.17349 -1.11777,0.23081 -1.20224,0.23351 -2.14468,0.0686 -1.90884,-0.33389 -3.31217,-0.20546 -7.247274,0.66325 -3.9778,0.87812 -4.76817,1.14444 -6.09254,2.05291 -1.36457,0.93604 -3.4666,3.24028 -5.98247,6.55797 -1.03719,1.36772 -2.18091,2.83174 -2.5416,3.25338 -1.23881,1.44809 -1.9125,2.4512 -2.27157,3.38229 -0.42602,1.1047 -0.657,1.44302 -1.23382,1.80716 -0.69706,0.44002 -2.842276,2.38166 -3.327665,3.01185 -0.241967,0.31416 -0.771897,0.97376 -1.177618,1.46579 -0.405728,0.49204 -0.900654,1.1779 -1.099834,1.52416 -0.199192,0.34624 -0.530142,0.92571 -0.73547,1.28767 -0.483996,0.85324 -2.985538,3.81288 -3.880706,4.59137 -0.785952,0.6835 -2.127577,1.64919 -2.784927,2.00456 -0.241962,0.1308 -0.679477,0.42752 -0.972252,0.65939 l -0.53231,0.42156 -0.05707,3.67168 c -0.0713,4.58811 0.102484,6.63705 0.954582,11.25427 0.320326,1.73571 0.287968,2.46291 -0.08934,2.00827 z m 0.814692,-20.22095 c 2.153894,-1.6378 4.533149,-3.94931 5.133722,-4.98757 1.507733,-2.60652 4.417063,-6.19695 5.750483,-7.09673 0.82509,-0.55677 1.06478,-0.86281 1.87832,-2.39822 0.44788,-0.84532 0.79989,-1.33463 2.90128,-4.03302 1.09607,-1.40748 2.13916,-2.78927 5.58705,-7.40134 0.83298,-1.11424 3.08822,-2.69989 4.79937,-3.37443 0.88109,-0.34734 2.19288,-0.64124 5.7267,-1.28305 3.064714,-0.55661 4.547044,-0.61002 6.140274,-0.22131 1.20177,0.29323 1.68225,0.29622 2.84392,0.0178 1.58866,-0.38085 3.84551,-0.22717 4.78253,0.32569 0.32352,0.19088 0.68344,0.23689 2.54368,0.32521 2.33147,0.11069 2.96905,0.23136 4.17246,0.78974 0.73198,0.33963 0.77319,0.34548 2.55868,0.36313 1.68953,0.0168 1.87544,0.0395 2.6946,0.33042 1.05567,0.37493 1.84482,0.75787 2.36118,1.14578 0.33097,0.24863 0.49844,0.28876 1.26481,0.30311 1.57158,0.0294 3.00446,0.54473 4.56779,1.64275 1.38085,0.96986 2.33107,2.08228 3.12104,3.65382 0.31038,0.61749 0.50533,0.86137 0.86687,1.08447 1.15653,0.71368 3.08479,2.97121 4.13208,4.83766 0.30246,0.53905 0.6283,1.05432 0.72407,1.14506 2.78882,2.64215 4.12739,4.5856 4.2261,6.13579 0.0429,0.67422 0.0949,0.79899 0.71947,1.72928 0.37026,0.55143 0.73893,1.11633 0.81924,1.25531 0.14002,0.24222 0.15192,0.24421 0.28749,0.048 0.0778,-0.11257 0.47613,-1.09556 0.88521,-2.1844 0.40908,-1.08884 0.98096,-2.45335 1.27086,-3.03224 0.28988,-0.57889 0.65158,-1.35898 0.80377,-1.73353 0.15219,-0.37454 0.46393,-0.98973 0.69274,-1.36709 0.47911,-0.79015 2.02578,-2.43934 2.8381,-3.02623 0.30507,-0.22039 0.97091,-0.7406 1.47964,-1.15602 0.50874,-0.41541 1.30061,-1.00754 1.75974,-1.31584 1.59687,-1.07229 2.15964,-1.60714 2.68989,-2.55644 0.49937,-0.89401 1.41113,-2.01428 2.22107,-2.72902 0.94985,-0.83817 1.40844,-2.20433 1.64999,-4.91532 0.16862,-1.89244 0.57828,-3.86786 1.07678,-5.19225 0.15069,-0.40035 0.66917,-1.56117 1.15218,-2.5796 1.52515,-3.21586 1.85537,-4.57283 2.00223,-8.2279 0.10469,-2.60554 0.12359,-2.88449 0.33634,-4.96517 l 0.12503,-1.22285 -0.38161,-0.56668 c -0.20989,-0.31168 -0.72065,-0.82683 -1.135,-1.14477 -1.0224,-0.78452 -1.28057,-1.29088 -1.2838,-2.51792 -0.003,-1.21543 0.25637,-1.95828 1.71462,-4.9072 0.66727,-1.34938 1.18993,-2.55025 1.23197,-2.83059 0.0984,-0.65587 -0.17713,-1.82821 -0.65,-2.76605 -0.4092,-0.81162 -0.91137,-1.45538 -3.08551,-3.9555 -2.48132,-2.85337 -3.45039,-4.61396 -4.40568,-8.00428 -0.45851,-1.627181 -0.84744,-2.530105 -1.58665,-3.683499 -0.7844,-1.223884 -1.84668,-3.402911 -2.09397,-4.295281 -0.40606,-1.4653 -0.77306,-4.7336 -0.77828,-6.93089 -0.002,-0.63515 0.0566,-1.95006 0.12906,-2.92202 l 0.13183,-1.76719 -0.62107,-1.97225 c -1.18263,-3.755527 -1.37917,-4.832005 -1.47585,-8.08316 -0.1195,-4.019397 0.46631,-7.195581 2.07591,-11.255102 0.23736,-0.598651 0.4167,-1.185987 0.39853,-1.305196 -0.0235,-0.154383 -0.22533,-0.286175 -0.70138,-0.458069 -0.36759,-0.132731 -0.83967,-0.347215 -1.04908,-0.476632 -0.42375,-0.261898 -1.70826,-1.559392 -2.02176,-2.042209 l -0.20212,-0.31131 -0.58788,1.686107 c -0.97508,2.796725 -1.3672,3.390848 -2.23795,3.390848 -0.34384,0 -0.4996,-0.07558 -0.80606,-0.391139 -0.85895,-0.884416 -1.55817,-2.737088 -1.68257,-4.458059 -0.0924,-1.278144 0.10657,-2.520023 0.64014,-3.996019 1.28862,-3.564552 1.3393,-3.733624 1.38733,-4.627764 0.0719,-1.33968 -0.1033,-1.764194 -2.68718,-6.508865 -0.51034,-0.937104 -1.36273,-1.838334 -2.05182,-2.169368 -0.31396,-0.15082 -1.49498,-0.499291 -2.62452,-0.77438 -2.04156,-0.497211 -3.39321,-0.935037 -4.2941,-1.390952 -0.60547,-0.306415 -3.68942,-2.140279 -5.00883,-2.978501 -0.56,-0.355764 -1.1539,-0.698546 -1.3198,-0.76174 -0.56921,-0.216826 -2.28473,-0.521111 -5.14091,-0.911849 -5.513,-0.754207 -6.37582,-0.954819 -10.87105,-2.527605 -3.5493,-1.241826 -5.47843,-1.776638 -7.4412,-2.062944 -2.07605,-0.302823 -3.08731,-0.249035 -5.11424,0.27202 -0.84687,0.217702 -1.9852,0.4938 -2.529617,0.613549 -0.544417,0.119749 -1.962977,0.440857 -3.152337,0.71357 -1.18937,0.272716 -3.24331,0.671023 -4.56432,0.885127 -3.97711,0.644598 -4.23376,0.69887 -5.2614,1.1126 -3.44304,1.386176 -5.11676,2.603335 -9.51358,6.91842 -2.645244,2.596071 -4.348934,4.070523 -6.983951,6.04422 -2.012502,1.507415 -6.045523,4.434337 -7.726479,5.60741 -0.6806,0.47496 -1.571467,1.21613 -1.979704,1.647038 -1.287434,1.358925 -1.624742,2.28076 -2.615167,7.147081 -0.956219,4.698227 -1.53374,6.692627 -2.574581,8.890993 -0.568372,1.200484 -0.844433,2.270553 -1.057162,4.097916 -0.187642,1.611888 -0.621836,3.675565 -0.948365,4.507552 -0.119662,0.304909 -0.591601,1.395754 -1.048748,2.424099 -0.949413,2.135703 -1.706374,4.343123 -1.911415,5.574013 -0.121136,0.7272 -0.114714,1.03322 0.04619,2.19967 0.170895,1.23887 0.239732,1.46331 0.803498,2.61976 1.126988,2.3118 2.152827,5.326 2.339449,6.87397 0.242822,2.014091 0.11545,3.468195 -0.487185,5.561903 -0.560331,1.946737 -2.507754,6.751987 -4.476462,11.045587 -3.375427,7.36159 -3.61594,8.00046 -3.690904,9.80403 -0.08821,2.12196 0.222541,3.27359 1.700774,6.30305 2.187255,4.48253 2.9752,6.72786 3.57582,10.18966 0.346666,1.99808 0.341267,4.99806 -0.01343,7.45644 -0.196331,1.36078 -0.242216,2.07947 -0.207164,3.24451 0.05273,1.75217 0.121004,1.95044 1.291736,3.75119 0.827965,1.27353 1.528967,2.61839 1.806578,3.46587 0.09932,0.3032 0.45367,1.91171 0.787439,3.57446 1.072139,5.34106 1.534501,6.60546 3.266752,8.93335 3.294479,4.4273 4.186038,5.68122 5.025336,7.0679 1.133466,1.87271 1.814254,3.34695 2.070318,4.4833 0.113426,0.50336 0.241237,0.8351 0.311375,0.80819 0.06544,-0.0251 0.857617,-0.6073 1.760408,-1.29378 z m 3.126215,-10.6461 c 0,-0.38298 1.367514,-2.98099 2.347577,-4.45995 0.240523,-0.36295 1.2354,-1.69925 2.210858,-2.96955 0.975455,-1.27032 2.225231,-2.92832 2.777285,-3.68446 0.55205,-0.75613 1.45761,-1.94395 2.01234,-2.6396 1.71717,-2.15337 4.32511,-6.22494 5.81186,-9.07364 0.25257,-0.48393 0.85061,-1.70771 1.32896,-2.71951 0.47835,-1.01181 1.15554,-2.24912 1.50486,-2.74959 0.85615,-1.22663 2.33892,-2.69348 3.28808,-3.25282 0.89874,-0.52962 2.17677,-0.91355 2.37643,-0.71388 0.2131,0.21309 0.037,0.43247 -0.80278,1.00012 -1.38657,0.93728 -2.33936,1.90624 -2.80917,2.85684 -0.3927,0.79456 -0.41608,0.90212 -0.4537,2.08711 -0.0387,1.21867 -0.0311,1.26684 0.30991,1.95947 0.37268,0.75701 1.13928,1.59107 1.9652,2.13813 0.81158,0.53758 1.405,0.65894 3.22201,0.65894 1.64966,0 2.00575,0.0882 1.58843,0.39332 -0.31318,0.22901 -1.68703,0.4316 -2.9217,0.43085 -1.03549,-8.5e-4 -1.21844,-0.0319 -1.77036,-0.30246 -0.91068,-0.44645 -2.06057,-1.46134 -2.64962,-2.33855 -0.55099,-0.82054 -0.73677,-1.33164 -0.84922,-2.33637 l -0.0706,-0.63108 -1.02509,2.08969 c -1.9907,4.05812 -4.46072,8.02887 -6.84158,10.99835 -0.679,0.84688 -1.80754,2.28216 -2.50788,3.18953 -0.70032,0.90736 -2.042468,2.61485 -2.982531,3.79443 -1.624336,2.03817 -2.626219,3.40043 -4.043622,5.49814 -0.632935,0.93671 -1.015918,1.22945 -1.015918,0.77654 z M 138.98973,155.9688 c -0.56293,-0.313 -2.75283,-2.38415 -3.89164,-3.68064 -0.67733,-0.77109 -2.42529,-2.93626 -3.88435,-4.81148 -3.17397,-4.07924 -3.10533,-3.98708 -3.66951,-4.92717 -0.47582,-0.79287 -0.48728,-0.79126 -0.62846,0.0879 -0.10493,0.65346 -0.60072,2.24797 -0.85244,2.74152 -0.2715,0.53235 -1.19124,1.51896 -1.82008,1.95239 -0.98135,0.67643 -2.62564,0.97484 -3.19069,0.57906 -0.44193,-0.30955 -0.24548,-0.81863 0.3159,-0.81863 0.66657,0 1.73,-0.44241 2.4868,-1.03456 1.13083,-0.88483 1.56403,-1.60616 2.01791,-3.36014 0.19877,-0.76812 0.22795,-1.09391 0.16748,-1.86971 -0.10461,-1.34157 -0.56398,-3.16283 -1.13028,-4.48101 -0.26852,-0.62505 -0.47186,-1.22224 -0.45188,-1.3271 0.02,-0.10486 0.14966,-0.20679 0.28816,-0.22652 0.4956,-0.0706 2.18171,1.99391 2.49951,3.06041 0.045,0.15123 0.39784,0.9327 0.78394,1.73659 0.38611,0.8039 0.81983,1.77465 0.96383,2.15722 0.39991,1.06249 0.56913,1.3478 1.53922,2.59523 0.49394,0.63515 1.7082,2.21041 2.69837,3.50057 0.99016,1.29016 2.34903,2.97089 3.0197,3.73495 2.09738,2.38946 3.22263,3.71849 3.35025,3.95693 0.2535,0.47367 -0.0954,0.7213 -0.61174,0.43419 z m -31.26964,-9.86695 c -0.83154,-0.23774 -2.38348,-0.88576 -3.04209,-1.27027 -0.25162,-0.14688 -0.89137,-0.6388 -1.42168,-1.09314 -0.53031,-0.45434 -0.9926,-0.82476 -1.0273,-0.82317 -0.0347,0.002 -0.48365,0.32275 -0.99767,0.71364 -0.51402,0.39091 -1.301627,0.8969 -1.750257,1.12443 -0.765144,0.38807 -0.877574,0.41369 -1.815007,0.41369 -0.89162,0 -1.07638,-0.0369 -1.71422,-0.34201 -2.20171,-1.05332 -2.46215,-2.89944 -0.61057,-4.32792 1.2652,-0.97609 2.91926,-1.18962 4.671044,-0.60298 0.95625,0.32023 1.37421,0.57492 2.55976,1.55978 1.40783,1.16951 2.5645,2.03308 3.05222,2.27878 1.09056,0.54941 2.69058,1.06976 3.47089,1.12878 1.3445,0.10168 1.95242,-0.17797 3.87826,-1.78412 1.35052,-1.12633 1.97033,-1.58074 2.7094,-1.9864 0.648,-0.35569 0.88342,-0.42373 1.61163,-0.46588 1.56048,-0.0904 3.03445,0.46075 4.07788,1.52464 1.01371,1.03359 1.21687,1.97802 0.58661,2.72703 -0.42324,0.503 -1.05922,0.71111 -2.14071,0.7005 -1.1623,-0.0114 -2.27103,-0.29352 -3.82601,-0.97355 -0.64803,-0.2834 -1.41143,-0.53854 -1.69646,-0.56697 -0.50692,-0.0505 -0.53429,-0.037 -1.2539,0.62243 -0.94578,0.86664 -1.60174,1.29733 -2.28476,1.50018 -0.74283,0.22059 -2.15814,0.1938 -3.03706,-0.0575 z m -30.580334,-24.6923 c -0.57736,-0.0788 -1.728753,-0.31894 -2.558635,-0.53355 -1.266241,-0.32746 -1.900043,-0.57835 -3.94126,-1.56022 -1.337807,-0.64352 -2.667497,-1.23987 -2.954863,-1.3252 -0.569933,-0.16925 -0.827198,-0.39355 -0.732973,-0.63909 0.03323,-0.0866 0.374285,-0.30727 0.757886,-0.49035 1.034481,-0.49371 2.052093,-1.31281 3.771246,-3.03556 2.806946,-2.81283 4.654745,-3.92742 7.475769,-4.5094 3.93055,-0.81089 7.52932,0.29706 10.89084,3.35296 0.54442,0.49491 1.63326,1.38457 2.41964,1.97701 0.78638,0.59244 1.58813,1.24322 1.78166,1.44617 0.71259,0.7473 0.8755,1.66705 0.44551,2.51536 -0.3802,0.7501 -0.78932,0.93176 -2.11718,0.94008 -0.98991,0.006 -1.25924,0.0571 -2.6946,0.50996 -1.81264,0.57179 -4.20644,1.1018 -6.09376,1.3492 -1.56467,0.20512 -4.95632,0.2065 -6.44928,0.003 z m 7.31882,-1.27638 c 1.18779,-0.14872 2.76615,-0.5426 4.61931,-1.15274 1.36105,-0.44813 1.69626,-0.51581 2.88805,-0.58309 1.40576,-0.0793 1.63543,-0.1636 1.67995,-0.61621 0.0505,-0.51359 -0.0327,-0.6224 -0.91105,-1.19085 -0.81936,-0.53028 -1.41417,-1.01071 -4.17665,-3.37347 -0.45971,-0.39319 -1.08039,-0.84977 -1.3793,-1.01464 l -0.54345,-0.29976 -0.0663,0.90467 c -0.0595,0.81179 -0.12867,1.02893 -0.67349,2.11511 -0.82429,1.64334 -1.43466,2.2427 -3.14439,3.08767 -1.37038,0.67726 -2.49779,0.8367 -3.86591,0.54674 -1.067,-0.22613 -1.91697,-0.68235 -2.674294,-1.43538 -1.031503,-1.02564 -1.482293,-2.15467 -1.484669,-3.71836 l -0.0013,-0.8588 -0.687397,0.52203 c -0.37807,0.28711 -1.381646,1.19325 -2.230169,2.01362 -0.848535,0.82038 -1.726688,1.61533 -1.95146,1.76656 -0.224773,0.15123 -0.409017,0.30956 -0.409435,0.35185 -0.0031,0.31426 2.156491,1.35669 4.123633,1.99051 1.394625,0.44935 3.542541,0.91421 4.894271,1.05924 1.08106,0.116 4.70554,0.0466 5.9941,-0.1147 z m -3.2995,-2.56053 c 0.80027,-0.21959 1.52513,-0.5571 2.32288,-1.0816 1.4922,-0.98106 2.49648,-3.14501 2.198,-4.73608 -0.0614,-0.32754 -0.14794,-0.41579 -0.59663,-0.60882 -2.49034,-1.07132 -5.64214,-0.87485 -8.71933,0.54353 -0.682325,0.3145 -0.739054,0.36783 -0.800602,0.75272 -0.08353,0.5224 0.07746,1.77745 0.310507,2.42057 0.381665,1.05327 1.102765,1.94011 1.921915,2.36372 0.91233,0.47178 2.36143,0.62085 3.36326,0.34596 z m -1.44737,-2.48145 c -1.0064,-0.23979 -1.4672,-0.86021 -1.4672,-1.97542 0,-0.86597 0.29093,-1.53397 0.85543,-1.96414 0.82232,-0.62663 2.54511,-0.25508 3.01492,0.65024 0.95167,1.83382 -0.45146,3.75436 -2.40315,3.28932 z m 56.714084,4.98724 c -1.45497,-0.12758 -4.28102,-0.5331 -5.38919,-0.77333 -2.3786,-0.51562 -3.68513,-0.70741 -5.49917,-0.80724 -1.9344,-0.10646 -2.44898,-0.20517 -2.89388,-0.55513 -0.5729,-0.45065 -0.65171,-1.50273 -0.1816,-2.42423 0.36049,-0.70661 1.80328,-2.13926 3.24044,-3.21768 2.80803,-2.10707 6.11806,-3.32061 9.4036,-3.44761 1.30616,-0.0505 1.65193,-0.0232 2.8743,0.22644 1.47323,0.30093 3.59163,0.99199 4.6178,1.50639 1.56308,0.78356 3.34433,2.64218 4.18426,4.36599 0.49597,1.01791 0.61024,1.59646 0.39589,2.00423 -0.1615,0.3072 -0.56355,0.41531 -0.8036,0.21608 -0.1277,-0.10597 -0.27248,-0.0256 -0.76481,0.4243 -0.7817,0.71443 -2.08451,1.52467 -2.96611,1.84466 -1.20267,0.43656 -4.57016,0.7816 -6.21793,0.63713 z m 3.73944,-1.62976 c 0.78618,-0.14263 2.95311,-0.91693 3.76674,-1.34594 0.21015,-0.11081 0.69185,-0.48379 1.07045,-0.82885 0.56848,-0.51812 0.67709,-0.67225 0.62368,-0.88511 -0.17336,-0.69069 -2.80989,-3.38178 -3.31323,-3.38178 -0.0896,0 -0.15784,0.24038 -0.1951,0.6874 -0.11733,1.40782 -1.08421,3.41301 -2.07737,4.30818 -0.56376,0.50813 -1.55022,1.06856 -2.43357,1.38257 l -0.57613,0.20479 1.15483,0.004 c 0.63516,0.003 1.52602,-0.0632 1.9797,-0.14546 z m -8.37163,-0.64061 c -0.56179,-0.34867 -0.94685,-0.69906 -1.60462,-1.46015 -0.8376,-0.96917 -1.3703,-2.31778 -1.55386,-3.93393 l -0.0731,-0.64401 -0.99889,0.50042 c -0.69233,0.34682 -1.37291,0.82004 -2.21744,1.54182 -1.5044,1.28572 -2.11787,2.13795 -2.11787,2.94208 0,0.2978 0.0292,0.32924 0.24747,0.26666 0.98848,-0.28342 1.47473,-0.31903 2.54023,-0.18607 0.60384,0.0753 1.57231,0.26155 2.15215,0.41373 1.15339,0.30272 3.4542,0.78561 3.80385,0.79834 0.16181,0.006 0.1148,-0.0572 -0.17786,-0.23889 z m 4.95632,-0.47228 c 1.77302,-0.41789 2.96159,-1.3571 3.76223,-2.97286 0.42963,-0.86702 0.47237,-1.03086 0.51336,-1.96778 l 0.0447,-1.02204 -0.53497,-0.17758 c -1.08596,-0.36047 -3.22069,-0.73789 -4.83721,-0.85522 -1.55156,-0.11261 -1.7426,-0.10452 -2.85957,0.12094 -0.65832,0.13289 -1.66712,0.40072 -2.24178,0.59517 l -1.04485,0.35354 0.0182,0.43748 c 0.0257,0.61678 0.43169,2.1869 0.73617,2.84725 0.3003,0.65127 0.94028,1.44481 1.43797,1.783 1.3028,0.88527 3.37985,1.24133 5.00573,0.8581 z m -2.38753,-1.94988 c -0.56749,-0.21569 -1.08098,-0.68661 -1.34626,-1.23459 -0.3546,-0.7325 -0.28148,-1.73939 0.17329,-2.38645 0.88166,-1.25444 2.41508,-1.55201 3.46129,-0.67169 1.12976,0.95063 1.22982,2.51309 0.22996,3.59099 -0.61603,0.66412 -1.77074,0.98589 -2.51828,0.70174 z m -69.315907,-0.68978 c 0,-0.32501 0.316827,-0.78039 0.753462,-1.08298 0.50915,-0.35285 1.02221,-0.93474 2.808727,-3.18553 1.461748,-1.84162 2.373764,-2.79517 3.386571,-3.54075 3.464491,-2.55042 7.592003,-3.38177 11.140273,-2.24386 1.37875,0.44216 2.50819,1.17667 4.35915,2.83494 2.45426,2.19873 5.24666,5.17598 5.09096,5.42791 -0.11286,0.18261 -0.96268,0.0204 -1.60896,-0.30709 -0.37254,-0.18878 -0.8895,-0.62716 -1.45795,-1.23633 -4.07871,-4.3708 -5.68247,-5.41127 -8.61513,-5.58931 -1.80477,-0.10956 -4.37355,0.47779 -6.247589,1.42851 -1.252218,0.63527 -3.258602,2.45077 -5.338966,4.83102 -1.452737,1.66215 -1.935258,2.09491 -2.864606,2.56917 -0.606506,0.30952 -1.405942,0.36314 -1.405942,0.0943 z m 56.755347,-2.79191 c -0.23674,-0.44236 0.27707,-1.16064 1.7009,-2.37776 3.43197,-2.93371 6.21675,-4.54169 8.6337,-4.98526 3.48811,-0.64017 8.05262,0.34934 11.12309,2.41129 1.49332,1.00283 4.30885,3.58397 4.65453,4.26706 0.34715,0.68597 -0.047,0.89238 -0.79455,0.41607 -0.22563,-0.14377 -0.90612,-0.70057 -1.51218,-1.23732 -1.4793,-1.31012 -1.79505,-1.5514 -3.07144,-2.34718 -1.98102,-1.23509 -2.92131,-1.62337 -4.84527,-2.00084 -2.02619,-0.39752 -4.6498,-0.24423 -6.30729,0.36854 -0.34193,0.1264 -1.23335,0.58171 -1.98095,1.01179 -1.23035,0.7078 -1.97008,1.23387 -4.96478,3.5308 -1.45073,1.1127 -2.36904,1.44118 -2.63576,0.94281 z m -61.315453,-5.45126 c -0.494496,-0.17612 -0.785821,-0.50489 -0.876713,-0.98937 -0.269162,-1.43479 2.314891,-4.62152 5.772003,-7.118198 1.989415,-1.436724 3.224563,-2.067988 5.001007,-2.555958 2.298382,-0.631314 3.494177,-0.807394 5.937122,-0.874224 3.73051,-0.10204 7.64291,0.31127 10.33845,1.092144 3.10386,0.899174 7.28457,2.575075 10.95033,4.389596 1.85333,0.91738 2.460914,1.31097 3.004964,1.94657 0.89199,1.04209 0.89597,1.95535 0.0122,2.80523 -1.261554,1.2132 -4.007904,1.48074 -6.503324,0.63352 -0.62711,-0.2129 -2.86416,-1.29979 -4.60461,-2.23717 -1.91851,-1.0333 -3.4113,-1.57306 -6.10409,-2.20717 -3.73645,-0.87987 -6.08696,-1.17694 -8.356309,-1.05606 -1.611645,0.0858 -2.353395,0.22872 -4.062397,0.78257 -2.320509,0.75203 -3.249408,1.31389 -7.26835,4.3964 -1.503134,1.1529 -2.194534,1.36459 -3.240301,0.99212 z m 3.118881,-3.17744 c 3.29183,-2.65443 4.194716,-3.19323 7.270352,-4.338601 1.905311,-0.709547 3.36146,-0.948597 5.719146,-0.938877 2.20654,0.009 3.5475,0.16385 6.709,0.774267 3.90654,0.754284 5.40474,1.261951 7.99209,2.708181 3.28778,1.83774 4.74962,2.38535 6.37184,2.38696 0.766243,0.001 1.47369,-0.15629 1.47369,-0.32715 0,-0.22244 -0.98244,-0.93137 -1.99458,-1.43928 -1.60656,-0.80622 -5.15142,-2.425057 -6.30917,-2.881234 -4.5895,-1.808361 -5.23106,-2.012158 -7.75152,-2.462355 -1.2338,-0.22037 -2.0023,-0.27687 -4.51165,-0.33172 -3.428977,-0.0749 -4.197354,-0.007 -6.464159,0.574307 -2.8168,0.721927 -3.549543,1.072944 -5.840753,2.797945 -1.362027,1.025437 -3.108696,2.755967 -4.054081,4.016607 -0.554726,0.7397 -0.66008,0.93352 -0.507422,0.93352 0.03907,0 0.892825,-0.66265 1.897217,-1.47257 z m 51.699502,1.55506 c -0.9439,-0.47599 -1.08243,-1.31209 -0.44029,-2.65756 0.5981,-1.25321 1.57749,-2.14815 2.8926,-2.643147 0.37986,-0.142977 1.3331,-0.534247 2.11832,-0.869494 1.11139,-0.474517 2.00023,-0.746547 4.01228,-1.227994 5.21231,-1.247201 7.00895,-1.704898 8.13878,-2.073348 1.76519,-0.575657 4.10707,-1.465457 5.3892,-2.047637 4.53647,-2.0599 5.45411,-2.44665 6.43403,-2.71177 1.90188,-0.51455 3.1092,-0.35927 3.7297,0.47971 0.4739,0.64077 0.29879,1.96577 -0.39261,2.9707 -1.01878,1.480737 -4.73194,3.779465 -8.67129,5.368186 -2.30548,0.929784 -4.68323,1.916024 -6.1523,2.551844 -2.12575,0.92002 -3.13837,1.20146 -5.42409,1.50754 -3.52171,0.4716 -5.14448,0.73687 -6.24095,1.02019 -2.48189,0.64132 -4.53082,0.76774 -5.39338,0.33278 z m 3.36158,-2.27992 c 0.48234,-0.0593 1.79259,-0.18296 2.91167,-0.27489 1.11909,-0.0919 2.52963,-0.21857 3.13454,-0.28143 3.3022,-0.34313 6.09825,-1.09021 8.4034,-2.245317 0.77236,-0.387027 2.29083,-1.084104 3.3744,-1.549051 4.89683,-2.101188 8.53848,-4.308742 9.31775,-5.648412 l 0.1987,-0.34157 h -0.31089 c -0.78656,0 -2.78544,0.7647 -7.40039,2.8311 -3.28514,1.470941 -4.91201,2.024198 -8.84396,3.007562 -1.21517,0.30391 -3.27348,0.844377 -4.57404,1.201044 -1.30055,0.356657 -2.95729,0.776144 -3.68164,0.932194 -1.44556,0.31141 -2.0849,0.6114 -3.21982,1.51078 -0.37807,0.2996 -0.6874,0.56118 -0.6874,0.58126 0,0.0201 -0.03,0.11481 -0.0668,0.2105 -0.0809,0.21089 0.17236,0.22251 1.44443,0.0662 z m -34.149284,88.72699 c 0.002,-0.31759 0.0752,-1.07234 0.16284,-1.67725 0.47313,-3.26557 0.006,-5.5065 -1.66944,-8.00842 -0.81162,-1.21199 -1.00026,-1.61065 -0.86539,-1.82886 0.21266,-0.3441 1.00953,0.0544 1.98356,0.99193 l 0.54992,0.5293 1.46073,-2.17174 c 1.64784,-2.44995 1.84965,-2.90928 2.25633,-5.13556 0.23185,-1.26929 0.28906,-1.43824 0.5262,-1.55415 0.14634,-0.0715 1.1495,-0.43322 2.22925,-0.80376 2.34342,-0.80422 4.2789,-1.79975 6.72049,-3.45675 2.336564,-1.58572 2.947934,-1.86933 4.126634,-1.91424 0.52461,-0.02 1.37365,0.0394 1.92748,0.13496 0.54442,0.0939 1.77107,0.28052 2.72591,0.41474 1.52853,0.21487 1.86377,0.22937 2.80458,0.12135 0.58769,-0.0675 1.43972,-0.2453 1.8934,-0.39519 1.01729,-0.33609 2.39761,-0.56529 2.90675,-0.48266 0.20979,0.034 0.64383,0.25782 0.96452,0.49727 0.70375,0.52551 1.24148,0.80185 2.52445,1.29734 0.97271,0.37566 0.97534,0.376 2.32079,0.30515 1.59594,-0.0841 1.79696,-0.023 2.77677,0.84279 1.33695,1.18143 2.61054,1.88279 3.99975,2.20264 1.63017,0.37534 1.77438,0.63702 1.77438,3.21935 0,1.65512 0.0284,1.91797 0.34223,3.16555 0.18822,0.7483 0.48629,1.72347 0.66238,2.16704 0.34137,0.85992 0.50476,1.91383 0.60816,3.9228 0.0566,1.09948 0.0422,1.23458 -0.15774,1.48122 -0.29982,0.36987 -0.49856,0.18944 -0.6789,-0.61638 -0.0766,-0.3424 -0.23674,-0.89977 -0.35583,-1.23861 -0.11908,-0.33884 -0.28175,-1.03676 -0.36149,-1.55094 -0.0797,-0.51417 -0.28475,-1.29368 -0.45559,-1.73224 -0.29351,-0.7535 -0.32951,-0.79738 -0.65432,-0.79738 -0.18905,0 -0.58668,0.0744 -0.88363,0.16538 -0.41036,0.1257 -1.41075,0.18186 -4.16935,0.23402 -3.21428,0.0608 -3.89366,0.0422 -5.93911,-0.16301 -2.4138,-0.24211 -4.48963,-0.37428 -8.90867,-0.5673 -1.45178,-0.0634 -3.57997,-0.18707 -4.72929,-0.27481 -1.14933,-0.0877 -2.55987,-0.16229 -3.134527,-0.16568 -1.726417,-0.0102 -3.519467,-0.42573 -3.519467,-0.81565 0,-0.0927 0.11135,-0.19273 0.24745,-0.22238 0.13611,-0.0296 3.167527,-0.0775 6.736494,-0.10639 6.31312,-0.051 6.5263,-0.0598 7.86382,-0.32019 0.75614,-0.14722 2.11719,-0.32353 3.02455,-0.39178 0.90737,-0.0683 2.11994,-0.17357 2.69459,-0.234 0.57467,-0.0604 1.83978,-0.10942 2.81138,-0.10882 1.42496,8.5e-4 1.93146,-0.0422 2.61969,-0.22241 1.30192,-0.34102 2.1187,-0.70487 3.20311,-1.42693 0.87917,-0.5854 0.95262,-0.65879 0.65943,-0.65875 -0.62596,6e-5 -4.17051,-1.19192 -6.37904,-2.1452 -1.10643,-0.47758 -2.4758,-0.8094 -5.04771,-1.22318 -1.14496,-0.1842 -1.25753,-0.18406 -2.52962,0.003 -2.22877,0.32812 -3.25867,0.34305 -4.52086,0.0656 -1.28036,-0.28147 -3.62724,-0.40971 -4.28935,-0.2344 -0.24197,0.0641 -1.0586,0.29437 -1.81474,0.51179 -0.75613,0.21741 -1.820217,0.51729 -2.364634,0.66638 -1.32715,0.36346 -2.23157,0.82009 -2.98111,1.50514 -0.72644,0.66391 -1.14078,1.21148 -2.22454,2.93985 -0.43621,0.69565 -1.10139,1.69668 -1.47819,2.22451 -0.37678,0.52782 -0.96862,1.36919 -1.31519,1.86972 -0.34658,0.50051 -0.93399,1.25647 -1.30536,1.67991 -2.42248,2.7621 -3.18914,4.1737 -4.21227,7.75571 -0.62894,2.20195 -0.67222,2.30779 -0.94345,2.30779 -0.19577,0 -0.22228,-0.0698 -0.21921,-0.57742 z"
       style="fill:#000000;stroke-width:0.109983" />
  </g>
</svg>
