<?xml version="1.0" encoding="UTF-8" standalone="no"?>
<svg
   xmlns:dc="http://purl.org/dc/elements/1.1/"
   xmlns:cc="http://creativecommons.org/ns#"
   xmlns:rdf="http://www.w3.org/1999/02/22-rdf-syntax-ns#"
   xmlns:svg="http://www.w3.org/2000/svg"
   xmlns="http://www.w3.org/2000/svg"
   id="svg8"
   version="1.1"
   viewBox="0 0 210 297"
   height="297mm"
   width="210mm">
  <defs
     id="defs2" />
  <metadata
     id="metadata5">
    <rdf:RDF>
      <cc:Work
         rdf:about="">
        <dc:format>image/svg+xml</dc:format>
        <dc:type
           rdf:resource="http://purl.org/dc/dcmitype/StillImage" />
        <dc:title></dc:title>
      </cc:Work>
    </rdf:RDF>
  </metadata>
  <g
     id="layer1">
    <path
       id="path292"
       d="m 95.741312,263.97084 c -1.890296,-0.21352 -3.373681,-0.75531 -5.763327,-2.105 -1.559281,-0.88069 -2.505516,-1.50311 -3.541634,-2.32964 -0.47211,-0.37661 -1.182862,-0.9287 -1.579439,-1.22687 -0.920686,-0.69223 -1.625527,-1.25675 -2.231814,-1.78756 -0.32044,-0.28053 -0.800385,-0.58821 -1.439591,-0.92286 -0.527391,-0.27611 -1.193987,-0.64935 -1.481303,-0.82942 -0.287334,-0.18007 -1.13826,-0.59627 -1.890965,-0.92488 -0.752706,-0.32862 -1.893893,-0.8375 -2.535963,-1.13086 -0.642078,-0.29336 -1.538237,-0.69616 -1.991471,-0.89511 -0.453233,-0.19896 -1.287586,-0.59378 -1.854123,-0.87738 -0.566537,-0.28361 -1.745886,-0.84718 -2.62078,-1.25238 -0.874885,-0.40519 -1.941004,-0.93773 -2.369153,-1.18342 -0.428148,-0.24568 -1.233895,-0.69647 -1.790543,-1.00175 -1.233254,-0.67633 -1.511109,-0.86208 -3.214752,-2.1491 -2.235542,-1.68883 -4.565075,-3.77523 -7.265263,-6.50697 -2.35378,-2.38129 -3.200235,-3.41968 -5.156788,-6.32616 -1.04176,-1.54755 -1.208513,-1.8223 -2.35484,-3.87993 -1.469072,-2.63696 -2.438003,-4.04971 -4.837018,-7.05259 -1.905938,-2.3857 -2.659378,-3.50219 -3.832806,-5.67968 -1.080683,-2.00538 -2.295544,-4.83892 -3.494196,-8.14986 -1.037076,-2.86465 -1.636671,-5.69004 -2.008637,-9.46509 -0.06664,-0.676 -0.143305,-1.17222 -0.172981,-1.11918 -0.1102,0.19691 -0.826203,3.01273 -1.051509,4.13523 -0.128871,0.64208 -0.344577,1.88378 -0.47935,2.75932 -0.371473,2.41333 -0.498959,2.92606 -0.838127,3.37074 -0.264898,0.34729 -0.552475,0.49617 -0.958968,0.49647 -0.650267,7.8e-4 -1.098351,-0.50652 -1.365304,-1.54484 -0.274536,-1.0678 -0.417395,-2.49406 -0.687842,-6.86714 -0.187675,-3.03461 -0.292177,-4.22718 -0.378314,-4.31729 -0.103183,-0.10793 -0.67563,1.17834 -1.478226,3.32156 -0.915277,2.4441 -1.341223,3.18371 -2.031612,3.52775 -0.944591,0.47071 -1.954732,0.0138 -2.300842,-1.04059 -0.171066,-0.52119 -0.159281,-1.40094 0.07835,-5.85205 0.247983,-4.64418 0.202805,-5.8651 -0.312903,-8.45681 -0.47868,-2.40564 -1.223867,-4.04661 -3.746687,-8.25051 -1.503385,-2.50514 -1.644246,-2.82562 -2.601132,-5.91769 -1.233552,-3.98605 -1.618,-5.66453 -1.903708,-8.3114 -0.134262,-1.24375 -0.11348,-4.51647 0.03569,-5.6245 0.265354,-1.97076 0.66919,-3.39027 1.553536,-5.46078 0.337606,-0.79045 0.649217,-1.56857 0.692462,-1.72916 0.0816,-0.30293 0.03495,-0.88547 -0.07082,-0.88547 -0.03327,0 -0.470241,0.38353 -0.971096,0.85231 -1.172379,1.09728 -1.501983,1.30128 -2.155763,1.33429 -0.562614,0.0284 -0.874178,-0.0917 -1.247222,-0.48097 -0.3944577,-0.41159 -0.5342217,-0.82689 -0.5277717,-1.56829 0.01218,-1.39867 0.7202227,-2.82518 3.5278037,-7.10747 1.326315,-2.02299 1.855127,-2.88168 2.389395,-3.87993 0.592412,-1.10688 1.716944,-3.7459 1.632275,-3.83057 -0.05818,-0.0582 -0.910732,0.53168 -2.198021,1.5208 -1.397759,1.07402 -3.231901,2.32228 -3.971948,2.70319 -0.448539,0.23085 -0.546499,0.25483 -1.0492127,0.25679 -0.5035227,0.002 -0.5777357,-0.0155 -0.8075217,-0.19066 -0.7379,-0.56231 -0.7273885,-1.67678 0.02779,-2.94797 0.307298,-0.51725 1.1858634,-1.71187 2.1511324,-2.92498 1.879394,-2.36193 4.009849,-5.3733 4.895933,-6.92034 0.557559,-0.97345 1.54954,-3.25464 1.415287,-3.25464 -0.05335,0 -0.263709,0.24764 -1.429423,1.68244 -3.08761,3.80034 -4.749059,5.27709 -6.4182317,5.70471 -1.0080494,0.25825 -1.683354,-0.13844 -1.680287,-0.98706 0.00186,-0.47548 0.1188336,-0.743 1.0273623,-2.34674 0.9925844,-1.75211 1.5545584,-3.06748 2.0691504,-4.84308 0.367812,-1.26912 0.512455,-2.05068 0.552856,-2.98719 0.06125,-1.4205 -0.241757,-2.78568 -1.349058,-6.07741 -1.4129621,-4.20037 -1.9767108,-6.38146 -2.3013981,-8.90384 -0.4787081,-3.71888 0.1024203,-7.031942 2.1421451,-12.21257 1.241163,-3.152389 2.145129,-4.978175 5.099974,-10.300686 0.744369,-1.340814 1.841159,-3.364898 2.437325,-4.497971 2.724724,-5.178676 5.522193,-9.830166 8.253813,-13.724025 1.024566,-1.460502 4.657504,-6.452244 6.304696,-8.662803 3.489084,-4.682421 6.412496,-8.021118 10.824433,-12.362141 1.505513,-1.481303 2.120045,-2.051343 5.591154,-5.186288 3.042488,-2.747838 6.694451,-5.78158 9.885894,-8.21238 0.793153,-0.604113 1.890175,-1.446041 2.437835,-1.870965 1.131624,-0.878008 3.375977,-2.391951 4.497962,-3.034141 1.879227,-1.07559 4.044943,-2.063816 5.717666,-2.608995 3.116997,-1.015895 5.995993,-1.457826 10.729104,-1.646951 2.750171,-0.109892 4.78907,0.03114 8.480905,0.586817 1.52083,0.228884 5.138219,0.696514 6.420759,0.830023 0.816628,0.08504 2.287321,0.123452 6.317765,0.165127 5.21576,0.0539 5.99872,0.08671 8.30921,0.347392 5.9903,0.675937 9.60229,1.64749 13.7686,3.70348 1.63072,0.804734 4.11078,2.20107 5.21773,2.937725 1.05259,0.700482 1.91032,1.606744 2.54399,2.687948 0.23715,0.404644 0.55851,0.687563 1.19987,1.056407 0.49879,0.286832 1.45069,0.571035 2.91557,0.87047 2.00369,0.40957 5.90241,1.321966 7.52247,1.760431 1.65428,0.447731 5.18848,1.598593 6.5581,2.135547 1.11039,0.435333 4.04581,1.853315 5.15035,2.48794 0.81523,0.468392 3.68022,2.338287 4.46363,2.913282 0.8641,0.634206 2.86311,2.338752 3.88546,3.31312 3.36565,3.207698 6.41651,7.111641 10.0567,12.868732 2.66524,4.215196 4.15173,6.808456 5.82574,10.163344 3.4254,6.86481 5.73048,12.540485 7.43188,18.299062 0.86709,2.934779 1.33291,5.055391 1.60691,7.31532 0.28668,2.364404 0.49053,3.843392 0.82347,5.974399 0.55976,3.58282 0.82435,5.67055 1.13354,8.94428 0.0954,1.01024 0.24983,2.41628 0.34314,3.12453 0.20955,1.59044 0.44761,3.50414 0.44761,3.59818 0,0.0386 1.38591,1.48134 3.07981,3.20615 1.69389,1.7248 3.25848,3.33686 3.47686,3.58237 1.40097,1.57497 2.66476,3.36283 4.36878,6.18041 1.37876,2.27977 1.33887,2.18631 1.12524,2.63648 -0.22021,0.46407 -0.84603,0.59409 -1.37302,0.28526 -0.1581,-0.0927 -0.46061,-0.38009 -0.67221,-0.63874 -1.35678,-1.65837 -5.31921,-4.78555 -8.59148,-6.78043 -0.67715,-0.41281 -1.0692,-0.61666 -1.03559,-0.53844 0.33421,0.77756 0.61151,1.68027 1.03017,3.35342 0.55182,2.20532 0.69099,2.62224 1.37543,4.12028 1.77811,3.89177 3.21116,6.15129 5.89538,9.29532 1.24123,1.45387 1.41726,1.75073 1.28168,2.16153 -0.1475,0.44693 -0.57115,0.5888 -1.27248,0.42614 -1.31981,-0.30608 -3.78991,-1.59996 -5.53194,-2.89772 -0.42521,-0.31678 -0.78478,-0.5643 -0.79903,-0.55005 -0.0142,0.0142 0.0677,0.23448 0.18205,0.4894 0.26409,0.58858 0.96177,2.50098 1.19098,3.26453 0.71895,2.39496 1.4208,6.41948 1.59452,9.14322 0.0566,0.88773 -0.0142,1.1714 -0.32455,1.29994 -0.40229,0.16664 -0.43552,0.11668 -2.05954,-3.09533 -1.92771,-3.81269 -2.67447,-5.12726 -3.86142,-6.79747 -0.98233,-1.38227 -2.55023,-3.14852 -3.17891,-3.58107 l -0.28958,-0.19923 -0.0813,0.15188 c -0.13796,0.25777 -0.0285,1.3573 0.23891,2.40008 0.32506,1.26756 0.75592,2.56956 1.55371,4.69525 1.6207,4.31825 3.24282,7.78281 5.38323,11.49766 0.40107,0.6961 0.763,1.39107 0.80428,1.54438 0.26647,0.98958 -0.37675,1.55293 -1.5046,1.31777 -1.12878,-0.23536 -2.31742,-1.07375 -5.30162,-3.73941 -0.54765,-0.48921 -1.00557,-0.88019 -1.01759,-0.86885 -0.0294,0.0277 0.55692,0.95997 1.31694,2.09425 0.97959,1.46194 2.05427,3.28592 2.64566,4.49031 1.42835,2.90883 2.17126,5.12366 2.00654,5.98205 -0.11094,0.57815 -0.48755,1.01946 -0.94287,1.10488 -0.91356,0.17139 -2.05246,-0.3153 -3.3222,-1.4197 -0.77095,-0.67053 -2.75325,-3.03646 -3.67524,-4.38649 -0.25826,-0.37814 -0.477,-0.68008 -0.48611,-0.67097 -0.009,0.009 0.16753,0.57265 0.39253,1.25232 0.59976,1.81175 1.10062,3.60734 1.68089,6.02604 1.41795,5.91023 2.38212,9.01747 3.78747,12.20587 0.56113,1.27307 1.18059,2.48528 2.42252,4.74059 2.12064,3.85101 2.37085,4.42979 2.19589,5.07954 -0.112,0.41598 -0.4951,0.79107 -0.87317,0.85495 -0.55597,0.0939 -1.20258,-0.19688 -2.43568,-1.09544 -0.81159,-0.5914 -2.27556,-2.0675 -2.9286,-2.95287 -1.02521,-1.3899 -2.51652,-3.99648 -3.55541,-6.21424 -0.51276,-1.09459 -3.32331,-7.56997 -3.32331,-7.65673 0,-0.0854 -1.22855,-2.90656 -1.52541,-3.50286 -0.36399,-0.73115 -0.81294,-1.47483 -0.89094,-1.47583 -0.0259,0 -0.035,0.0998 -0.0202,0.22258 0.0149,0.12275 0.0622,0.51675 0.10509,0.87556 0.17638,1.47392 0.67294,3.49474 1.31167,5.33803 0.77119,2.22556 2.70435,6.87218 5.03589,12.10447 1.64961,3.70196 2.02568,4.61115 2.47024,5.97198 0.60273,1.84507 0.72325,2.73241 0.43017,3.16731 -0.64333,0.95464 -2.19959,0.20018 -3.97867,-1.9288 -1.07162,-1.2824 -1.97186,-2.52856 -2.80292,-3.87993 -0.29946,-0.48695 -1.10802,-2.01908 -2.80862,-5.32203 -0.51533,-1.00088 -1.0943,-2.05155 -1.28661,-2.33482 -0.38364,-0.56508 -0.80652,-1.03007 -0.9368,-1.03007 -0.16733,0 -0.57571,0.9768 -0.73211,1.75112 -0.0839,0.41546 -0.31811,1.45068 -0.52044,2.30049 -0.20233,0.8498 -0.47989,2.13055 -0.6168,2.84609 -0.13692,0.71553 -0.32546,1.59625 -0.41899,1.95713 -0.25866,0.99813 -1.41889,4.91904 -1.79945,6.08118 -0.58481,1.78582 -2.13307,5.97751 -2.84086,7.69118 -0.37438,0.90646 -1.00225,2.45664 -1.39525,3.44484 -0.393,0.98821 -1.10549,2.62602 -1.58331,3.63958 -0.47781,1.01356 -1.12464,2.41453 -1.43741,3.11326 -0.71819,1.60449 -2.96245,6.22472 -3.4048,7.00941 -0.46053,0.81694 -2.04253,3.20102 -2.59411,3.90932 -0.69014,0.88622 -1.80848,2.1474 -3.22364,3.63536 -2.16494,2.27629 -7.21434,7.28278 -8.04736,7.97894 -1.90439,1.59153 -3.53512,2.75758 -5.21901,3.73184 -1.39122,0.80491 -2.78324,1.7459 -3.39923,2.29781 -0.30215,0.27074 -0.94591,0.75513 -1.43058,1.07644 -0.48466,0.3213 -1.19145,0.83135 -1.57063,1.13344 -0.3792,0.30209 -0.97153,0.73787 -1.31628,0.9684 -0.34476,0.23053 -1.09628,0.75451 -1.67003,1.16442 -0.57376,0.4099 -1.2874,0.89673 -1.58588,1.08185 -0.9974,0.61861 -3.41652,1.76769 -4.8374,2.29777 -1.5457,0.57665 -5.70712,1.67918 -8.18412,2.16832 -2.34908,0.46388 -3.03013,0.55032 -4.88212,0.61969 -2.77516,0.10397 -3.2431,0.14826 -5.45937,0.51673 l -0.99573,0.16556 -2.43783,1.05608 c -2.86101,1.23941 -3.07154,1.34258 -4.15462,2.03592 -1.90651,1.22048 -3.095764,1.83617 -3.99294,2.06722 -0.631827,0.16272 -1.800848,0.22197 -2.599494,0.13175 z m 2.506498,-2.03398 c 0.572009,-0.18908 1.80253,-0.84114 3.50781,-1.85883 0.62012,-0.37008 1.56012,-0.87034 2.0889,-1.11168 0.52876,-0.24135 1.93711,-0.91067 3.12965,-1.48737 2.03729,-0.98524 2.98721,-1.41132 5.66027,-2.53894 2.83174,-1.19456 3.78826,-1.77845 7.60112,-4.63993 1.04578,-0.78484 1.99799,-1.47692 2.11602,-1.53796 0.11804,-0.0611 0.31306,-0.10143 0.43341,-0.0898 0.18732,0.0181 0.22173,0.0509 0.2391,0.22788 0.0562,0.57293 -1.25711,1.80815 -4.93028,4.63698 -1.74622,1.34482 -2.40031,1.80169 -3.43247,2.39755 l -0.71995,0.41563 0.34226,-7.8e-4 c 1.15729,-0.003 2.78783,-0.22475 5.31663,-0.72502 2.61049,-0.51642 6.60567,-1.58124 8.46948,-2.25733 0.93815,-0.34031 2.97766,-1.2254 3.95658,-1.71704 1.13407,-0.56956 3.67388,-2.33913 5.0113,-3.49154 0.81457,-0.70188 1.27495,-1.03511 1.96656,-1.42342 0.22662,-0.12723 1.4939,-0.9473 2.81618,-1.82238 1.32229,-0.87508 2.5736,-1.67692 2.78069,-1.78187 0.4587,-0.23243 1.07742,-0.6974 2.78103,-2.08999 1.42292,-1.16313 3.68017,-3.35911 8.19264,-7.97026 3.17403,-3.24342 3.64457,-3.79846 5.28297,-6.23154 0.6029,-0.89535 1.02859,-1.62289 1.39644,-2.38671 1.15831,-2.40513 2.5416,-5.32587 2.84578,-6.00873 0.17666,-0.39658 0.87241,-1.84898 1.5461,-3.22755 1.6509,-3.3782 2.65762,-5.88785 4.72429,-11.77712 0.45064,-1.28416 1.01106,-2.95287 1.24539,-3.70825 0.23433,-0.75538 0.69951,-2.20778 1.03374,-3.22755 0.71422,-2.17921 0.72384,-2.21535 1.12863,-4.24432 0.17183,-0.86138 0.39238,-1.88114 0.49008,-2.26615 0.0977,-0.38501 0.29897,-1.30194 0.44727,-2.03764 0.55405,-2.74874 1.074,-4.47091 1.77352,-5.87431 0.67757,-1.35931 0.92064,-1.59614 1.27478,-1.24201 0.21817,0.21817 0.22751,0.57102 0.0339,1.28244 -0.2717,0.99852 -0.61651,2.33697 -0.61651,2.39303 0,0.0313 0.12644,0.0771 0.28098,0.10188 0.6199,0.0991 1.18489,0.56522 1.8481,1.52459 0.19689,0.28481 0.82886,1.45044 1.4044,2.59029 1.75974,3.48524 2.45471,4.7729 3.19407,5.91808 1.08969,1.68779 2.22214,3.2613 2.90219,4.03255 0.36948,0.41902 0.99186,0.94612 1.11714,0.94612 0.15374,0 -0.31706,-1.74822 -0.86597,-3.21556 -0.62234,-1.66365 -1.45101,-3.53795 -3.2539,-7.35983 -1.57681,-3.34262 -3.77637,-8.67306 -4.51968,-10.95306 -0.62598,-1.9201 -0.91607,-3.34502 -0.98564,-4.84133 -0.0447,-0.96236 0.0186,-1.31769 0.29293,-1.64374 0.43517,-0.51716 1.06469,-0.41469 1.70566,0.27762 0.81382,0.87902 1.41024,2.07112 3.78494,7.56511 1.81113,4.19013 1.93316,4.45844 2.84953,6.26485 1.93185,3.80817 3.0263,5.48449 4.50832,6.90515 0.90161,0.86429 2.39574,2.05645 2.57733,2.05645 0.22695,0 -0.24063,-0.94481 -1.73321,-3.50224 -1.74185,-2.98453 -2.56542,-4.54196 -3.47232,-6.56647 -1.4051,-3.13666 -2.18193,-5.66221 -3.63049,-11.80308 -0.51043,-2.16392 -1.01623,-3.92826 -1.98832,-6.93581 -0.97263,-3.00918 -1.0795,-3.50115 -0.87032,-4.00618 0.17165,-0.4144 0.69685,-0.56582 1.14991,-0.33153 0.29582,0.15297 0.51915,0.45474 1.31456,1.77633 0.95102,1.58011 1.26356,2.03013 2.34755,3.38015 1.22149,1.52125 2.35575,2.80903 2.82177,3.20368 0.78052,0.66099 1.67611,1.16512 1.86379,1.04913 0.11432,-0.0706 0.007,-0.82265 -0.21814,-1.53923 -0.30203,-0.95811 -0.81014,-2.15875 -1.47892,-3.49455 -0.7134,-1.42494 -1.15024,-2.14778 -2.99014,-4.9478 -2.19433,-3.33939 -2.48032,-3.91405 -2.26801,-4.55734 0.20902,-0.63336 0.8725,-0.784 1.5241,-0.34604 0.7097,0.47701 1.83799,1.44806 3.8513,3.31461 1.39322,1.29164 2.19252,1.96389 2.70275,2.27312 0.42453,0.2573 0.8768,0.42942 0.9076,0.34542 0.0307,-0.0837 -0.22611,-0.56799 -1.01938,-1.92249 -0.77908,-1.33023 -2.51687,-4.65592 -3.1685,-6.06368 -1.1329,-2.44748 -2.41056,-5.69711 -3.17142,-8.06634 -0.89824,-2.7969 -1.03715,-4.06984 -0.54319,-4.97741 0.34772,-0.63889 0.90866,-0.7854 1.64257,-0.429 0.82638,0.40129 2.8263,2.63198 4.27146,4.76431 0.92731,1.36827 1.55601,2.48232 2.76631,4.90189 0.56583,1.13117 1.04359,2.04186 1.06169,2.02377 0.0915,-0.0916 -0.52247,-3.41634 -0.94143,-5.09807 -0.31047,-1.24624 -1.34124,-4.25636 -2.11048,-6.1632 l -0.68564,-1.69957 -0.92514,-0.97861 c -1.09463,-1.15781 -1.99567,-2.16884 -3.22839,-3.62236 -0.4965,-0.58543 -2.03598,-2.3623 -3.42109,-3.9486 -4.39549,-5.03398 -4.79774,-5.53537 -4.79774,-5.98014 0,-0.46038 0.42736,-0.56782 0.89204,-0.22426 0.35448,0.26208 3.10653,3.21151 6.45693,6.92001 2.40513,2.66218 2.84181,3.15952 4.31609,4.91542 2.09606,2.49646 3.30995,3.61165 5.60577,5.14996 1.14324,0.76603 2.71285,1.64839 2.8506,1.60248 0.0382,-0.0127 -0.42962,-0.59474 -1.03963,-1.29332 -2.61097,-2.9901 -3.81164,-4.76259 -5.47374,-8.08064 -1.10643,-2.20878 -1.40786,-3.02283 -1.86445,-5.03532 -0.66044,-2.91099 -0.83062,-3.46683 -1.39346,-4.55114 -0.34332,-0.66143 -0.36247,-0.68295 -1.31112,-1.47408 -1.56219,-1.30278 -4.6774,-4.47278 -6.39483,-6.50729 -1.44664,-1.71372 -1.99182,-2.57075 -1.99182,-3.13115 0,-0.37771 0.11814,-0.54275 0.38852,-0.54275 0.30925,0 0.48256,0.15107 1.51037,1.31657 1.62759,1.84566 3.42518,3.6885 5.19435,5.32511 2.77962,2.57133 3.70671,3.34617 5.02964,4.20365 2.41638,1.5662 3.4992,2.32545 5.06738,3.55313 0.95658,0.74888 1.88259,1.46974 2.0578,1.60194 l 0.31857,0.24035 -0.23389,-0.34335 c -1.14481,-1.68062 -2.38582,-3.10736 -4.30638,-4.95092 -4.68605,-4.49819 -4.16682,-3.98962 -5.53253,-5.41894 -1.36647,-1.43009 -2.0325,-2.19919 -3.2021,-3.69769 -1.47892,-1.89475 -1.91506,-2.80367 -1.54278,-3.21505 0.28424,-0.31407 0.75803,-0.0604 1.57979,0.84585 0.29611,0.32656 1.07525,1.18544 1.73142,1.90862 0.65616,0.7232 1.20603,1.30189 1.22192,1.28599 0.0159,-0.0159 -0.0323,-0.33399 -0.10711,-0.70688 -0.15844,-0.78967 -0.30282,-1.96576 -0.45417,-3.6995 -0.17928,-2.05362 -0.50993,-4.90749 -0.79165,-6.83279 -0.14645,-1.00088 -0.38841,-2.65414 -0.53769,-3.67391 -0.14928,-1.019774 -0.35391,-2.487619 -0.45474,-3.261886 -0.33387,-2.563891 -0.72124,-4.330558 -1.65633,-7.553843 -1.7152,-5.912347 -4.05712,-11.66479 -7.68826,-18.884595 -1.84368,-3.665811 -3.19103,-6.042855 -5.85805,-10.335024 -2.41184,-3.881507 -4.74217,-7.100247 -6.98527,-9.64831 -1.66228,-1.888279 -4.71559,-4.65992 -6.62655,-6.01526 -1.02483,-0.72685 -3.14422,-2.101522 -4.00881,-2.600175 -0.88587,-0.510931 -3.73301,-1.935121 -4.64757,-2.324811 -0.88819,-0.378453 -4.17201,-1.521453 -5.56869,-1.938309 -0.57659,-0.172089 -1.7591,-0.498096 -2.62779,-0.724471 -0.86869,-0.226365 -2.32108,-0.608573 -3.22755,-0.849354 -0.90646,-0.240771 -2.18889,-0.56662 -2.84986,-0.724108 -1.33172,-0.317308 -2.03938,-0.56584 -2.63871,-0.926727 -0.2197,-0.132301 -0.47015,-0.240548 -0.55655,-0.240548 -0.16898,0 -0.65257,-0.546834 -1.16536,-1.317737 -0.95027,-1.428615 -1.54911,-1.903299 -4.47472,-3.546996 -2.74709,-1.543405 -3.99633,-2.150176 -5.8823,-2.857118 -3.18335,-1.193271 -6.4295,-1.815572 -11.7208,-2.246936 -1.20244,-0.09802 -5.28542,-0.113471 -8.4809,-0.03207 -3.344558,0.08523 -3.50331,0.07138 -12.498164,-1.086305 -2.25097,-0.289714 -3.034727,-0.343369 -4.978668,-0.340813 -1.952139,0.0028 -3.261418,0.07491 -5.562371,0.30741 -5.5192,0.55767 -9.511158,1.983171 -14.058108,5.020036 -0.922657,0.616232 -1.247261,0.856241 -4.345791,3.213163 -3.249986,2.472121 -6.520354,5.192794 -10.232022,8.512188 -3.987347,3.565937 -5.306051,4.823346 -7.953792,7.584084 -4.810818,5.016133 -5.560271,5.930471 -12.279211,14.980669 -2.601885,3.504642 -3.731417,5.157606 -5.701466,8.343556 -2.296008,3.71309 -3.400577,5.637244 -4.96705,8.652584 -1.050208,2.021565 -1.452798,2.773434 -2.610659,4.875653 -2.223608,4.0372 -3.456778,6.61256 -4.66926,9.751324 -1.571213,4.067397 -2.2078264,7.212359 -2.0053747,9.906919 0.174942,2.32841 0.6283787,4.2927 1.8346057,7.94761 1.701516,5.15564 2.024298,6.44774 2.024298,8.10321 0,2.41943 -1.206274,6.091 -2.910234,8.85797 -0.244015,0.39623 -0.433371,0.7307 -0.420796,0.74328 0.04963,0.0496 0.460203,-0.21041 0.962825,-0.60982 1.024361,-0.81403 2.56969,-2.46046 4.249765,-4.5278 1.68104,-2.06852 2.184991,-2.49178 2.966787,-2.49178 0.447369,0 0.768227,0.19262 1.003031,0.60214 0.224879,0.39221 0.209274,1.15612 -0.04052,1.98519 -0.962462,3.194 -2.401384,5.48049 -7.121046,11.3155 -1.401439,1.73263 -2.067181,2.67612 -1.962316,2.78099 0.0908,0.0908 2.671404,-1.60456 4.302648,-2.82674 2.285348,-1.71224 2.870668,-2.00876 3.585343,-1.81631 0.68722,0.18505 1.037326,0.90022 0.878324,1.79419 -0.255289,1.43535 -1.380853,4.11156 -2.527905,6.01047 -0.230101,0.38093 -1.184506,1.84861 -2.120899,3.26153 -0.936402,1.41291 -1.930168,2.96133 -2.208376,3.44092 -0.684366,1.17976 -1.07453,2.33623 -0.837588,2.48267 0.03541,0.0218 0.460297,-0.33441 0.944228,-0.79173 1.454378,-1.3744 2.216619,-1.78274 2.957819,-1.5845 0.172321,0.0461 0.336202,0.0594 0.364168,0.0296 0.02797,-0.0298 0.227119,-0.48655 0.442564,-1.01499 0.49685,-1.2187 0.679784,-1.57801 0.871939,-1.7126 0.228289,-0.1599 0.487658,-0.13314 0.677898,0.0699 0.144475,0.15425 0.165192,0.23818 0.156753,0.63521 -0.0056,0.25162 -0.07249,0.72016 -0.1493,1.0412 -0.279341,1.16829 -1.339122,4.46295 -1.86654,5.80272 -0.297372,0.75538 -0.621734,1.62064 -0.720818,1.9228 -1.286704,3.92381 -1.19868,8.90969 0.248532,14.07761 0.409449,1.46212 1.359328,4.47038 1.597943,5.06067 0.351714,0.8701 0.497686,1.13915 1.694368,3.12299 3.090268,5.12298 3.686527,6.63328 4.265342,10.80394 0.06153,0.44352 0.08932,1.42184 0.08662,3.05588 -0.0037,2.34368 -0.01636,2.59569 -0.401921,8.08603 -0.01794,0.25495 -0.0084,0.46354 0.02128,0.46354 0.08253,0 0.486022,-0.91049 1.141196,-2.57518 0.32703,-0.83092 0.775579,-1.89022 0.996777,-2.35398 0.935956,-1.96237 1.412015,-2.46698 2.268879,-2.40501 0.655053,0.0474 1.079977,0.47383 1.405854,1.41088 0.384327,1.10513 0.524016,2.28523 0.721487,6.09496 0.0803,1.54853 0.154876,2.82464 0.165815,2.83577 0.01097,0.0112 0.0579,-0.18972 0.104418,-0.44636 0.38442,-2.12198 1.718905,-6.30208 2.605742,-8.16216 0.393528,-0.82538 0.395136,-0.83139 0.442861,-1.64811 0.121594,-2.08101 0.344149,-3.5766 0.624374,-4.19587 0.174793,-0.38627 0.354019,-0.52398 0.638807,-0.49082 0.352002,0.041 0.356584,0.0891 0.358099,3.76398 9.3e-4,3.51495 0.04275,4.34339 0.349019,7.00447 0.367264,3.19079 0.997297,6.00279 1.83864,8.20622 1.705531,4.46674 2.075657,5.36837 2.964408,7.22123 1.386913,2.89142 2.225579,4.23124 4.227283,6.75337 2.563472,3.22994 3.31984,4.33938 4.86897,7.14182 1.184163,2.14218 1.863994,3.1932 3.704344,5.72687 0.945678,1.30194 1.377572,1.81036 2.769754,3.26052 1.055961,1.09994 4.078736,3.98562 5.536831,5.28573 0.68643,0.61205 3.42687,2.81024 3.922391,3.14626 0.398622,0.27032 2.029149,1.22339 3.296754,1.92705 1.072412,0.59528 5.540112,2.67807 6.979331,3.25367 1.414544,0.56574 3.846859,1.73392 4.678294,2.24686 0.255614,0.1577 0.481571,0.28672 0.502129,0.28672 0.04824,0 -0.350078,-0.55466 -0.649662,-0.90466 -0.127682,-0.14919 -0.442211,-0.43883 -0.698931,-0.64366 -0.25671,-0.20483 -0.48723,-0.43692 -0.51225,-0.51574 -0.191885,-0.60458 0.632906,-0.86891 1.441729,-0.46206 0.512231,0.25766 0.925956,0.62808 1.74859,1.56555 0.784119,0.89356 1.890286,1.97325 2.926274,2.85622 0.769686,0.65602 4.771412,3.63423 5.471663,4.0722 0.939766,0.58776 2.857062,1.63027 3.55497,1.93297 2.025292,0.87843 4.035405,1.1438 5.356394,0.70717 z M 57.347959,208.20195 c -0.09257,-0.14976 -0.0316,-0.45105 0.692741,-3.42366 1.000875,-4.10742 1.286416,-5.32936 1.579652,-6.7599 0.287334,-1.40173 0.452341,-1.90362 0.960864,-2.92275 0.197889,-0.39658 0.521619,-1.16536 0.719405,-1.70841 0.197796,-0.54306 0.514081,-1.33106 0.702871,-1.75112 0.717797,-1.59719 0.873305,-1.96749 1.35891,-3.23592 0.570254,-1.48954 1.553322,-3.57567 1.992214,-4.22761 0.445891,-0.66232 1.368826,-1.76749 1.84154,-2.20513 0.699385,-0.6475 1.537197,-1.15996 2.553082,-1.56163 1.252548,-0.49522 3.334701,-1.45532 4.867539,-2.24446 0.694255,-0.35742 1.701618,-0.83517 2.238572,-1.06167 0.536963,-0.2265 1.761257,-0.80026 2.720653,-1.27504 0.959387,-0.47477 2.106401,-1.01259 2.548909,-1.19517 0.442517,-0.18256 0.998756,-0.44784 1.236079,-0.5895 0.237342,-0.14167 0.941403,-0.52351 1.564596,-0.84856 0.623193,-0.32504 1.99833,-1.06737 3.055871,-1.64962 2.274624,-1.25233 2.690216,-1.44413 6.146084,-2.83624 5.631442,-2.26854 6.970759,-2.92917 8.046999,-3.96927 0.26343,-0.2546 0.47795,-0.40537 0.57671,-0.40537 0.40545,0 0.81551,0.32038 1.37044,1.07075 0.42619,0.5763 0.66753,0.7753 1.27267,1.04944 1.01026,0.45766 2.36942,0.77997 3.9465,0.93585 1.00318,0.0992 3.29808,0.38941 3.87728,0.49036 0.95675,0.16676 4.67887,1.5803 6.57656,2.49756 0.92788,0.44849 1.61447,0.87073 4.0516,2.49165 1.61393,1.07339 3.66062,2.43079 4.54819,3.01643 1.77395,1.17047 2.69222,1.84585 5.60815,4.12466 1.07357,0.83899 2.26729,1.7706 2.6527,2.07024 0.91191,0.70896 1.5952,1.39889 2.35087,2.37373 1.6966,2.18867 4.34396,6.26168 6.22654,9.57965 0.30002,0.52876 0.66683,1.1187 0.81514,1.31098 0.48497,0.62878 2.68223,2.84313 3.14664,3.17115 1.40082,0.98937 2.4391,2.30578 2.96437,3.75842 0.12292,0.33992 0.43173,1.11682 0.68627,1.72643 0.25452,0.60962 0.48357,1.20303 0.50898,1.3187 0.0925,0.42091 -0.25014,0.83479 -0.69101,0.83479 -0.57564,0 -1.07812,-0.61924 -2.56718,-3.16375 -1.52638,-2.60826 -2.25279,-3.44024 -4.05295,-4.64193 -0.6232,-0.416 -1.49892,-0.96564 -1.94606,-1.22142 -1.93392,-1.10629 -5.75177,-2.76139 -7.98263,-3.46062 -3.16802,-0.99296 -5.31975,-1.74534 -7.21332,-2.52221 -1.13777,-0.46681 -2.29867,-0.95354 -2.57978,-1.08163 -0.86334,-0.39345 -3.73733,-1.95114 -4.89686,-2.65409 -2.59272,-1.5718 -6.43444,-4.05655 -7.3854,-4.77671 l -0.68939,-0.52208 -1.25029,0.14089 c -2.71477,0.30591 -4.18584,0.3793 -7.56805,0.37758 -3.08126,-0.002 -6.498865,-0.0966 -8.468307,-0.23545 l -0.914478,-0.0645 -0.76358,0.68717 c -0.469005,0.42209 -1.228858,0.99481 -1.969713,1.48463 -0.663381,0.43858 -1.56152,1.05122 -1.995858,1.36141 -0.434348,0.31017 -1.385445,0.97003 -2.11354,1.46633 -1.441115,0.98233 -2.671442,1.89319 -4.377205,3.24065 -0.605032,0.47794 -1.59389,1.22333 -2.197482,1.65643 -0.603592,0.43311 -1.671059,1.22044 -2.372155,1.74965 -0.701087,0.52921 -1.751759,1.28963 -2.334821,1.68984 -0.583061,0.4002 -1.746898,1.21679 -2.586317,1.81463 -1.462176,1.0414 -3.607147,2.39676 -5.066228,3.20125 -0.849791,0.46855 -3.243898,1.57829 -4.257618,1.97356 -0.415462,0.16198 -1.271694,0.50621 -1.902731,0.76494 -1.473895,0.60428 -2.609255,1.0047 -3.379564,1.19189 l -0.612644,0.14887 -0.392395,0.85185 c -0.215807,0.4685 -0.507845,1.17631 -0.648965,1.57288 -0.348964,0.98065 -0.415091,1.09875 -0.615256,1.09875 -0.09127,0 -0.187712,-0.0353 -0.214414,-0.0785 z m 4.023381,-5.67535 c 0.547651,-0.22684 1.629226,-0.67351 2.403494,-0.99259 3.971882,-1.63684 6.350208,-2.91364 9.024754,-4.84488 1.079679,-0.77962 2.239018,-1.60739 4.786346,-3.41749 2.877974,-2.04504 4.816599,-3.45833 6.358564,-4.63549 0.898408,-0.68585 2.31811,-1.70601 3.15489,-2.26701 0.836788,-0.56102 1.964713,-1.33819 2.506501,-1.72707 0.541796,-0.38888 1.448606,-0.98293 2.015152,-1.32014 1.078248,-0.64177 1.682444,-1.04729 1.682444,-1.12919 0,-0.0267 -0.193139,-0.088 -0.429199,-0.13628 -0.886103,-0.18123 -1.269472,-0.46854 -1.057299,-0.79236 0.13376,-0.20414 0.531387,-0.24642 2.303453,-0.24494 2.152026,0.002 7.23839,-0.1341 9.10603,-0.24332 0.94423,-0.0552 2.13396,-0.1183 2.64384,-0.14017 1.17066,-0.0502 3.66013,-0.25673 5.83707,-0.48421 1.45358,-0.15189 1.92531,-0.17263 3.46789,-0.15248 0.982,0.0128 2.32624,-0.002 2.98721,-0.0336 1.09733,-0.052 1.22263,-0.046 1.44209,0.0687 0.19952,0.10424 0.24393,0.16863 0.26142,0.37895 0.0321,0.38564 -0.12797,0.45197 -1.65135,0.68442 -0.72742,0.111 -1.52344,0.2435 -1.76895,0.29446 -0.5599,0.11621 -1.25489,0.31693 -1.21959,0.35223 0.0147,0.0147 0.65819,0.40852 1.43002,0.87524 1.3471,0.81453 1.77345,1.07559 4.58553,2.80765 1.43644,0.88475 3.55818,2.05516 5.26439,2.90397 1.36662,0.67987 4.51824,1.97102 5.6997,2.33504 0.74119,0.22837 1.91813,0.59452 5.08168,1.58094 1.28893,0.40191 3.91063,1.38874 5.35636,2.0162 0.60431,0.26227 1.11006,0.46572 1.12388,0.45212 0.0455,-0.0448 -1.21531,-2.0566 -2.10504,-3.35895 -0.48013,-0.70282 -1.45437,-2.14989 -2.165,-3.21573 -1.90723,-2.86061 -2.88844,-4.21781 -3.82115,-5.28534 -0.2384,-0.27286 -3.26382,-2.67697 -4.74114,-3.76748 -4.27851,-3.15826 -9.29242,-6.45352 -11.43377,-7.51452 -1.66342,-0.82422 -4.41503,-1.90078 -5.69474,-2.22808 -0.62896,-0.16085 -2.28231,-0.37977 -3.64455,-0.48255 -2.1873,-0.16502 -3.92202,-0.59988 -5.44228,-1.36425 -0.65406,-0.32885 -1.15621,-0.7695 -1.65317,-1.45069 -0.20667,-0.28327 -0.39677,-0.53909 -0.42245,-0.5685 -0.0256,-0.0294 -0.277,0.17312 -0.55846,0.45006 -1.06895,1.05175 -3.055874,2.05456 -8.373506,4.22618 -0.927043,0.37859 -2.119022,0.88657 -2.648838,1.12885 -1.021276,0.46702 -3.152576,1.62898 -4.35253,2.37298 -0.948763,0.58824 -3.231472,1.77848 -4.394956,2.29159 -1.421105,0.62672 -3.016288,1.44835 -4.978668,2.56433 -2.12998,1.21129 -4.986801,2.67996 -6.317754,3.24789 -1.099875,0.46932 -1.98174,0.96842 -2.469119,1.39742 -0.434803,0.38275 -1.274092,1.39168 -1.704025,2.04848 -0.398993,0.60954 -1.430464,2.68812 -1.840183,3.70825 -0.159272,0.39657 -0.62152,1.4318 -1.027205,2.30049 -0.405694,0.86869 -0.868546,1.88846 -1.02858,2.26615 -0.160025,0.37769 -0.376214,0.85667 -0.480419,1.0644 -0.514917,1.0265 -1.119987,2.67744 -1.346492,3.67392 -0.128788,0.56653 -0.277344,1.18458 -0.330125,1.37342 -0.05279,0.18885 -0.144921,0.59058 -0.204729,0.89273 -0.05985,0.30215 -0.236301,0.96655 -0.39218,1.47644 -0.155889,0.50988 -0.298831,0.98102 -0.31767,1.04699 -0.04182,0.14641 0.0237,0.12522 1.492409,-0.48316 z m 16.276233,-21.52821 c -0.265578,-0.13438 -0.317643,-0.38106 -0.157033,-0.74414 0.114754,-0.25943 0.249703,-0.38609 0.850033,-0.7978 0.392488,-0.26919 1.113593,-0.77113 1.602451,-1.11544 0.488848,-0.34431 1.153241,-0.78449 1.476423,-0.97818 0.323182,-0.19369 1.874505,-1.14829 3.447373,-2.12131 2.778973,-1.71917 5.201308,-3.08407 6.443456,-3.63069 0.852607,-0.37519 2.53521,-0.93078 3.229288,-1.06628 1.277717,-0.24945 3.760841,-0.1992 5.401439,0.10931 1.180477,0.22199 2.658427,0.24998 3.869177,0.0732 2.82663,-0.41255 5.63438,-0.60236 7.24039,-0.48947 2.7893,0.19609 6.43601,0.97642 8.48509,1.81566 1.09779,0.44963 2.70436,1.27323 3.40128,1.74365 1.21632,0.82101 3.55135,2.88067 4.09151,3.60896 0.24637,0.33219 0.26039,0.64848 0.0401,0.90459 -0.22764,0.26464 -0.67128,0.28892 -1.42089,0.0778 -1.96605,-0.55381 -4.12231,-1.21187 -5.25335,-1.60326 -2.31595,-0.80141 -2.91091,-0.98047 -3.93673,-1.18483 -1.60708,-0.32015 -3.82876,-0.55618 -5.23089,-0.55574 -1.68157,7.8e-4 -4.20003,0.25113 -6.18041,0.61497 -2.70625,0.49721 -4.89259,0.53458 -7.176149,0.12266 -0.664468,-0.11985 -1.090031,-0.14871 -2.197481,-0.14901 -1.231395,0 -1.462185,0.0187 -2.231815,0.18376 -1.714778,0.36784 -5.984312,1.84166 -8.75559,3.02239 -4.239997,1.8065 -6.415517,2.47396 -7.03766,2.15918 z m 4.503361,-2.51319 c 0.638482,-0.25998 1.589011,-0.66271 2.112284,-0.89496 2.358279,-1.0467 6.850842,-2.69332 8.450811,-3.0974 1.77347,-0.4479 3.438758,-0.51268 5.327769,-0.20727 0.472111,0.0763 1.361978,0.17591 1.977462,0.22128 0.97566,0.0719 1.2837,0.0669 2.4035,-0.0393 0.70642,-0.067 1.9488,-0.22628 2.76084,-0.35389 1.92147,-0.30198 2.85549,-0.42356 3.9486,-0.514 0.491,-0.0406 0.93908,-0.0898 0.99574,-0.10923 0.22047,-0.0757 3.38467,-0.0248 4.36062,0.0701 1.25329,0.12196 2.52584,0.33203 3.39923,0.56114 1.01296,0.26573 4.2874,1.35844 5.0074,1.67103 0.35572,0.15444 0.65836,0.2692 0.67253,0.25505 0.0547,-0.0547 -1.23172,-1.02217 -1.84346,-1.38642 -1.06267,-0.63275 -2.73641,-1.4344 -3.54275,-1.69683 -1.82411,-0.59368 -4.74373,-1.1824 -7.09218,-1.43009 -1.38503,-0.14607 -4.72648,0.0437 -6.9718,0.39598 -1.15832,0.18171 -3.20438,0.16792 -4.187277,-0.0283 -1.760346,-0.35131 -3.705754,-0.45344 -4.979669,-0.2614 -1.875565,0.28274 -4.479829,1.51644 -8.99493,4.26109 -1.378576,0.83802 -3.031837,1.83667 -3.673915,2.21924 -1.271462,0.75756 -1.393707,0.83423 -1.332552,0.83581 0.02249,7.8e-4 0.563256,-0.21166 1.201747,-0.47164 z m -29.294831,22.94747 c -0.457852,-0.1653 -0.455603,-0.54698 0.0093,-1.51614 0.520141,-1.08525 0.544455,-1.16673 0.433948,-1.4546 -0.129382,-0.33704 -0.43023,-1.41172 -0.915909,-3.27175 -0.737575,-2.82473 -1.468411,-4.80498 -2.627536,-7.1195 -0.751079,-1.49971 -1.669516,-2.95299 -3.47124,-5.49258 -1.426561,-2.01079 -1.877535,-2.77879 -2.657231,-4.52521 -1.59179,-3.56539 -2.139888,-5.26404 -3.131404,-9.70471 -0.303599,-1.35969 -0.646298,-2.82754 -0.761572,-3.26188 -0.538431,-2.02894 -1.356121,-4.20006 -2.849998,-7.56728 -0.44077,-0.99349 -1.073044,-2.43985 -1.405055,-3.21411 -0.558915,-1.30341 -1.003914,-2.31009 -2.246322,-5.08168 -1.088825,-2.42895 -1.873539,-4.91127 -2.37709,-7.5195 -0.348025,-1.80266 -0.468216,-3.16126 -0.592356,-6.69545 -0.145489,-4.142 -0.241087,-5.4182 -0.686746,-9.16761 -0.367877,-3.09493 -0.443632,-3.83344 -0.72131,-7.03133 -0.297995,-3.43181 -0.397906,-5.41422 -0.344716,-6.84027 0.246013,-6.59637 0.686783,-10.59607 1.751926,-15.897395 0.695919,-3.463647 1.429962,-6.262138 2.483358,-9.467615 1.318731,-4.012887 2.332999,-6.534945 3.482886,-8.660483 0.500456,-0.925073 2.714482,-4.595438 3.181563,-5.274312 0.113081,-0.164355 0.187071,-0.317354 0.16444,-0.339985 -0.08495,-0.08495 -1.194331,0.20972 -1.723199,0.457722 -0.720511,0.337885 -1.946283,1.097636 -2.5065,1.553592 -0.245502,0.199803 -0.797038,0.721134 -1.225633,1.158511 -0.777846,0.793786 -0.967221,0.909747 -1.164125,0.712834 -0.135061,-0.135061 -0.09393,-0.586128 0.08578,-0.940779 0.238197,-0.470065 0.780105,-1.171523 1.668169,-2.159331 0.91102,-1.013338 1.32414,-1.37746 2.074513,-1.828454 1.146048,-0.68879 2.30125,-0.931132 4.157995,-0.872254 0.75463,0.02388 1.369821,0.0777 1.579438,0.13809 0.337579,0.09723 1.950252,0.181755 5.734051,0.300542 3.809088,0.119595 7.382795,-0.118323 11.159084,-0.742891 2.226898,-0.368314 2.923403,-0.51173 4.978668,-1.025142 2.827209,-0.706264 6.830598,-2.04455 10.575381,-3.535239 0.887571,-0.353322 2.046398,-0.810264 2.575164,-1.01543 0.528775,-0.205166 1.594894,-0.658901 2.369162,-1.008291 0.774268,-0.349391 1.778582,-0.797996 2.231815,-0.996907 0.453233,-0.198902 1.225782,-0.553767 1.716786,-0.788577 0.490995,-0.234814 1.433513,-0.6734 2.094467,-0.974629 0.660965,-0.301229 1.773443,-0.838703 2.472168,-1.194395 0.698736,-0.355692 2.583763,-1.290004 4.188955,-2.076261 3.02178,-1.480131 6.011631,-3.151674 8.068862,-4.511103 1.14959,-0.759649 3.83199,-2.636106 4.60097,-3.218573 0.8661,-0.656029 3.92958,-3.111272 4.49797,-3.604907 1.06628,-0.926058 4.4201,-4.015266 5.97484,-5.503437 2.31433,-2.215244 3.46882,-3.216509 5.32158,-4.61529 1.11928,-0.845024 2.48803,-1.607897 3.59871,-2.005747 0.55933,-0.200351 2.24642,-0.557605 2.97999,-0.631046 l 0.46696,-0.04675 -0.1751,-0.182776 c -0.20324,-0.212127 -0.21594,-0.296285 -0.0672,-0.445036 0.17556,-0.175555 0.48436,-0.126603 1.32751,0.210454 3.60999,1.443123 11.63019,6.067261 15.42338,8.892537 0.52876,0.393844 1.33222,0.975837 1.78545,1.293331 0.9755,0.683335 2.53964,1.850945 3.26189,2.434927 3.12794,2.529177 6.18906,5.435265 7.13063,6.769499 0.17325,0.245502 0.51245,0.674998 0.75379,0.954452 0.24135,0.279453 0.57465,0.720027 0.74069,0.979052 0.57888,0.903111 2.07901,4.047601 3.13994,6.581732 0.24509,0.585423 0.55308,1.296162 0.68441,1.579435 0.3213,0.693001 1.04895,2.834673 1.10825,3.261882 0.0262,0.188846 0.17002,0.784538 0.31958,1.323751 0.5716,2.060767 1.006,4.167568 1.32707,6.436103 0.69328,4.898368 0.7765,8.38327 0.38536,16.137752 -0.31504,6.245753 -0.33023,8.028498 -0.10121,11.880127 0.24473,4.11604 0.38026,5.68651 0.78819,9.13327 0.37452,3.16463 0.74,6.95556 1.2016,12.46384 0.52763,6.29624 -0.28238,16.78277 -1.99976,25.88907 -0.80296,4.25758 -2.69621,11.51698 -3.71191,14.23276 -0.17291,0.46232 -0.74627,1.79855 -1.27414,2.96939 -0.52786,1.17084 -1.28287,2.94772 -1.67778,3.9486 -1.05246,2.66733 -1.35359,3.38696 -2.0547,4.90999 -1.45247,3.15527 -2.09286,4.40846 -3.84253,7.51951 -1.84489,3.28037 -2.11479,4 -2.40815,6.42076 -0.064,0.52877 -0.12062,1.44285 -0.12568,2.03127 -0.0101,1.18693 -0.0543,1.33382 -0.46435,1.54586 -0.49109,0.25394 -1.23403,-0.0808 -1.66396,-0.74962 -0.12562,-0.19544 -0.62332,-1.09699 -1.10602,-2.00345 -0.48267,-0.90647 -1.26423,-2.26616 -1.73677,-3.02154 -0.82175,-1.31361 -2.02253,-3.40529 -3.31148,-5.76838 -0.32961,-0.60431 -0.69313,-1.25775 -0.8078,-1.45207 -0.11467,-0.19432 -0.46221,-0.90508 -0.77232,-1.57944 -0.70653,-1.53646 -1.37999,-2.88329 -2.26862,-4.53701 -1.62073,-3.0161 -1.91113,-3.42209 -3.8207,-5.34168 -3.4804,-3.49868 -6.18794,-5.31173 -11.5779,-7.75295 -0.63481,-0.28751 -1.67003,-0.72736 -2.30049,-0.97744 -1.16145,-0.46068 -2.40754,-0.99551 -4.34087,-1.86313 -1.86635,-0.83753 -4.86783,-1.90789 -6.69409,-2.38714 -1.6273,-0.42705 -1.90584,-0.45483 -4.0516,-0.40399 -1.56458,0.0371 -2.12111,0.0242 -2.98721,-0.0692 -0.58542,-0.0631 -1.11695,-0.13049 -1.18117,-0.14963 -0.16337,-0.0487 -2.043241,0.28815 -2.477501,0.44395 -0.794279,0.28493 -1.207919,0.40999 -1.732008,0.52365 -1.37193,0.29753 -3.680244,1.44621 -7.262223,3.61385 -0.60508,0.36617 -1.412388,0.95656 -2.111402,1.54409 -0.787521,0.66193 -2.328752,2.01312 -3.133857,2.74744 -0.460195,0.41974 -1.264399,1.11456 -1.787133,1.54407 -1.31085,1.07706 -2.744948,2.31571 -4.006279,3.46027 -0.585422,0.53122 -1.606958,1.44874 -2.270069,2.0389 -0.673307,0.59924 -1.992308,1.9016 -2.987207,2.94952 -0.979842,1.03206 -2.480374,2.60338 -3.334524,3.49181 -2.203106,2.29156 -3.277488,3.53059 -4.526857,5.22059 -3.20479,4.33502 -4.875263,6.83889 -6.952174,10.42059 -1.999957,3.44899 -2.284094,3.98232 -3.78326,7.10108 -0.284184,0.5912 -0.613248,1.18488 -0.731264,1.31929 -0.335199,0.38177 -0.798851,0.6267 -1.029027,0.54361 z m 5.715389,-13.20416 c 2.023173,-3.40578 4.868515,-7.32615 7.252575,-9.99274 0.641047,-0.71702 2.211368,-2.33614 3.489587,-3.59805 1.278228,-1.26191 3.142947,-3.10228 4.143831,-4.08971 1.000884,-0.98745 2.409285,-2.30354 3.129786,-2.92465 0.720493,-0.62111 1.721321,-1.48468 2.224055,-1.91903 1.413707,-1.22139 3.307999,-2.64986 4.518715,-3.40753 0.329901,-0.20644 1.295106,-0.93947 2.144916,-1.62894 2.950932,-2.39418 3.897707,-3.04528 5.932405,-4.07972 l 0.625702,-0.31811 -0.332392,-0.0506 c -0.478429,-0.073 -1.19052,-0.30498 -1.607246,-0.52367 -0.621799,-0.3263 -1.552124,-1.02608 -2.192465,-1.64915 -1.633353,-1.5893 -2.650585,-4.02195 -2.648652,-6.33406 0.0019,-2.09307 0.656345,-3.60029 3.012254,-6.93579 l 0.557781,-0.78973 0.0448,-1.13307 c 0.07054,-1.78306 0.274936,-3.04777 0.76635,-4.74121 0.51791,-1.78472 1.058758,-2.93017 2.187269,-4.63242 0.897162,-1.35327 1.633204,-2.3143 2.466201,-3.22005 0.547363,-0.59517 1.079725,-0.98321 1.225372,-0.89319 0.156874,0.097 0.0019,0.36166 -0.569064,0.97175 -1.57021,1.67792 -3.281029,4.3128 -4.038716,6.22017 -0.476645,1.19988 -0.892088,2.95567 -1.075144,4.54383 -0.122123,1.05964 -0.108099,2.65875 0.04024,4.58475 0.09192,1.19366 0.07156,1.39211 -0.150118,1.46247 -0.224711,0.0713 -0.358164,-0.14498 -0.496433,-0.80468 -0.06608,-0.3151 -0.151167,-0.69466 -0.189161,-0.84349 l -0.06906,-0.2706 -0.533208,0.81997 c -1.352506,2.07987 -1.771788,2.90512 -2.071651,4.07758 -0.349456,1.36637 -0.30437,2.30336 0.185639,3.858 0.414626,1.31544 1.235485,2.47806 2.367081,3.35261 1.279548,0.98891 2.070434,1.37124 3.171536,1.53321 0.618509,0.091 1.348425,0.0191 2.558323,-0.25215 0.415463,-0.0931 0.987148,-0.18977 1.270421,-0.21476 0.468578,-0.0414 1.182684,-0.18225 1.442089,-0.28455 0.05669,-0.0223 -0.175109,-0.0824 -0.515027,-0.13353 -1.322709,-0.19885 -3.669166,-0.88493 -4.677011,-1.36751 -1.628985,-0.77999 -2.029447,-2.27153 -0.89063,-3.31715 0.92012,-0.84482 2.133131,-0.91071 3.251446,-0.17662 0.402013,0.26389 1.256108,0.98975 1.938504,1.64745 0.65494,0.63125 1.660443,1.3594 2.403497,1.74053 0.620954,0.3185 1.655881,0.65367 2.575161,0.83396 0.74429,0.14598 2.09291,-0.0647 2.8261,-0.44143 0.75219,-0.38651 2.06668,-1.64014 3.25698,-3.10616 1.15171,-1.41851 2.08149,-2.3301 2.70552,-2.65259 0.55952,-0.28916 1.21118,-0.46567 1.71916,-0.46567 0.41532,0 0.56006,0.034 0.92829,0.218 1.204,0.60164 2.08811,2.16583 2.08922,3.69627 0,0.47014 -0.0303,0.64657 -0.15748,0.90687 -0.31412,0.64288 -0.99354,1.04159 -2.24331,1.31647 -1.22046,0.26843 -1.69519,0.32134 -3.41902,0.3811 -0.89862,0.0311 -1.65241,0.0752 -1.6751,0.0979 -0.0498,0.0498 -0.0478,0.0504 0.93111,0.28166 0.42958,0.10147 1.4939,0.43008 2.36516,0.73025 l 1.58412,0.54575 0.67936,-0.0697 c 0.72549,-0.0745 1.47477,-0.22796 1.71965,-0.3523 0.0824,-0.0418 0.50036,-0.31219 0.92881,-0.60077 0.65955,-0.44424 0.81331,-0.58314 1.0027,-0.90582 0.50213,-0.85556 0.78206,-1.88927 0.92888,-3.43014 0.14397,-1.51096 -0.19666,-3.89548 -0.77655,-5.43612 -0.3896,-1.03507 -0.74809,-1.61554 -1.63652,-2.6499 -0.3325,-0.38712 -0.68678,-0.82809 -0.78727,-0.97996 -0.10049,-0.15185 -0.19437,-0.26445 -0.20861,-0.2502 -0.0142,0.0142 -0.19616,0.65087 -0.40426,1.41475 -0.2081,0.76389 -0.44388,1.52823 -0.52393,1.69855 -0.16556,0.35221 -0.40272,0.50542 -0.56889,0.36752 -0.14349,-0.1191 -0.13586,-0.25597 0.0978,-1.75281 0.26362,-1.68868 0.42854,-3.94512 0.33604,-4.59778 -0.15073,-1.06349 -0.92132,-2.99331 -1.76992,-4.4325 -0.70052,-1.18802 -1.04159,-1.69031 -2.16832,-3.1932 -1.40721,-1.87702 -1.9285,-2.68199 -2.56112,-3.95479 -0.63202,-1.2716 -1.03313,-2.3694 -1.0911,-2.98623 -0.0577,-0.61442 0.13832,-0.89502 0.41316,-0.59133 0.062,0.0685 0.42497,0.75604 0.80666,1.52793 0.92493,1.87046 1.28713,2.47097 2.28678,3.79137 0.46399,0.61286 1.18331,1.56238 1.59848,2.11003 0.96192,1.26889 1.19682,1.62162 1.79828,2.70033 0.55531,0.99596 0.77273,1.4708 1.24209,2.71291 0.52067,1.37781 0.69156,2.19769 0.69156,3.31776 v 0.73989 l 1.20615,1.18745 c 1.2064,1.18772 1.60315,1.68501 2.18044,2.73301 0.71042,1.28973 1.23282,4.1108 1.12216,6.05996 -0.0844,1.48614 -0.45494,3.14354 -0.90079,4.02888 -0.27607,0.54819 -0.95427,1.41627 -1.36448,1.74649 -0.46392,0.37346 -1.22483,0.78387 -1.54928,0.83565 l -0.30154,0.048 0.88525,0.35916 c 0.48688,0.19754 1.48782,0.63078 2.22433,0.96277 0.7365,0.33198 1.80262,0.79666 2.36915,1.03263 1.69499,0.70595 2.10388,0.89415 4.3263,1.99127 4.59119,2.26653 7.54816,4.35786 10.64814,7.53093 1.42791,1.46158 2.17099,2.43867 3.3594,4.41732 0.29491,0.49101 0.88416,1.41807 1.30945,2.06015 1.98377,2.99496 2.24517,3.46749 3.87486,7.00446 1.02799,2.23105 2.38401,4.74853 3.93936,7.31349 0.37791,0.62319 0.69721,1.14596 0.70958,1.1617 0.0539,0.0686 0.0802,-0.0764 0.15465,-0.85267 0.19844,-2.06885 0.58278,-3.24499 1.90744,-5.83706 3.27679,-6.41199 4.57629,-9.11837 5.49004,-11.43377 0.32046,-0.81204 0.7709,-1.95541 1.00098,-2.54084 0.38434,-0.97794 0.77834,-1.8801 2.09937,-4.80698 0.57406,-1.27189 1.03869,-2.59545 1.62721,-4.63532 1.83251,-6.35157 2.77915,-10.7346 3.63375,-16.82446 0.87017,-6.20088 1.37762,-14.24969 1.14732,-18.19789 -0.13599,-2.33133 -0.71934,-8.44576 -1.14325,-11.98313 -0.45333,-3.78282 -0.577,-4.90756 -0.71727,-6.52377 -0.49075,-5.65437 -0.52235,-9.326556 -0.13828,-16.069753 0.23231,-4.078429 0.29417,-6.243726 0.25012,-8.754901 -0.11686,-6.664496 -0.92172,-11.629994 -2.83841,-17.511179 -0.37619,-1.15431 -1.84175,-4.179163 -3.09426,-6.386423 -0.45007,-0.793154 -0.99703,-1.766565 -1.21545,-2.163142 -1.01049,-1.834699 -1.82407,-2.838817 -3.95754,-4.884343 -2.87444,-2.755961 -4.40147,-4.014188 -8.20122,-6.757603 -0.41546,-0.299965 -1.22434,-0.921216 -1.7975,-1.380564 -1.45909,-1.169348 -2.76247,-2.063974 -4.79931,-3.294198 -1.96581,-1.187332 -3.36631,-1.968998 -4.91973,-2.745868 -0.57766,-0.288887 -1.54404,-0.78873 -2.14751,-1.110759 l -1.0972,-0.585506 -1.89,0.466329 c -2.24005,0.552698 -2.7084,0.701477 -3.57244,1.134895 -0.91493,0.458958 -1.73548,1.01463 -2.99724,2.029725 -1.79961,1.447816 -2.38175,1.969175 -4.24757,3.804199 -4.41078,4.337937 -5.75055,5.559527 -8.54958,7.79545 -2.41532,1.929387 -2.92565,2.30468 -5.17525,3.805742 -1.98564,1.32494 -2.55022,1.672639 -4.747741,2.923923 -1.939307,1.104244 -2.569963,1.429266 -5.734044,2.955142 -1.151969,0.555533 -3.010396,1.454471 -4.129854,1.997652 -1.119458,0.543181 -2.052291,0.98759 -2.072961,0.98759 -0.02063,0 -0.758004,0.335245 -1.63853,0.745001 -0.880527,0.409746 -1.940884,0.89259 -2.356346,1.072988 -0.415453,0.180397 -1.357971,0.598787 -2.094467,0.929766 -4.595912,2.06534 -11.067863,4.419873 -15.760061,5.733605 -2.854674,0.799259 -6.208251,1.416987 -9.304951,1.713997 -3.293287,0.315849 -6.636836,0.305858 -11.159083,-0.03337 -0.491004,-0.0368 -1.423819,-0.06701 -2.072924,-0.0671 h -1.180195 l -0.442563,0.738217 c -0.243411,0.406019 -0.767827,1.309902 -1.16537,2.008637 -0.397544,0.698726 -0.944907,1.655212 -1.216358,2.125519 -1.370462,2.374376 -2.30112,4.616804 -3.848875,9.273908 -1.533591,4.614444 -2.29139,7.654961 -3.018305,12.110319 -0.814083,4.989565 -1.116028,8.617865 -1.126651,13.538395 -0.0065,2.92838 -0.0046,2.97479 0.25342,5.59671 0.442583,4.50419 0.524454,5.25834 0.801435,7.38216 0.537186,4.11893 0.601687,4.90292 0.689264,8.37789 0.151939,6.02838 0.260048,7.08304 1.041816,10.16335 0.554185,2.18356 0.970502,3.29383 2.549234,6.79846 1.017391,2.25849 3.642836,8.36915 4.217375,9.81584 0.966208,2.43289 1.551714,4.41408 2.24768,7.60558 0.778078,3.568 1.204526,4.92386 2.575843,8.1896 1.208857,2.87885 1.586585,3.57885 3.016519,5.59008 1.682287,2.36619 2.697428,3.95108 3.306095,5.16164 0.509759,1.01388 1.522884,3.45153 1.854607,4.46233 0.179728,0.54765 0.391121,1.33566 0.469758,1.75112 0.232146,1.22641 0.765178,4.14482 0.765178,4.18942 0,0.0226 0.832225,-1.62149 1.849393,-3.65359 1.195632,-2.38862 2.173866,-4.24092 2.767254,-5.23981 z m 14.204991,-55.60427 c -0.376074,-0.30683 0.0316,-0.53554 1.542931,-0.8655 0.602365,-0.13152 1.481479,-0.3216 1.953589,-0.42243 1.245512,-0.26595 2.176487,-0.59645 3.226491,-1.14536 2.021295,-1.05671 3.539337,-2.04274 5.28275,-3.43138 1.754436,-1.39741 4.38845,-4.2313 5.63481,-6.06239 0.125971,-0.18509 0.412739,-0.54995 0.637255,-0.81081 0.304807,-0.35415 0.445686,-0.46895 0.556146,-0.45321 0.202099,0.0288 0.165871,0.33277 -0.08848,0.74213 -1.334429,2.1478 -2.636125,4.05132 -3.496614,5.11324 -1.755114,2.16598 -4.455655,4.2419 -7.529092,5.78766 -1.412982,0.71066 -2.205717,0.9485 -4.426481,1.32807 -0.889124,0.15196 -1.956507,0.29409 -2.371969,0.31583 -0.683977,0.0358 -0.77108,0.0268 -0.921356,-0.0958 z m 53.214517,-0.096 c -2.22394,-0.19647 -4.78792,-1.04265 -6.51638,-2.15056 -1.56248,-1.00154 -4.67704,-3.63527 -4.67704,-3.95502 0,-0.35479 0.55754,-0.33805 1.27985,0.0385 0.55781,0.29076 1.74108,1.06451 3.06957,2.00724 1.24024,0.88011 1.82565,1.2186 2.87124,1.66018 2.77915,1.17372 4.77346,1.40451 8.91489,1.03165 1.23483,-0.11117 2.4441,-0.47089 4.08814,-1.21613 1.196,-0.54214 1.31981,-0.58892 1.43814,-0.54351 0.15124,0.0581 0.13267,0.33752 -0.0367,0.5529 -0.58283,0.74095 -3.71012,2.11007 -5.41865,2.37227 -0.53537,0.0822 -3.52545,0.28297 -4.01464,0.26962 -0.1903,-0.006 -0.63955,-0.0354 -0.99837,-0.0671 z m 0.33059,-10.56931 c -1.81723,-0.13167 -4.62522,-0.6467 -5.96164,-1.09346 -1.95051,-0.65205 -3.85844,-1.67503 -5.78264,-3.1005 -0.33856,-0.25081 -0.69737,-0.44737 -0.99573,-0.54547 -0.90453,-0.29742 -1.29745,-0.59918 -1.37109,-1.05301 -0.0332,-0.20426 0.007,-0.35118 0.20877,-0.75888 0.3285,-0.66467 0.83365,-1.13068 1.72954,-1.59554 1.06015,-0.55009 2.09586,-0.70774 4.6917,-0.71419 2.93053,-0.007 5.07083,0.17793 7.66554,0.66327 2.82107,0.52769 5.14742,1.15555 7.36407,1.98749 2.17023,0.81452 3.9276,1.91722 4.4235,2.77564 0.19994,0.34611 0.92545,0.93018 1.45201,1.16893 0.24703,0.11201 0.84179,0.30199 1.32167,0.42217 0.99884,0.25013 1.27238,0.41213 1.13363,0.67139 -0.0834,0.15571 -0.0889,0.15623 -1.39984,0.13149 -1.26535,-0.0239 -1.33085,-0.032 -1.69643,-0.21031 -0.20914,-0.10202 -0.50921,-0.29587 -0.66682,-0.43078 l -0.28656,-0.24529 -0.36246,0.24933 c -0.45768,0.31483 -1.32695,0.73707 -1.96221,0.95314 -0.68363,0.23252 -1.33705,0.35469 -3.00281,0.56145 -1.21256,0.15049 -1.78093,0.18235 -3.5709,0.20013 -1.17085,0.0116 -2.48994,-0.005 -2.9313,-0.037 z m 4.33903,-1.23564 c 1.51634,-0.10352 3.54862,-0.39184 4.35193,-0.6174 0.71448,-0.20062 2.06086,-0.75385 2.22118,-0.91269 0.14107,-0.13977 -0.20065,-0.48742 -0.99978,-1.01715 -1.29669,-0.85955 -2.67146,-1.43584 -5.54536,-2.32456 -0.85942,-0.26578 -1.58812,-0.48322 -1.61932,-0.48322 -0.0312,0 -0.0572,0.16224 -0.0577,0.36052 -0.004,1.25943 -0.90713,2.87444 -2.04209,3.64992 -0.6532,0.44631 -1.33362,0.67141 -2.14584,0.7099 -1.92844,0.0914 -3.68694,-0.99041 -4.62497,-2.8451 -0.36027,-0.71235 -0.54073,-1.49106 -0.55064,-2.37609 -0.009,-0.7853 -0.0139,-0.81106 -0.16767,-0.84969 -0.0873,-0.0219 -0.89068,-0.0224 -1.78545,-9.3e-4 -1.91195,0.0455 -2.78772,0.17942 -3.24507,0.49636 -0.71227,0.49361 -1.30031,1.14647 -1.30031,1.44365 0,0.12345 0.0676,0.18005 0.32618,0.27332 0.67173,0.24224 1.17524,0.50737 2.04297,1.07571 0.491,0.3216 1.3099,0.79291 1.81979,1.04735 0.50988,0.25445 0.95797,0.48576 0.99574,0.51402 0.25108,0.1879 2.48005,0.9791 3.29621,1.17005 1.76636,0.41325 3.4437,0.62494 5.42503,0.68469 2.4469,0.0738 2.54631,0.0738 3.60523,0.002 z m -5.03653,-1.87992 c 0.19476,-0.0614 0.50379,-0.21388 0.68671,-0.33872 0.58787,-0.40121 1.28709,-1.46445 1.5685,-2.38509 0.32379,-1.05926 0.31214,-0.95449 0.11124,-0.99978 -0.0989,-0.0223 -0.34971,-0.0817 -0.55744,-0.13208 -1.79614,-0.43536 -3.93466,-0.7503 -5.56237,-0.81918 -0.54766,-0.0231 -1.08072,-0.0587 -1.18458,-0.079 l -0.18885,-0.0369 v 0.48906 c 0,2.16482 1.3739,3.97982 3.33056,4.39984 0.39818,0.0855 1.38518,0.0315 1.79623,-0.0981 z m -1.9204,-1.9243 c -0.38821,-0.10523 -0.76605,-0.44138 -0.87824,-0.78131 -0.0429,-0.12987 -0.0631,-0.39001 -0.0451,-0.57806 0.0264,-0.27477 0.0796,-0.38862 0.27062,-0.5797 0.20387,-0.20386 0.29477,-0.2424 0.63753,-0.27026 0.21987,-0.0178 0.42543,-0.0483 0.45681,-0.0678 0.12353,-0.0763 0.64743,0.13233 0.85608,0.34099 0.88116,0.88115 -0.0522,2.27371 -1.29772,1.93608 z m -51.825643,4.97467 c -2.223534,-0.15702 -3.810287,-0.50266 -5.948957,-1.29586 -0.585367,-0.2171 -1.783796,-0.79779 -2.237205,-1.08401 l -0.265977,-0.16791 -0.666755,0.61631 c -0.977472,0.90351 -1.500745,1.30468 -2.038248,1.56265 -0.554872,0.2663 -0.953745,0.30283 -1.063684,0.0974 -0.115478,-0.21577 -0.01905,-0.32923 0.595507,-0.70042 0.677609,-0.40929 0.998133,-0.66924 2.3547,-1.90974 1.264445,-1.15627 1.952892,-1.67735 2.643838,-2.00112 0.839438,-0.39335 2.553166,-0.97779 3.796904,-1.29488 1.484369,-0.37843 2.464026,-0.68903 4.443647,-1.40887 0.906466,-0.32961 2.142546,-0.77904 2.746853,-0.99873 1.838891,-0.6685 4.067574,-1.28851 5.292603,-1.47237 3.496789,-0.52481 4.930971,-0.42566 6.254182,0.43239 0.838425,0.54368 1.681079,1.48384 2.046465,2.28327 0.264796,0.57937 0.395452,1.47141 0.304798,2.08094 -0.145833,0.98052 -0.509769,1.3481 -1.543602,1.55901 -0.568507,0.11599 -0.810124,0.21076 -1.470047,0.57664 -1.662416,0.92171 -3.732431,1.70979 -5.837057,2.22225 -1.221246,0.29737 -2.608297,0.57667 -3.433562,0.69137 -1.398037,0.19432 -4.609202,0.3081 -5.974403,0.21168 z m 4.154612,-1.16958 c 1.65379,-0.11683 3.054672,-0.3573 5.244636,-0.90025 1.938829,-0.4807 3.57511,-1.10662 5.440684,-2.08119 0.520847,-0.27208 1.081101,-0.50722 1.407322,-0.59066 0.298097,-0.0762 0.595831,-0.19246 0.661652,-0.25829 0.279946,-0.27994 0.277185,-1.36328 -0.0046,-1.91619 -0.386307,-0.75724 -1.302244,-1.65803 -2.052951,-2.01902 -0.782531,-0.3763 -1.438392,-0.49789 -2.455402,-0.45521 -0.7641,0.0321 -2.783862,0.2695 -3.03482,0.35676 -0.05827,0.0203 -0.0448,0.1043 0.04749,0.29532 0.372282,0.77053 0.548413,2.07046 0.416131,3.07123 -0.160963,1.21775 -0.525345,1.94069 -1.440186,2.8573 -0.831649,0.83326 -1.847534,1.25947 -3.199649,1.34245 -0.826445,0.0508 -1.55585,-0.10399 -2.365975,-0.50182 -1.148064,-0.56379 -2.267234,-2.16343 -2.537867,-3.6274 -0.04089,-0.22105 -0.0842,-0.41177 -0.0962,-0.42384 -0.01208,-0.0121 -0.344372,0.0713 -0.738486,0.18519 -0.394113,0.1139 -1.334605,0.35824 -2.089987,0.54299 -1.433225,0.35055 -3.373811,0.94949 -3.845595,1.18692 -0.398947,0.20078 -1.142433,0.75794 -1.081854,0.81073 0.196104,0.17089 1.935855,0.89175 3.045991,1.26208 1.330665,0.44389 2.265413,0.65323 3.70124,0.82892 0.87943,0.1076 3.667335,0.12664 4.978668,0.034 z m 1.446645,-1.51524 c 0.224116,-0.0405 0.716496,-0.2205 1.094187,-0.40003 1.16314,-0.55289 1.696227,-1.29761 1.931357,-2.6981 0.106882,-0.63661 0.112644,-0.82859 0.0434,-1.44797 -0.07147,-0.63936 -0.291759,-1.4416 -0.41695,-1.51822 -0.05957,-0.0364 -2.128772,0.60775 -3.1716,0.98742 -0.434348,0.15813 -1.51149,0.54549 -2.393661,0.86078 -0.882163,0.31529 -1.620704,0.59002 -1.641197,0.61052 -0.08783,0.0877 0.145842,1.07329 0.359391,1.51607 0.295801,0.6133 0.62113,0.98956 1.218086,1.40879 0.870981,0.61166 1.969212,0.86279 2.976964,0.68074 z m -1.309307,-2.1632 c -1.034074,-0.53781 -0.937081,-1.8426 0.164755,-2.21632 0.963904,-0.32694 1.992512,0.4412 1.790469,1.33706 -0.08393,0.37195 -0.266414,0.58517 -0.683456,0.79841 -0.427414,0.21854 -0.943884,0.25138 -1.271768,0.0809 z m -25.762696,-7.64447 c -0.357821,-0.0927 -0.661755,-0.30578 -0.880806,-0.61773 -0.186726,-0.26592 -0.206894,-0.34617 -0.206281,-0.82076 7.81e-4,-0.45417 0.02872,-0.57712 0.206012,-0.90008 0.425276,-0.77471 1.746229,-2.00284 3.116932,-2.8979 2.032663,-1.32732 6.782753,-3.2504 8.767254,-3.54945 0.827532,-0.12469 3.656526,-0.23821 4.905264,-0.19683 1.363965,0.0452 3.354915,0.25411 4.772647,0.50077 0.528775,0.092 2.051975,0.35223 3.384908,0.57831 2.700299,0.45801 3.965952,0.72666 5.846155,1.24099 2.738888,0.7492 4.316375,1.3765 5.60688,2.22968 1.000122,0.6612 1.425854,1.27634 1.42763,2.06279 0.0028,1.22654 -1.154329,1.81346 -3.575129,1.81346 -1.135063,0 -5.398583,-0.31578 -10.218276,-0.75682 -4.162373,-0.38088 -5.04526,-0.43192 -7.519501,-0.43463 -4.358765,-0.005 -7.202518,0.27508 -11.109797,1.09337 -3.196899,0.66951 -4.011558,0.78742 -4.523892,0.65483 z m 1.804149,-1.48023 c 0.448986,-0.0925 1.677249,-0.35661 2.729483,-0.58705 2.384823,-0.52226 3.553688,-0.72143 5.222953,-0.88999 2.05493,-0.20749 3.755628,-0.29082 5.911436,-0.28964 2.312543,9.3e-4 3.303446,0.0582 7.416495,0.42564 8.864051,0.79198 11.221001,0.92163 12.06898,0.66391 0.35335,-0.1074 0.394857,-0.13947 0.394857,-0.30511 0,-0.28975 -0.668372,-0.87604 -1.484045,-1.30179 -2.151635,-1.12308 -5.670832,-2.12053 -10.121394,-2.86875 -1.038656,-0.17461 -2.444705,-0.42167 -3.124545,-0.54902 -3.464065,-0.64886 -6.603006,-0.73461 -10.305575,-0.2815 -0.787502,0.0964 -0.904198,0.13271 -2.33482,0.72687 -1.675242,0.69574 -4.0118,1.81479 -4.905116,2.3492 -1.619932,0.9691 -3.23545,2.52909 -3.068817,2.96335 0.0632,0.16457 0.623807,0.14491 1.600108,-0.0561 z m 92.62981,0.99832 c -0.26439,-0.0722 -0.95381,-0.33545 -1.53205,-0.58501 -1.15794,-0.49974 -3.50805,-1.30849 -4.57969,-1.57604 -1.27954,-0.31945 -1.87876,-0.3969 -3.36489,-0.43499 -2.14514,-0.055 -4.27252,0.12871 -9.30496,0.80344 -5.16092,0.69195 -5.7784,0.74462 -9.40797,0.80254 -3.3001,0.0526 -5.41214,-0.0815 -7.31348,-0.46439 -0.82611,-0.16638 -2.35032,-0.6645 -3.02228,-0.98769 -1.08217,-0.52051 -2.85773,-1.86208 -3.70807,-2.80174 -0.50555,-0.55864 -1.20782,-1.61312 -1.51023,-2.26767 -0.56348,-1.21955 -1.339067,-3.631934 -1.339067,-4.164966 0,-0.226282 0.14071,-0.367876 0.303497,-0.305402 0.12925,0.04963 0.38058,0.514565 0.59844,1.107069 0.21171,0.575849 1.07868,2.466349 1.31432,2.865999 0.76699,1.30082 2.03753,2.49934 3.86115,3.6423 0.69672,0.43667 0.54624,0.42499 1.9228,0.14924 0.491,-0.0984 1.31515,-0.25768 1.83143,-0.35404 1.81848,-0.33942 4.3597,-1.10504 8.18047,-2.46462 0.59656,-0.21228 1.63178,-0.54244 2.30049,-0.7337 0.66871,-0.19126 1.94204,-0.576 2.82962,-0.855 2.97494,-0.93511 5.47729,-1.595693 7.17615,-1.894412 2.55348,-0.448986 7.60088,0.07296 10.02742,1.036843 1.18175,0.469442 2.56645,1.249609 3.5042,1.974359 0.68279,0.5277 2.16209,2.03481 2.73832,2.7898 0.60015,0.78636 1.12975,1.68082 1.2765,2.15595 0.34288,1.11008 0.0395,2.07181 -0.79065,2.50629 -0.39433,0.20638 -1.3428,0.23298 -1.99147,0.0559 z m 1.50587,-1.48751 c 0.0674,-0.0674 0.10788,-0.22862 0.10785,-0.42919 0,-0.70917 -0.72384,-1.77047 -2.25691,-3.30964 -0.77124,-0.77432 -1.17997,-1.12362 -1.75769,-1.50223 -0.86616,-0.56763 -2.37677,-1.34926 -3.12716,-1.61809 -1.09527,-0.39238 -2.59485,-0.691259 -4.46363,-0.88965 -3.50145,-0.371706 -4.78639,-0.165146 -10.57537,1.70004 -1.2275,0.3955 -2.84986,0.90506 -3.60524,1.13236 -0.75538,0.22732 -1.86786,0.58775 -2.47217,0.80096 -2.21921,0.78299 -3.32156,1.14392 -4.41549,1.44572 -1.60407,0.44254 -3.46242,0.89467 -4.09431,0.99613 -0.62936,0.10107 -0.58365,0.13978 0.35559,0.30118 1.83892,0.316 4.11636,0.41772 7.13197,0.31853 2.76142,-0.0908 3.93701,-0.18663 6.75629,-0.55064 9.17519,-1.18464 11.36578,-1.34401 13.70712,-0.99719 1.8843,0.27912 4.88034,1.22028 6.82028,2.14249 1.21313,0.57671 1.6622,0.68588 1.88887,0.45922 z"
       style="fill:#ffffff;stroke-width:0.0686713" />
  </g>
</svg>
